%TF.GenerationSoftware,KiCad,Pcbnew,8.0.4*%
%TF.CreationDate,2024-08-14T23:05:24-07:00*%
%TF.ProjectId,SleepyWoof,536c6565-7079-4576-9f6f-662e6b696361,rev?*%
%TF.SameCoordinates,Original*%
%TF.FileFunction,Copper,L1,Top*%
%TF.FilePolarity,Positive*%
%FSLAX46Y46*%
G04 Gerber Fmt 4.6, Leading zero omitted, Abs format (unit mm)*
G04 Created by KiCad (PCBNEW 8.0.4) date 2024-08-14 23:05:24*
%MOMM*%
%LPD*%
G01*
G04 APERTURE LIST*
G04 Aperture macros list*
%AMRoundRect*
0 Rectangle with rounded corners*
0 $1 Rounding radius*
0 $2 $3 $4 $5 $6 $7 $8 $9 X,Y pos of 4 corners*
0 Add a 4 corners polygon primitive as box body*
4,1,4,$2,$3,$4,$5,$6,$7,$8,$9,$2,$3,0*
0 Add four circle primitives for the rounded corners*
1,1,$1+$1,$2,$3*
1,1,$1+$1,$4,$5*
1,1,$1+$1,$6,$7*
1,1,$1+$1,$8,$9*
0 Add four rect primitives between the rounded corners*
20,1,$1+$1,$2,$3,$4,$5,0*
20,1,$1+$1,$4,$5,$6,$7,0*
20,1,$1+$1,$6,$7,$8,$9,0*
20,1,$1+$1,$8,$9,$2,$3,0*%
G04 Aperture macros list end*
%TA.AperFunction,SMDPad,CuDef*%
%ADD10RoundRect,0.250000X-1.400000X0.750000X-1.400000X-0.750000X1.400000X-0.750000X1.400000X0.750000X0*%
%TD*%
%TA.AperFunction,TestPad*%
%ADD11C,1.100000*%
%TD*%
%TA.AperFunction,SMDPad,CuDef*%
%ADD12RoundRect,0.200000X-0.275000X0.200000X-0.275000X-0.200000X0.275000X-0.200000X0.275000X0.200000X0*%
%TD*%
%TA.AperFunction,SMDPad,CuDef*%
%ADD13C,1.000000*%
%TD*%
%TA.AperFunction,ComponentPad*%
%ADD14R,1.700000X1.700000*%
%TD*%
%TA.AperFunction,ComponentPad*%
%ADD15O,1.700000X1.700000*%
%TD*%
%TA.AperFunction,SMDPad,CuDef*%
%ADD16RoundRect,0.250000X0.312500X0.625000X-0.312500X0.625000X-0.312500X-0.625000X0.312500X-0.625000X0*%
%TD*%
%TA.AperFunction,SMDPad,CuDef*%
%ADD17RoundRect,0.112500X-0.187500X-0.112500X0.187500X-0.112500X0.187500X0.112500X-0.187500X0.112500X0*%
%TD*%
%TA.AperFunction,SMDPad,CuDef*%
%ADD18RoundRect,0.225000X0.250000X-0.225000X0.250000X0.225000X-0.250000X0.225000X-0.250000X-0.225000X0*%
%TD*%
%TA.AperFunction,SMDPad,CuDef*%
%ADD19RoundRect,0.200000X0.275000X-0.200000X0.275000X0.200000X-0.275000X0.200000X-0.275000X-0.200000X0*%
%TD*%
%TA.AperFunction,SMDPad,CuDef*%
%ADD20RoundRect,0.200000X0.200000X0.275000X-0.200000X0.275000X-0.200000X-0.275000X0.200000X-0.275000X0*%
%TD*%
%TA.AperFunction,SMDPad,CuDef*%
%ADD21RoundRect,0.100000X0.100000X-0.637500X0.100000X0.637500X-0.100000X0.637500X-0.100000X-0.637500X0*%
%TD*%
%TA.AperFunction,SMDPad,CuDef*%
%ADD22RoundRect,0.225000X-0.250000X0.225000X-0.250000X-0.225000X0.250000X-0.225000X0.250000X0.225000X0*%
%TD*%
%TA.AperFunction,SMDPad,CuDef*%
%ADD23RoundRect,0.218750X-0.218750X-0.256250X0.218750X-0.256250X0.218750X0.256250X-0.218750X0.256250X0*%
%TD*%
%TA.AperFunction,SMDPad,CuDef*%
%ADD24RoundRect,0.225000X0.225000X0.250000X-0.225000X0.250000X-0.225000X-0.250000X0.225000X-0.250000X0*%
%TD*%
%TA.AperFunction,ViaPad*%
%ADD25C,0.600000*%
%TD*%
%TA.AperFunction,Conductor*%
%ADD26C,0.300000*%
%TD*%
%TA.AperFunction,Conductor*%
%ADD27C,0.228600*%
%TD*%
%TA.AperFunction,Conductor*%
%ADD28C,0.304800*%
%TD*%
%TA.AperFunction,Conductor*%
%ADD29C,0.254000*%
%TD*%
%TA.AperFunction,Conductor*%
%ADD30C,0.900000*%
%TD*%
%TA.AperFunction,Conductor*%
%ADD31C,0.150000*%
%TD*%
G04 APERTURE END LIST*
D10*
%TO.P,C3,1*%
%TO.N,/WDT-VIN*%
X188160000Y-107572500D03*
%TO.P,C3,2*%
%TO.N,GND*%
X188160000Y-113772500D03*
%TD*%
%TO.P,C2,1*%
%TO.N,/WDT-VIN*%
X181525000Y-107572500D03*
%TO.P,C2,2*%
%TO.N,GND*%
X181525000Y-113772500D03*
%TD*%
%TO.P,C1,1*%
%TO.N,/WDT-VIN*%
X174890000Y-107572500D03*
%TO.P,C1,2*%
%TO.N,GND*%
X174890000Y-113772500D03*
%TD*%
D11*
%TO.P,TP5,1,1*%
%TO.N,Net-(U1D-+)*%
X168405000Y-99135000D03*
%TD*%
D12*
%TO.P,R10,1*%
%TO.N,Net-(R10-Pad1)*%
X175530000Y-102810000D03*
%TO.P,R10,2*%
%TO.N,Net-(U1B-+)*%
X175530000Y-104460000D03*
%TD*%
D11*
%TO.P,TP6,1,1*%
%TO.N,WDT_OUT*%
X179017500Y-96835000D03*
%TD*%
D13*
%TO.P,FID3,*%
%TO.N,*%
X213370000Y-123120000D03*
%TD*%
D12*
%TO.P,R14,1*%
%TO.N,Net-(D3-Pad2)*%
X182605000Y-100610000D03*
%TO.P,R14,2*%
%TO.N,Net-(U1C--)*%
X182605000Y-102260000D03*
%TD*%
D14*
%TO.P,J1,1,Pin_1*%
%TO.N,VBATT*%
X212480000Y-98000000D03*
D15*
%TO.P,J1,2,Pin_2*%
%TO.N,PET_WDT*%
X212480000Y-100540000D03*
%TO.P,J1,3,Pin_3*%
%TO.N,WDT_OUT*%
X212480000Y-103080000D03*
%TO.P,J1,4,Pin_4*%
%TO.N,GND*%
X212480000Y-105620000D03*
%TD*%
D16*
%TO.P,R1,1*%
%TO.N,Net-(D1-Pad1)*%
X184580000Y-104935000D03*
%TO.P,R1,2*%
%TO.N,/WDT-VIN*%
X181655000Y-104935000D03*
%TD*%
D12*
%TO.P,R17,1*%
%TO.N,Net-(U1D-+)*%
X168400000Y-100675000D03*
%TO.P,R17,2*%
%TO.N,/WDT-VIN*%
X168400000Y-102325000D03*
%TD*%
D17*
%TO.P,D1,1,1*%
%TO.N,Net-(D1-Pad1)*%
X185967500Y-104935000D03*
%TO.P,D1,2,2*%
%TO.N,VBATT*%
X188067500Y-104935000D03*
%TD*%
D13*
%TO.P,FID1,*%
%TO.N,*%
X150600000Y-80350000D03*
%TD*%
D12*
%TO.P,R16,1*%
%TO.N,Net-(U1D-+)*%
X184105000Y-100610000D03*
%TO.P,R16,2*%
%TO.N,Net-(U1C--)*%
X184105000Y-102260000D03*
%TD*%
D18*
%TO.P,C8,1*%
%TO.N,GND*%
X177505000Y-102235000D03*
%TO.P,C8,2*%
%TO.N,Net-(U1D--)*%
X177505000Y-100685000D03*
%TD*%
D11*
%TO.P,TP3,1,1*%
%TO.N,Net-(U1B-+)*%
X177005000Y-104460000D03*
%TD*%
D19*
%TO.P,R9,1*%
%TO.N,Net-(C4-Pad2)*%
X168417500Y-109385000D03*
%TO.P,R9,2*%
%TO.N,Net-(U1A--)*%
X168417500Y-107735000D03*
%TD*%
D12*
%TO.P,R5,1*%
%TO.N,Net-(U1B--)*%
X166817500Y-103035000D03*
%TO.P,R5,2*%
%TO.N,/WDT-VP*%
X166817500Y-104685000D03*
%TD*%
%TO.P,R6,1*%
%TO.N,/WDT-VP*%
X168405000Y-104735000D03*
%TO.P,R6,2*%
%TO.N,GND*%
X168405000Y-106385000D03*
%TD*%
D17*
%TO.P,D3,1,1*%
%TO.N,Net-(U1D-+)*%
X180455000Y-98960000D03*
%TO.P,D3,2,2*%
%TO.N,Net-(D3-Pad2)*%
X182555000Y-98960000D03*
%TD*%
D11*
%TO.P,TP2,1,1*%
%TO.N,PET_WDT*%
X170080000Y-113897500D03*
%TD*%
D13*
%TO.P,FID2,*%
%TO.N,*%
X213310000Y-80280000D03*
%TD*%
D20*
%TO.P,R2,1*%
%TO.N,/WDT-VIN*%
X169930000Y-97060000D03*
%TO.P,R2,2*%
%TO.N,Net-(R13-Pad2)*%
X168280000Y-97060000D03*
%TD*%
D19*
%TO.P,R13,1*%
%TO.N,Net-(U1C-+)*%
X175005000Y-97360000D03*
%TO.P,R13,2*%
%TO.N,Net-(R13-Pad2)*%
X175005000Y-95710000D03*
%TD*%
D21*
%TO.P,U1,1*%
%TO.N,Net-(R12-Pad1)*%
X170080000Y-104822500D03*
%TO.P,U1,2*%
%TO.N,Net-(R10-Pad1)*%
X170730000Y-104822500D03*
%TO.P,U1,3,V+*%
%TO.N,/WDT-VIN*%
X171380000Y-104822500D03*
%TO.P,U1,4,-*%
%TO.N,Net-(U1A--)*%
X172030000Y-104822500D03*
%TO.P,U1,5,+*%
%TO.N,/WDT-VP*%
X172680000Y-104822500D03*
%TO.P,U1,6,-*%
%TO.N,Net-(U1B--)*%
X173330000Y-104822500D03*
%TO.P,U1,7,+*%
%TO.N,Net-(U1B-+)*%
X173980000Y-104822500D03*
%TO.P,U1,8,-*%
%TO.N,Net-(U1C--)*%
X173980000Y-99097500D03*
%TO.P,U1,9,+*%
%TO.N,Net-(U1C-+)*%
X173330000Y-99097500D03*
%TO.P,U1,10,-*%
%TO.N,Net-(U1D--)*%
X172680000Y-99097500D03*
%TO.P,U1,11,+*%
%TO.N,Net-(U1D-+)*%
X172030000Y-99097500D03*
%TO.P,U1,12,V-*%
%TO.N,GND*%
X171380000Y-99097500D03*
%TO.P,U1,13*%
%TO.N,WDT_OUT*%
X170730000Y-99097500D03*
%TO.P,U1,14*%
%TO.N,Net-(U1D-+)*%
X170080000Y-99097500D03*
%TD*%
D22*
%TO.P,C7,1*%
%TO.N,GND*%
X179605000Y-100660000D03*
%TO.P,C7,2*%
%TO.N,Net-(U1C--)*%
X179605000Y-102210000D03*
%TD*%
D23*
%TO.P,D2,1,K*%
%TO.N,GND*%
X166882500Y-113860000D03*
%TO.P,D2,2,A*%
%TO.N,Net-(D2-A)*%
X168457500Y-113860000D03*
%TD*%
D19*
%TO.P,R11,1*%
%TO.N,/WDT-VIN*%
X180080000Y-105460000D03*
%TO.P,R11,2*%
%TO.N,Net-(U1B-+)*%
X180080000Y-103810000D03*
%TD*%
D22*
%TO.P,C6,1*%
%TO.N,GND*%
X181105000Y-100660000D03*
%TO.P,C6,2*%
%TO.N,Net-(U1C--)*%
X181105000Y-102210000D03*
%TD*%
D19*
%TO.P,R12,1*%
%TO.N,Net-(R12-Pad1)*%
X175530000Y-101460000D03*
%TO.P,R12,2*%
%TO.N,Net-(U1C--)*%
X175530000Y-99810000D03*
%TD*%
D12*
%TO.P,R8,1*%
%TO.N,Net-(C4-Pad2)*%
X166900000Y-110720000D03*
%TO.P,R8,2*%
%TO.N,GND*%
X166900000Y-112370000D03*
%TD*%
D11*
%TO.P,TP4,1,1*%
%TO.N,Net-(U1C--)*%
X176605000Y-98360000D03*
%TD*%
D12*
%TO.P,R4,1*%
%TO.N,Net-(U1D--)*%
X166817500Y-100035000D03*
%TO.P,R4,2*%
%TO.N,Net-(U1B--)*%
X166817500Y-101685000D03*
%TD*%
D24*
%TO.P,C4,1*%
%TO.N,PET_WDT*%
X169942500Y-110800000D03*
%TO.P,C4,2*%
%TO.N,Net-(C4-Pad2)*%
X168392500Y-110800000D03*
%TD*%
D20*
%TO.P,R15,1*%
%TO.N,Net-(U1C-+)*%
X173530000Y-97360000D03*
%TO.P,R15,2*%
%TO.N,Net-(U1D-+)*%
X171880000Y-97360000D03*
%TD*%
D12*
%TO.P,R3,1*%
%TO.N,Net-(R13-Pad2)*%
X166817500Y-97035000D03*
%TO.P,R3,2*%
%TO.N,Net-(U1D--)*%
X166817500Y-98685000D03*
%TD*%
D20*
%TO.P,R7,1*%
%TO.N,PET_WDT*%
X170005000Y-112300000D03*
%TO.P,R7,2*%
%TO.N,Net-(D2-A)*%
X168355000Y-112300000D03*
%TD*%
D12*
%TO.P,R18,1*%
%TO.N,WDT_OUT*%
X201050000Y-96805000D03*
%TO.P,R18,2*%
%TO.N,VBATT*%
X201050000Y-98455000D03*
%TD*%
D18*
%TO.P,C5,1*%
%TO.N,GND*%
X178605000Y-105410000D03*
%TO.P,C5,2*%
%TO.N,Net-(U1B-+)*%
X178605000Y-103860000D03*
%TD*%
D11*
%TO.P,TP1,1,1*%
%TO.N,/WDT-VIN*%
X170780000Y-109280000D03*
%TD*%
D25*
%TO.N,GND*%
X171450000Y-94742000D03*
X176920000Y-105544000D03*
X174498000Y-115443000D03*
X172950000Y-101690000D03*
X179324000Y-115443000D03*
X163840000Y-104810000D03*
X184150000Y-115443000D03*
X163800000Y-102980000D03*
X173872000Y-101480000D03*
X163780000Y-101220000D03*
X179578000Y-99695000D03*
X171332000Y-100718000D03*
X165887400Y-112369600D03*
X163730000Y-99480000D03*
X172033727Y-100334998D03*
X169418000Y-106426000D03*
X173786800Y-103454200D03*
X175142000Y-105544000D03*
X181102000Y-99695000D03*
X165785800Y-113842800D03*
X178308000Y-102743000D03*
X169554000Y-109608000D03*
%TO.N,/WDT-VIN*%
X185450000Y-107000000D03*
X170498733Y-106234733D03*
X178860000Y-107100000D03*
X170670000Y-96285000D03*
X184240000Y-108130000D03*
X168410000Y-103250000D03*
X177540000Y-107710000D03*
X171678647Y-103638127D03*
%TO.N,WDT_OUT*%
X170570000Y-100210000D03*
X202170000Y-97390000D03*
%TD*%
D26*
%TO.N,/WDT-VIN*%
X174890000Y-107560000D02*
X172500000Y-107560000D01*
X172500000Y-107560000D02*
X170780000Y-109280000D01*
D27*
%TO.N,Net-(U1A--)*%
X168417500Y-107735000D02*
X169923411Y-107735000D01*
X169923411Y-107735000D02*
X172030000Y-105628411D01*
X172030000Y-105628411D02*
X172030000Y-104822500D01*
D28*
%TO.N,/WDT-VIN*%
X168400000Y-103240000D02*
X168400000Y-102325000D01*
D27*
X169930000Y-97025000D02*
X169930000Y-97060000D01*
D28*
X170705265Y-106234733D02*
X171380000Y-105559998D01*
X168410000Y-103250000D02*
X168400000Y-103240000D01*
X171380000Y-105559998D02*
X171380000Y-104822500D01*
D27*
X170670000Y-96285000D02*
X169930000Y-97025000D01*
D28*
X171380000Y-104822500D02*
X171380000Y-103936774D01*
X170498733Y-106234733D02*
X170705265Y-106234733D01*
X171380000Y-103936774D02*
X171678647Y-103638127D01*
D29*
%TO.N,Net-(C4-Pad2)*%
X166900000Y-110720000D02*
X168312500Y-110720000D01*
X168417500Y-110775000D02*
X168392500Y-110800000D01*
X168312500Y-110720000D02*
X168392500Y-110800000D01*
X168417500Y-109385000D02*
X168417500Y-110775000D01*
D28*
%TO.N,PET_WDT*%
X169942500Y-110800000D02*
X200477000Y-110800000D01*
X210737000Y-100540000D02*
X212480000Y-100540000D01*
X170005000Y-112300000D02*
X170005000Y-113822500D01*
X169942500Y-110800000D02*
X169942500Y-112237500D01*
X200477000Y-110800000D02*
X210737000Y-100540000D01*
X170005000Y-113822500D02*
X170080000Y-113897500D01*
X169942500Y-112237500D02*
X170005000Y-112300000D01*
D29*
%TO.N,Net-(U1B-+)*%
X177655000Y-103810000D02*
X177005000Y-104460000D01*
X180080000Y-103810000D02*
X177655000Y-103810000D01*
X177005000Y-104460000D02*
X174342500Y-104460000D01*
X174342500Y-104460000D02*
X173980000Y-104822500D01*
%TO.N,Net-(U1C--)*%
X184105000Y-102260000D02*
X179655000Y-102260000D01*
X178610000Y-101960000D02*
X178610000Y-100528120D01*
X179605000Y-102210000D02*
X178860000Y-102210000D01*
X178860000Y-102210000D02*
X178610000Y-101960000D01*
X179655000Y-102260000D02*
X179605000Y-102210000D01*
X178610000Y-100528120D02*
X177891880Y-99810000D01*
X176605000Y-98360000D02*
X176605000Y-99805000D01*
X177891880Y-99810000D02*
X176600000Y-99810000D01*
X176600000Y-99810000D02*
X175530000Y-99810000D01*
X175530000Y-99810000D02*
X174817500Y-99097500D01*
X174817500Y-99097500D02*
X173980000Y-99097500D01*
X176605000Y-99805000D02*
X176600000Y-99810000D01*
D27*
%TO.N,Net-(U1D--)*%
X177505000Y-100685000D02*
X172732671Y-100685000D01*
X172732671Y-100685000D02*
X172680000Y-100632329D01*
X167760000Y-101400000D02*
X171912329Y-101400000D01*
X166817500Y-100457500D02*
X167760000Y-101400000D01*
X171912329Y-101400000D02*
X172680000Y-100632329D01*
X166817500Y-100035000D02*
X166817500Y-98685000D01*
X172680000Y-100632329D02*
X172680000Y-100501898D01*
X172680000Y-100501898D02*
X172680000Y-99097500D01*
X166817500Y-100035000D02*
X166817500Y-100457500D01*
D30*
%TO.N,Net-(D1-Pad1)*%
X185801000Y-104935000D02*
X184580000Y-104935000D01*
D29*
%TO.N,Net-(D2-A)*%
X168355000Y-113757500D02*
X168457500Y-113860000D01*
X168355000Y-112300000D02*
X168355000Y-113757500D01*
D27*
%TO.N,Net-(U1D-+)*%
X170080000Y-98360001D02*
X171080001Y-97360000D01*
X172766184Y-96473816D02*
X171880000Y-97360000D01*
X180455000Y-98960000D02*
X178741400Y-98960000D01*
X170080000Y-99097500D02*
X170080000Y-98360001D01*
X181080531Y-98334469D02*
X180455000Y-98960000D01*
X184105000Y-100610000D02*
X184105000Y-99500507D01*
X168442500Y-99097500D02*
X168405000Y-99135000D01*
X168400000Y-100675000D02*
X168400000Y-99140000D01*
X168400000Y-99140000D02*
X168405000Y-99135000D01*
X172030000Y-99097500D02*
X172030000Y-97510000D01*
X178741400Y-98960000D02*
X176255216Y-96473816D01*
X184105000Y-99500507D02*
X182938962Y-98334469D01*
X182938962Y-98334469D02*
X181080531Y-98334469D01*
X176255216Y-96473816D02*
X172766184Y-96473816D01*
X171080001Y-97360000D02*
X171880000Y-97360000D01*
X172030000Y-97510000D02*
X171880000Y-97360000D01*
X170080000Y-99097500D02*
X168442500Y-99097500D01*
%TO.N,Net-(D3-Pad2)*%
X182605000Y-100610000D02*
X182605000Y-99010000D01*
X182605000Y-99010000D02*
X182555000Y-98960000D01*
%TO.N,Net-(R13-Pad2)*%
X174824400Y-95529400D02*
X175005000Y-95710000D01*
X168255000Y-97035000D02*
X168280000Y-97060000D01*
X166817500Y-97035000D02*
X168255000Y-97035000D01*
X168280000Y-97060000D02*
X169810600Y-95529400D01*
X169810600Y-95529400D02*
X174824400Y-95529400D01*
%TO.N,Net-(U1B--)*%
X166817500Y-101685000D02*
X166817500Y-103035000D01*
%TO.N,/WDT-VP*%
X166817500Y-107308276D02*
X166817500Y-104685000D01*
X166895000Y-104685000D02*
X166945000Y-104735000D01*
X166817500Y-104685000D02*
X166895000Y-104685000D01*
D31*
X172680000Y-104822500D02*
X172680000Y-105559999D01*
X167872904Y-108363680D02*
X166817500Y-107308276D01*
D27*
X166945000Y-104735000D02*
X168405000Y-104735000D01*
D31*
X172680000Y-105559999D02*
X169876319Y-108363680D01*
X169876319Y-108363680D02*
X167872904Y-108363680D01*
D27*
%TO.N,Net-(R10-Pad1)*%
X170730000Y-103560039D02*
X171480699Y-102809340D01*
X170730000Y-104822500D02*
X170730000Y-103560039D01*
X175529340Y-102809340D02*
X175530000Y-102810000D01*
X171480699Y-102809340D02*
X175529340Y-102809340D01*
%TO.N,Net-(R12-Pad1)*%
X174682786Y-102307214D02*
X175530000Y-101460000D01*
X171300248Y-102307214D02*
X174682786Y-102307214D01*
X170080000Y-104822500D02*
X170080000Y-103527462D01*
X170080000Y-103527462D02*
X171300248Y-102307214D01*
%TO.N,Net-(U1C-+)*%
X173330000Y-99097500D02*
X173330000Y-97560000D01*
X175005000Y-97360000D02*
X173530000Y-97360000D01*
X173330000Y-97560000D02*
X173530000Y-97360000D01*
%TO.N,WDT_OUT*%
X201005000Y-96835000D02*
X201060000Y-96780000D01*
X201585000Y-96805000D02*
X201050000Y-96805000D01*
X202170000Y-97390000D02*
X201585000Y-96805000D01*
X170730000Y-100050000D02*
X170730000Y-99097500D01*
X179017500Y-96835000D02*
X201005000Y-96835000D01*
X170570000Y-100210000D02*
X170730000Y-100050000D01*
X179087500Y-96765000D02*
X179017500Y-96835000D01*
%TO.N,Net-(U1B--)*%
X166817500Y-103035000D02*
X165942688Y-103909812D01*
X165942688Y-103909812D02*
X165942688Y-107262688D01*
X165942688Y-107262688D02*
X167380000Y-108700000D01*
D31*
X167380000Y-108700000D02*
X167394042Y-108714042D01*
X173155000Y-105610000D02*
X173330000Y-105435000D01*
X167394042Y-108714042D02*
X170059060Y-108714042D01*
X170059060Y-108714042D02*
X173155000Y-105618102D01*
X173155000Y-105618102D02*
X173155000Y-105610000D01*
X173330000Y-105435000D02*
X173330000Y-104822500D01*
%TD*%
%TA.AperFunction,Conductor*%
%TO.N,VBATT*%
G36*
X210815504Y-94340493D02*
G01*
X215327216Y-94355786D01*
X215371344Y-94374241D01*
X215389500Y-94418285D01*
X215389500Y-99419621D01*
X215371194Y-99463815D01*
X215327106Y-99482121D01*
X212508389Y-99486899D01*
X212502160Y-99486598D01*
X212480004Y-99484417D01*
X212479999Y-99484417D01*
X212456848Y-99486697D01*
X212450828Y-99486998D01*
X210710673Y-99489947D01*
X210710659Y-99489948D01*
X210680000Y-99490000D01*
X210650772Y-99499233D01*
X210650747Y-99499240D01*
X189938034Y-106043200D01*
X189919282Y-106046104D01*
X187521610Y-106049043D01*
X187477393Y-106030791D01*
X187461227Y-106002956D01*
X187449223Y-105958844D01*
X187447032Y-105942735D01*
X187442960Y-105071088D01*
X187640500Y-105071088D01*
X187654395Y-105140947D01*
X187654396Y-105140949D01*
X187707330Y-105220169D01*
X187786550Y-105273103D01*
X187786552Y-105273104D01*
X187856411Y-105286999D01*
X187856412Y-105287000D01*
X187967500Y-105287000D01*
X188167500Y-105287000D01*
X188278588Y-105287000D01*
X188278588Y-105286999D01*
X188348447Y-105273104D01*
X188348449Y-105273103D01*
X188427669Y-105220169D01*
X188480603Y-105140949D01*
X188480604Y-105140947D01*
X188494499Y-105071088D01*
X188494500Y-105071088D01*
X188494500Y-105035000D01*
X188167500Y-105035000D01*
X188167500Y-105287000D01*
X187967500Y-105287000D01*
X187967500Y-105035000D01*
X187640500Y-105035000D01*
X187640500Y-105071088D01*
X187442960Y-105071088D01*
X187441688Y-104798911D01*
X187640500Y-104798911D01*
X187640500Y-104835000D01*
X187967500Y-104835000D01*
X188167500Y-104835000D01*
X188494500Y-104835000D01*
X188494500Y-104798912D01*
X188494499Y-104798911D01*
X188480604Y-104729052D01*
X188480603Y-104729050D01*
X188427669Y-104649830D01*
X188348449Y-104596896D01*
X188348447Y-104596895D01*
X188278588Y-104583000D01*
X188167500Y-104583000D01*
X188167500Y-104835000D01*
X187967500Y-104835000D01*
X187967500Y-104583000D01*
X187856412Y-104583000D01*
X187786552Y-104596895D01*
X187786550Y-104596896D01*
X187707330Y-104649830D01*
X187654396Y-104729050D01*
X187654395Y-104729052D01*
X187640500Y-104798911D01*
X187441688Y-104798911D01*
X187437697Y-103944846D01*
X187438860Y-103932550D01*
X187450390Y-103873685D01*
X187459776Y-103850952D01*
X187489604Y-103806371D01*
X187507036Y-103789021D01*
X187557043Y-103755905D01*
X187567970Y-103750135D01*
X198003988Y-99499239D01*
X200361926Y-98538781D01*
X200409757Y-98539062D01*
X200443382Y-98573086D01*
X200448000Y-98596662D01*
X200448000Y-98693311D01*
X200448001Y-98693313D01*
X200454270Y-98740942D01*
X200503005Y-98845454D01*
X200584545Y-98926994D01*
X200689060Y-98975731D01*
X200736678Y-98981999D01*
X200949999Y-98981999D01*
X201150000Y-98981999D01*
X201363312Y-98981999D01*
X201363313Y-98981998D01*
X201410942Y-98975729D01*
X201515454Y-98926994D01*
X201515455Y-98926994D01*
X201579942Y-98862507D01*
X211502999Y-98862507D01*
X211510369Y-98899553D01*
X211510369Y-98899554D01*
X211538438Y-98941561D01*
X211580446Y-98969630D01*
X211617493Y-98977000D01*
X212380000Y-98977000D01*
X212380000Y-98490842D01*
X212414174Y-98500000D01*
X212545826Y-98500000D01*
X212580000Y-98490842D01*
X212580000Y-98977000D01*
X213342507Y-98977000D01*
X213379553Y-98969630D01*
X213379554Y-98969630D01*
X213421561Y-98941561D01*
X213449630Y-98899554D01*
X213449630Y-98899553D01*
X213457000Y-98862507D01*
X213457000Y-98100000D01*
X212970843Y-98100000D01*
X212980000Y-98065826D01*
X212980000Y-97934174D01*
X212970843Y-97900000D01*
X213457000Y-97900000D01*
X213457000Y-97137492D01*
X213449630Y-97100446D01*
X213449630Y-97100445D01*
X213421561Y-97058438D01*
X213379553Y-97030369D01*
X213342507Y-97023000D01*
X212580000Y-97023000D01*
X212580000Y-97509157D01*
X212545826Y-97500000D01*
X212414174Y-97500000D01*
X212380000Y-97509157D01*
X212380000Y-97023000D01*
X211617493Y-97023000D01*
X211580446Y-97030369D01*
X211580445Y-97030369D01*
X211538438Y-97058438D01*
X211510369Y-97100445D01*
X211510369Y-97100446D01*
X211503000Y-97137492D01*
X211503000Y-97900000D01*
X211989157Y-97900000D01*
X211980000Y-97934174D01*
X211980000Y-98065826D01*
X211989157Y-98100000D01*
X211503000Y-98100000D01*
X211503000Y-98862507D01*
X211502999Y-98862507D01*
X201579942Y-98862507D01*
X201596994Y-98845455D01*
X201596994Y-98845454D01*
X201645731Y-98740939D01*
X201651999Y-98693327D01*
X201652000Y-98693314D01*
X201652000Y-98555000D01*
X201150000Y-98555000D01*
X201150000Y-98981999D01*
X200949999Y-98981999D01*
X200950000Y-98981998D01*
X200950000Y-98417500D01*
X200968306Y-98373306D01*
X201012500Y-98355000D01*
X201651999Y-98355000D01*
X201651999Y-98216688D01*
X201651998Y-98216686D01*
X201645729Y-98169057D01*
X201613446Y-98099826D01*
X201611359Y-98052036D01*
X201643676Y-98016768D01*
X201646469Y-98015548D01*
X201993803Y-97874069D01*
X202034979Y-97871984D01*
X202088239Y-97887622D01*
X202098038Y-97890500D01*
X202098039Y-97890500D01*
X202241962Y-97890500D01*
X202241962Y-97890499D01*
X202380053Y-97849953D01*
X202501128Y-97772143D01*
X202595377Y-97663373D01*
X202604341Y-97643743D01*
X202637614Y-97611826D01*
X210630574Y-94356058D01*
X210636310Y-94354041D01*
X210664884Y-94345538D01*
X210676820Y-94343222D01*
X210706486Y-94340420D01*
X210712561Y-94340144D01*
X210815504Y-94340493D01*
G37*
%TD.AperFunction*%
%TD*%
%TA.AperFunction,Conductor*%
%TO.N,/WDT-VIN*%
G36*
X182872240Y-103755069D02*
G01*
X182931451Y-103765804D01*
X182954390Y-103774917D01*
X182999490Y-103804267D01*
X183017112Y-103821550D01*
X183047332Y-103866073D01*
X183056888Y-103888831D01*
X183068769Y-103947810D01*
X183070000Y-103960152D01*
X183070000Y-106260000D01*
X183270242Y-106259754D01*
X183270245Y-106259755D01*
X187150000Y-106255000D01*
X191023599Y-106250252D01*
X191035797Y-106251439D01*
X191094163Y-106262985D01*
X191116717Y-106272303D01*
X191160986Y-106301834D01*
X191178253Y-106319080D01*
X191207834Y-106363308D01*
X191217180Y-106385851D01*
X191228797Y-106444201D01*
X191230000Y-106456405D01*
X191230000Y-108782451D01*
X191227879Y-108798595D01*
X191207630Y-108874328D01*
X191191518Y-108902305D01*
X191142178Y-108951808D01*
X191114254Y-108968012D01*
X191038586Y-108988512D01*
X191022450Y-108990687D01*
X190094401Y-108993760D01*
X188932240Y-108997608D01*
X173316823Y-109049314D01*
X173304605Y-109048149D01*
X173246149Y-109036697D01*
X173223549Y-109027401D01*
X173179185Y-108997890D01*
X173161878Y-108980641D01*
X173132220Y-108936373D01*
X173122852Y-108913808D01*
X173111206Y-108855386D01*
X173110000Y-108843167D01*
X173110000Y-106626488D01*
X173111203Y-106614283D01*
X173122825Y-106555912D01*
X173132173Y-106533371D01*
X173161775Y-106489129D01*
X173179045Y-106471887D01*
X173202267Y-106456405D01*
X173223335Y-106442359D01*
X173245899Y-106433045D01*
X173304277Y-106421519D01*
X173316483Y-106420335D01*
X176517116Y-106425532D01*
X178761903Y-106429177D01*
X178761903Y-106429176D01*
X178899359Y-106429400D01*
X179053710Y-106029239D01*
X179083646Y-105996048D01*
X179108220Y-105983528D01*
X179203528Y-105888220D01*
X179264719Y-105768126D01*
X179280500Y-105668488D01*
X179280500Y-105452918D01*
X179284687Y-105430427D01*
X179447851Y-105007421D01*
X179451530Y-104999560D01*
X179472144Y-104962484D01*
X179482590Y-104948646D01*
X179512617Y-104918652D01*
X179519151Y-104912976D01*
X180169536Y-104423076D01*
X180207138Y-104410499D01*
X180386518Y-104410499D01*
X180480304Y-104395646D01*
X180593342Y-104338050D01*
X180683050Y-104248342D01*
X180740646Y-104135304D01*
X180755500Y-104041519D01*
X180755499Y-104012868D01*
X180773803Y-103968676D01*
X180780382Y-103962958D01*
X180954371Y-103831902D01*
X180962599Y-103826658D01*
X181004631Y-103804290D01*
X181023043Y-103797932D01*
X181069917Y-103789598D01*
X181079624Y-103788647D01*
X181634540Y-103777873D01*
X182859896Y-103754079D01*
X182872240Y-103755069D01*
G37*
%TD.AperFunction*%
%TD*%
%TA.AperFunction,Conductor*%
%TO.N,GND*%
G36*
X215362638Y-78278093D02*
G01*
X215388358Y-78322642D01*
X215389500Y-78335700D01*
X215389500Y-94075040D01*
X215371907Y-94123378D01*
X215327358Y-94149098D01*
X215314045Y-94150239D01*
X210816201Y-94134994D01*
X210713258Y-94134645D01*
X210713253Y-94134645D01*
X210713229Y-94134645D01*
X210703262Y-94134855D01*
X210703245Y-94134855D01*
X210703234Y-94134856D01*
X210700819Y-94134965D01*
X210697150Y-94135132D01*
X210687157Y-94135831D01*
X210657492Y-94138633D01*
X210637679Y-94141484D01*
X210637663Y-94141486D01*
X210625750Y-94143798D01*
X210606266Y-94148575D01*
X210577685Y-94157080D01*
X210568149Y-94160174D01*
X210562376Y-94162203D01*
X210553070Y-94165733D01*
X202762642Y-97339002D01*
X202711239Y-97340943D01*
X202670614Y-97309389D01*
X202659840Y-97280063D01*
X202655165Y-97247543D01*
X202653247Y-97243344D01*
X202595377Y-97116627D01*
X202595375Y-97116624D01*
X202501127Y-97007856D01*
X202501125Y-97007855D01*
X202426183Y-96959693D01*
X202380053Y-96930047D01*
X202380052Y-96930046D01*
X202241963Y-96889500D01*
X202241961Y-96889500D01*
X202145843Y-96889500D01*
X202097505Y-96871907D01*
X202092679Y-96867484D01*
X201778292Y-96553097D01*
X201747694Y-96535431D01*
X201714631Y-96496026D01*
X201711021Y-96482064D01*
X201710646Y-96479697D01*
X201710646Y-96479696D01*
X201653050Y-96366658D01*
X201653049Y-96366657D01*
X201653048Y-96366655D01*
X201563344Y-96276951D01*
X201450304Y-96219354D01*
X201450306Y-96219354D01*
X201403411Y-96211927D01*
X201356519Y-96204500D01*
X201356517Y-96204500D01*
X200743487Y-96204500D01*
X200743475Y-96204501D01*
X200649698Y-96219352D01*
X200536655Y-96276951D01*
X200446951Y-96366655D01*
X200446948Y-96366659D01*
X200389636Y-96479140D01*
X200352016Y-96514222D01*
X200322633Y-96520200D01*
X179747617Y-96520200D01*
X179699279Y-96502607D01*
X179683943Y-96485009D01*
X179680605Y-96479697D01*
X179607977Y-96364110D01*
X179607976Y-96364109D01*
X179607975Y-96364107D01*
X179488392Y-96244524D01*
X179448331Y-96219352D01*
X179345190Y-96154544D01*
X179310893Y-96142543D01*
X179185564Y-96098688D01*
X179185556Y-96098686D01*
X179017501Y-96079751D01*
X179017499Y-96079751D01*
X178849443Y-96098686D01*
X178849435Y-96098688D01*
X178689812Y-96154543D01*
X178546607Y-96244524D01*
X178427024Y-96364107D01*
X178373460Y-96449354D01*
X178354395Y-96479697D01*
X178337043Y-96507312D01*
X178281188Y-96666935D01*
X178281186Y-96666943D01*
X178262251Y-96834999D01*
X178262251Y-96835000D01*
X178281186Y-97003056D01*
X178281188Y-97003064D01*
X178303438Y-97066650D01*
X178337044Y-97162690D01*
X178387723Y-97243344D01*
X178427024Y-97305892D01*
X178546607Y-97425475D01*
X178546609Y-97425476D01*
X178546610Y-97425477D01*
X178689810Y-97515456D01*
X178849441Y-97571313D01*
X178961480Y-97583937D01*
X179017499Y-97590249D01*
X179017500Y-97590249D01*
X179017501Y-97590249D01*
X179059514Y-97585515D01*
X179185559Y-97571313D01*
X179345190Y-97515456D01*
X179488390Y-97425477D01*
X179607977Y-97305890D01*
X179683943Y-97184990D01*
X179724557Y-97153423D01*
X179747617Y-97149800D01*
X200353205Y-97149800D01*
X200401543Y-97167393D01*
X200420209Y-97190860D01*
X200446951Y-97243344D01*
X200536655Y-97333048D01*
X200536657Y-97333049D01*
X200536658Y-97333050D01*
X200649694Y-97390645D01*
X200649696Y-97390646D01*
X200743481Y-97405500D01*
X201356518Y-97405499D01*
X201361760Y-97404668D01*
X201450303Y-97390647D01*
X201556206Y-97336686D01*
X201607263Y-97330416D01*
X201650404Y-97358432D01*
X201664782Y-97392987D01*
X201684835Y-97532460D01*
X201684836Y-97532462D01*
X201746826Y-97668199D01*
X201750903Y-97719477D01*
X201721065Y-97761378D01*
X201706790Y-97769082D01*
X201568959Y-97825225D01*
X201564234Y-97827219D01*
X201561414Y-97828451D01*
X201518206Y-97859326D01*
X201468648Y-97873114D01*
X201451255Y-97869663D01*
X201450304Y-97869354D01*
X201450291Y-97869352D01*
X201356519Y-97854500D01*
X201356517Y-97854500D01*
X200743487Y-97854500D01*
X200743475Y-97854501D01*
X200649698Y-97869352D01*
X200536655Y-97926951D01*
X200446951Y-98016655D01*
X200389354Y-98129694D01*
X200374500Y-98223478D01*
X200374500Y-98269007D01*
X200356907Y-98317345D01*
X200313536Y-98342847D01*
X200284408Y-98348462D01*
X200284398Y-98348465D01*
X197926466Y-99308922D01*
X187490457Y-103559813D01*
X187490427Y-103559827D01*
X187472023Y-103568408D01*
X187461060Y-103574197D01*
X187443595Y-103584558D01*
X187443549Y-103584586D01*
X187393576Y-103617680D01*
X187362066Y-103643370D01*
X187362062Y-103643374D01*
X187344644Y-103660709D01*
X187344637Y-103660717D01*
X187318814Y-103692088D01*
X187318811Y-103692091D01*
X187318808Y-103692096D01*
X187289886Y-103735323D01*
X187288976Y-103736683D01*
X187269827Y-103772529D01*
X187269822Y-103772539D01*
X187260448Y-103795245D01*
X187260437Y-103795277D01*
X187248723Y-103834177D01*
X187248720Y-103834189D01*
X187237191Y-103893052D01*
X187237187Y-103893075D01*
X187234274Y-103913188D01*
X187234273Y-103913189D01*
X187233303Y-103923445D01*
X187233110Y-103925495D01*
X187232471Y-103939755D01*
X187232198Y-103945831D01*
X187236190Y-104799871D01*
X187237462Y-105072048D01*
X187241534Y-105943702D01*
X187243308Y-105969022D01*
X187229136Y-106018471D01*
X187186494Y-106047241D01*
X187168385Y-106049477D01*
X187149748Y-106049500D01*
X187149747Y-106049500D01*
X185213304Y-106051873D01*
X185164945Y-106034339D01*
X185139171Y-105989822D01*
X185148041Y-105939153D01*
X185168554Y-105916169D01*
X185214650Y-105882150D01*
X185295293Y-105772882D01*
X185340146Y-105644699D01*
X185340146Y-105644691D01*
X185340157Y-105644647D01*
X185340172Y-105644622D01*
X185341657Y-105640380D01*
X185342639Y-105640723D01*
X185367664Y-105601179D01*
X185413624Y-105585500D01*
X185865070Y-105585500D01*
X185880725Y-105582385D01*
X185990744Y-105560501D01*
X186109127Y-105511465D01*
X186215669Y-105440276D01*
X186306276Y-105349669D01*
X186323905Y-105323283D01*
X186333252Y-105311895D01*
X186337295Y-105307851D01*
X186337299Y-105307850D01*
X186415350Y-105229799D01*
X186461999Y-105129760D01*
X186468000Y-105084179D01*
X186467999Y-104785822D01*
X186461999Y-104740240D01*
X186438301Y-104689419D01*
X186415352Y-104640204D01*
X186415346Y-104640196D01*
X186333254Y-104558104D01*
X186323902Y-104546709D01*
X186306279Y-104520334D01*
X186306271Y-104520325D01*
X186215674Y-104429728D01*
X186215671Y-104429726D01*
X186215669Y-104429724D01*
X186109127Y-104358535D01*
X185990744Y-104309499D01*
X185926175Y-104296655D01*
X185865070Y-104284500D01*
X185865069Y-104284500D01*
X185413624Y-104284500D01*
X185365286Y-104266907D01*
X185342548Y-104229307D01*
X185341657Y-104229620D01*
X185340173Y-104225380D01*
X185340157Y-104225353D01*
X185340146Y-104225306D01*
X185340146Y-104225301D01*
X185308374Y-104134501D01*
X185295294Y-104097120D01*
X185295292Y-104097117D01*
X185289604Y-104089410D01*
X185214650Y-103987850D01*
X185105382Y-103907207D01*
X185105379Y-103907205D01*
X185007970Y-103873121D01*
X184977199Y-103862354D01*
X184977194Y-103862353D01*
X184977192Y-103862353D01*
X184946773Y-103859500D01*
X184946766Y-103859500D01*
X184213234Y-103859500D01*
X184213227Y-103859500D01*
X184182807Y-103862353D01*
X184182803Y-103862353D01*
X184182801Y-103862354D01*
X184182798Y-103862354D01*
X184182798Y-103862355D01*
X184054620Y-103907205D01*
X184054617Y-103907207D01*
X183945350Y-103987850D01*
X183864707Y-104097117D01*
X183864705Y-104097120D01*
X183828832Y-104199642D01*
X183819855Y-104225300D01*
X183819853Y-104225307D01*
X183817000Y-104255726D01*
X183817000Y-105614273D01*
X183819849Y-105644647D01*
X183819854Y-105644699D01*
X183819855Y-105644701D01*
X183864705Y-105772879D01*
X183864707Y-105772882D01*
X183945350Y-105882150D01*
X183993543Y-105917718D01*
X184021987Y-105960575D01*
X184016228Y-106011692D01*
X183978959Y-106047147D01*
X183948979Y-106053422D01*
X183350792Y-106054155D01*
X183302433Y-106036621D01*
X183276659Y-105992104D01*
X183275500Y-105978955D01*
X183275500Y-103960141D01*
X183274487Y-103939790D01*
X183274486Y-103939781D01*
X183274485Y-103939756D01*
X183273254Y-103927414D01*
X183270222Y-103907228D01*
X183258341Y-103848249D01*
X183246362Y-103809271D01*
X183236806Y-103786513D01*
X183217364Y-103750664D01*
X183187144Y-103706141D01*
X183161004Y-103674835D01*
X183143382Y-103657552D01*
X183143376Y-103657547D01*
X183143374Y-103657545D01*
X183111592Y-103632038D01*
X183111587Y-103632034D01*
X183111584Y-103632032D01*
X183111579Y-103632028D01*
X183066479Y-103602678D01*
X183066475Y-103602676D01*
X183066469Y-103602672D01*
X183045313Y-103591725D01*
X183030261Y-103583936D01*
X183017819Y-103578993D01*
X183007316Y-103574820D01*
X182968114Y-103563601D01*
X182968115Y-103563601D01*
X182968111Y-103563600D01*
X182908900Y-103552865D01*
X182908896Y-103552864D01*
X182908888Y-103552863D01*
X182896211Y-103551210D01*
X182888669Y-103550227D01*
X182888663Y-103550226D01*
X182888644Y-103550224D01*
X182888646Y-103550224D01*
X182876352Y-103549238D01*
X182876302Y-103549236D01*
X182855928Y-103548618D01*
X182855913Y-103548618D01*
X182855908Y-103548618D01*
X182855906Y-103548618D01*
X181630550Y-103572412D01*
X181075621Y-103583186D01*
X181059600Y-103584125D01*
X181059593Y-103584125D01*
X181059587Y-103584126D01*
X181049880Y-103585077D01*
X181041912Y-103586174D01*
X181033942Y-103587271D01*
X180987068Y-103595605D01*
X180987059Y-103595607D01*
X180955966Y-103603686D01*
X180937555Y-103610044D01*
X180908093Y-103622877D01*
X180866026Y-103645264D01*
X180815089Y-103652440D01*
X180771456Y-103625196D01*
X180756362Y-103581383D01*
X180755731Y-103581433D01*
X180755538Y-103578993D01*
X180755499Y-103578878D01*
X180755499Y-103578487D01*
X180755498Y-103578475D01*
X180740647Y-103484698D01*
X180702841Y-103410500D01*
X180683050Y-103371658D01*
X180683049Y-103371657D01*
X180683048Y-103371655D01*
X180593344Y-103281951D01*
X180480304Y-103224354D01*
X180480306Y-103224354D01*
X180433411Y-103216927D01*
X180386519Y-103209500D01*
X180386517Y-103209500D01*
X179773487Y-103209500D01*
X179773475Y-103209501D01*
X179679698Y-103224352D01*
X179566655Y-103281951D01*
X179476951Y-103371655D01*
X179476948Y-103371659D01*
X179441393Y-103441440D01*
X179403773Y-103476522D01*
X179374390Y-103482500D01*
X179300930Y-103482500D01*
X179252592Y-103464907D01*
X179233926Y-103441440D01*
X179215845Y-103405954D01*
X179203528Y-103381780D01*
X179108220Y-103286472D01*
X178988126Y-103225281D01*
X178988128Y-103225281D01*
X178888490Y-103209500D01*
X178888488Y-103209500D01*
X178321512Y-103209500D01*
X178321509Y-103209500D01*
X178221872Y-103225281D01*
X178101779Y-103286472D01*
X178006471Y-103381781D01*
X177976074Y-103441440D01*
X177938453Y-103476522D01*
X177909070Y-103482500D01*
X177698116Y-103482500D01*
X177611884Y-103482500D01*
X177570237Y-103493659D01*
X177528588Y-103504819D01*
X177453911Y-103547934D01*
X177453909Y-103547935D01*
X177284325Y-103717518D01*
X177237705Y-103739257D01*
X177206315Y-103735323D01*
X177173061Y-103723687D01*
X177005001Y-103704751D01*
X177004999Y-103704751D01*
X176836943Y-103723686D01*
X176836935Y-103723688D01*
X176677312Y-103779543D01*
X176677310Y-103779543D01*
X176677310Y-103779544D01*
X176666219Y-103786513D01*
X176534107Y-103869524D01*
X176414524Y-103989107D01*
X176372974Y-104055234D01*
X176346656Y-104097120D01*
X176346537Y-104097309D01*
X176305923Y-104128877D01*
X176282863Y-104132500D01*
X176235610Y-104132500D01*
X176187272Y-104114907D01*
X176168607Y-104091440D01*
X176133051Y-104021659D01*
X176133048Y-104021655D01*
X176043344Y-103931951D01*
X175930304Y-103874354D01*
X175930306Y-103874354D01*
X175883411Y-103866927D01*
X175836519Y-103859500D01*
X175836517Y-103859500D01*
X175223487Y-103859500D01*
X175223475Y-103859501D01*
X175129698Y-103874352D01*
X175016655Y-103931951D01*
X174926951Y-104021655D01*
X174926948Y-104021659D01*
X174891393Y-104091440D01*
X174853773Y-104126522D01*
X174824390Y-104132500D01*
X174434308Y-104132500D01*
X174385970Y-104114907D01*
X174365517Y-104087677D01*
X174332206Y-104012235D01*
X174332204Y-104012233D01*
X174332202Y-104012230D01*
X174252769Y-103932797D01*
X174252766Y-103932795D01*
X174252765Y-103932794D01*
X174149991Y-103887415D01*
X174149988Y-103887414D01*
X174149989Y-103887414D01*
X174130693Y-103885176D01*
X174124865Y-103884500D01*
X174124863Y-103884500D01*
X173835143Y-103884500D01*
X173810005Y-103887415D01*
X173707238Y-103932792D01*
X173701485Y-103936733D01*
X173700571Y-103935399D01*
X173661554Y-103953594D01*
X173611867Y-103940280D01*
X173603753Y-103933471D01*
X173602766Y-103932795D01*
X173602765Y-103932794D01*
X173499991Y-103887415D01*
X173499988Y-103887414D01*
X173499989Y-103887414D01*
X173480693Y-103885176D01*
X173474865Y-103884500D01*
X173474863Y-103884500D01*
X173185143Y-103884500D01*
X173160005Y-103887415D01*
X173057238Y-103932792D01*
X173051485Y-103936733D01*
X173050571Y-103935399D01*
X173011554Y-103953594D01*
X172961867Y-103940280D01*
X172953753Y-103933471D01*
X172952766Y-103932795D01*
X172952765Y-103932794D01*
X172849991Y-103887415D01*
X172849988Y-103887414D01*
X172849989Y-103887414D01*
X172830693Y-103885176D01*
X172824865Y-103884500D01*
X172824863Y-103884500D01*
X172535143Y-103884500D01*
X172510005Y-103887415D01*
X172407238Y-103932792D01*
X172401485Y-103936733D01*
X172400571Y-103935399D01*
X172361554Y-103953594D01*
X172311867Y-103940280D01*
X172303753Y-103933471D01*
X172302762Y-103932792D01*
X172198946Y-103886953D01*
X172161834Y-103851335D01*
X172156299Y-103800193D01*
X172160918Y-103786920D01*
X172161106Y-103786509D01*
X172163812Y-103780584D01*
X172184294Y-103638127D01*
X172163812Y-103495670D01*
X172158801Y-103484698D01*
X172104024Y-103364754D01*
X172104022Y-103364751D01*
X172036193Y-103286472D01*
X172009775Y-103255984D01*
X172009773Y-103255983D01*
X172006253Y-103251920D01*
X172007179Y-103251117D01*
X171984982Y-103211225D01*
X171994715Y-103160714D01*
X172034638Y-103128277D01*
X172059237Y-103124140D01*
X174817583Y-103124140D01*
X174865921Y-103141733D01*
X174884586Y-103165199D01*
X174907159Y-103209500D01*
X174926951Y-103248344D01*
X175016655Y-103338048D01*
X175016657Y-103338049D01*
X175016658Y-103338050D01*
X175129694Y-103395645D01*
X175129696Y-103395646D01*
X175223481Y-103410500D01*
X175836518Y-103410499D01*
X175844646Y-103409211D01*
X175930301Y-103395647D01*
X175930302Y-103395646D01*
X175930304Y-103395646D01*
X176043342Y-103338050D01*
X176133050Y-103248342D01*
X176190646Y-103135304D01*
X176205500Y-103041519D01*
X176205499Y-102578482D01*
X176203859Y-102568126D01*
X176192408Y-102495815D01*
X176877601Y-102495815D01*
X176888287Y-102569173D01*
X176888288Y-102569175D01*
X176943608Y-102682332D01*
X177032667Y-102771391D01*
X177145825Y-102826712D01*
X177219180Y-102837399D01*
X177380000Y-102837399D01*
X177630000Y-102837399D01*
X177790811Y-102837399D01*
X177790815Y-102837398D01*
X177864173Y-102826712D01*
X177864175Y-102826711D01*
X177977332Y-102771391D01*
X178066391Y-102682332D01*
X178121712Y-102569174D01*
X178132399Y-102495825D01*
X178132400Y-102495813D01*
X178132400Y-102360000D01*
X177630000Y-102360000D01*
X177630000Y-102837399D01*
X177380000Y-102837399D01*
X177380000Y-102360000D01*
X176877601Y-102360000D01*
X176877601Y-102495815D01*
X176192408Y-102495815D01*
X176190647Y-102484698D01*
X176157642Y-102419923D01*
X176133050Y-102371658D01*
X176133049Y-102371657D01*
X176133048Y-102371655D01*
X176043344Y-102281951D01*
X175930304Y-102224354D01*
X175930306Y-102224354D01*
X175835086Y-102209273D01*
X175790096Y-102184335D01*
X175771661Y-102136311D01*
X175788409Y-102087674D01*
X175832501Y-102061181D01*
X175835088Y-102060725D01*
X175836515Y-102060499D01*
X175836518Y-102060499D01*
X175873930Y-102054573D01*
X175930302Y-102045647D01*
X175963980Y-102028487D01*
X176043342Y-101988050D01*
X176057218Y-101974174D01*
X176877600Y-101974174D01*
X176877600Y-102110000D01*
X177380000Y-102110000D01*
X177630000Y-102110000D01*
X178132399Y-102110000D01*
X178132399Y-102010315D01*
X178138061Y-101994756D01*
X178136635Y-101993056D01*
X178133163Y-101976823D01*
X178132791Y-101976878D01*
X178121712Y-101900826D01*
X178121711Y-101900824D01*
X178066391Y-101787667D01*
X177977332Y-101698608D01*
X177864174Y-101643287D01*
X177790825Y-101632600D01*
X177630000Y-101632600D01*
X177630000Y-102110000D01*
X177380000Y-102110000D01*
X177380000Y-101632600D01*
X177219189Y-101632600D01*
X177219184Y-101632601D01*
X177145826Y-101643287D01*
X177145824Y-101643288D01*
X177032667Y-101698608D01*
X176943608Y-101787667D01*
X176888287Y-101900825D01*
X176877600Y-101974174D01*
X176057218Y-101974174D01*
X176133050Y-101898342D01*
X176190646Y-101785304D01*
X176205500Y-101691519D01*
X176205499Y-101228482D01*
X176195164Y-101163222D01*
X176190647Y-101134697D01*
X176177625Y-101109140D01*
X176171356Y-101058083D01*
X176199373Y-101014942D01*
X176244629Y-100999800D01*
X176777122Y-100999800D01*
X176825460Y-101017393D01*
X176844126Y-101040860D01*
X176906473Y-101163222D01*
X177001777Y-101258526D01*
X177001779Y-101258527D01*
X177001780Y-101258528D01*
X177121872Y-101319718D01*
X177121874Y-101319719D01*
X177221512Y-101335500D01*
X177221516Y-101335500D01*
X177788484Y-101335500D01*
X177788488Y-101335500D01*
X177888126Y-101319719D01*
X178008220Y-101258528D01*
X178103528Y-101163220D01*
X178140296Y-101091057D01*
X178177917Y-101055976D01*
X178229286Y-101053284D01*
X178270368Y-101084241D01*
X178282500Y-101125198D01*
X178282500Y-101967336D01*
X178276837Y-101982894D01*
X178278264Y-101984595D01*
X178282156Y-102000499D01*
X178282500Y-102003116D01*
X178304819Y-102086411D01*
X178347934Y-102161088D01*
X178347938Y-102161094D01*
X178658905Y-102472061D01*
X178658908Y-102472063D01*
X178658910Y-102472065D01*
X178733590Y-102515181D01*
X178816884Y-102537500D01*
X178883594Y-102537500D01*
X178931932Y-102555093D01*
X178950596Y-102578557D01*
X179000266Y-102676040D01*
X179006473Y-102688222D01*
X179101777Y-102783526D01*
X179101779Y-102783527D01*
X179101780Y-102783528D01*
X179221872Y-102844718D01*
X179221874Y-102844719D01*
X179321512Y-102860500D01*
X179321516Y-102860500D01*
X179888484Y-102860500D01*
X179888488Y-102860500D01*
X179988126Y-102844719D01*
X180108220Y-102783528D01*
X180203528Y-102688220D01*
X180233926Y-102628559D01*
X180271547Y-102593478D01*
X180300930Y-102587500D01*
X180409070Y-102587500D01*
X180457408Y-102605093D01*
X180476073Y-102628559D01*
X180506472Y-102688220D01*
X180601780Y-102783528D01*
X180721872Y-102844718D01*
X180721874Y-102844719D01*
X180821512Y-102860500D01*
X180821516Y-102860500D01*
X181388484Y-102860500D01*
X181388488Y-102860500D01*
X181488126Y-102844719D01*
X181608220Y-102783528D01*
X181703528Y-102688220D01*
X181733926Y-102628559D01*
X181771547Y-102593478D01*
X181800930Y-102587500D01*
X181899390Y-102587500D01*
X181947728Y-102605093D01*
X181966393Y-102628560D01*
X182001948Y-102698340D01*
X182001951Y-102698344D01*
X182091655Y-102788048D01*
X182091657Y-102788049D01*
X182091658Y-102788050D01*
X182204694Y-102845645D01*
X182204696Y-102845646D01*
X182298481Y-102860500D01*
X182911518Y-102860499D01*
X182919646Y-102859211D01*
X183005301Y-102845647D01*
X183005302Y-102845646D01*
X183005304Y-102845646D01*
X183118342Y-102788050D01*
X183208050Y-102698342D01*
X183208615Y-102697232D01*
X183243607Y-102628560D01*
X183281227Y-102593478D01*
X183310610Y-102587500D01*
X183399390Y-102587500D01*
X183447728Y-102605093D01*
X183466393Y-102628560D01*
X183501948Y-102698340D01*
X183501951Y-102698344D01*
X183591655Y-102788048D01*
X183591657Y-102788049D01*
X183591658Y-102788050D01*
X183704694Y-102845645D01*
X183704696Y-102845646D01*
X183798481Y-102860500D01*
X184411518Y-102860499D01*
X184419646Y-102859211D01*
X184505301Y-102845647D01*
X184505302Y-102845646D01*
X184505304Y-102845646D01*
X184618342Y-102788050D01*
X184708050Y-102698342D01*
X184765646Y-102585304D01*
X184780500Y-102491519D01*
X184780499Y-102028482D01*
X184779855Y-102024417D01*
X184765647Y-101934698D01*
X184748387Y-101900824D01*
X184708050Y-101821658D01*
X184708049Y-101821657D01*
X184708048Y-101821655D01*
X184618344Y-101731951D01*
X184505304Y-101674354D01*
X184505306Y-101674354D01*
X184449654Y-101665540D01*
X184411519Y-101659500D01*
X184411517Y-101659500D01*
X183798487Y-101659500D01*
X183798475Y-101659501D01*
X183704698Y-101674352D01*
X183591655Y-101731951D01*
X183501951Y-101821655D01*
X183501948Y-101821659D01*
X183466393Y-101891440D01*
X183428773Y-101926522D01*
X183399390Y-101932500D01*
X183310610Y-101932500D01*
X183262272Y-101914907D01*
X183243607Y-101891440D01*
X183208051Y-101821659D01*
X183208048Y-101821655D01*
X183118344Y-101731951D01*
X183005304Y-101674354D01*
X183005306Y-101674354D01*
X182949654Y-101665540D01*
X182911519Y-101659500D01*
X182911517Y-101659500D01*
X182298487Y-101659500D01*
X182298475Y-101659501D01*
X182204698Y-101674352D01*
X182091655Y-101731951D01*
X182001951Y-101821655D01*
X182001948Y-101821659D01*
X181966393Y-101891440D01*
X181928773Y-101926522D01*
X181899390Y-101932500D01*
X181841715Y-101932500D01*
X181793377Y-101914907D01*
X181767657Y-101870358D01*
X181767441Y-101869063D01*
X181764719Y-101851874D01*
X181703528Y-101731780D01*
X181703527Y-101731779D01*
X181703526Y-101731777D01*
X181608222Y-101636473D01*
X181488126Y-101575281D01*
X181488128Y-101575281D01*
X181388490Y-101559500D01*
X181388488Y-101559500D01*
X180821512Y-101559500D01*
X180821509Y-101559500D01*
X180721872Y-101575281D01*
X180601777Y-101636473D01*
X180506473Y-101731777D01*
X180445281Y-101851872D01*
X180442559Y-101869063D01*
X180417622Y-101914053D01*
X180369599Y-101932489D01*
X180368285Y-101932500D01*
X180341715Y-101932500D01*
X180293377Y-101914907D01*
X180267657Y-101870358D01*
X180267441Y-101869063D01*
X180264719Y-101851874D01*
X180203528Y-101731780D01*
X180203527Y-101731779D01*
X180203526Y-101731777D01*
X180108222Y-101636473D01*
X179988126Y-101575281D01*
X179988128Y-101575281D01*
X179888490Y-101559500D01*
X179888488Y-101559500D01*
X179321512Y-101559500D01*
X179321509Y-101559500D01*
X179221872Y-101575281D01*
X179101777Y-101636473D01*
X179065874Y-101672377D01*
X179019254Y-101694117D01*
X178969567Y-101680803D01*
X178940062Y-101638666D01*
X178937500Y-101619203D01*
X178937500Y-101182772D01*
X178955093Y-101134434D01*
X178999642Y-101108714D01*
X179050300Y-101117647D01*
X179065874Y-101129598D01*
X179132667Y-101196391D01*
X179245825Y-101251712D01*
X179319180Y-101262399D01*
X179480000Y-101262399D01*
X179730000Y-101262399D01*
X179890811Y-101262399D01*
X179890815Y-101262398D01*
X179964173Y-101251712D01*
X179964175Y-101251711D01*
X180077332Y-101196391D01*
X180166391Y-101107332D01*
X180221712Y-100994174D01*
X180232399Y-100920825D01*
X180232400Y-100920815D01*
X180477601Y-100920815D01*
X180488287Y-100994173D01*
X180488288Y-100994175D01*
X180543608Y-101107332D01*
X180632667Y-101196391D01*
X180745825Y-101251712D01*
X180819180Y-101262399D01*
X180980000Y-101262399D01*
X181230000Y-101262399D01*
X181390811Y-101262399D01*
X181390815Y-101262398D01*
X181464173Y-101251712D01*
X181464175Y-101251711D01*
X181577332Y-101196391D01*
X181666391Y-101107332D01*
X181721712Y-100994174D01*
X181732399Y-100920825D01*
X181732400Y-100920813D01*
X181732400Y-100785000D01*
X181230000Y-100785000D01*
X181230000Y-101262399D01*
X180980000Y-101262399D01*
X180980000Y-100785000D01*
X180477601Y-100785000D01*
X180477601Y-100920815D01*
X180232400Y-100920815D01*
X180232400Y-100920813D01*
X180232400Y-100785000D01*
X179730000Y-100785000D01*
X179730000Y-101262399D01*
X179480000Y-101262399D01*
X179480000Y-100535000D01*
X179730000Y-100535000D01*
X180232399Y-100535000D01*
X180232399Y-100399189D01*
X180232398Y-100399184D01*
X180232397Y-100399174D01*
X180477600Y-100399174D01*
X180477600Y-100535000D01*
X180980000Y-100535000D01*
X181230000Y-100535000D01*
X181732399Y-100535000D01*
X181732399Y-100399189D01*
X181732398Y-100399184D01*
X181721712Y-100325826D01*
X181721711Y-100325824D01*
X181666391Y-100212667D01*
X181577332Y-100123608D01*
X181464174Y-100068287D01*
X181390825Y-100057600D01*
X181230000Y-100057600D01*
X181230000Y-100535000D01*
X180980000Y-100535000D01*
X180980000Y-100057600D01*
X180819189Y-100057600D01*
X180819184Y-100057601D01*
X180745826Y-100068287D01*
X180745824Y-100068288D01*
X180632667Y-100123608D01*
X180543608Y-100212667D01*
X180488287Y-100325825D01*
X180477600Y-100399174D01*
X180232397Y-100399174D01*
X180221712Y-100325826D01*
X180221711Y-100325824D01*
X180166391Y-100212667D01*
X180077332Y-100123608D01*
X179964174Y-100068287D01*
X179890825Y-100057600D01*
X179730000Y-100057600D01*
X179730000Y-100535000D01*
X179480000Y-100535000D01*
X179480000Y-100057600D01*
X179319189Y-100057600D01*
X179319184Y-100057601D01*
X179245826Y-100068287D01*
X179245824Y-100068288D01*
X179132667Y-100123608D01*
X179043609Y-100212666D01*
X178995988Y-100310074D01*
X178958951Y-100345772D01*
X178907634Y-100349313D01*
X178875255Y-100330220D01*
X178845279Y-100300244D01*
X178811090Y-100266055D01*
X178452796Y-99907761D01*
X178092974Y-99547938D01*
X178092968Y-99547934D01*
X178018291Y-99504819D01*
X177990525Y-99497379D01*
X177934996Y-99482500D01*
X177934994Y-99482500D01*
X177007700Y-99482500D01*
X176959362Y-99464907D01*
X176933642Y-99420358D01*
X176932500Y-99407300D01*
X176932500Y-99082136D01*
X176950093Y-99033798D01*
X176967689Y-99018464D01*
X177075890Y-98950477D01*
X177195477Y-98830890D01*
X177285456Y-98687690D01*
X177341313Y-98528059D01*
X177360249Y-98360000D01*
X177341650Y-98194937D01*
X177353720Y-98144937D01*
X177395108Y-98114390D01*
X177446448Y-98117594D01*
X177469551Y-98133346D01*
X178548107Y-99211902D01*
X178619881Y-99253342D01*
X178619885Y-99253344D01*
X178619891Y-99253347D01*
X178636807Y-99257879D01*
X178636809Y-99257880D01*
X178636810Y-99257880D01*
X178699956Y-99274800D01*
X179996003Y-99274800D01*
X180044341Y-99292393D01*
X180049166Y-99296815D01*
X180068175Y-99315824D01*
X180085200Y-99332849D01*
X180085204Y-99332852D01*
X180185235Y-99379497D01*
X180185237Y-99379497D01*
X180185240Y-99379499D01*
X180230821Y-99385500D01*
X180679178Y-99385499D01*
X180724760Y-99379499D01*
X180824799Y-99332850D01*
X180902850Y-99254799D01*
X180903530Y-99253342D01*
X180949497Y-99154764D01*
X180949499Y-99154760D01*
X180955500Y-99109179D01*
X180955499Y-98935841D01*
X180973092Y-98887505D01*
X180977503Y-98882690D01*
X181188900Y-98671293D01*
X181235519Y-98649555D01*
X181242073Y-98649269D01*
X181996538Y-98649269D01*
X182044876Y-98666862D01*
X182070596Y-98711411D01*
X182064693Y-98756248D01*
X182060502Y-98765234D01*
X182060500Y-98765241D01*
X182054500Y-98810822D01*
X182054500Y-99109176D01*
X182060500Y-99154757D01*
X182060502Y-99154763D01*
X182107147Y-99254795D01*
X182107153Y-99254803D01*
X182185196Y-99332846D01*
X182185200Y-99332849D01*
X182185201Y-99332850D01*
X182246781Y-99361565D01*
X182283154Y-99397937D01*
X182290200Y-99429719D01*
X182290200Y-99946585D01*
X182272607Y-99994923D01*
X182228058Y-100020643D01*
X182226775Y-100020857D01*
X182221550Y-100021684D01*
X182204694Y-100024354D01*
X182091655Y-100081951D01*
X182001951Y-100171655D01*
X181944354Y-100284694D01*
X181929500Y-100378479D01*
X181929500Y-100841512D01*
X181929501Y-100841524D01*
X181944352Y-100935301D01*
X182001951Y-101048344D01*
X182091655Y-101138048D01*
X182091657Y-101138049D01*
X182091658Y-101138050D01*
X182204694Y-101195645D01*
X182204696Y-101195646D01*
X182298481Y-101210500D01*
X182911518Y-101210499D01*
X182919646Y-101209211D01*
X183005301Y-101195647D01*
X183005302Y-101195646D01*
X183005304Y-101195646D01*
X183118342Y-101138050D01*
X183208050Y-101048342D01*
X183265646Y-100935304D01*
X183280500Y-100841519D01*
X183280500Y-100841512D01*
X183280726Y-100840087D01*
X183305664Y-100795096D01*
X183353687Y-100776661D01*
X183402324Y-100793408D01*
X183428818Y-100837501D01*
X183429274Y-100840087D01*
X183444352Y-100935302D01*
X183501951Y-101048344D01*
X183591655Y-101138048D01*
X183591657Y-101138049D01*
X183591658Y-101138050D01*
X183704694Y-101195645D01*
X183704696Y-101195646D01*
X183798481Y-101210500D01*
X184411518Y-101210499D01*
X184419646Y-101209211D01*
X184505301Y-101195647D01*
X184505302Y-101195646D01*
X184505304Y-101195646D01*
X184618342Y-101138050D01*
X184708050Y-101048342D01*
X184765646Y-100935304D01*
X184780500Y-100841519D01*
X184780499Y-100378482D01*
X184780498Y-100378475D01*
X184765647Y-100284698D01*
X184749592Y-100253189D01*
X184708050Y-100171658D01*
X184708049Y-100171657D01*
X184708048Y-100171655D01*
X184618344Y-100081951D01*
X184616269Y-100080893D01*
X184505304Y-100024354D01*
X184505302Y-100024353D01*
X184483234Y-100020858D01*
X184438244Y-99995918D01*
X184419811Y-99947894D01*
X184419800Y-99946584D01*
X184419800Y-99459065D01*
X184419800Y-99459063D01*
X184398347Y-99378999D01*
X184394109Y-99371658D01*
X184394066Y-99371584D01*
X184371703Y-99332850D01*
X184356903Y-99307215D01*
X184356901Y-99307213D01*
X184356899Y-99307210D01*
X183132254Y-98082565D01*
X183060477Y-98041125D01*
X183060474Y-98041124D01*
X183060471Y-98041122D01*
X183039488Y-98035500D01*
X183039485Y-98035499D01*
X183014514Y-98028808D01*
X182980406Y-98019669D01*
X181039087Y-98019669D01*
X180971742Y-98037714D01*
X180959023Y-98041122D01*
X180959019Y-98041123D01*
X180949166Y-98046811D01*
X180949167Y-98046812D01*
X180887240Y-98082565D01*
X180457328Y-98512475D01*
X180410708Y-98534214D01*
X180404154Y-98534500D01*
X180230823Y-98534500D01*
X180185242Y-98540500D01*
X180185236Y-98540502D01*
X180085204Y-98587147D01*
X180085200Y-98587150D01*
X180067189Y-98605162D01*
X180049176Y-98623174D01*
X180002558Y-98644914D01*
X179996003Y-98645200D01*
X178902942Y-98645200D01*
X178854604Y-98627607D01*
X178849768Y-98623174D01*
X176448508Y-96221912D01*
X176398051Y-96192781D01*
X176376725Y-96180469D01*
X176376721Y-96180468D01*
X176376717Y-96180466D01*
X176359806Y-96175934D01*
X176359806Y-96175935D01*
X176328232Y-96167475D01*
X176296660Y-96159016D01*
X176296659Y-96159016D01*
X175725327Y-96159016D01*
X175676989Y-96141423D01*
X175651269Y-96096874D01*
X175658324Y-96049675D01*
X175665645Y-96035306D01*
X175665645Y-96035305D01*
X175665646Y-96035304D01*
X175680500Y-95941519D01*
X175680499Y-95478482D01*
X175680498Y-95478475D01*
X175665647Y-95384698D01*
X175665646Y-95384696D01*
X175608050Y-95271658D01*
X175608049Y-95271657D01*
X175608048Y-95271655D01*
X175518344Y-95181951D01*
X175405304Y-95124354D01*
X175405306Y-95124354D01*
X175358411Y-95116927D01*
X175311519Y-95109500D01*
X175311517Y-95109500D01*
X174698487Y-95109500D01*
X174698475Y-95109501D01*
X174604698Y-95124352D01*
X174491655Y-95181951D01*
X174481033Y-95192574D01*
X174434413Y-95214314D01*
X174427859Y-95214600D01*
X169769156Y-95214600D01*
X169706010Y-95231519D01*
X169706007Y-95231519D01*
X169689087Y-95236053D01*
X169617307Y-95277498D01*
X169617304Y-95277500D01*
X168532330Y-96362474D01*
X168485710Y-96384214D01*
X168479156Y-96384500D01*
X168048487Y-96384500D01*
X168048475Y-96384501D01*
X167954698Y-96399352D01*
X167841655Y-96456951D01*
X167751951Y-96546655D01*
X167694355Y-96659692D01*
X167692527Y-96665321D01*
X167690451Y-96664646D01*
X167669871Y-96701762D01*
X167621845Y-96720189D01*
X167620544Y-96720200D01*
X167529580Y-96720200D01*
X167481242Y-96702607D01*
X167462578Y-96679143D01*
X167420550Y-96596658D01*
X167420549Y-96596657D01*
X167420548Y-96596655D01*
X167330844Y-96506951D01*
X167217804Y-96449354D01*
X167217806Y-96449354D01*
X167170911Y-96441927D01*
X167124019Y-96434500D01*
X167124017Y-96434500D01*
X166510987Y-96434500D01*
X166510975Y-96434501D01*
X166417198Y-96449352D01*
X166304155Y-96506951D01*
X166214451Y-96596655D01*
X166156854Y-96709694D01*
X166142000Y-96803479D01*
X166142000Y-97266512D01*
X166142001Y-97266524D01*
X166156852Y-97360301D01*
X166214451Y-97473344D01*
X166304155Y-97563048D01*
X166304157Y-97563049D01*
X166304158Y-97563050D01*
X166417194Y-97620645D01*
X166417196Y-97620646D01*
X166510981Y-97635500D01*
X167124018Y-97635499D01*
X167132146Y-97634211D01*
X167217801Y-97620647D01*
X167217802Y-97620646D01*
X167217804Y-97620646D01*
X167330842Y-97563050D01*
X167420550Y-97473342D01*
X167462577Y-97390858D01*
X167500197Y-97355778D01*
X167529580Y-97349800D01*
X167612626Y-97349800D01*
X167660964Y-97367393D01*
X167686684Y-97411942D01*
X167686884Y-97413138D01*
X167694354Y-97460301D01*
X167694354Y-97460304D01*
X167751951Y-97573344D01*
X167841655Y-97663048D01*
X167841657Y-97663049D01*
X167841658Y-97663050D01*
X167954694Y-97720645D01*
X167954696Y-97720646D01*
X168048481Y-97735500D01*
X168511518Y-97735499D01*
X168519646Y-97734211D01*
X168605301Y-97720647D01*
X168605302Y-97720646D01*
X168605304Y-97720646D01*
X168718342Y-97663050D01*
X168808050Y-97573342D01*
X168865646Y-97460304D01*
X168880500Y-97366519D01*
X168880499Y-96935841D01*
X168898092Y-96887505D01*
X168902514Y-96882679D01*
X169235982Y-96549211D01*
X169282601Y-96527472D01*
X169332288Y-96540786D01*
X169361793Y-96582923D01*
X169357309Y-96634167D01*
X169356159Y-96636525D01*
X169344355Y-96659692D01*
X169344354Y-96659693D01*
X169329500Y-96753478D01*
X169329500Y-97366512D01*
X169329501Y-97366524D01*
X169344352Y-97460301D01*
X169401951Y-97573344D01*
X169491655Y-97663048D01*
X169491657Y-97663049D01*
X169491658Y-97663050D01*
X169604694Y-97720645D01*
X169604696Y-97720646D01*
X169698481Y-97735500D01*
X170077757Y-97735499D01*
X170126094Y-97753092D01*
X170151815Y-97797640D01*
X170142882Y-97848299D01*
X170130932Y-97863873D01*
X169828098Y-98166707D01*
X169805419Y-98205986D01*
X169793470Y-98221557D01*
X169727795Y-98287233D01*
X169682414Y-98390011D01*
X169679500Y-98415137D01*
X169679500Y-98707500D01*
X169661907Y-98755838D01*
X169617358Y-98781558D01*
X169604300Y-98782700D01*
X169111554Y-98782700D01*
X169063216Y-98765107D01*
X169047880Y-98747509D01*
X168997206Y-98666862D01*
X168995477Y-98664110D01*
X168995476Y-98664109D01*
X168995475Y-98664107D01*
X168875892Y-98544524D01*
X168824886Y-98512475D01*
X168732690Y-98454544D01*
X168722753Y-98451067D01*
X168573064Y-98398688D01*
X168573056Y-98398686D01*
X168405001Y-98379751D01*
X168404999Y-98379751D01*
X168236943Y-98398686D01*
X168236935Y-98398688D01*
X168077312Y-98454543D01*
X167934107Y-98544524D01*
X167814524Y-98664107D01*
X167724543Y-98807312D01*
X167668688Y-98966935D01*
X167668686Y-98966943D01*
X167649751Y-99134999D01*
X167649751Y-99135000D01*
X167668686Y-99303056D01*
X167668688Y-99303064D01*
X167697534Y-99385499D01*
X167724544Y-99462690D01*
X167778107Y-99547934D01*
X167814524Y-99605892D01*
X167934107Y-99725475D01*
X167934109Y-99725476D01*
X167934110Y-99725477D01*
X168050009Y-99798302D01*
X168081577Y-99838915D01*
X168085200Y-99861975D01*
X168085200Y-100011585D01*
X168067607Y-100059923D01*
X168023058Y-100085643D01*
X168021775Y-100085857D01*
X168016550Y-100086684D01*
X167999694Y-100089354D01*
X167886655Y-100146951D01*
X167796951Y-100236655D01*
X167739354Y-100349694D01*
X167724500Y-100443479D01*
X167724500Y-100737757D01*
X167706907Y-100786095D01*
X167662358Y-100811815D01*
X167611700Y-100802882D01*
X167596125Y-100790931D01*
X167515694Y-100710500D01*
X167402717Y-100597522D01*
X167380978Y-100550902D01*
X167394292Y-100501215D01*
X167402715Y-100491176D01*
X167420550Y-100473342D01*
X167478146Y-100360304D01*
X167493000Y-100266519D01*
X167492999Y-99803482D01*
X167492998Y-99803475D01*
X167478147Y-99709698D01*
X167470885Y-99695445D01*
X167420550Y-99596658D01*
X167420549Y-99596657D01*
X167420548Y-99596655D01*
X167330844Y-99506951D01*
X167282856Y-99482500D01*
X167217804Y-99449354D01*
X167217802Y-99449353D01*
X167195734Y-99445858D01*
X167150744Y-99420918D01*
X167132311Y-99372894D01*
X167132300Y-99371584D01*
X167132300Y-99348415D01*
X167149893Y-99300077D01*
X167194442Y-99274357D01*
X167195680Y-99274149D01*
X167217804Y-99270646D01*
X167330842Y-99213050D01*
X167420550Y-99123342D01*
X167478146Y-99010304D01*
X167493000Y-98916519D01*
X167492999Y-98453482D01*
X167492998Y-98453475D01*
X167478147Y-98359698D01*
X167456567Y-98317345D01*
X167420550Y-98246658D01*
X167420549Y-98246657D01*
X167420548Y-98246655D01*
X167330844Y-98156951D01*
X167217804Y-98099354D01*
X167217806Y-98099354D01*
X167169169Y-98091651D01*
X167124019Y-98084500D01*
X167124017Y-98084500D01*
X166510987Y-98084500D01*
X166510975Y-98084501D01*
X166417198Y-98099352D01*
X166304155Y-98156951D01*
X166214451Y-98246655D01*
X166156854Y-98359694D01*
X166142000Y-98453479D01*
X166142000Y-98916512D01*
X166142001Y-98916524D01*
X166156852Y-99010301D01*
X166214451Y-99123344D01*
X166304155Y-99213048D01*
X166304157Y-99213049D01*
X166304158Y-99213050D01*
X166417196Y-99270646D01*
X166439265Y-99274141D01*
X166484252Y-99299076D01*
X166502689Y-99347099D01*
X166502700Y-99348414D01*
X166502700Y-99371585D01*
X166485107Y-99419923D01*
X166440558Y-99445643D01*
X166439275Y-99445857D01*
X166434050Y-99446684D01*
X166417194Y-99449354D01*
X166304155Y-99506951D01*
X166214451Y-99596655D01*
X166156854Y-99709694D01*
X166142000Y-99803479D01*
X166142000Y-100266512D01*
X166142001Y-100266524D01*
X166156852Y-100360301D01*
X166214451Y-100473344D01*
X166304155Y-100563048D01*
X166304157Y-100563049D01*
X166304158Y-100563050D01*
X166417194Y-100620645D01*
X166417196Y-100620646D01*
X166510981Y-100635500D01*
X166519150Y-100635499D01*
X166567487Y-100653088D01*
X166572329Y-100657524D01*
X166870931Y-100956126D01*
X166892671Y-101002746D01*
X166879357Y-101052433D01*
X166837220Y-101081938D01*
X166817757Y-101084500D01*
X166510987Y-101084500D01*
X166510975Y-101084501D01*
X166417198Y-101099352D01*
X166304155Y-101156951D01*
X166214451Y-101246655D01*
X166156854Y-101359694D01*
X166142000Y-101453479D01*
X166142000Y-101916512D01*
X166142001Y-101916524D01*
X166156852Y-102010301D01*
X166214451Y-102123344D01*
X166304155Y-102213048D01*
X166304157Y-102213049D01*
X166304158Y-102213050D01*
X166417196Y-102270646D01*
X166439265Y-102274141D01*
X166484252Y-102299076D01*
X166502689Y-102347099D01*
X166502700Y-102348414D01*
X166502700Y-102371585D01*
X166485107Y-102419923D01*
X166440558Y-102445643D01*
X166439275Y-102445857D01*
X166434050Y-102446684D01*
X166417194Y-102449354D01*
X166304155Y-102506951D01*
X166214451Y-102596655D01*
X166156854Y-102709694D01*
X166142000Y-102803478D01*
X166142000Y-103234156D01*
X166124407Y-103282494D01*
X166119974Y-103287330D01*
X165690784Y-103716519D01*
X165649341Y-103788303D01*
X165649340Y-103788303D01*
X165649341Y-103788304D01*
X165627888Y-103868368D01*
X165627888Y-107304132D01*
X165634042Y-107327099D01*
X165634297Y-107328049D01*
X165634297Y-107328050D01*
X165649341Y-107384199D01*
X165690784Y-107455980D01*
X167186703Y-108951898D01*
X167186705Y-108951899D01*
X167186708Y-108951902D01*
X167258491Y-108993347D01*
X167338556Y-109014799D01*
X167338558Y-109014799D01*
X167421443Y-109014799D01*
X167421444Y-109014799D01*
X167501508Y-108993347D01*
X167501508Y-108993346D01*
X167506147Y-108992104D01*
X167525609Y-108989542D01*
X167726501Y-108989542D01*
X167774839Y-109007135D01*
X167800559Y-109051684D01*
X167798974Y-109076921D01*
X167800436Y-109077134D01*
X167789600Y-109151497D01*
X167789600Y-109618502D01*
X167799594Y-109687088D01*
X167851322Y-109792900D01*
X167934601Y-109876179D01*
X168045659Y-109930471D01*
X168044608Y-109932619D01*
X168077992Y-109957934D01*
X168090000Y-109998700D01*
X168090000Y-110067571D01*
X168072407Y-110115909D01*
X168038042Y-110139089D01*
X168034377Y-110140279D01*
X167914277Y-110201473D01*
X167818971Y-110296779D01*
X167791120Y-110351441D01*
X167753499Y-110386522D01*
X167724117Y-110392500D01*
X167605610Y-110392500D01*
X167557272Y-110374907D01*
X167538607Y-110351440D01*
X167503051Y-110281659D01*
X167503048Y-110281655D01*
X167413344Y-110191951D01*
X167300304Y-110134354D01*
X167300306Y-110134354D01*
X167253411Y-110126927D01*
X167206519Y-110119500D01*
X167206517Y-110119500D01*
X166593487Y-110119500D01*
X166593475Y-110119501D01*
X166499698Y-110134352D01*
X166386655Y-110191951D01*
X166296951Y-110281655D01*
X166239354Y-110394694D01*
X166224500Y-110488479D01*
X166224500Y-110951512D01*
X166224501Y-110951524D01*
X166239352Y-111045301D01*
X166296951Y-111158344D01*
X166386655Y-111248048D01*
X166386657Y-111248049D01*
X166386658Y-111248050D01*
X166499694Y-111305645D01*
X166499696Y-111305646D01*
X166593481Y-111320500D01*
X167206518Y-111320499D01*
X167214646Y-111319211D01*
X167300301Y-111305647D01*
X167300302Y-111305646D01*
X167300304Y-111305646D01*
X167413342Y-111248050D01*
X167503050Y-111158342D01*
X167518077Y-111128850D01*
X167538607Y-111088560D01*
X167576227Y-111053478D01*
X167605610Y-111047500D01*
X167672073Y-111047500D01*
X167720411Y-111065093D01*
X167746131Y-111109642D01*
X167746347Y-111110936D01*
X167757781Y-111183127D01*
X167818973Y-111303222D01*
X167914277Y-111398526D01*
X167914279Y-111398527D01*
X167914280Y-111398528D01*
X168034372Y-111459718D01*
X168034374Y-111459719D01*
X168131447Y-111475093D01*
X168176436Y-111500031D01*
X168194871Y-111548054D01*
X168178124Y-111596692D01*
X168134031Y-111623185D01*
X168125596Y-111624334D01*
X168123484Y-111624500D01*
X168029698Y-111639352D01*
X167916655Y-111696951D01*
X167826951Y-111786655D01*
X167769354Y-111899694D01*
X167754500Y-111993478D01*
X167754500Y-112606512D01*
X167754501Y-112606524D01*
X167769352Y-112700301D01*
X167826951Y-112813344D01*
X167916655Y-112903048D01*
X167916654Y-112903048D01*
X167916658Y-112903050D01*
X167986441Y-112938606D01*
X168021522Y-112976226D01*
X168027500Y-113005609D01*
X168027500Y-113194769D01*
X168009907Y-113243107D01*
X167993517Y-113256143D01*
X167994039Y-113256861D01*
X167989247Y-113260342D01*
X167895343Y-113354246D01*
X167835049Y-113472578D01*
X167819500Y-113570751D01*
X167819500Y-114149248D01*
X167835049Y-114247421D01*
X167895343Y-114365753D01*
X167989246Y-114459656D01*
X167989248Y-114459657D01*
X167989249Y-114459658D01*
X168107578Y-114519950D01*
X168107580Y-114519951D01*
X168205754Y-114535500D01*
X168205758Y-114535500D01*
X168709242Y-114535500D01*
X168709246Y-114535500D01*
X168807420Y-114519951D01*
X168925751Y-114459658D01*
X169019658Y-114365751D01*
X169079951Y-114247420D01*
X169095500Y-114149246D01*
X169095500Y-113570754D01*
X169079951Y-113472580D01*
X169019658Y-113354249D01*
X169019657Y-113354248D01*
X169019656Y-113354246D01*
X168925753Y-113260343D01*
X168807420Y-113200049D01*
X168807422Y-113200049D01*
X168745936Y-113190311D01*
X168700946Y-113165373D01*
X168682511Y-113117349D01*
X168682500Y-113116037D01*
X168682500Y-113005609D01*
X168700093Y-112957271D01*
X168723557Y-112938607D01*
X168793342Y-112903050D01*
X168883050Y-112813342D01*
X168940646Y-112700304D01*
X168955500Y-112606519D01*
X168955499Y-111993482D01*
X168950576Y-111962394D01*
X168940647Y-111899698D01*
X168940645Y-111899694D01*
X168883050Y-111786658D01*
X168883049Y-111786657D01*
X168883048Y-111786655D01*
X168793344Y-111696951D01*
X168680304Y-111639354D01*
X168680306Y-111639354D01*
X168613918Y-111628839D01*
X168589510Y-111624973D01*
X168544521Y-111600036D01*
X168526086Y-111552012D01*
X168542834Y-111503375D01*
X168586926Y-111476882D01*
X168601275Y-111475500D01*
X168650984Y-111475500D01*
X168650988Y-111475500D01*
X168750626Y-111459719D01*
X168870720Y-111398528D01*
X168966028Y-111303220D01*
X169027219Y-111183126D01*
X169043000Y-111083488D01*
X169043000Y-110516512D01*
X169027219Y-110416874D01*
X168966028Y-110296780D01*
X168966027Y-110296779D01*
X168966026Y-110296777D01*
X168870720Y-110201471D01*
X168786059Y-110158334D01*
X168750978Y-110120713D01*
X168745000Y-110091331D01*
X168745000Y-109998700D01*
X168762593Y-109950362D01*
X168790126Y-109932078D01*
X168789341Y-109930471D01*
X168900398Y-109876179D01*
X168983677Y-109792900D01*
X168983679Y-109792898D01*
X169035406Y-109687088D01*
X169045400Y-109618494D01*
X169045400Y-109151506D01*
X169044225Y-109143444D01*
X169037170Y-109095021D01*
X169035406Y-109082912D01*
X169035405Y-109082911D01*
X169034564Y-109077134D01*
X169037157Y-109076756D01*
X169039183Y-109035581D01*
X169074145Y-108997848D01*
X169108499Y-108989542D01*
X169980532Y-108989542D01*
X170028870Y-109007135D01*
X170054590Y-109051684D01*
X170051512Y-109089577D01*
X170046893Y-109102778D01*
X170043688Y-109111938D01*
X170043686Y-109111943D01*
X170024751Y-109279999D01*
X170024751Y-109280000D01*
X170043686Y-109448056D01*
X170043688Y-109448064D01*
X170096067Y-109597753D01*
X170099544Y-109607690D01*
X170169293Y-109718695D01*
X170189524Y-109750892D01*
X170309107Y-109870475D01*
X170309109Y-109870476D01*
X170309110Y-109870477D01*
X170452310Y-109960456D01*
X170611941Y-110016313D01*
X170723980Y-110028937D01*
X170779999Y-110035249D01*
X170780000Y-110035249D01*
X170780001Y-110035249D01*
X170822014Y-110030515D01*
X170948059Y-110016313D01*
X171107690Y-109960456D01*
X171250890Y-109870477D01*
X171370477Y-109750890D01*
X171460456Y-109607690D01*
X171516313Y-109448059D01*
X171535249Y-109280000D01*
X171532306Y-109253885D01*
X171526585Y-109203107D01*
X171516313Y-109111941D01*
X171513107Y-109102778D01*
X171513748Y-109051342D01*
X171530911Y-109024769D01*
X172623155Y-107932526D01*
X172669775Y-107910786D01*
X172676329Y-107910500D01*
X172829300Y-107910500D01*
X172877638Y-107928093D01*
X172903358Y-107972642D01*
X172904500Y-107985700D01*
X172904500Y-108843175D01*
X172905492Y-108863330D01*
X172906699Y-108875569D01*
X172909670Y-108895559D01*
X172916019Y-108927404D01*
X172920902Y-108951902D01*
X172921318Y-108953986D01*
X172921319Y-108953992D01*
X172933057Y-108992601D01*
X172942427Y-109015169D01*
X172942427Y-109015170D01*
X172961494Y-109050753D01*
X172961496Y-109050756D01*
X172991153Y-109095023D01*
X172991167Y-109095041D01*
X173016808Y-109126192D01*
X173016815Y-109126200D01*
X173034108Y-109143434D01*
X173034115Y-109143440D01*
X173034119Y-109143444D01*
X173065368Y-109168992D01*
X173065370Y-109168993D01*
X173109717Y-109198494D01*
X173109726Y-109198499D01*
X173109732Y-109198503D01*
X173145376Y-109217452D01*
X173167976Y-109226748D01*
X173206641Y-109238363D01*
X173265097Y-109249815D01*
X173285099Y-109252721D01*
X173297317Y-109253886D01*
X173317503Y-109254813D01*
X188932920Y-109203107D01*
X190095081Y-109199259D01*
X191023130Y-109196186D01*
X191049901Y-109194345D01*
X191066037Y-109192170D01*
X191092323Y-109186862D01*
X191092338Y-109186857D01*
X191092347Y-109186856D01*
X191128727Y-109176999D01*
X191167991Y-109166362D01*
X191217396Y-109145754D01*
X191245320Y-109129550D01*
X191287728Y-109096879D01*
X191337068Y-109047376D01*
X191369598Y-109004861D01*
X191385710Y-108976884D01*
X191406156Y-108927409D01*
X191426405Y-108851676D01*
X191431628Y-108825364D01*
X191433749Y-108809220D01*
X191435500Y-108782451D01*
X191435500Y-106456405D01*
X191435499Y-106456397D01*
X191435499Y-106456374D01*
X191434509Y-106436252D01*
X191434508Y-106436232D01*
X191433311Y-106424086D01*
X191433308Y-106424069D01*
X191433306Y-106424042D01*
X191430341Y-106404075D01*
X191418724Y-106345725D01*
X191407012Y-106307149D01*
X191397666Y-106284606D01*
X191397660Y-106284594D01*
X191397657Y-106284588D01*
X191378660Y-106249078D01*
X191378643Y-106249049D01*
X191349071Y-106204836D01*
X191349062Y-106204824D01*
X191323480Y-106173687D01*
X191323479Y-106173685D01*
X191320154Y-106170364D01*
X191306208Y-106156435D01*
X191275026Y-106130880D01*
X191230757Y-106101349D01*
X191230749Y-106101344D01*
X191195186Y-106082374D01*
X191195181Y-106082371D01*
X191172638Y-106073058D01*
X191172629Y-106073055D01*
X191134045Y-106061392D01*
X191075704Y-106049851D01*
X191075668Y-106049844D01*
X191074033Y-106049604D01*
X191028775Y-106025156D01*
X191009820Y-105977335D01*
X191026038Y-105928519D01*
X191062334Y-105903501D01*
X210700862Y-99698918D01*
X210723382Y-99695425D01*
X211656325Y-99693844D01*
X211704691Y-99711356D01*
X211730486Y-99755860D01*
X211721640Y-99806534D01*
X211714582Y-99816750D01*
X211602315Y-99953548D01*
X211602312Y-99953554D01*
X211504770Y-100136040D01*
X211503352Y-100139464D01*
X211501688Y-100138774D01*
X211474592Y-100174885D01*
X211433508Y-100187100D01*
X210783460Y-100187100D01*
X210690540Y-100187100D01*
X210645663Y-100199125D01*
X210600784Y-100211150D01*
X210520315Y-100257609D01*
X210520309Y-100257613D01*
X200352850Y-110425074D01*
X200306230Y-110446814D01*
X200299676Y-110447100D01*
X170638703Y-110447100D01*
X170590365Y-110429507D01*
X170571699Y-110406040D01*
X170516026Y-110296777D01*
X170420722Y-110201473D01*
X170300626Y-110140281D01*
X170300628Y-110140281D01*
X170200990Y-110124500D01*
X170200988Y-110124500D01*
X169684012Y-110124500D01*
X169684009Y-110124500D01*
X169584372Y-110140281D01*
X169464277Y-110201473D01*
X169368973Y-110296777D01*
X169307781Y-110416872D01*
X169292000Y-110516509D01*
X169292000Y-111083490D01*
X169307781Y-111183127D01*
X169368973Y-111303222D01*
X169464277Y-111398526D01*
X169464276Y-111398526D01*
X169464280Y-111398528D01*
X169548541Y-111441461D01*
X169583622Y-111479081D01*
X169589600Y-111508464D01*
X169589600Y-111642859D01*
X169572007Y-111691197D01*
X169567574Y-111696033D01*
X169476951Y-111786655D01*
X169419354Y-111899694D01*
X169404500Y-111993478D01*
X169404500Y-112606512D01*
X169404501Y-112606524D01*
X169419352Y-112700301D01*
X169476951Y-112813344D01*
X169566655Y-112903048D01*
X169566654Y-112903048D01*
X169566658Y-112903050D01*
X169611041Y-112925664D01*
X169646122Y-112963283D01*
X169652100Y-112992667D01*
X169652100Y-113238449D01*
X169634507Y-113286787D01*
X169616911Y-113302121D01*
X169609113Y-113307020D01*
X169609101Y-113307030D01*
X169489524Y-113426607D01*
X169445683Y-113496380D01*
X169400357Y-113568517D01*
X169399543Y-113569812D01*
X169343688Y-113729435D01*
X169343686Y-113729443D01*
X169324751Y-113897499D01*
X169324751Y-113897500D01*
X169343686Y-114065556D01*
X169343688Y-114065564D01*
X169396067Y-114215253D01*
X169399544Y-114225190D01*
X169413513Y-114247421D01*
X169489524Y-114368392D01*
X169609107Y-114487975D01*
X169609109Y-114487976D01*
X169609110Y-114487977D01*
X169752310Y-114577956D01*
X169911941Y-114633813D01*
X170023980Y-114646437D01*
X170079999Y-114652749D01*
X170080000Y-114652749D01*
X170080001Y-114652749D01*
X170122014Y-114648015D01*
X170248059Y-114633813D01*
X170407690Y-114577956D01*
X170445543Y-114554171D01*
X173087600Y-114554171D01*
X173102524Y-114648399D01*
X173160394Y-114761974D01*
X173250525Y-114852105D01*
X173364101Y-114909975D01*
X173364099Y-114909975D01*
X173458328Y-114924899D01*
X173458336Y-114924900D01*
X174765000Y-114924900D01*
X175015000Y-114924900D01*
X176321664Y-114924900D01*
X176321671Y-114924899D01*
X176415899Y-114909975D01*
X176529474Y-114852105D01*
X176619605Y-114761974D01*
X176677475Y-114648399D01*
X176692399Y-114554171D01*
X179722600Y-114554171D01*
X179737524Y-114648399D01*
X179795394Y-114761974D01*
X179885525Y-114852105D01*
X179999101Y-114909975D01*
X179999099Y-114909975D01*
X180093328Y-114924899D01*
X180093336Y-114924900D01*
X181400000Y-114924900D01*
X181650000Y-114924900D01*
X182956664Y-114924900D01*
X182956671Y-114924899D01*
X183050899Y-114909975D01*
X183164474Y-114852105D01*
X183254605Y-114761974D01*
X183312475Y-114648399D01*
X183327399Y-114554171D01*
X186357600Y-114554171D01*
X186372524Y-114648399D01*
X186430394Y-114761974D01*
X186520525Y-114852105D01*
X186634101Y-114909975D01*
X186634099Y-114909975D01*
X186728328Y-114924899D01*
X186728336Y-114924900D01*
X188035000Y-114924900D01*
X188285000Y-114924900D01*
X189591664Y-114924900D01*
X189591671Y-114924899D01*
X189685899Y-114909975D01*
X189799474Y-114852105D01*
X189889605Y-114761974D01*
X189947475Y-114648399D01*
X189962399Y-114554171D01*
X189962400Y-114554164D01*
X189962400Y-113897500D01*
X188285000Y-113897500D01*
X188285000Y-114924900D01*
X188035000Y-114924900D01*
X188035000Y-113897500D01*
X186357600Y-113897500D01*
X186357600Y-114554171D01*
X183327399Y-114554171D01*
X183327400Y-114554164D01*
X183327400Y-113897500D01*
X181650000Y-113897500D01*
X181650000Y-114924900D01*
X181400000Y-114924900D01*
X181400000Y-113897500D01*
X179722600Y-113897500D01*
X179722600Y-114554171D01*
X176692399Y-114554171D01*
X176692400Y-114554164D01*
X176692400Y-113897500D01*
X175015000Y-113897500D01*
X175015000Y-114924900D01*
X174765000Y-114924900D01*
X174765000Y-113897500D01*
X173087600Y-113897500D01*
X173087600Y-114554171D01*
X170445543Y-114554171D01*
X170550890Y-114487977D01*
X170670477Y-114368390D01*
X170760456Y-114225190D01*
X170816313Y-114065559D01*
X170835249Y-113897500D01*
X170816313Y-113729441D01*
X170760456Y-113569810D01*
X170670477Y-113426610D01*
X170670476Y-113426609D01*
X170670475Y-113426607D01*
X170550892Y-113307024D01*
X170507899Y-113280010D01*
X170407690Y-113217044D01*
X170407687Y-113217043D01*
X170407681Y-113217039D01*
X170403881Y-113215209D01*
X170404415Y-113214099D01*
X170368445Y-113184666D01*
X170357900Y-113146264D01*
X170357900Y-112992667D01*
X170358569Y-112990828D01*
X173087600Y-112990828D01*
X173087600Y-113647500D01*
X174765000Y-113647500D01*
X175015000Y-113647500D01*
X176692400Y-113647500D01*
X176692400Y-112990836D01*
X176692399Y-112990828D01*
X179722600Y-112990828D01*
X179722600Y-113647500D01*
X181400000Y-113647500D01*
X181650000Y-113647500D01*
X183327400Y-113647500D01*
X183327400Y-112990836D01*
X183327399Y-112990828D01*
X186357600Y-112990828D01*
X186357600Y-113647500D01*
X188035000Y-113647500D01*
X188285000Y-113647500D01*
X189962400Y-113647500D01*
X189962400Y-112990836D01*
X189962399Y-112990828D01*
X189947475Y-112896600D01*
X189889605Y-112783025D01*
X189799474Y-112692894D01*
X189685898Y-112635024D01*
X189685900Y-112635024D01*
X189591671Y-112620100D01*
X188285000Y-112620100D01*
X188285000Y-113647500D01*
X188035000Y-113647500D01*
X188035000Y-112620100D01*
X186728328Y-112620100D01*
X186634100Y-112635024D01*
X186520525Y-112692894D01*
X186430394Y-112783025D01*
X186372524Y-112896600D01*
X186357600Y-112990828D01*
X183327399Y-112990828D01*
X183312475Y-112896600D01*
X183254605Y-112783025D01*
X183164474Y-112692894D01*
X183050898Y-112635024D01*
X183050900Y-112635024D01*
X182956671Y-112620100D01*
X181650000Y-112620100D01*
X181650000Y-113647500D01*
X181400000Y-113647500D01*
X181400000Y-112620100D01*
X180093328Y-112620100D01*
X179999100Y-112635024D01*
X179885525Y-112692894D01*
X179795394Y-112783025D01*
X179737524Y-112896600D01*
X179722600Y-112990828D01*
X176692399Y-112990828D01*
X176677475Y-112896600D01*
X176619605Y-112783025D01*
X176529474Y-112692894D01*
X176415898Y-112635024D01*
X176415900Y-112635024D01*
X176321671Y-112620100D01*
X175015000Y-112620100D01*
X175015000Y-113647500D01*
X174765000Y-113647500D01*
X174765000Y-112620100D01*
X173458328Y-112620100D01*
X173364100Y-112635024D01*
X173250525Y-112692894D01*
X173160394Y-112783025D01*
X173102524Y-112896600D01*
X173087600Y-112990828D01*
X170358569Y-112990828D01*
X170375493Y-112944329D01*
X170398957Y-112925665D01*
X170443342Y-112903050D01*
X170533050Y-112813342D01*
X170590646Y-112700304D01*
X170605500Y-112606519D01*
X170605499Y-111993482D01*
X170600576Y-111962394D01*
X170590647Y-111899698D01*
X170590645Y-111899694D01*
X170533050Y-111786658D01*
X170533049Y-111786657D01*
X170533048Y-111786655D01*
X170443344Y-111696951D01*
X170420399Y-111685260D01*
X170336459Y-111642490D01*
X170301378Y-111604870D01*
X170295400Y-111575487D01*
X170295400Y-111508464D01*
X170312993Y-111460126D01*
X170336457Y-111441461D01*
X170420720Y-111398528D01*
X170516028Y-111303220D01*
X170571699Y-111193960D01*
X170609320Y-111158878D01*
X170638703Y-111152900D01*
X200523458Y-111152900D01*
X200523460Y-111152900D01*
X200613214Y-111128850D01*
X200693686Y-111082390D01*
X206281077Y-105494999D01*
X211485061Y-105494999D01*
X211485061Y-105495000D01*
X211995856Y-105495000D01*
X211980000Y-105554174D01*
X211980000Y-105685826D01*
X211995856Y-105745000D01*
X211485061Y-105745000D01*
X211492103Y-105816501D01*
X211492103Y-105816503D01*
X211549419Y-106005451D01*
X211549424Y-106005463D01*
X211642499Y-106179593D01*
X211642503Y-106179599D01*
X211767766Y-106332233D01*
X211920400Y-106457496D01*
X211920406Y-106457500D01*
X212094536Y-106550575D01*
X212094548Y-106550580D01*
X212283497Y-106607896D01*
X212355000Y-106614938D01*
X212355000Y-106104144D01*
X212414174Y-106120000D01*
X212545826Y-106120000D01*
X212605000Y-106104144D01*
X212605000Y-106614937D01*
X212676502Y-106607896D01*
X212865451Y-106550580D01*
X212865463Y-106550575D01*
X213039593Y-106457500D01*
X213039599Y-106457496D01*
X213192233Y-106332233D01*
X213317496Y-106179599D01*
X213317500Y-106179593D01*
X213410575Y-106005463D01*
X213410580Y-106005451D01*
X213467896Y-105816503D01*
X213467896Y-105816501D01*
X213474938Y-105745000D01*
X212964144Y-105745000D01*
X212980000Y-105685826D01*
X212980000Y-105554174D01*
X212964144Y-105495000D01*
X213474939Y-105495000D01*
X213474938Y-105494999D01*
X213467896Y-105423498D01*
X213467896Y-105423496D01*
X213410580Y-105234548D01*
X213410575Y-105234536D01*
X213317500Y-105060406D01*
X213317496Y-105060400D01*
X213192233Y-104907766D01*
X213039599Y-104782503D01*
X213039593Y-104782499D01*
X212865463Y-104689424D01*
X212865451Y-104689419D01*
X212676502Y-104632103D01*
X212605000Y-104625061D01*
X212605000Y-105135855D01*
X212545826Y-105120000D01*
X212414174Y-105120000D01*
X212355000Y-105135855D01*
X212355000Y-104625061D01*
X212354999Y-104625061D01*
X212283498Y-104632103D01*
X212283496Y-104632103D01*
X212094548Y-104689419D01*
X212094536Y-104689424D01*
X211920406Y-104782499D01*
X211920400Y-104782503D01*
X211767766Y-104907766D01*
X211642503Y-105060400D01*
X211642499Y-105060406D01*
X211549424Y-105234536D01*
X211549419Y-105234548D01*
X211492103Y-105423496D01*
X211492103Y-105423498D01*
X211485061Y-105494999D01*
X206281077Y-105494999D01*
X208696076Y-103080000D01*
X211424417Y-103080000D01*
X211444699Y-103285932D01*
X211504765Y-103483947D01*
X211504770Y-103483959D01*
X211599251Y-103660718D01*
X211602315Y-103666450D01*
X211733590Y-103826410D01*
X211893550Y-103957685D01*
X212076046Y-104055232D01*
X212076050Y-104055233D01*
X212076052Y-104055234D01*
X212149778Y-104077598D01*
X212274066Y-104115300D01*
X212480000Y-104135583D01*
X212685934Y-104115300D01*
X212883954Y-104055232D01*
X213066450Y-103957685D01*
X213226410Y-103826410D01*
X213357685Y-103666450D01*
X213455232Y-103483954D01*
X213515300Y-103285934D01*
X213535583Y-103080000D01*
X213515300Y-102874066D01*
X213465440Y-102709698D01*
X213455234Y-102676052D01*
X213455229Y-102676040D01*
X213369247Y-102515181D01*
X213357685Y-102493550D01*
X213226410Y-102333590D01*
X213066450Y-102202315D01*
X213066445Y-102202312D01*
X212883959Y-102104770D01*
X212883947Y-102104765D01*
X212685932Y-102044699D01*
X212480000Y-102024417D01*
X212274067Y-102044699D01*
X212076052Y-102104765D01*
X212076040Y-102104770D01*
X211893554Y-102202312D01*
X211893549Y-102202315D01*
X211733590Y-102333590D01*
X211602315Y-102493549D01*
X211602312Y-102493554D01*
X211504770Y-102676040D01*
X211504765Y-102676052D01*
X211444699Y-102874067D01*
X211424417Y-103080000D01*
X208696076Y-103080000D01*
X210861150Y-100914926D01*
X210907770Y-100893186D01*
X210914324Y-100892900D01*
X211433508Y-100892900D01*
X211481846Y-100910493D01*
X211502044Y-100941077D01*
X211503352Y-100940536D01*
X211504770Y-100943959D01*
X211602312Y-101126445D01*
X211602315Y-101126450D01*
X211733590Y-101286410D01*
X211893550Y-101417685D01*
X212076046Y-101515232D01*
X212076050Y-101515233D01*
X212076052Y-101515234D01*
X212149778Y-101537598D01*
X212274066Y-101575300D01*
X212480000Y-101595583D01*
X212685934Y-101575300D01*
X212883954Y-101515232D01*
X213066450Y-101417685D01*
X213226410Y-101286410D01*
X213357685Y-101126450D01*
X213455232Y-100943954D01*
X213515300Y-100745934D01*
X213535583Y-100540000D01*
X213515300Y-100334066D01*
X213458540Y-100146950D01*
X213455234Y-100136052D01*
X213455229Y-100136040D01*
X213380331Y-99995918D01*
X213357685Y-99953550D01*
X213243128Y-99813961D01*
X213226063Y-99765434D01*
X213244183Y-99717292D01*
X213289009Y-99692059D01*
X213301128Y-99691055D01*
X215314174Y-99687643D01*
X215362540Y-99705155D01*
X215388335Y-99749659D01*
X215389500Y-99762843D01*
X215389500Y-125184300D01*
X215371907Y-125232638D01*
X215327358Y-125258358D01*
X215314300Y-125259500D01*
X145991700Y-125259500D01*
X145943362Y-125241907D01*
X145917642Y-125197358D01*
X145916500Y-125184300D01*
X145916500Y-123120000D01*
X212364659Y-123120000D01*
X212383975Y-123316128D01*
X212441188Y-123504732D01*
X212534087Y-123678533D01*
X212534091Y-123678539D01*
X212659116Y-123830883D01*
X212765131Y-123917887D01*
X212811462Y-123955910D01*
X212985273Y-124048814D01*
X213173868Y-124106024D01*
X213370000Y-124125341D01*
X213566132Y-124106024D01*
X213754727Y-124048814D01*
X213928538Y-123955910D01*
X214080883Y-123830883D01*
X214205910Y-123678538D01*
X214298814Y-123504727D01*
X214356024Y-123316132D01*
X214375341Y-123120000D01*
X214356024Y-122923868D01*
X214298814Y-122735273D01*
X214205910Y-122561462D01*
X214167887Y-122515131D01*
X214080883Y-122409116D01*
X213928539Y-122284091D01*
X213928540Y-122284091D01*
X213928538Y-122284090D01*
X213928535Y-122284088D01*
X213928533Y-122284087D01*
X213754732Y-122191188D01*
X213754729Y-122191187D01*
X213754727Y-122191186D01*
X213566132Y-122133976D01*
X213566127Y-122133975D01*
X213566130Y-122133975D01*
X213370000Y-122114659D01*
X213173871Y-122133975D01*
X213173868Y-122133976D01*
X212985273Y-122191186D01*
X212985272Y-122191186D01*
X212985267Y-122191188D01*
X212811466Y-122284087D01*
X212811460Y-122284091D01*
X212659116Y-122409116D01*
X212534091Y-122561460D01*
X212534087Y-122561466D01*
X212441188Y-122735267D01*
X212383975Y-122923871D01*
X212364659Y-123120000D01*
X145916500Y-123120000D01*
X145916500Y-114151482D01*
X166292600Y-114151482D01*
X166303111Y-114223617D01*
X166303111Y-114223619D01*
X166357512Y-114334899D01*
X166445100Y-114422487D01*
X166556381Y-114476888D01*
X166628517Y-114487399D01*
X166628528Y-114487400D01*
X166757500Y-114487400D01*
X167007500Y-114487400D01*
X167136472Y-114487400D01*
X167136482Y-114487399D01*
X167208617Y-114476888D01*
X167208619Y-114476888D01*
X167319899Y-114422487D01*
X167407487Y-114334899D01*
X167461888Y-114223619D01*
X167461888Y-114223617D01*
X167472399Y-114151482D01*
X167472400Y-114151472D01*
X167472400Y-113985000D01*
X167007500Y-113985000D01*
X167007500Y-114487400D01*
X166757500Y-114487400D01*
X166757500Y-113985000D01*
X166292600Y-113985000D01*
X166292600Y-114151482D01*
X145916500Y-114151482D01*
X145916500Y-113568517D01*
X166292600Y-113568517D01*
X166292600Y-113735000D01*
X166757500Y-113735000D01*
X167007500Y-113735000D01*
X167472400Y-113735000D01*
X167472400Y-113568527D01*
X167472399Y-113568517D01*
X167461888Y-113496382D01*
X167461888Y-113496380D01*
X167407487Y-113385100D01*
X167319899Y-113297512D01*
X167208618Y-113243111D01*
X167136482Y-113232600D01*
X167007500Y-113232600D01*
X167007500Y-113735000D01*
X166757500Y-113735000D01*
X166757500Y-113232600D01*
X166628517Y-113232600D01*
X166556382Y-113243111D01*
X166556380Y-113243111D01*
X166445100Y-113297512D01*
X166357512Y-113385100D01*
X166303111Y-113496380D01*
X166303111Y-113496382D01*
X166292600Y-113568517D01*
X145916500Y-113568517D01*
X145916500Y-112603454D01*
X166272600Y-112603454D01*
X166282580Y-112671942D01*
X166334235Y-112777605D01*
X166417394Y-112860764D01*
X166523057Y-112912419D01*
X166523056Y-112912419D01*
X166591545Y-112922399D01*
X166591556Y-112922400D01*
X166775000Y-112922400D01*
X167025000Y-112922400D01*
X167208444Y-112922400D01*
X167208454Y-112922399D01*
X167276942Y-112912419D01*
X167382605Y-112860764D01*
X167465764Y-112777605D01*
X167517419Y-112671942D01*
X167527399Y-112603454D01*
X167527400Y-112603444D01*
X167527400Y-112495000D01*
X167025000Y-112495000D01*
X167025000Y-112922400D01*
X166775000Y-112922400D01*
X166775000Y-112495000D01*
X166272600Y-112495000D01*
X166272600Y-112603454D01*
X145916500Y-112603454D01*
X145916500Y-112136545D01*
X166272600Y-112136545D01*
X166272600Y-112245000D01*
X166775000Y-112245000D01*
X167025000Y-112245000D01*
X167527400Y-112245000D01*
X167527400Y-112136555D01*
X167527399Y-112136545D01*
X167517419Y-112068057D01*
X167465764Y-111962394D01*
X167382605Y-111879235D01*
X167276942Y-111827580D01*
X167276943Y-111827580D01*
X167208454Y-111817600D01*
X167025000Y-111817600D01*
X167025000Y-112245000D01*
X166775000Y-112245000D01*
X166775000Y-111817600D01*
X166591545Y-111817600D01*
X166523057Y-111827580D01*
X166417394Y-111879235D01*
X166334235Y-111962394D01*
X166282580Y-112068057D01*
X166272600Y-112136545D01*
X145916500Y-112136545D01*
X145916500Y-80350000D01*
X149594659Y-80350000D01*
X149613975Y-80546128D01*
X149613975Y-80546130D01*
X149613976Y-80546132D01*
X149649953Y-80664732D01*
X149671188Y-80734732D01*
X149764087Y-80908533D01*
X149764091Y-80908539D01*
X149889116Y-81060883D01*
X149995131Y-81147887D01*
X150041462Y-81185910D01*
X150041466Y-81185912D01*
X150191344Y-81266024D01*
X150215273Y-81278814D01*
X150403868Y-81336024D01*
X150600000Y-81355341D01*
X150796132Y-81336024D01*
X150984727Y-81278814D01*
X151158538Y-81185910D01*
X151310883Y-81060883D01*
X151435910Y-80908538D01*
X151528814Y-80734727D01*
X151586024Y-80546132D01*
X151605341Y-80350000D01*
X151598447Y-80280000D01*
X212304659Y-80280000D01*
X212323975Y-80476128D01*
X212323975Y-80476130D01*
X212323976Y-80476132D01*
X212345210Y-80546132D01*
X212381188Y-80664732D01*
X212474087Y-80838533D01*
X212474091Y-80838539D01*
X212599116Y-80990883D01*
X212684412Y-81060883D01*
X212751462Y-81115910D01*
X212751466Y-81115912D01*
X212882422Y-81185910D01*
X212925273Y-81208814D01*
X213113868Y-81266024D01*
X213310000Y-81285341D01*
X213506132Y-81266024D01*
X213694727Y-81208814D01*
X213868538Y-81115910D01*
X214020883Y-80990883D01*
X214145910Y-80838538D01*
X214238814Y-80664727D01*
X214296024Y-80476132D01*
X214315341Y-80280000D01*
X214296024Y-80083868D01*
X214238814Y-79895273D01*
X214145910Y-79721462D01*
X214078330Y-79639116D01*
X214020883Y-79569116D01*
X213868539Y-79444091D01*
X213868540Y-79444091D01*
X213868538Y-79444090D01*
X213868535Y-79444088D01*
X213868533Y-79444087D01*
X213694732Y-79351188D01*
X213694729Y-79351187D01*
X213694727Y-79351186D01*
X213506132Y-79293976D01*
X213506127Y-79293975D01*
X213506130Y-79293975D01*
X213310000Y-79274659D01*
X213113871Y-79293975D01*
X213113868Y-79293976D01*
X212925273Y-79351186D01*
X212925272Y-79351186D01*
X212925267Y-79351188D01*
X212751466Y-79444087D01*
X212751460Y-79444091D01*
X212599116Y-79569116D01*
X212474091Y-79721460D01*
X212474087Y-79721466D01*
X212381188Y-79895267D01*
X212381186Y-79895272D01*
X212381186Y-79895273D01*
X212359952Y-79965273D01*
X212323975Y-80083871D01*
X212304659Y-80280000D01*
X151598447Y-80280000D01*
X151586024Y-80153868D01*
X151528814Y-79965273D01*
X151435910Y-79791462D01*
X151397887Y-79745131D01*
X151310883Y-79639116D01*
X151158539Y-79514091D01*
X151158540Y-79514091D01*
X151158538Y-79514090D01*
X151158535Y-79514088D01*
X151158533Y-79514087D01*
X150984732Y-79421188D01*
X150984729Y-79421187D01*
X150984727Y-79421186D01*
X150796132Y-79363976D01*
X150796127Y-79363975D01*
X150796130Y-79363975D01*
X150600000Y-79344659D01*
X150403871Y-79363975D01*
X150403868Y-79363976D01*
X150215273Y-79421186D01*
X150215272Y-79421186D01*
X150215267Y-79421188D01*
X150041466Y-79514087D01*
X150041460Y-79514091D01*
X149889116Y-79639116D01*
X149764091Y-79791460D01*
X149764087Y-79791466D01*
X149671188Y-79965267D01*
X149613975Y-80153871D01*
X149594659Y-80350000D01*
X145916500Y-80350000D01*
X145916500Y-78335700D01*
X145934093Y-78287362D01*
X145978642Y-78261642D01*
X145991700Y-78260500D01*
X215314300Y-78260500D01*
X215362638Y-78278093D01*
G37*
%TD.AperFunction*%
%TA.AperFunction,Conductor*%
G36*
X174863709Y-101017393D02*
G01*
X174889429Y-101061942D01*
X174882375Y-101109140D01*
X174869354Y-101134694D01*
X174854500Y-101228478D01*
X174854500Y-101659155D01*
X174836907Y-101707493D01*
X174832475Y-101712329D01*
X174574417Y-101970388D01*
X174527796Y-101992128D01*
X174521242Y-101992414D01*
X171258804Y-101992414D01*
X171250064Y-101994756D01*
X171197239Y-102008910D01*
X171197238Y-102008909D01*
X171178742Y-102013865D01*
X171178741Y-102013866D01*
X171178739Y-102013866D01*
X171178739Y-102013867D01*
X171153438Y-102028475D01*
X171106951Y-102055315D01*
X169828096Y-103334169D01*
X169786653Y-103405953D01*
X169786652Y-103405953D01*
X169786653Y-103405954D01*
X169765200Y-103486018D01*
X169765200Y-103486020D01*
X169765200Y-103943680D01*
X169747607Y-103992018D01*
X169743174Y-103996854D01*
X169727797Y-104012230D01*
X169727795Y-104012233D01*
X169682414Y-104115011D01*
X169681079Y-104126522D01*
X169679805Y-104137511D01*
X169679500Y-104140137D01*
X169679500Y-105504856D01*
X169682415Y-105529994D01*
X169719629Y-105614273D01*
X169727794Y-105632765D01*
X169727795Y-105632766D01*
X169727797Y-105632769D01*
X169807230Y-105712202D01*
X169807233Y-105712204D01*
X169807235Y-105712206D01*
X169910009Y-105757585D01*
X169935135Y-105760500D01*
X170082737Y-105760499D01*
X170131074Y-105778092D01*
X170156794Y-105822640D01*
X170147862Y-105873299D01*
X170139569Y-105884944D01*
X170073360Y-105961353D01*
X170073355Y-105961360D01*
X170013568Y-106092273D01*
X169993086Y-106234733D01*
X170013568Y-106377192D01*
X170073355Y-106508105D01*
X170073357Y-106508108D01*
X170130562Y-106574126D01*
X170167605Y-106616876D01*
X170288680Y-106694686D01*
X170288681Y-106694686D01*
X170288682Y-106694687D01*
X170329576Y-106706694D01*
X170344749Y-106711149D01*
X170386173Y-106741647D01*
X170398301Y-106791637D01*
X170376738Y-106836477D01*
X169815042Y-107398174D01*
X169768422Y-107419914D01*
X169761868Y-107420200D01*
X169076134Y-107420200D01*
X169027796Y-107402607D01*
X169008575Y-107378028D01*
X168984142Y-107328050D01*
X168983679Y-107327102D01*
X168983677Y-107327100D01*
X168983677Y-107327099D01*
X168900400Y-107243822D01*
X168879204Y-107233460D01*
X168794588Y-107192094D01*
X168726002Y-107182100D01*
X168725994Y-107182100D01*
X168109006Y-107182100D01*
X168108997Y-107182100D01*
X168040411Y-107192094D01*
X167934599Y-107243822D01*
X167851322Y-107327099D01*
X167799594Y-107432911D01*
X167789600Y-107501497D01*
X167789600Y-107709212D01*
X167772007Y-107757550D01*
X167727458Y-107783270D01*
X167676800Y-107774337D01*
X167661226Y-107762386D01*
X167154326Y-107255486D01*
X167132586Y-107208866D01*
X167132300Y-107202312D01*
X167132300Y-106618454D01*
X167777600Y-106618454D01*
X167787580Y-106686942D01*
X167839235Y-106792605D01*
X167922394Y-106875764D01*
X168028057Y-106927419D01*
X168028056Y-106927419D01*
X168096545Y-106937399D01*
X168096556Y-106937400D01*
X168280000Y-106937400D01*
X168530000Y-106937400D01*
X168713444Y-106937400D01*
X168713454Y-106937399D01*
X168781942Y-106927419D01*
X168887605Y-106875764D01*
X168970764Y-106792605D01*
X169022419Y-106686942D01*
X169032399Y-106618454D01*
X169032400Y-106618444D01*
X169032400Y-106510000D01*
X168530000Y-106510000D01*
X168530000Y-106937400D01*
X168280000Y-106937400D01*
X168280000Y-106510000D01*
X167777600Y-106510000D01*
X167777600Y-106618454D01*
X167132300Y-106618454D01*
X167132300Y-106151545D01*
X167777600Y-106151545D01*
X167777600Y-106260000D01*
X168280000Y-106260000D01*
X168530000Y-106260000D01*
X169032400Y-106260000D01*
X169032400Y-106151555D01*
X169032399Y-106151545D01*
X169022419Y-106083057D01*
X168970764Y-105977394D01*
X168887605Y-105894235D01*
X168781942Y-105842580D01*
X168781943Y-105842580D01*
X168713454Y-105832600D01*
X168530000Y-105832600D01*
X168530000Y-106260000D01*
X168280000Y-106260000D01*
X168280000Y-105832600D01*
X168096545Y-105832600D01*
X168028057Y-105842580D01*
X167922394Y-105894235D01*
X167839235Y-105977394D01*
X167787580Y-106083057D01*
X167777600Y-106151545D01*
X167132300Y-106151545D01*
X167132300Y-105348415D01*
X167149893Y-105300077D01*
X167194442Y-105274357D01*
X167195680Y-105274149D01*
X167217804Y-105270646D01*
X167330842Y-105213050D01*
X167420550Y-105123342D01*
X167437101Y-105090860D01*
X167437102Y-105090859D01*
X167474723Y-105055778D01*
X167504105Y-105049800D01*
X167692920Y-105049800D01*
X167741258Y-105067393D01*
X167759921Y-105090856D01*
X167779743Y-105129758D01*
X167801951Y-105173344D01*
X167891655Y-105263048D01*
X167891657Y-105263049D01*
X167891658Y-105263050D01*
X168004694Y-105320645D01*
X168004696Y-105320646D01*
X168098481Y-105335500D01*
X168711518Y-105335499D01*
X168719646Y-105334211D01*
X168805301Y-105320647D01*
X168805302Y-105320646D01*
X168805304Y-105320646D01*
X168918342Y-105263050D01*
X169008050Y-105173342D01*
X169065646Y-105060304D01*
X169080500Y-104966519D01*
X169080499Y-104503482D01*
X169069615Y-104434755D01*
X169065647Y-104409698D01*
X169042742Y-104364745D01*
X169008050Y-104296658D01*
X169008049Y-104296657D01*
X169008048Y-104296655D01*
X168918344Y-104206951D01*
X168805304Y-104149354D01*
X168805306Y-104149354D01*
X168758411Y-104141927D01*
X168711519Y-104134500D01*
X168711517Y-104134500D01*
X168098487Y-104134500D01*
X168098475Y-104134501D01*
X168004698Y-104149352D01*
X167891655Y-104206951D01*
X167801951Y-104296655D01*
X167795407Y-104309499D01*
X167759922Y-104379141D01*
X167722303Y-104414222D01*
X167692920Y-104420200D01*
X167551956Y-104420200D01*
X167503618Y-104402607D01*
X167481759Y-104364745D01*
X167479976Y-104365325D01*
X167478148Y-104359700D01*
X167443620Y-104291935D01*
X167420550Y-104246658D01*
X167420549Y-104246657D01*
X167420548Y-104246655D01*
X167330844Y-104156951D01*
X167217804Y-104099354D01*
X167217806Y-104099354D01*
X167167837Y-104091440D01*
X167124019Y-104084500D01*
X167124017Y-104084500D01*
X166510987Y-104084500D01*
X166510975Y-104084501D01*
X166417196Y-104099353D01*
X166394027Y-104111158D01*
X166342971Y-104117426D01*
X166299830Y-104089410D01*
X166284791Y-104040217D01*
X166304891Y-103992867D01*
X166306688Y-103991005D01*
X166640169Y-103657524D01*
X166686789Y-103635785D01*
X166693343Y-103635499D01*
X167124013Y-103635499D01*
X167124018Y-103635499D01*
X167132146Y-103634211D01*
X167217801Y-103620647D01*
X167217802Y-103620646D01*
X167217804Y-103620646D01*
X167330842Y-103563050D01*
X167420550Y-103473342D01*
X167478146Y-103360304D01*
X167493000Y-103266519D01*
X167492999Y-102803482D01*
X167487917Y-102771391D01*
X167478147Y-102709698D01*
X167460997Y-102676040D01*
X167420550Y-102596658D01*
X167420549Y-102596657D01*
X167420548Y-102596655D01*
X167330844Y-102506951D01*
X167308988Y-102495815D01*
X167217804Y-102449354D01*
X167217802Y-102449353D01*
X167195734Y-102445858D01*
X167150744Y-102420918D01*
X167132311Y-102372894D01*
X167132300Y-102371584D01*
X167132300Y-102348415D01*
X167149893Y-102300077D01*
X167194442Y-102274357D01*
X167195680Y-102274149D01*
X167217804Y-102270646D01*
X167330842Y-102213050D01*
X167420550Y-102123342D01*
X167478146Y-102010304D01*
X167493000Y-101916519D01*
X167492999Y-101739595D01*
X167510592Y-101691260D01*
X167555140Y-101665540D01*
X167605799Y-101674472D01*
X167605800Y-101674473D01*
X167638482Y-101693342D01*
X167638491Y-101693347D01*
X167655407Y-101697879D01*
X167655409Y-101697880D01*
X167655410Y-101697880D01*
X167718556Y-101714800D01*
X167718558Y-101714800D01*
X167787259Y-101714800D01*
X167835597Y-101732393D01*
X167861317Y-101776942D01*
X167852384Y-101827600D01*
X167840433Y-101843174D01*
X167796951Y-101886655D01*
X167739354Y-101999694D01*
X167724500Y-102093479D01*
X167724500Y-102556512D01*
X167724501Y-102556524D01*
X167739352Y-102650301D01*
X167796951Y-102763344D01*
X167886655Y-102853048D01*
X167886657Y-102853049D01*
X167886658Y-102853050D01*
X167947719Y-102884162D01*
X167982801Y-102921783D01*
X167985493Y-102973152D01*
X167981983Y-102982405D01*
X167924836Y-103107537D01*
X167924836Y-103107539D01*
X167924835Y-103107541D01*
X167924835Y-103107543D01*
X167914680Y-103178174D01*
X167904353Y-103250000D01*
X167924835Y-103392459D01*
X167984622Y-103523372D01*
X167984624Y-103523375D01*
X168054214Y-103603686D01*
X168078872Y-103632143D01*
X168199947Y-103709953D01*
X168338039Y-103750500D01*
X168338042Y-103750500D01*
X168481958Y-103750500D01*
X168481961Y-103750500D01*
X168620053Y-103709953D01*
X168741128Y-103632143D01*
X168835377Y-103523373D01*
X168895165Y-103392457D01*
X168915647Y-103250000D01*
X168895165Y-103107543D01*
X168895164Y-103107541D01*
X168895164Y-103107539D01*
X168834241Y-102974139D01*
X168830164Y-102922861D01*
X168860002Y-102880959D01*
X168868496Y-102875899D01*
X168913342Y-102853050D01*
X169003050Y-102763342D01*
X169060646Y-102650304D01*
X169075500Y-102556519D01*
X169075499Y-102093482D01*
X169074379Y-102086410D01*
X169060647Y-101999698D01*
X169052085Y-101982894D01*
X169003050Y-101886658D01*
X169003049Y-101886657D01*
X169003048Y-101886655D01*
X168959567Y-101843174D01*
X168937827Y-101796554D01*
X168951141Y-101746867D01*
X168993278Y-101717362D01*
X169012741Y-101714800D01*
X171953771Y-101714800D01*
X171953773Y-101714800D01*
X171999996Y-101702414D01*
X172016915Y-101697881D01*
X172016915Y-101697880D01*
X172016918Y-101697880D01*
X172033838Y-101693347D01*
X172105621Y-101651903D01*
X172735698Y-101021826D01*
X172782318Y-101000086D01*
X172788872Y-100999800D01*
X174815371Y-100999800D01*
X174863709Y-101017393D01*
G37*
%TD.AperFunction*%
%TA.AperFunction,Conductor*%
G36*
X177916623Y-104155093D02*
G01*
X177942343Y-104199642D01*
X177942549Y-104200878D01*
X177943511Y-104206950D01*
X177945281Y-104218127D01*
X178006473Y-104338222D01*
X178101777Y-104433526D01*
X178101779Y-104433527D01*
X178101780Y-104433528D01*
X178221872Y-104494718D01*
X178221874Y-104494719D01*
X178321512Y-104510500D01*
X178321516Y-104510500D01*
X178888484Y-104510500D01*
X178888488Y-104510500D01*
X178988126Y-104494719D01*
X179108220Y-104433528D01*
X179203528Y-104338220D01*
X179264719Y-104218126D01*
X179267441Y-104200935D01*
X179292378Y-104155947D01*
X179340401Y-104137511D01*
X179341715Y-104137500D01*
X179374390Y-104137500D01*
X179422728Y-104155093D01*
X179441393Y-104178560D01*
X179476948Y-104248340D01*
X179476951Y-104248344D01*
X179566655Y-104338048D01*
X179566657Y-104338049D01*
X179566658Y-104338050D01*
X179619050Y-104364745D01*
X179682616Y-104397134D01*
X179717698Y-104434755D01*
X179720390Y-104486125D01*
X179693721Y-104524204D01*
X179395502Y-104748836D01*
X179384383Y-104757836D01*
X179377852Y-104763509D01*
X179367393Y-104773254D01*
X179340748Y-104799871D01*
X179337359Y-104803256D01*
X179333578Y-104807600D01*
X179318584Y-104824824D01*
X179318569Y-104824842D01*
X179308127Y-104838674D01*
X179292541Y-104862618D01*
X179292539Y-104862621D01*
X179271920Y-104899705D01*
X179265410Y-104912441D01*
X179263277Y-104916997D01*
X179226843Y-104953310D01*
X179175592Y-104957708D01*
X179142001Y-104938277D01*
X179077332Y-104873608D01*
X178964174Y-104818287D01*
X178890825Y-104807600D01*
X178730000Y-104807600D01*
X178730000Y-106012399D01*
X178730341Y-106012399D01*
X178778679Y-106029992D01*
X178804399Y-106074541D01*
X178800502Y-106114663D01*
X178777054Y-106175450D01*
X178743243Y-106214217D01*
X178706771Y-106223586D01*
X176517450Y-106220032D01*
X173316820Y-106214835D01*
X173316819Y-106214835D01*
X173316817Y-106214835D01*
X173316807Y-106214835D01*
X173316792Y-106214836D01*
X173296638Y-106215795D01*
X173284456Y-106216976D01*
X173284434Y-106216979D01*
X173264474Y-106219910D01*
X173206095Y-106231436D01*
X173206080Y-106231440D01*
X173167491Y-106243091D01*
X173167485Y-106243093D01*
X173144933Y-106252402D01*
X173144909Y-106252413D01*
X173109332Y-106271379D01*
X173088273Y-106285420D01*
X173088242Y-106285441D01*
X173087212Y-106286127D01*
X173037229Y-106298279D01*
X172991128Y-106275459D01*
X172970481Y-106228344D01*
X172984949Y-106178981D01*
X172992348Y-106170369D01*
X173380193Y-105782525D01*
X173426813Y-105760785D01*
X173433367Y-105760499D01*
X173474857Y-105760499D01*
X173474864Y-105760499D01*
X173499991Y-105757585D01*
X173499993Y-105757584D01*
X173499994Y-105757584D01*
X173552878Y-105734233D01*
X173602765Y-105712206D01*
X173602770Y-105712200D01*
X173608515Y-105708267D01*
X173609428Y-105709601D01*
X173648436Y-105691406D01*
X173698125Y-105704713D01*
X173706251Y-105711532D01*
X173707233Y-105712204D01*
X173707235Y-105712206D01*
X173810009Y-105757585D01*
X173835135Y-105760500D01*
X174124864Y-105760499D01*
X174149991Y-105757585D01*
X174149993Y-105757584D01*
X174149994Y-105757584D01*
X174202878Y-105734233D01*
X174252765Y-105712206D01*
X174294156Y-105670815D01*
X177977601Y-105670815D01*
X177988287Y-105744173D01*
X177988288Y-105744175D01*
X178043608Y-105857332D01*
X178132667Y-105946391D01*
X178245825Y-106001712D01*
X178319180Y-106012399D01*
X178480000Y-106012399D01*
X178480000Y-105535000D01*
X177977601Y-105535000D01*
X177977601Y-105670815D01*
X174294156Y-105670815D01*
X174332206Y-105632765D01*
X174377585Y-105529991D01*
X174380500Y-105504865D01*
X174380499Y-104916303D01*
X174398092Y-104867966D01*
X174402525Y-104863129D01*
X174456130Y-104809525D01*
X174502751Y-104787786D01*
X174509304Y-104787500D01*
X174824390Y-104787500D01*
X174872728Y-104805093D01*
X174891393Y-104828560D01*
X174926948Y-104898340D01*
X174926951Y-104898344D01*
X175016655Y-104988048D01*
X175016657Y-104988049D01*
X175016658Y-104988050D01*
X175129694Y-105045645D01*
X175129696Y-105045646D01*
X175223481Y-105060500D01*
X175836518Y-105060499D01*
X175844646Y-105059211D01*
X175930301Y-105045647D01*
X175930302Y-105045646D01*
X175930304Y-105045646D01*
X176043342Y-104988050D01*
X176133050Y-104898342D01*
X176145653Y-104873608D01*
X176168607Y-104828560D01*
X176206227Y-104793478D01*
X176235610Y-104787500D01*
X176282863Y-104787500D01*
X176331201Y-104805093D01*
X176346535Y-104822689D01*
X176356579Y-104838673D01*
X176414524Y-104930892D01*
X176534107Y-105050475D01*
X176534109Y-105050476D01*
X176534110Y-105050477D01*
X176677310Y-105140456D01*
X176836941Y-105196313D01*
X176948980Y-105208937D01*
X177004999Y-105215249D01*
X177005000Y-105215249D01*
X177005001Y-105215249D01*
X177047014Y-105210515D01*
X177173059Y-105196313D01*
X177307775Y-105149174D01*
X177977600Y-105149174D01*
X177977600Y-105285000D01*
X178480000Y-105285000D01*
X178480000Y-104807600D01*
X178319189Y-104807600D01*
X178319184Y-104807601D01*
X178245826Y-104818287D01*
X178245824Y-104818288D01*
X178132667Y-104873608D01*
X178043608Y-104962667D01*
X177988287Y-105075825D01*
X177977600Y-105149174D01*
X177307775Y-105149174D01*
X177332690Y-105140456D01*
X177475890Y-105050477D01*
X177595477Y-104930890D01*
X177685456Y-104787690D01*
X177741313Y-104628059D01*
X177760249Y-104460000D01*
X177754671Y-104410499D01*
X177751138Y-104379140D01*
X177741313Y-104291941D01*
X177729676Y-104258683D01*
X177730317Y-104207248D01*
X177747483Y-104180671D01*
X177768631Y-104159524D01*
X177815252Y-104137786D01*
X177821804Y-104137500D01*
X177868285Y-104137500D01*
X177916623Y-104155093D01*
G37*
%TD.AperFunction*%
%TA.AperFunction,Conductor*%
G36*
X171263130Y-97709946D02*
G01*
X171292635Y-97752083D01*
X171294272Y-97759785D01*
X171294354Y-97760305D01*
X171351951Y-97873344D01*
X171441655Y-97963048D01*
X171441657Y-97963049D01*
X171441658Y-97963050D01*
X171554694Y-98020645D01*
X171554696Y-98020646D01*
X171648481Y-98035500D01*
X171648483Y-98035499D01*
X171651400Y-98035962D01*
X171651122Y-98037714D01*
X171692613Y-98056534D01*
X171714841Y-98102924D01*
X171715200Y-98110264D01*
X171715200Y-98172907D01*
X171697607Y-98221245D01*
X171653058Y-98246965D01*
X171602400Y-98238032D01*
X171598221Y-98235433D01*
X171578483Y-98222244D01*
X171578480Y-98222243D01*
X171505000Y-98207627D01*
X171505000Y-99987370D01*
X171578481Y-99972756D01*
X171625658Y-99941232D01*
X171675623Y-99929005D01*
X171720612Y-99950584D01*
X171757230Y-99987202D01*
X171757233Y-99987204D01*
X171757235Y-99987206D01*
X171860009Y-100032585D01*
X171885135Y-100035500D01*
X172174864Y-100035499D01*
X172199991Y-100032585D01*
X172259625Y-100006253D01*
X172310950Y-100002823D01*
X172352472Y-100033186D01*
X172365200Y-100075046D01*
X172365200Y-100470786D01*
X172347607Y-100519124D01*
X172343174Y-100523960D01*
X171803960Y-101063174D01*
X171757340Y-101084914D01*
X171750786Y-101085200D01*
X169135247Y-101085200D01*
X169086909Y-101067607D01*
X169061189Y-101023058D01*
X169060973Y-100998239D01*
X169075500Y-100906519D01*
X169075499Y-100443482D01*
X169068884Y-100401710D01*
X169060647Y-100349698D01*
X169049097Y-100327030D01*
X169003050Y-100236658D01*
X169003049Y-100236657D01*
X169003048Y-100236655D01*
X168913344Y-100146951D01*
X168894795Y-100137500D01*
X168800304Y-100089354D01*
X168800302Y-100089353D01*
X168778234Y-100085858D01*
X168733244Y-100060918D01*
X168714811Y-100012894D01*
X168714800Y-100011584D01*
X168714800Y-99868258D01*
X168732393Y-99819920D01*
X168749986Y-99804587D01*
X168875890Y-99725477D01*
X168995477Y-99605890D01*
X169085456Y-99462690D01*
X169085464Y-99462664D01*
X169085471Y-99462656D01*
X169087289Y-99458883D01*
X169088199Y-99459321D01*
X169118033Y-99422850D01*
X169156445Y-99412300D01*
X169604301Y-99412300D01*
X169652639Y-99429893D01*
X169678359Y-99474442D01*
X169679501Y-99487500D01*
X169679501Y-99779864D01*
X169681093Y-99793590D01*
X169682415Y-99804994D01*
X169727792Y-99907761D01*
X169727794Y-99907765D01*
X169727795Y-99907766D01*
X169727797Y-99907769D01*
X169807230Y-99987202D01*
X169807233Y-99987204D01*
X169807235Y-99987206D01*
X169910009Y-100032585D01*
X169935135Y-100035500D01*
X170002656Y-100035499D01*
X170050993Y-100053092D01*
X170076713Y-100097640D01*
X170077091Y-100121400D01*
X170068873Y-100178560D01*
X170064353Y-100210000D01*
X170068185Y-100236655D01*
X170084835Y-100352459D01*
X170144622Y-100483372D01*
X170144624Y-100483375D01*
X170212558Y-100561775D01*
X170238872Y-100592143D01*
X170359947Y-100669953D01*
X170498039Y-100710500D01*
X170498042Y-100710500D01*
X170641958Y-100710500D01*
X170641961Y-100710500D01*
X170780053Y-100669953D01*
X170901128Y-100592143D01*
X170995377Y-100483373D01*
X171055165Y-100352457D01*
X171075647Y-100210000D01*
X171055165Y-100067543D01*
X171055163Y-100067538D01*
X171051597Y-100059729D01*
X171044800Y-100028488D01*
X171044800Y-100022092D01*
X171062393Y-99973754D01*
X171106942Y-99948034D01*
X171157600Y-99956967D01*
X171161781Y-99959567D01*
X171181517Y-99972755D01*
X171181519Y-99972756D01*
X171254999Y-99987372D01*
X171255000Y-99987372D01*
X171255000Y-98207627D01*
X171254999Y-98207627D01*
X171181519Y-98222243D01*
X171181515Y-98222245D01*
X171134338Y-98253768D01*
X171084373Y-98265994D01*
X171039386Y-98244415D01*
X171002765Y-98207794D01*
X170899991Y-98162415D01*
X170899988Y-98162414D01*
X170899989Y-98162414D01*
X170896222Y-98161977D01*
X170895662Y-98161912D01*
X170849675Y-98138866D01*
X170829260Y-98091651D01*
X170843971Y-98042359D01*
X170851155Y-98034040D01*
X170965793Y-97919402D01*
X171166824Y-97718371D01*
X171213443Y-97696632D01*
X171263130Y-97709946D01*
G37*
%TD.AperFunction*%
%TD*%
M02*
