M48
; DRILL file {KiCad 8.0.4} date 2024-08-14T23:56:40-0700
; FORMAT={-:-/ absolute / metric / decimal}
; #@! TF.CreationDate,2024-08-14T23:56:40-07:00
; #@! TF.GenerationSoftware,Kicad,Pcbnew,8.0.4
; #@! TF.FileFunction,Plated,1,2,PTH
FMAT,2
METRIC
; #@! TA.AperFunction,Plated,PTH,ViaDrill
T1C0.300
; #@! TA.AperFunction,Plated,PTH,ComponentDrill
T2C0.750
; #@! TA.AperFunction,Plated,PTH,ComponentDrill
T3C1.000
%
G90
G05
T1
X163.73Y-50.98
X163.73Y-99.48
X163.78Y-52.72
X163.78Y-101.22
X163.8Y-54.48
X163.8Y-102.98
X163.84Y-56.31
X163.84Y-104.81
X165.786Y-65.343
X165.786Y-113.843
X165.887Y-63.87
X165.887Y-112.37
X168.41Y-54.75
X168.41Y-103.25
X169.418Y-57.926
X169.418Y-106.426
X169.554Y-61.108
X169.554Y-109.608
X170.499Y-57.735
X170.499Y-106.235
X170.57Y-51.71
X170.57Y-100.21
X170.67Y-47.785
X170.67Y-96.285
X171.332Y-52.218
X171.332Y-100.718
X171.45Y-46.242
X171.45Y-94.742
X171.679Y-55.138
X171.679Y-103.638
X172.034Y-51.835
X172.034Y-100.335
X172.95Y-53.19
X172.95Y-101.69
X173.787Y-54.954
X173.787Y-103.454
X173.872Y-52.98
X173.872Y-101.48
X174.498Y-66.943
X174.498Y-115.443
X175.142Y-57.044
X175.142Y-105.544
X176.92Y-57.044
X176.92Y-105.544
X177.54Y-59.21
X177.54Y-107.71
X178.308Y-54.243
X178.308Y-102.743
X178.86Y-58.6
X178.86Y-107.1
X179.324Y-66.943
X179.324Y-115.443
X179.578Y-51.195
X179.578Y-99.695
X181.102Y-51.195
X181.102Y-99.695
X184.15Y-66.943
X184.15Y-115.443
X184.24Y-59.63
X184.24Y-108.13
X185.45Y-58.5
X185.45Y-107.0
X202.17Y-48.89
X202.17Y-97.39
T2
X168.405Y-50.635
X168.405Y-99.135
X170.08Y-65.397
X170.08Y-113.897
X170.78Y-60.78
X170.78Y-109.28
X176.605Y-49.86
X176.605Y-98.36
X177.005Y-55.96
X177.005Y-104.46
X179.017Y-48.335
X179.017Y-96.835
T3
X212.48Y-49.5
X212.48Y-52.04
X212.48Y-54.58
X212.48Y-57.12
X212.48Y-98.0
X212.48Y-100.54
X212.48Y-103.08
X212.48Y-105.62
M30
