  0
SECTION
  2
HEADER
  9
$ANGBASE
  50
0.0
  9
$ANGDIR
  70
1
  9
$MEASUREMENT
  70
1
  0
ENDSEC
  0
SECTION
  2
TABLES
  0
TABLE
  2
LTYPE
  70
4
  0
LTYPE
  5
40F
  2
CONTINUOUS
  70
0
  3
Solid line
  72
65
  73
0
  40
0.0
  0
LTYPE
  5
410
  2
DASHDOT
 70
0
  3
Dash Dot ____ _ ____ _
 72
65
 73
4
 40
2.0
 49
1.25
 49
-0.25
 49
0.25
 49
-0.25
  0
LTYPE
  5
411
  2
DASHED
 70
0
  3
Dashed __ __ __ __ __
 72
65
 73
2
 40
0.75
 49
0.5
 49
-0.25
  0
LTYPE
  5
43B
  2
DOTTED
 70
0
  3
Dotted .  .  .  .
 72
65
 73
2
 40
0.2
 49
0.0
 49
-0.2
  0
ENDTAB
  0
TABLE
  2
STYLE
  70
4
  0
STYLE
  2
KICAD
  70
0
  40
0
  41
1
  42
1
  50
0
  71
0
  3
isocp.shx
  0
STYLE
  2
KICADB
  70
0
  40
0
  41
1
  42
1
  50
0
  71
0
  3
isocp.shx
  0
STYLE
  2
KICADI
  70
0
  40
0
  41
1
  42
1
  50
15
  71
0
  3
isocp.shx
  0
STYLE
  2
KICADBI
  70
0
  40
0
  41
1
  42
1
  50
15
  71
0
  3
isocp.shx
  0
ENDTAB
  0
TABLE
  2
LAYER
  70
1
  0
LAYER
  2
BLACK
  70
0
  62
7
  6
CONTINUOUS
  0
ENDTAB
  0
ENDSEC
  0
SECTION
  2
ENTITIES
0
LINE
8
BLACK
6
CONTINUOUS
10
145.4159999999999968
20
-29.259999999999998
11
215.8899999999999864
21
-29.259999999999998
0
LINE
8
BLACK
6
CONTINUOUS
10
215.8899999999999864
20
-29.259999999999998
11
215.8899999999999864
21
-77.2599999999999909
0
LINE
8
BLACK
6
CONTINUOUS
10
215.8899999999999864
20
-77.2599999999999909
11
145.4159999999999968
21
-77.2599999999999909
0
LINE
8
BLACK
6
CONTINUOUS
10
145.4159999999999968
20
-77.2599999999999909
11
145.4159999999999968
21
-29.259999999999998
0
LINE
8
BLACK
6
CONTINUOUS
10
145.4159999999999968
20
-77.7599999999999909
11
215.8899999999999864
21
-77.7599999999999909
0
LINE
8
BLACK
6
CONTINUOUS
10
215.8899999999999864
20
-77.7599999999999909
11
215.8899999999999864
21
-125.7599999999999909
0
LINE
8
BLACK
6
CONTINUOUS
10
215.8899999999999864
20
-125.7599999999999909
11
145.4159999999999968
21
-125.7599999999999909
0
LINE
8
BLACK
6
CONTINUOUS
10
145.4159999999999968
20
-125.7599999999999909
11
145.4159999999999968
21
-77.7599999999999909
0
LINE
8
BLACK
6
CONTINUOUS
10
163.5799999999999841
20
-50.8299999999999983
11
163.8799999999999955
21
-51.1299999999999955
0
LINE
8
BLACK
6
CONTINUOUS
10
163.8799999999999955
20
-50.8299999999999983
11
163.5799999999999841
21
-51.1299999999999955
0
LINE
8
BLACK
6
CONTINUOUS
10
163.5799999999999841
20
-99.3299999999999983
11
163.8799999999999955
21
-99.6299999999999955
0
LINE
8
BLACK
6
CONTINUOUS
10
163.8799999999999955
20
-99.3299999999999983
11
163.5799999999999841
21
-99.6299999999999955
0
LINE
8
BLACK
6
CONTINUOUS
10
163.6299999999999955
20
-52.5700000000000003
11
163.9299999999999784
21
-52.8699999999999974
0
LINE
8
BLACK
6
CONTINUOUS
10
163.9299999999999784
20
-52.5700000000000003
11
163.6299999999999955
21
-52.8699999999999974
0
LINE
8
BLACK
6
CONTINUOUS
10
163.6299999999999955
20
-101.0699999999999932
11
163.9299999999999784
21
-101.3699999999999903
0
LINE
8
BLACK
6
CONTINUOUS
10
163.9299999999999784
20
-101.0699999999999932
11
163.6299999999999955
21
-101.3699999999999903
0
LINE
8
BLACK
6
CONTINUOUS
10
163.6500000000000057
20
-54.3299999999999983
11
163.9499999999999886
21
-54.6299999999999955
0
LINE
8
BLACK
6
CONTINUOUS
10
163.9499999999999886
20
-54.3299999999999983
11
163.6500000000000057
21
-54.6299999999999955
0
LINE
8
BLACK
6
CONTINUOUS
10
163.6500000000000057
20
-102.8299999999999983
11
163.9499999999999886
21
-103.1299999999999955
0
LINE
8
BLACK
6
CONTINUOUS
10
163.9499999999999886
20
-102.8299999999999983
11
163.6500000000000057
21
-103.1299999999999955
0
LINE
8
BLACK
6
CONTINUOUS
10
163.6899999999999977
20
-56.1599999999999966
11
163.9899999999999807
21
-56.4600000000000009
0
LINE
8
BLACK
6
CONTINUOUS
10
163.9899999999999807
20
-56.1599999999999966
11
163.6899999999999977
21
-56.4600000000000009
0
LINE
8
BLACK
6
CONTINUOUS
10
163.6899999999999977
20
-104.6599999999999966
11
163.9899999999999807
21
-104.9599999999999937
0
LINE
8
BLACK
6
CONTINUOUS
10
163.9899999999999807
20
-104.6599999999999966
11
163.6899999999999977
21
-104.9599999999999937
0
LINE
8
BLACK
6
CONTINUOUS
10
165.635799999999989
20
-65.1927999999999912
11
165.9358000000000004
21
-65.4928000000000026
0
LINE
8
BLACK
6
CONTINUOUS
10
165.9358000000000004
20
-65.1927999999999912
11
165.635799999999989
21
-65.4928000000000026
0
LINE
8
BLACK
6
CONTINUOUS
10
165.635799999999989
20
-113.6927999999999912
11
165.9358000000000004
21
-113.9927999999999884
0
LINE
8
BLACK
6
CONTINUOUS
10
165.9358000000000004
20
-113.6927999999999912
11
165.635799999999989
21
-113.9927999999999884
0
LINE
8
BLACK
6
CONTINUOUS
10
165.7373999999999796
20
-63.7195999999999998
11
166.037399999999991
21
-64.019599999999997
0
LINE
8
BLACK
6
CONTINUOUS
10
166.037399999999991
20
-63.7195999999999998
11
165.7373999999999796
21
-64.019599999999997
0
LINE
8
BLACK
6
CONTINUOUS
10
165.7373999999999796
20
-112.2195999999999998
11
166.037399999999991
21
-112.519599999999997
0
LINE
8
BLACK
6
CONTINUOUS
10
166.037399999999991
20
-112.2195999999999998
11
165.7373999999999796
21
-112.519599999999997
0
LINE
8
BLACK
6
CONTINUOUS
10
168.2599999999999909
20
-54.5999999999999943
11
168.5600000000000023
21
-54.8999999999999986
0
LINE
8
BLACK
6
CONTINUOUS
10
168.5600000000000023
20
-54.5999999999999943
11
168.2599999999999909
21
-54.8999999999999986
0
LINE
8
BLACK
6
CONTINUOUS
10
168.2599999999999909
20
-103.0999999999999943
11
168.5600000000000023
21
-103.3999999999999915
0
LINE
8
BLACK
6
CONTINUOUS
10
168.5600000000000023
20
-103.0999999999999943
11
168.2599999999999909
21
-103.3999999999999915
0
LINE
8
BLACK
6
CONTINUOUS
10
169.2680000000000007
20
-57.7759999999999962
11
169.5679999999999836
21
-58.0760000000000005
0
LINE
8
BLACK
6
CONTINUOUS
10
169.5679999999999836
20
-57.7759999999999962
11
169.2680000000000007
21
-58.0760000000000005
0
LINE
8
BLACK
6
CONTINUOUS
10
169.2680000000000007
20
-106.2759999999999962
11
169.5679999999999836
21
-106.5759999999999934
0
LINE
8
BLACK
6
CONTINUOUS
10
169.5679999999999836
20
-106.2759999999999962
11
169.2680000000000007
21
-106.5759999999999934
0
LINE
8
BLACK
6
CONTINUOUS
10
169.4039999999999964
20
-60.9579999999999984
11
169.7039999999999793
21
-61.2579999999999956
0
LINE
8
BLACK
6
CONTINUOUS
10
169.7039999999999793
20
-60.9579999999999984
11
169.4039999999999964
21
-61.2579999999999956
0
LINE
8
BLACK
6
CONTINUOUS
10
169.4039999999999964
20
-109.4579999999999984
11
169.7039999999999793
21
-109.7579999999999956
0
LINE
8
BLACK
6
CONTINUOUS
10
169.7039999999999793
20
-109.4579999999999984
11
169.4039999999999964
21
-109.7579999999999956
0
LINE
8
BLACK
6
CONTINUOUS
10
170.3487329999999815
20
-57.5847329999999999
11
170.6487329999999929
21
-57.8847329999999971
0
LINE
8
BLACK
6
CONTINUOUS
10
170.6487329999999929
20
-57.5847329999999999
11
170.3487329999999815
21
-57.8847329999999971
0
LINE
8
BLACK
6
CONTINUOUS
10
170.3487329999999815
20
-106.0847329999999999
11
170.6487329999999929
21
-106.3847329999999971
0
LINE
8
BLACK
6
CONTINUOUS
10
170.6487329999999929
20
-106.0847329999999999
11
170.3487329999999815
21
-106.3847329999999971
0
LINE
8
BLACK
6
CONTINUOUS
10
170.4199999999999875
20
-51.5599999999999952
11
170.7199999999999989
21
-51.8599999999999994
0
LINE
8
BLACK
6
CONTINUOUS
10
170.7199999999999989
20
-51.5599999999999952
11
170.4199999999999875
21
-51.8599999999999994
0
LINE
8
BLACK
6
CONTINUOUS
10
170.4199999999999875
20
-100.0600000000000023
11
170.7199999999999989
21
-100.3599999999999994
0
LINE
8
BLACK
6
CONTINUOUS
10
170.7199999999999989
20
-100.0600000000000023
11
170.4199999999999875
21
-100.3599999999999994
0
LINE
8
BLACK
6
CONTINUOUS
10
170.5199999999999818
20
-47.634999999999998
11
170.8199999999999932
21
-47.9349999999999952
0
LINE
8
BLACK
6
CONTINUOUS
10
170.8199999999999932
20
-47.634999999999998
11
170.5199999999999818
21
-47.9349999999999952
0
LINE
8
BLACK
6
CONTINUOUS
10
170.5199999999999818
20
-96.1349999999999909
11
170.8199999999999932
21
-96.4350000000000023
0
LINE
8
BLACK
6
CONTINUOUS
10
170.8199999999999932
20
-96.1349999999999909
11
170.5199999999999818
21
-96.4350000000000023
0
LINE
8
BLACK
6
CONTINUOUS
10
171.1819999999999879
20
-52.0679999999999978
11
171.4819999999999993
21
-52.367999999999995
0
LINE
8
BLACK
6
CONTINUOUS
10
171.4819999999999993
20
-52.0679999999999978
11
171.1819999999999879
21
-52.367999999999995
0
LINE
8
BLACK
6
CONTINUOUS
10
171.1819999999999879
20
-100.5679999999999978
11
171.4819999999999993
21
-100.867999999999995
0
LINE
8
BLACK
6
CONTINUOUS
10
171.4819999999999993
20
-100.5679999999999978
11
171.1819999999999879
21
-100.867999999999995
0
LINE
8
BLACK
6
CONTINUOUS
10
171.2999999999999829
20
-46.0919999999999987
11
171.5999999999999943
21
-46.3919999999999959
0
LINE
8
BLACK
6
CONTINUOUS
10
171.5999999999999943
20
-46.0919999999999987
11
171.2999999999999829
21
-46.3919999999999959
0
LINE
8
BLACK
6
CONTINUOUS
10
171.2999999999999829
20
-94.5919999999999987
11
171.5999999999999943
21
-94.8919999999999959
0
LINE
8
BLACK
6
CONTINUOUS
10
171.5999999999999943
20
-94.5919999999999987
11
171.2999999999999829
21
-94.8919999999999959
0
LINE
8
BLACK
6
CONTINUOUS
10
171.5286469999999781
20
-54.9881269999999986
11
171.8286469999999895
21
-55.2881269999999958
0
LINE
8
BLACK
6
CONTINUOUS
10
171.8286469999999895
20
-54.9881269999999986
11
171.5286469999999781
21
-55.2881269999999958
0
LINE
8
BLACK
6
CONTINUOUS
10
171.5286469999999781
20
-103.4881269999999915
11
171.8286469999999895
21
-103.7881269999999887
0
LINE
8
BLACK
6
CONTINUOUS
10
171.8286469999999895
20
-103.4881269999999915
11
171.5286469999999781
21
-103.7881269999999887
0
LINE
8
BLACK
6
CONTINUOUS
10
171.8837269999999933
20
-51.6849980000000002
11
172.1837270000000046
21
-51.9849979999999974
0
LINE
8
BLACK
6
CONTINUOUS
10
172.1837270000000046
20
-51.6849980000000002
11
171.8837269999999933
21
-51.9849979999999974
0
LINE
8
BLACK
6
CONTINUOUS
10
171.8837269999999933
20
-100.1849979999999931
11
172.1837270000000046
21
-100.4849979999999903
0
LINE
8
BLACK
6
CONTINUOUS
10
172.1837270000000046
20
-100.1849979999999931
11
171.8837269999999933
21
-100.4849979999999903
0
LINE
8
BLACK
6
CONTINUOUS
10
172.7999999999999829
20
-53.0399999999999991
11
173.0999999999999943
21
-53.3399999999999963
0
LINE
8
BLACK
6
CONTINUOUS
10
173.0999999999999943
20
-53.0399999999999991
11
172.7999999999999829
21
-53.3399999999999963
0
LINE
8
BLACK
6
CONTINUOUS
10
172.7999999999999829
20
-101.539999999999992
11
173.0999999999999943
21
-101.8399999999999892
0
LINE
8
BLACK
6
CONTINUOUS
10
173.0999999999999943
20
-101.539999999999992
11
172.7999999999999829
21
-101.8399999999999892
0
LINE
8
BLACK
6
CONTINUOUS
10
173.6367999999999938
20
-54.8041999999999945
11
173.9368000000000052
21
-55.1041999999999987
0
LINE
8
BLACK
6
CONTINUOUS
10
173.9368000000000052
20
-54.8041999999999945
11
173.6367999999999938
21
-55.1041999999999987
0
LINE
8
BLACK
6
CONTINUOUS
10
173.6367999999999938
20
-103.3041999999999945
11
173.9368000000000052
21
-103.6041999999999916
0
LINE
8
BLACK
6
CONTINUOUS
10
173.9368000000000052
20
-103.3041999999999945
11
173.6367999999999938
21
-103.6041999999999916
0
LINE
8
BLACK
6
CONTINUOUS
10
173.72199999999998
20
-52.8299999999999983
11
174.0219999999999914
21
-53.1299999999999955
0
LINE
8
BLACK
6
CONTINUOUS
10
174.0219999999999914
20
-52.8299999999999983
11
173.72199999999998
21
-53.1299999999999955
0
LINE
8
BLACK
6
CONTINUOUS
10
173.72199999999998
20
-101.3299999999999983
11
174.0219999999999914
21
-101.6299999999999955
0
LINE
8
BLACK
6
CONTINUOUS
10
174.0219999999999914
20
-101.3299999999999983
11
173.72199999999998
21
-101.6299999999999955
0
LINE
8
BLACK
6
CONTINUOUS
10
174.3479999999999848
20
-66.7929999999999922
11
174.6479999999999961
21
-67.0930000000000035
0
LINE
8
BLACK
6
CONTINUOUS
10
174.6479999999999961
20
-66.7929999999999922
11
174.3479999999999848
21
-67.0930000000000035
0
LINE
8
BLACK
6
CONTINUOUS
10
174.3479999999999848
20
-115.2929999999999922
11
174.6479999999999961
21
-115.5929999999999893
0
LINE
8
BLACK
6
CONTINUOUS
10
174.6479999999999961
20
-115.2929999999999922
11
174.3479999999999848
21
-115.5929999999999893
0
LINE
8
BLACK
6
CONTINUOUS
10
174.9919999999999902
20
-56.8939999999999984
11
175.2920000000000016
21
-57.1939999999999955
0
LINE
8
BLACK
6
CONTINUOUS
10
175.2920000000000016
20
-56.8939999999999984
11
174.9919999999999902
21
-57.1939999999999955
0
LINE
8
BLACK
6
CONTINUOUS
10
174.9919999999999902
20
-105.3939999999999912
11
175.2920000000000016
21
-105.6939999999999884
0
LINE
8
BLACK
6
CONTINUOUS
10
175.2920000000000016
20
-105.3939999999999912
11
174.9919999999999902
21
-105.6939999999999884
0
LINE
8
BLACK
6
CONTINUOUS
10
176.7699999999999818
20
-56.8939999999999984
11
177.0699999999999932
21
-57.1939999999999955
0
LINE
8
BLACK
6
CONTINUOUS
10
177.0699999999999932
20
-56.8939999999999984
11
176.7699999999999818
21
-57.1939999999999955
0
LINE
8
BLACK
6
CONTINUOUS
10
176.7699999999999818
20
-105.3939999999999912
11
177.0699999999999932
21
-105.6939999999999884
0
LINE
8
BLACK
6
CONTINUOUS
10
177.0699999999999932
20
-105.3939999999999912
11
176.7699999999999818
21
-105.6939999999999884
0
LINE
8
BLACK
6
CONTINUOUS
10
177.3899999999999864
20
-59.0599999999999952
11
177.6899999999999977
21
-59.3599999999999994
0
LINE
8
BLACK
6
CONTINUOUS
10
177.6899999999999977
20
-59.0599999999999952
11
177.3899999999999864
21
-59.3599999999999994
0
LINE
8
BLACK
6
CONTINUOUS
10
177.3899999999999864
20
-107.5599999999999881
11
177.6899999999999977
21
-107.8599999999999994
0
LINE
8
BLACK
6
CONTINUOUS
10
177.6899999999999977
20
-107.5599999999999881
11
177.3899999999999864
21
-107.8599999999999994
0
LINE
8
BLACK
6
CONTINUOUS
10
178.157999999999987
20
-54.0929999999999964
11
178.4579999999999984
21
-54.3930000000000007
0
LINE
8
BLACK
6
CONTINUOUS
10
178.4579999999999984
20
-54.0929999999999964
11
178.157999999999987
21
-54.3930000000000007
0
LINE
8
BLACK
6
CONTINUOUS
10
178.157999999999987
20
-102.5929999999999893
11
178.4579999999999984
21
-102.8930000000000007
0
LINE
8
BLACK
6
CONTINUOUS
10
178.4579999999999984
20
-102.5929999999999893
11
178.157999999999987
21
-102.8930000000000007
0
LINE
8
BLACK
6
CONTINUOUS
10
178.7099999999999795
20
-58.4499999999999957
11
179.0099999999999909
21
-58.75
0
LINE
8
BLACK
6
CONTINUOUS
10
179.0099999999999909
20
-58.4499999999999957
11
178.7099999999999795
21
-58.75
0
LINE
8
BLACK
6
CONTINUOUS
10
178.7099999999999795
20
-106.9499999999999886
11
179.0099999999999909
21
-107.25
0
LINE
8
BLACK
6
CONTINUOUS
10
179.0099999999999909
20
-106.9499999999999886
11
178.7099999999999795
21
-107.25
0
LINE
8
BLACK
6
CONTINUOUS
10
179.1739999999999782
20
-66.7929999999999922
11
179.4739999999999895
21
-67.0930000000000035
0
LINE
8
BLACK
6
CONTINUOUS
10
179.4739999999999895
20
-66.7929999999999922
11
179.1739999999999782
21
-67.0930000000000035
0
LINE
8
BLACK
6
CONTINUOUS
10
179.1739999999999782
20
-115.2929999999999922
11
179.4739999999999895
21
-115.5929999999999893
0
LINE
8
BLACK
6
CONTINUOUS
10
179.4739999999999895
20
-115.2929999999999922
11
179.1739999999999782
21
-115.5929999999999893
0
LINE
8
BLACK
6
CONTINUOUS
10
179.4279999999999973
20
-51.0449999999999946
11
179.7279999999999802
21
-51.3449999999999989
0
LINE
8
BLACK
6
CONTINUOUS
10
179.7279999999999802
20
-51.0449999999999946
11
179.4279999999999973
21
-51.3449999999999989
0
LINE
8
BLACK
6
CONTINUOUS
10
179.4279999999999973
20
-99.5450000000000017
11
179.7279999999999802
21
-99.8449999999999989
0
LINE
8
BLACK
6
CONTINUOUS
10
179.7279999999999802
20
-99.5450000000000017
11
179.4279999999999973
21
-99.8449999999999989
0
LINE
8
BLACK
6
CONTINUOUS
10
180.9519999999999982
20
-51.0449999999999946
11
181.2519999999999811
21
-51.3449999999999989
0
LINE
8
BLACK
6
CONTINUOUS
10
181.2519999999999811
20
-51.0449999999999946
11
180.9519999999999982
21
-51.3449999999999989
0
LINE
8
BLACK
6
CONTINUOUS
10
180.9519999999999982
20
-99.5450000000000017
11
181.2519999999999811
21
-99.8449999999999989
0
LINE
8
BLACK
6
CONTINUOUS
10
181.2519999999999811
20
-99.5450000000000017
11
180.9519999999999982
21
-99.8449999999999989
0
LINE
8
BLACK
6
CONTINUOUS
10
184.
20
-66.7929999999999922
11
184.2999999999999829
21
-67.0930000000000035
0
LINE
8
BLACK
6
CONTINUOUS
10
184.2999999999999829
20
-66.7929999999999922
11
184.
21
-67.0930000000000035
0
LINE
8
BLACK
6
CONTINUOUS
10
184.
20
-115.2929999999999922
11
184.2999999999999829
21
-115.5929999999999893
0
LINE
8
BLACK
6
CONTINUOUS
10
184.2999999999999829
20
-115.2929999999999922
11
184.
21
-115.5929999999999893
0
LINE
8
BLACK
6
CONTINUOUS
10
184.0900000000000034
20
-59.4799999999999969
11
184.3899999999999864
21
-59.779999999999994
0
LINE
8
BLACK
6
CONTINUOUS
10
184.3899999999999864
20
-59.4799999999999969
11
184.0900000000000034
21
-59.779999999999994
0
LINE
8
BLACK
6
CONTINUOUS
10
184.0900000000000034
20
-107.9799999999999898
11
184.3899999999999864
21
-108.2800000000000011
0
LINE
8
BLACK
6
CONTINUOUS
10
184.3899999999999864
20
-107.9799999999999898
11
184.0900000000000034
21
-108.2800000000000011
0
LINE
8
BLACK
6
CONTINUOUS
10
185.2999999999999829
20
-58.3499999999999943
11
185.5999999999999943
21
-58.6499999999999986
0
LINE
8
BLACK
6
CONTINUOUS
10
185.5999999999999943
20
-58.3499999999999943
11
185.2999999999999829
21
-58.6499999999999986
0
LINE
8
BLACK
6
CONTINUOUS
10
185.2999999999999829
20
-106.8499999999999943
11
185.5999999999999943
21
-107.1499999999999915
0
LINE
8
BLACK
6
CONTINUOUS
10
185.5999999999999943
20
-106.8499999999999943
11
185.2999999999999829
21
-107.1499999999999915
0
LINE
8
BLACK
6
CONTINUOUS
10
202.0199999999999818
20
-48.7399999999999949
11
202.3199999999999932
21
-49.0399999999999991
0
LINE
8
BLACK
6
CONTINUOUS
10
202.3199999999999932
20
-48.7399999999999949
11
202.0199999999999818
21
-49.0399999999999991
0
LINE
8
BLACK
6
CONTINUOUS
10
202.0199999999999818
20
-97.2399999999999949
11
202.3199999999999932
21
-97.539999999999992
0
LINE
8
BLACK
6
CONTINUOUS
10
202.3199999999999932
20
-97.2399999999999949
11
202.0199999999999818
21
-97.539999999999992
0
CIRCLE
8
BLACK
10
168.4050000000000011
20
-50.634999999999998
40
0.375
0
CIRCLE
8
BLACK
10
168.4050000000000011
20
-99.1349999999999909
40
0.375
0
CIRCLE
8
BLACK
10
170.0799999999999841
20
-65.3974999999999937
40
0.375
0
CIRCLE
8
BLACK
10
170.0799999999999841
20
-113.8974999999999937
40
0.375
0
CIRCLE
8
BLACK
10
170.7800000000000011
20
-60.779999999999994
40
0.375
0
CIRCLE
8
BLACK
10
170.7800000000000011
20
-109.2800000000000011
40
0.375
0
CIRCLE
8
BLACK
10
176.6049999999999898
20
-49.8599999999999994
40
0.375
0
CIRCLE
8
BLACK
10
176.6049999999999898
20
-98.3599999999999994
40
0.375
0
CIRCLE
8
BLACK
10
177.0049999999999955
20
-55.9600000000000009
40
0.375
0
CIRCLE
8
BLACK
10
177.0049999999999955
20
-104.4599999999999937
40
0.375
0
CIRCLE
8
BLACK
10
179.0174999999999841
20
-48.3350000000000009
40
0.375
0
CIRCLE
8
BLACK
10
179.0174999999999841
20
-96.8349999999999937
40
0.375
0
LINE
8
BLACK
6
CONTINUOUS
10
212.4799999999999898
20
-49.
11
212.4799999999999898
21
-50.
0
LINE
8
BLACK
6
CONTINUOUS
10
211.9799999999999898
20
-49.5
11
212.9799999999999898
21
-49.5
0
LINE
8
BLACK
6
CONTINUOUS
10
212.4799999999999898
20
-51.5399999999999991
11
212.4799999999999898
21
-52.5399999999999991
0
LINE
8
BLACK
6
CONTINUOUS
10
211.9799999999999898
20
-52.0399999999999991
11
212.9799999999999898
21
-52.0399999999999991
0
LINE
8
BLACK
6
CONTINUOUS
10
212.4799999999999898
20
-54.0799999999999983
11
212.4799999999999898
21
-55.0799999999999983
0
LINE
8
BLACK
6
CONTINUOUS
10
211.9799999999999898
20
-54.5799999999999983
11
212.9799999999999898
21
-54.5799999999999983
0
LINE
8
BLACK
6
CONTINUOUS
10
212.4799999999999898
20
-56.6199999999999974
11
212.4799999999999898
21
-57.6199999999999974
0
LINE
8
BLACK
6
CONTINUOUS
10
211.9799999999999898
20
-57.1199999999999974
11
212.9799999999999898
21
-57.1199999999999974
0
LINE
8
BLACK
6
CONTINUOUS
10
212.4799999999999898
20
-97.5
11
212.4799999999999898
21
-98.5
0
LINE
8
BLACK
6
CONTINUOUS
10
211.9799999999999898
20
-98.
11
212.9799999999999898
21
-98.
0
LINE
8
BLACK
6
CONTINUOUS
10
212.4799999999999898
20
-100.039999999999992
11
212.4799999999999898
21
-101.039999999999992
0
LINE
8
BLACK
6
CONTINUOUS
10
211.9799999999999898
20
-100.539999999999992
11
212.9799999999999898
21
-100.539999999999992
0
LINE
8
BLACK
6
CONTINUOUS
10
212.4799999999999898
20
-102.5799999999999983
11
212.4799999999999898
21
-103.5799999999999983
0
LINE
8
BLACK
6
CONTINUOUS
10
211.9799999999999898
20
-103.0799999999999983
11
212.9799999999999898
21
-103.0799999999999983
0
LINE
8
BLACK
6
CONTINUOUS
10
212.4799999999999898
20
-105.1199999999999903
11
212.4799999999999898
21
-106.1199999999999903
0
LINE
8
BLACK
6
CONTINUOUS
10
211.9799999999999898
20
-105.6199999999999903
11
212.9799999999999898
21
-105.6199999999999903
0
LINE
8
BLACK
6
CONTINUOUS
10
147.9987679999999841
20
-128.8998379999999884
11
147.9987679999999841
21
-126.8998379999999884
0
LINE
8
BLACK
6
CONTINUOUS
10
147.9987679999999841
20
-126.8998379999999884
11
148.4749579999999867
21
-126.8998379999999884
0
LINE
8
BLACK
6
CONTINUOUS
10
148.4749579999999867
20
-126.8998379999999884
11
148.760672999999997
21
-126.9950759999999974
0
LINE
8
BLACK
6
CONTINUOUS
10
148.760672999999997
20
-126.9950759999999974
11
148.9511489999999867
21
-127.1855520000000013
0
LINE
8
BLACK
6
CONTINUOUS
10
148.9511489999999867
20
-127.1855520000000013
11
149.0463869999999815
21
-127.3760279999999909
0
LINE
8
BLACK
6
CONTINUOUS
10
149.0463869999999815
20
-127.3760279999999909
11
149.1416250000000048
21
-127.7569799999999987
0
LINE
8
BLACK
6
CONTINUOUS
10
149.1416250000000048
20
-127.7569799999999987
11
149.1416250000000048
21
-128.0426949999999806
0
LINE
8
BLACK
6
CONTINUOUS
10
149.1416250000000048
20
-128.0426949999999806
11
149.0463869999999815
21
-128.4236469999999883
0
LINE
8
BLACK
6
CONTINUOUS
10
149.0463869999999815
20
-128.4236469999999883
11
148.9511489999999867
21
-128.6141230000000064
0
LINE
8
BLACK
6
CONTINUOUS
10
148.9511489999999867
20
-128.6141230000000064
11
148.760672999999997
21
-128.8045999999999935
0
LINE
8
BLACK
6
CONTINUOUS
10
148.760672999999997
20
-128.8045999999999935
11
148.4749579999999867
21
-128.8998379999999884
0
LINE
8
BLACK
6
CONTINUOUS
10
148.4749579999999867
20
-128.8998379999999884
11
147.9987679999999841
21
-128.8998379999999884
0
LINE
8
BLACK
6
CONTINUOUS
10
149.9987679999999841
20
-128.8998379999999884
11
149.9987679999999841
21
-127.5665039999999948
0
LINE
8
BLACK
6
CONTINUOUS
10
149.9987679999999841
20
-127.947457
11
150.0940060000000074
21
-127.7569799999999987
0
LINE
8
BLACK
6
CONTINUOUS
10
150.0940060000000074
20
-127.7569799999999987
11
150.1892440000000022
21
-127.6617419999999896
0
LINE
8
BLACK
6
CONTINUOUS
10
150.1892440000000022
20
-127.6617419999999896
11
150.3797199999999918
21
-127.5665039999999948
0
LINE
8
BLACK
6
CONTINUOUS
10
150.3797199999999918
20
-127.5665039999999948
11
150.5701970000000074
21
-127.5665039999999948
0
LINE
8
BLACK
6
CONTINUOUS
10
151.2368629999999996
20
-128.8998379999999884
11
151.2368629999999996
21
-127.5665039999999948
0
LINE
8
BLACK
6
CONTINUOUS
10
151.2368629999999996
20
-126.8998379999999884
11
151.1416250000000048
21
-126.9950759999999974
0
LINE
8
BLACK
6
CONTINUOUS
10
151.1416250000000048
20
-126.9950759999999974
11
151.2368629999999996
21
-127.0903139999999922
0
LINE
8
BLACK
6
CONTINUOUS
10
151.2368629999999996
20
-127.0903139999999922
11
151.3321009999999944
21
-126.9950759999999974
0
LINE
8
BLACK
6
CONTINUOUS
10
151.3321009999999944
20
-126.9950759999999974
11
151.2368629999999996
21
-126.8998379999999884
0
LINE
8
BLACK
6
CONTINUOUS
10
151.2368629999999996
20
-126.8998379999999884
11
151.2368629999999996
21
-127.0903139999999922
0
LINE
8
BLACK
6
CONTINUOUS
10
152.4749579999999867
20
-128.8998379999999884
11
152.284481999999997
21
-128.8045999999999935
0
LINE
8
BLACK
6
CONTINUOUS
10
152.284481999999997
20
-128.8045999999999935
11
152.1892440000000022
21
-128.6141230000000064
0
LINE
8
BLACK
6
CONTINUOUS
10
152.1892440000000022
20
-128.6141230000000064
11
152.1892440000000022
21
-126.8998379999999884
0
LINE
8
BLACK
6
CONTINUOUS
10
153.5225769999999841
20
-128.8998379999999884
11
153.3321009999999944
21
-128.8045999999999935
0
LINE
8
BLACK
6
CONTINUOUS
10
153.3321009999999944
20
-128.8045999999999935
11
153.2368629999999996
21
-128.6141230000000064
0
LINE
8
BLACK
6
CONTINUOUS
10
153.2368629999999996
20
-128.6141230000000064
11
153.2368629999999996
21
-126.8998379999999884
0
LINE
8
BLACK
6
CONTINUOUS
10
155.8082919999999945
20
-128.8998379999999884
11
155.8082919999999945
21
-126.8998379999999884
0
LINE
8
BLACK
6
CONTINUOUS
10
155.8082919999999945
20
-126.8998379999999884
11
156.4749589999999841
21
-128.3284089999999935
0
LINE
8
BLACK
6
CONTINUOUS
10
156.4749589999999841
20
-128.3284089999999935
11
157.1416250000000048
21
-126.8998379999999884
0
LINE
8
BLACK
6
CONTINUOUS
10
157.1416250000000048
20
-126.8998379999999884
11
157.1416250000000048
21
-128.8998379999999884
0
LINE
8
BLACK
6
CONTINUOUS
10
158.9511489999999867
20
-128.8998379999999884
11
158.9511489999999867
21
-127.852218999999991
0
LINE
8
BLACK
6
CONTINUOUS
10
158.9511489999999867
20
-127.852218999999991
11
158.8559109999999919
21
-127.6617419999999896
0
LINE
8
BLACK
6
CONTINUOUS
10
158.8559109999999919
20
-127.6617419999999896
11
158.6654350000000022
21
-127.5665039999999948
0
LINE
8
BLACK
6
CONTINUOUS
10
158.6654350000000022
20
-127.5665039999999948
11
158.284481999999997
21
-127.5665039999999948
0
LINE
8
BLACK
6
CONTINUOUS
10
158.284481999999997
20
-127.5665039999999948
11
158.0940059999999789
21
-127.6617419999999896
0
LINE
8
BLACK
6
CONTINUOUS
10
158.9511489999999867
20
-128.8045999999999935
11
158.760672999999997
21
-128.8998379999999884
0
LINE
8
BLACK
6
CONTINUOUS
10
158.760672999999997
20
-128.8998379999999884
11
158.284481999999997
21
-128.8998379999999884
0
LINE
8
BLACK
6
CONTINUOUS
10
158.284481999999997
20
-128.8998379999999884
11
158.0940059999999789
21
-128.8045999999999935
0
LINE
8
BLACK
6
CONTINUOUS
10
158.0940059999999789
20
-128.8045999999999935
11
157.9987679999999841
21
-128.6141230000000064
0
LINE
8
BLACK
6
CONTINUOUS
10
157.9987679999999841
20
-128.6141230000000064
11
157.9987679999999841
21
-128.4236469999999883
0
LINE
8
BLACK
6
CONTINUOUS
10
157.9987679999999841
20
-128.4236469999999883
11
158.0940059999999789
21
-128.2331709999999987
0
LINE
8
BLACK
6
CONTINUOUS
10
158.0940059999999789
20
-128.2331709999999987
11
158.284481999999997
21
-128.1379330000000039
0
LINE
8
BLACK
6
CONTINUOUS
10
158.284481999999997
20
-128.1379330000000039
11
158.760672999999997
21
-128.1379330000000039
0
LINE
8
BLACK
6
CONTINUOUS
10
158.760672999999997
20
-128.1379330000000039
11
158.9511489999999867
21
-128.0426949999999806
0
LINE
8
BLACK
6
CONTINUOUS
10
159.9035299999999893
20
-127.5665039999999948
11
159.9035299999999893
21
-129.5665039999999806
0
LINE
8
BLACK
6
CONTINUOUS
10
159.9035299999999893
20
-127.6617419999999896
11
160.0940059999999789
21
-127.5665039999999948
0
LINE
8
BLACK
6
CONTINUOUS
10
160.0940059999999789
20
-127.5665039999999948
11
160.4749589999999841
21
-127.5665039999999948
0
LINE
8
BLACK
6
CONTINUOUS
10
160.4749589999999841
20
-127.5665039999999948
11
160.6654350000000022
21
-127.6617419999999896
0
LINE
8
BLACK
6
CONTINUOUS
10
160.6654350000000022
20
-127.6617419999999896
11
160.760672999999997
21
-127.7569799999999987
0
LINE
8
BLACK
6
CONTINUOUS
10
160.760672999999997
20
-127.7569799999999987
11
160.8559109999999919
21
-127.947457
0
LINE
8
BLACK
6
CONTINUOUS
10
160.8559109999999919
20
-127.947457
11
160.8559109999999919
21
-128.5188849999999832
0
LINE
8
BLACK
6
CONTINUOUS
10
160.8559109999999919
20
-128.5188849999999832
11
160.760672999999997
21
-128.7093610000000012
0
LINE
8
BLACK
6
CONTINUOUS
10
160.760672999999997
20
-128.7093610000000012
11
160.6654350000000022
21
-128.8045999999999935
0
LINE
8
BLACK
6
CONTINUOUS
10
160.6654350000000022
20
-128.8045999999999935
11
160.4749589999999841
21
-128.8998379999999884
0
LINE
8
BLACK
6
CONTINUOUS
10
160.4749589999999841
20
-128.8998379999999884
11
160.0940059999999789
21
-128.8998379999999884
0
LINE
8
BLACK
6
CONTINUOUS
10
160.0940059999999789
20
-128.8998379999999884
11
159.9035299999999893
21
-128.8045999999999935
0
LINE
8
BLACK
6
CONTINUOUS
10
161.7130539999999996
20
-128.7093610000000012
11
161.8082919999999945
21
-128.8045999999999935
0
LINE
8
BLACK
6
CONTINUOUS
10
161.8082919999999945
20
-128.8045999999999935
11
161.7130539999999996
21
-128.8998379999999884
0
LINE
8
BLACK
6
CONTINUOUS
10
161.7130539999999996
20
-128.8998379999999884
11
161.6178160000000048
21
-128.8045999999999935
0
LINE
8
BLACK
6
CONTINUOUS
10
161.6178160000000048
20
-128.8045999999999935
11
161.7130539999999996
21
-128.7093610000000012
0
LINE
8
BLACK
6
CONTINUOUS
10
161.7130539999999996
20
-128.7093610000000012
11
161.7130539999999996
21
-128.8998379999999884
0
LINE
8
BLACK
6
CONTINUOUS
10
161.7130539999999996
20
-127.6617419999999896
11
161.8082919999999945
21
-127.7569799999999987
0
LINE
8
BLACK
6
CONTINUOUS
10
161.8082919999999945
20
-127.7569799999999987
11
161.7130539999999996
21
-127.852218999999991
0
LINE
8
BLACK
6
CONTINUOUS
10
161.7130539999999996
20
-127.852218999999991
11
161.6178160000000048
21
-127.7569799999999987
0
LINE
8
BLACK
6
CONTINUOUS
10
161.6178160000000048
20
-127.7569799999999987
11
161.7130539999999996
21
-127.6617419999999896
0
LINE
8
BLACK
6
CONTINUOUS
10
161.7130539999999996
20
-127.6617419999999896
11
161.7130539999999996
21
-127.852218999999991
0
LINE
8
BLACK
6
CONTINUOUS
10
145.0909999999999798
20
-132.0349999999999966
11
145.3909999999999911
21
-132.335000000000008
0
LINE
8
BLACK
6
CONTINUOUS
10
145.3909999999999911
20
-132.0349999999999966
11
145.0909999999999798
21
-132.335000000000008
0
LINE
8
BLACK
6
CONTINUOUS
10
148.3797199999999918
20
-131.0998380000000054
11
148.5701970000000074
21
-131.0998380000000054
0
LINE
8
BLACK
6
CONTINUOUS
10
148.5701970000000074
20
-131.0998380000000054
11
148.760672999999997
21
-131.1950760000000002
0
LINE
8
BLACK
6
CONTINUOUS
10
148.760672999999997
20
-131.1950760000000002
11
148.8559109999999919
21
-131.2903139999999951
0
LINE
8
BLACK
6
CONTINUOUS
10
148.8559109999999919
20
-131.2903139999999951
11
148.9511489999999867
21
-131.4807899999999847
0
LINE
8
BLACK
6
CONTINUOUS
10
148.9511489999999867
20
-131.4807899999999847
11
149.0463869999999815
21
-131.8617419999999925
0
LINE
8
BLACK
6
CONTINUOUS
10
149.0463869999999815
20
-131.8617419999999925
11
149.0463869999999815
21
-132.3379329999999925
0
LINE
8
BLACK
6
CONTINUOUS
10
149.0463869999999815
20
-132.3379329999999925
11
148.9511489999999867
21
-132.7188850000000002
0
LINE
8
BLACK
6
CONTINUOUS
10
148.9511489999999867
20
-132.7188850000000002
11
148.8559109999999919
21
-132.9093609999999899
0
LINE
8
BLACK
6
CONTINUOUS
10
148.8559109999999919
20
-132.9093609999999899
11
148.760672999999997
21
-133.0045999999999822
0
LINE
8
BLACK
6
CONTINUOUS
10
148.760672999999997
20
-133.0045999999999822
11
148.5701970000000074
21
-133.0998380000000054
0
LINE
8
BLACK
6
CONTINUOUS
10
148.5701970000000074
20
-133.0998380000000054
11
148.3797199999999918
21
-133.0998380000000054
0
LINE
8
BLACK
6
CONTINUOUS
10
148.3797199999999918
20
-133.0998380000000054
11
148.1892440000000022
21
-133.0045999999999822
0
LINE
8
BLACK
6
CONTINUOUS
10
148.1892440000000022
20
-133.0045999999999822
11
148.0940060000000074
21
-132.9093609999999899
0
LINE
8
BLACK
6
CONTINUOUS
10
148.0940060000000074
20
-132.9093609999999899
11
147.9987679999999841
21
-132.7188850000000002
0
LINE
8
BLACK
6
CONTINUOUS
10
147.9987679999999841
20
-132.7188850000000002
11
147.9035299999999893
21
-132.3379329999999925
0
LINE
8
BLACK
6
CONTINUOUS
10
147.9035299999999893
20
-132.3379329999999925
11
147.9035299999999893
21
-131.8617419999999925
0
LINE
8
BLACK
6
CONTINUOUS
10
147.9035299999999893
20
-131.8617419999999925
11
147.9987679999999841
21
-131.4807899999999847
0
LINE
8
BLACK
6
CONTINUOUS
10
147.9987679999999841
20
-131.4807899999999847
11
148.0940060000000074
21
-131.2903139999999951
0
LINE
8
BLACK
6
CONTINUOUS
10
148.0940060000000074
20
-131.2903139999999951
11
148.1892440000000022
21
-131.1950760000000002
0
LINE
8
BLACK
6
CONTINUOUS
10
148.1892440000000022
20
-131.1950760000000002
11
148.3797199999999918
21
-131.0998380000000054
0
LINE
8
BLACK
6
CONTINUOUS
10
149.9035299999999893
20
-132.9093609999999899
11
149.9987679999999841
21
-133.0045999999999822
0
LINE
8
BLACK
6
CONTINUOUS
10
149.9987679999999841
20
-133.0045999999999822
11
149.9035299999999893
21
-133.0998380000000054
0
LINE
8
BLACK
6
CONTINUOUS
10
149.9035299999999893
20
-133.0998380000000054
11
149.8082919999999945
21
-133.0045999999999822
0
LINE
8
BLACK
6
CONTINUOUS
10
149.8082919999999945
20
-133.0045999999999822
11
149.9035299999999893
21
-132.9093609999999899
0
LINE
8
BLACK
6
CONTINUOUS
10
149.9035299999999893
20
-132.9093609999999899
11
149.9035299999999893
21
-133.0998380000000054
0
LINE
8
BLACK
6
CONTINUOUS
10
150.6654350000000022
20
-131.0998380000000054
11
151.9035299999999893
21
-131.0998380000000054
0
LINE
8
BLACK
6
CONTINUOUS
10
151.9035299999999893
20
-131.0998380000000054
11
151.2368629999999996
21
-131.8617419999999925
0
LINE
8
BLACK
6
CONTINUOUS
10
151.2368629999999996
20
-131.8617419999999925
11
151.5225779999999816
21
-131.8617419999999925
0
LINE
8
BLACK
6
CONTINUOUS
10
151.5225779999999816
20
-131.8617419999999925
11
151.7130539999999996
21
-131.9569799999999873
0
LINE
8
BLACK
6
CONTINUOUS
10
151.7130539999999996
20
-131.9569799999999873
11
151.8082919999999945
21
-132.052219000000008
0
LINE
8
BLACK
6
CONTINUOUS
10
151.8082919999999945
20
-132.052219000000008
11
151.9035299999999893
21
-132.2426949999999977
0
LINE
8
BLACK
6
CONTINUOUS
10
151.9035299999999893
20
-132.2426949999999977
11
151.9035299999999893
21
-132.7188850000000002
0
LINE
8
BLACK
6
CONTINUOUS
10
151.9035299999999893
20
-132.7188850000000002
11
151.8082919999999945
21
-132.9093609999999899
0
LINE
8
BLACK
6
CONTINUOUS
10
151.8082919999999945
20
-132.9093609999999899
11
151.7130539999999996
21
-133.0045999999999822
0
LINE
8
BLACK
6
CONTINUOUS
10
151.7130539999999996
20
-133.0045999999999822
11
151.5225779999999816
21
-133.0998380000000054
0
LINE
8
BLACK
6
CONTINUOUS
10
151.5225779999999816
20
-133.0998380000000054
11
150.9511489999999867
21
-133.0998380000000054
0
LINE
8
BLACK
6
CONTINUOUS
10
150.9511489999999867
20
-133.0998380000000054
11
150.760672999999997
21
-133.0045999999999822
0
LINE
8
BLACK
6
CONTINUOUS
10
150.760672999999997
20
-133.0045999999999822
11
150.6654350000000022
21
-132.9093609999999899
0
LINE
8
BLACK
6
CONTINUOUS
10
153.1416250000000048
20
-131.0998380000000054
11
153.3321019999999919
21
-131.0998380000000054
0
LINE
8
BLACK
6
CONTINUOUS
10
153.3321019999999919
20
-131.0998380000000054
11
153.5225779999999816
21
-131.1950760000000002
0
LINE
8
BLACK
6
CONTINUOUS
10
153.5225779999999816
20
-131.1950760000000002
11
153.6178160000000048
21
-131.2903139999999951
0
LINE
8
BLACK
6
CONTINUOUS
10
153.6178160000000048
20
-131.2903139999999951
11
153.7130539999999996
21
-131.4807899999999847
0
LINE
8
BLACK
6
CONTINUOUS
10
153.7130539999999996
20
-131.4807899999999847
11
153.8082919999999945
21
-131.8617419999999925
0
LINE
8
BLACK
6
CONTINUOUS
10
153.8082919999999945
20
-131.8617419999999925
11
153.8082919999999945
21
-132.3379329999999925
0
LINE
8
BLACK
6
CONTINUOUS
10
153.8082919999999945
20
-132.3379329999999925
11
153.7130539999999996
21
-132.7188850000000002
0
LINE
8
BLACK
6
CONTINUOUS
10
153.7130539999999996
20
-132.7188850000000002
11
153.6178160000000048
21
-132.9093609999999899
0
LINE
8
BLACK
6
CONTINUOUS
10
153.6178160000000048
20
-132.9093609999999899
11
153.5225779999999816
21
-133.0045999999999822
0
LINE
8
BLACK
6
CONTINUOUS
10
153.5225779999999816
20
-133.0045999999999822
11
153.3321019999999919
21
-133.0998380000000054
0
LINE
8
BLACK
6
CONTINUOUS
10
153.3321019999999919
20
-133.0998380000000054
11
153.1416250000000048
21
-133.0998380000000054
0
LINE
8
BLACK
6
CONTINUOUS
10
153.1416250000000048
20
-133.0998380000000054
11
152.9511489999999867
21
-133.0045999999999822
0
LINE
8
BLACK
6
CONTINUOUS
10
152.9511489999999867
20
-133.0045999999999822
11
152.8559109999999919
21
-132.9093609999999899
0
LINE
8
BLACK
6
CONTINUOUS
10
152.8559109999999919
20
-132.9093609999999899
11
152.760672999999997
21
-132.7188850000000002
0
LINE
8
BLACK
6
CONTINUOUS
10
152.760672999999997
20
-132.7188850000000002
11
152.6654350000000022
21
-132.3379329999999925
0
LINE
8
BLACK
6
CONTINUOUS
10
152.6654350000000022
20
-132.3379329999999925
11
152.6654350000000022
21
-131.8617419999999925
0
LINE
8
BLACK
6
CONTINUOUS
10
152.6654350000000022
20
-131.8617419999999925
11
152.760672999999997
21
-131.4807899999999847
0
LINE
8
BLACK
6
CONTINUOUS
10
152.760672999999997
20
-131.4807899999999847
11
152.8559109999999919
21
-131.2903139999999951
0
LINE
8
BLACK
6
CONTINUOUS
10
152.8559109999999919
20
-131.2903139999999951
11
152.9511489999999867
21
-131.1950760000000002
0
LINE
8
BLACK
6
CONTINUOUS
10
152.9511489999999867
20
-131.1950760000000002
11
153.1416250000000048
21
-131.0998380000000054
0
LINE
8
BLACK
6
CONTINUOUS
10
155.0463869999999815
20
-131.0998380000000054
11
155.2368639999999971
21
-131.0998380000000054
0
LINE
8
BLACK
6
CONTINUOUS
10
155.2368639999999971
20
-131.0998380000000054
11
155.4273399999999867
21
-131.1950760000000002
0
LINE
8
BLACK
6
CONTINUOUS
10
155.4273399999999867
20
-131.1950760000000002
11
155.5225779999999816
21
-131.2903139999999951
0
LINE
8
BLACK
6
CONTINUOUS
10
155.5225779999999816
20
-131.2903139999999951
11
155.6178160000000048
21
-131.4807899999999847
0
LINE
8
BLACK
6
CONTINUOUS
10
155.6178160000000048
20
-131.4807899999999847
11
155.7130539999999996
21
-131.8617419999999925
0
LINE
8
BLACK
6
CONTINUOUS
10
155.7130539999999996
20
-131.8617419999999925
11
155.7130539999999996
21
-132.3379329999999925
0
LINE
8
BLACK
6
CONTINUOUS
10
155.7130539999999996
20
-132.3379329999999925
11
155.6178160000000048
21
-132.7188850000000002
0
LINE
8
BLACK
6
CONTINUOUS
10
155.6178160000000048
20
-132.7188850000000002
11
155.5225779999999816
21
-132.9093609999999899
0
LINE
8
BLACK
6
CONTINUOUS
10
155.5225779999999816
20
-132.9093609999999899
11
155.4273399999999867
21
-133.0045999999999822
0
LINE
8
BLACK
6
CONTINUOUS
10
155.4273399999999867
20
-133.0045999999999822
11
155.2368639999999971
21
-133.0998380000000054
0
LINE
8
BLACK
6
CONTINUOUS
10
155.2368639999999971
20
-133.0998380000000054
11
155.0463869999999815
21
-133.0998380000000054
0
LINE
8
BLACK
6
CONTINUOUS
10
155.0463869999999815
20
-133.0998380000000054
11
154.8559109999999919
21
-133.0045999999999822
0
LINE
8
BLACK
6
CONTINUOUS
10
154.8559109999999919
20
-133.0045999999999822
11
154.760672999999997
21
-132.9093609999999899
0
LINE
8
BLACK
6
CONTINUOUS
10
154.760672999999997
20
-132.9093609999999899
11
154.6654350000000022
21
-132.7188850000000002
0
LINE
8
BLACK
6
CONTINUOUS
10
154.6654350000000022
20
-132.7188850000000002
11
154.570196999999979
21
-132.3379329999999925
0
LINE
8
BLACK
6
CONTINUOUS
10
154.570196999999979
20
-132.3379329999999925
11
154.570196999999979
21
-131.8617419999999925
0
LINE
8
BLACK
6
CONTINUOUS
10
154.570196999999979
20
-131.8617419999999925
11
154.6654350000000022
21
-131.4807899999999847
0
LINE
8
BLACK
6
CONTINUOUS
10
154.6654350000000022
20
-131.4807899999999847
11
154.760672999999997
21
-131.2903139999999951
0
LINE
8
BLACK
6
CONTINUOUS
10
154.760672999999997
20
-131.2903139999999951
11
154.8559109999999919
21
-131.1950760000000002
0
LINE
8
BLACK
6
CONTINUOUS
10
154.8559109999999919
20
-131.1950760000000002
11
155.0463869999999815
21
-131.0998380000000054
0
LINE
8
BLACK
6
CONTINUOUS
10
156.570196999999979
20
-133.0998380000000054
11
156.570196999999979
21
-131.7665039999999976
0
LINE
8
BLACK
6
CONTINUOUS
10
156.570196999999979
20
-131.9569799999999873
11
156.6654350000000022
21
-131.8617419999999925
0
LINE
8
BLACK
6
CONTINUOUS
10
156.6654350000000022
20
-131.8617419999999925
11
156.8559109999999919
21
-131.7665039999999976
0
LINE
8
BLACK
6
CONTINUOUS
10
156.8559109999999919
20
-131.7665039999999976
11
157.1416260000000023
21
-131.7665039999999976
0
LINE
8
BLACK
6
CONTINUOUS
10
157.1416260000000023
20
-131.7665039999999976
11
157.3321019999999919
21
-131.8617419999999925
0
LINE
8
BLACK
6
CONTINUOUS
10
157.3321019999999919
20
-131.8617419999999925
11
157.4273399999999867
21
-132.052219000000008
0
LINE
8
BLACK
6
CONTINUOUS
10
157.4273399999999867
20
-132.052219000000008
11
157.4273399999999867
21
-133.0998380000000054
0
LINE
8
BLACK
6
CONTINUOUS
10
157.4273399999999867
20
-132.052219000000008
11
157.5225779999999816
21
-131.8617419999999925
0
LINE
8
BLACK
6
CONTINUOUS
10
157.5225779999999816
20
-131.8617419999999925
11
157.7130539999999996
21
-131.7665039999999976
0
LINE
8
BLACK
6
CONTINUOUS
10
157.7130539999999996
20
-131.7665039999999976
11
157.9987679999999841
21
-131.7665039999999976
0
LINE
8
BLACK
6
CONTINUOUS
10
157.9987679999999841
20
-131.7665039999999976
11
158.1892449999999997
21
-131.8617419999999925
0
LINE
8
BLACK
6
CONTINUOUS
10
158.1892449999999997
20
-131.8617419999999925
11
158.2844829999999945
21
-132.052219000000008
0
LINE
8
BLACK
6
CONTINUOUS
10
158.2844829999999945
20
-132.052219000000008
11
158.2844829999999945
21
-133.0998380000000054
0
LINE
8
BLACK
6
CONTINUOUS
10
159.2368639999999971
20
-133.0998380000000054
11
159.2368639999999971
21
-131.7665039999999976
0
LINE
8
BLACK
6
CONTINUOUS
10
159.2368639999999971
20
-131.9569799999999873
11
159.3321019999999919
21
-131.8617419999999925
0
LINE
8
BLACK
6
CONTINUOUS
10
159.3321019999999919
20
-131.8617419999999925
11
159.5225779999999816
21
-131.7665039999999976
0
LINE
8
BLACK
6
CONTINUOUS
10
159.5225779999999816
20
-131.7665039999999976
11
159.8082929999999919
21
-131.7665039999999976
0
LINE
8
BLACK
6
CONTINUOUS
10
159.8082929999999919
20
-131.7665039999999976
11
159.9987689999999816
21
-131.8617419999999925
0
LINE
8
BLACK
6
CONTINUOUS
10
159.9987689999999816
20
-131.8617419999999925
11
160.0940070000000048
21
-132.052219000000008
0
LINE
8
BLACK
6
CONTINUOUS
10
160.0940070000000048
20
-132.052219000000008
11
160.0940070000000048
21
-133.0998380000000054
0
LINE
8
BLACK
6
CONTINUOUS
10
160.0940070000000048
20
-132.052219000000008
11
160.1892449999999997
21
-131.8617419999999925
0
LINE
8
BLACK
6
CONTINUOUS
10
160.1892449999999997
20
-131.8617419999999925
11
160.3797209999999893
21
-131.7665039999999976
0
LINE
8
BLACK
6
CONTINUOUS
10
160.3797209999999893
20
-131.7665039999999976
11
160.6654350000000022
21
-131.7665039999999976
0
LINE
8
BLACK
6
CONTINUOUS
10
160.6654350000000022
20
-131.7665039999999976
11
160.8559119999999893
21
-131.8617419999999925
0
LINE
8
BLACK
6
CONTINUOUS
10
160.8559119999999893
20
-131.8617419999999925
11
160.9511499999999842
21
-132.052219000000008
0
LINE
8
BLACK
6
CONTINUOUS
10
160.9511499999999842
20
-132.052219000000008
11
160.9511499999999842
21
-133.0998380000000054
0
LINE
8
BLACK
6
CONTINUOUS
10
164.8559119999999893
20
-131.0045999999999822
11
163.1416269999999997
21
-133.576028000000008
0
LINE
8
BLACK
6
CONTINUOUS
10
167.4273409999999842
20
-131.0998380000000054
11
167.6178179999999998
21
-131.0998380000000054
0
LINE
8
BLACK
6
CONTINUOUS
10
167.6178179999999998
20
-131.0998380000000054
11
167.8082939999999894
21
-131.1950760000000002
0
LINE
8
BLACK
6
CONTINUOUS
10
167.8082939999999894
20
-131.1950760000000002
11
167.9035319999999842
21
-131.2903139999999951
0
LINE
8
BLACK
6
CONTINUOUS
10
167.9035319999999842
20
-131.2903139999999951
11
167.9987699999999791
21
-131.4807899999999847
0
LINE
8
BLACK
6
CONTINUOUS
10
167.9987699999999791
20
-131.4807899999999847
11
168.0940080000000023
21
-131.8617419999999925
0
LINE
8
BLACK
6
CONTINUOUS
10
168.0940080000000023
20
-131.8617419999999925
11
168.0940080000000023
21
-132.3379329999999925
0
LINE
8
BLACK
6
CONTINUOUS
10
168.0940080000000023
20
-132.3379329999999925
11
167.9987699999999791
21
-132.7188850000000002
0
LINE
8
BLACK
6
CONTINUOUS
10
167.9987699999999791
20
-132.7188850000000002
11
167.9035319999999842
21
-132.9093609999999899
0
LINE
8
BLACK
6
CONTINUOUS
10
167.9035319999999842
20
-132.9093609999999899
11
167.8082939999999894
21
-133.0045999999999822
0
LINE
8
BLACK
6
CONTINUOUS
10
167.8082939999999894
20
-133.0045999999999822
11
167.6178179999999998
21
-133.0998380000000054
0
LINE
8
BLACK
6
CONTINUOUS
10
167.6178179999999998
20
-133.0998380000000054
11
167.4273409999999842
21
-133.0998380000000054
0
LINE
8
BLACK
6
CONTINUOUS
10
167.4273409999999842
20
-133.0998380000000054
11
167.2368649999999946
21
-133.0045999999999822
0
LINE
8
BLACK
6
CONTINUOUS
10
167.2368649999999946
20
-133.0045999999999822
11
167.1416269999999997
21
-132.9093609999999899
0
LINE
8
BLACK
6
CONTINUOUS
10
167.1416269999999997
20
-132.9093609999999899
11
167.0463890000000049
21
-132.7188850000000002
0
LINE
8
BLACK
6
CONTINUOUS
10
167.0463890000000049
20
-132.7188850000000002
11
166.9511509999999817
21
-132.3379329999999925
0
LINE
8
BLACK
6
CONTINUOUS
10
166.9511509999999817
20
-132.3379329999999925
11
166.9511509999999817
21
-131.8617419999999925
0
LINE
8
BLACK
6
CONTINUOUS
10
166.9511509999999817
20
-131.8617419999999925
11
167.0463890000000049
21
-131.4807899999999847
0
LINE
8
BLACK
6
CONTINUOUS
10
167.0463890000000049
20
-131.4807899999999847
11
167.1416269999999997
21
-131.2903139999999951
0
LINE
8
BLACK
6
CONTINUOUS
10
167.1416269999999997
20
-131.2903139999999951
11
167.2368649999999946
21
-131.1950760000000002
0
LINE
8
BLACK
6
CONTINUOUS
10
167.2368649999999946
20
-131.1950760000000002
11
167.4273409999999842
21
-131.0998380000000054
0
LINE
8
BLACK
6
CONTINUOUS
10
168.9511509999999817
20
-132.9093609999999899
11
169.0463890000000049
21
-133.0045999999999822
0
LINE
8
BLACK
6
CONTINUOUS
10
169.0463890000000049
20
-133.0045999999999822
11
168.9511509999999817
21
-133.0998380000000054
0
LINE
8
BLACK
6
CONTINUOUS
10
168.9511509999999817
20
-133.0998380000000054
11
168.8559129999999868
21
-133.0045999999999822
0
LINE
8
BLACK
6
CONTINUOUS
10
168.8559129999999868
20
-133.0045999999999822
11
168.9511509999999817
21
-132.9093609999999899
0
LINE
8
BLACK
6
CONTINUOUS
10
168.9511509999999817
20
-132.9093609999999899
11
168.9511509999999817
21
-133.0998380000000054
0
LINE
8
BLACK
6
CONTINUOUS
10
170.284483999999992
20
-131.0998380000000054
11
170.4749609999999791
21
-131.0998380000000054
0
LINE
8
BLACK
6
CONTINUOUS
10
170.4749609999999791
20
-131.0998380000000054
11
170.6654369999999972
21
-131.1950760000000002
0
LINE
8
BLACK
6
CONTINUOUS
10
170.6654369999999972
20
-131.1950760000000002
11
170.760674999999992
21
-131.2903139999999951
0
LINE
8
BLACK
6
CONTINUOUS
10
170.760674999999992
20
-131.2903139999999951
11
170.8559129999999868
21
-131.4807899999999847
0
LINE
8
BLACK
6
CONTINUOUS
10
170.8559129999999868
20
-131.4807899999999847
11
170.9511509999999817
21
-131.8617419999999925
0
LINE
8
BLACK
6
CONTINUOUS
10
170.9511509999999817
20
-131.8617419999999925
11
170.9511509999999817
21
-132.3379329999999925
0
LINE
8
BLACK
6
CONTINUOUS
10
170.9511509999999817
20
-132.3379329999999925
11
170.8559129999999868
21
-132.7188850000000002
0
LINE
8
BLACK
6
CONTINUOUS
10
170.8559129999999868
20
-132.7188850000000002
11
170.760674999999992
21
-132.9093609999999899
0
LINE
8
BLACK
6
CONTINUOUS
10
170.760674999999992
20
-132.9093609999999899
11
170.6654369999999972
21
-133.0045999999999822
0
LINE
8
BLACK
6
CONTINUOUS
10
170.6654369999999972
20
-133.0045999999999822
11
170.4749609999999791
21
-133.0998380000000054
0
LINE
8
BLACK
6
CONTINUOUS
10
170.4749609999999791
20
-133.0998380000000054
11
170.284483999999992
21
-133.0998380000000054
0
LINE
8
BLACK
6
CONTINUOUS
10
170.284483999999992
20
-133.0998380000000054
11
170.0940080000000023
21
-133.0045999999999822
0
LINE
8
BLACK
6
CONTINUOUS
10
170.0940080000000023
20
-133.0045999999999822
11
169.9987699999999791
21
-132.9093609999999899
0
LINE
8
BLACK
6
CONTINUOUS
10
169.9987699999999791
20
-132.9093609999999899
11
169.9035319999999842
21
-132.7188850000000002
0
LINE
8
BLACK
6
CONTINUOUS
10
169.9035319999999842
20
-132.7188850000000002
11
169.8082939999999894
21
-132.3379329999999925
0
LINE
8
BLACK
6
CONTINUOUS
10
169.8082939999999894
20
-132.3379329999999925
11
169.8082939999999894
21
-131.8617419999999925
0
LINE
8
BLACK
6
CONTINUOUS
10
169.8082939999999894
20
-131.8617419999999925
11
169.9035319999999842
21
-131.4807899999999847
0
LINE
8
BLACK
6
CONTINUOUS
10
169.9035319999999842
20
-131.4807899999999847
11
169.9987699999999791
21
-131.2903139999999951
0
LINE
8
BLACK
6
CONTINUOUS
10
169.9987699999999791
20
-131.2903139999999951
11
170.0940080000000023
21
-131.1950760000000002
0
LINE
8
BLACK
6
CONTINUOUS
10
170.0940080000000023
20
-131.1950760000000002
11
170.284483999999992
21
-131.0998380000000054
0
LINE
8
BLACK
6
CONTINUOUS
10
172.8559129999999868
20
-133.0998380000000054
11
171.7130559999999946
21
-133.0998380000000054
0
LINE
8
BLACK
6
CONTINUOUS
10
172.284483999999992
20
-133.0998380000000054
11
172.284483999999992
21
-131.0998380000000054
0
LINE
8
BLACK
6
CONTINUOUS
10
172.284483999999992
20
-131.0998380000000054
11
172.0940080000000023
21
-131.3855519999999899
0
LINE
8
BLACK
6
CONTINUOUS
10
172.0940080000000023
20
-131.3855519999999899
11
171.9035319999999842
21
-131.576028000000008
0
LINE
8
BLACK
6
CONTINUOUS
10
171.9035319999999842
20
-131.576028000000008
11
171.7130559999999946
21
-131.6712660000000028
0
LINE
8
BLACK
6
CONTINUOUS
10
174.760674999999992
20
-133.0998380000000054
11
173.6178179999999998
21
-133.0998380000000054
0
LINE
8
BLACK
6
CONTINUOUS
10
174.1892459999999971
20
-133.0998380000000054
11
174.1892459999999971
21
-131.0998380000000054
0
LINE
8
BLACK
6
CONTINUOUS
10
174.1892459999999971
20
-131.0998380000000054
11
173.9987699999999791
21
-131.3855519999999899
0
LINE
8
BLACK
6
CONTINUOUS
10
173.9987699999999791
20
-131.3855519999999899
11
173.8082939999999894
21
-131.576028000000008
0
LINE
8
BLACK
6
CONTINUOUS
10
173.8082939999999894
20
-131.576028000000008
11
173.6178179999999998
21
-131.6712660000000028
0
LINE
8
BLACK
6
CONTINUOUS
10
175.9035319999999842
20
-131.9569799999999873
11
175.7130559999999946
21
-131.8617419999999925
0
LINE
8
BLACK
6
CONTINUOUS
10
175.7130559999999946
20
-131.8617419999999925
11
175.6178179999999998
21
-131.7665039999999976
0
LINE
8
BLACK
6
CONTINUOUS
10
175.6178179999999998
20
-131.7665039999999976
11
175.5225800000000049
21
-131.576028000000008
0
LINE
8
BLACK
6
CONTINUOUS
10
175.5225800000000049
20
-131.576028000000008
11
175.5225800000000049
21
-131.4807899999999847
0
LINE
8
BLACK
6
CONTINUOUS
10
175.5225800000000049
20
-131.4807899999999847
11
175.6178179999999998
21
-131.2903139999999951
0
LINE
8
BLACK
6
CONTINUOUS
10
175.6178179999999998
20
-131.2903139999999951
11
175.7130559999999946
21
-131.1950760000000002
0
LINE
8
BLACK
6
CONTINUOUS
10
175.7130559999999946
20
-131.1950760000000002
11
175.9035319999999842
21
-131.0998380000000054
0
LINE
8
BLACK
6
CONTINUOUS
10
175.9035319999999842
20
-131.0998380000000054
11
176.2844849999999894
21
-131.0998380000000054
0
LINE
8
BLACK
6
CONTINUOUS
10
176.2844849999999894
20
-131.0998380000000054
11
176.4749609999999791
21
-131.1950760000000002
0
LINE
8
BLACK
6
CONTINUOUS
10
176.4749609999999791
20
-131.1950760000000002
11
176.5701990000000023
21
-131.2903139999999951
0
LINE
8
BLACK
6
CONTINUOUS
10
176.5701990000000023
20
-131.2903139999999951
11
176.6654369999999972
21
-131.4807899999999847
0
LINE
8
BLACK
6
CONTINUOUS
10
176.6654369999999972
20
-131.4807899999999847
11
176.6654369999999972
21
-131.576028000000008
0
LINE
8
BLACK
6
CONTINUOUS
10
176.6654369999999972
20
-131.576028000000008
11
176.5701990000000023
21
-131.7665039999999976
0
LINE
8
BLACK
6
CONTINUOUS
10
176.5701990000000023
20
-131.7665039999999976
11
176.4749609999999791
21
-131.8617419999999925
0
LINE
8
BLACK
6
CONTINUOUS
10
176.4749609999999791
20
-131.8617419999999925
11
176.2844849999999894
21
-131.9569799999999873
0
LINE
8
BLACK
6
CONTINUOUS
10
176.2844849999999894
20
-131.9569799999999873
11
175.9035319999999842
21
-131.9569799999999873
0
LINE
8
BLACK
6
CONTINUOUS
10
175.9035319999999842
20
-131.9569799999999873
11
175.7130559999999946
21
-132.052219000000008
0
LINE
8
BLACK
6
CONTINUOUS
10
175.7130559999999946
20
-132.052219000000008
11
175.6178179999999998
21
-132.1474570000000028
0
LINE
8
BLACK
6
CONTINUOUS
10
175.6178179999999998
20
-132.1474570000000028
11
175.5225800000000049
21
-132.3379329999999925
0
LINE
8
BLACK
6
CONTINUOUS
10
175.5225800000000049
20
-132.3379329999999925
11
175.5225800000000049
21
-132.7188850000000002
0
LINE
8
BLACK
6
CONTINUOUS
10
175.5225800000000049
20
-132.7188850000000002
11
175.6178179999999998
21
-132.9093609999999899
0
LINE
8
BLACK
6
CONTINUOUS
10
175.6178179999999998
20
-132.9093609999999899
11
175.7130559999999946
21
-133.0045999999999822
0
LINE
8
BLACK
6
CONTINUOUS
10
175.7130559999999946
20
-133.0045999999999822
11
175.9035319999999842
21
-133.0998380000000054
0
LINE
8
BLACK
6
CONTINUOUS
10
175.9035319999999842
20
-133.0998380000000054
11
176.2844849999999894
21
-133.0998380000000054
0
LINE
8
BLACK
6
CONTINUOUS
10
176.2844849999999894
20
-133.0998380000000054
11
176.4749609999999791
21
-133.0045999999999822
0
LINE
8
BLACK
6
CONTINUOUS
10
176.4749609999999791
20
-133.0045999999999822
11
176.5701990000000023
21
-132.9093609999999899
0
LINE
8
BLACK
6
CONTINUOUS
10
176.5701990000000023
20
-132.9093609999999899
11
176.6654369999999972
21
-132.7188850000000002
0
LINE
8
BLACK
6
CONTINUOUS
10
176.6654369999999972
20
-132.7188850000000002
11
176.6654369999999972
21
-132.3379329999999925
0
LINE
8
BLACK
6
CONTINUOUS
10
176.6654369999999972
20
-132.3379329999999925
11
176.5701990000000023
21
-132.1474570000000028
0
LINE
8
BLACK
6
CONTINUOUS
10
176.5701990000000023
20
-132.1474570000000028
11
176.4749609999999791
21
-132.052219000000008
0
LINE
8
BLACK
6
CONTINUOUS
10
176.4749609999999791
20
-132.052219000000008
11
176.2844849999999894
21
-131.9569799999999873
0
LINE
8
BLACK
6
CONTINUOUS
10
177.4273419999999817
20
-131.0998380000000054
11
177.4273419999999817
21
-131.4807899999999847
0
LINE
8
BLACK
6
CONTINUOUS
10
178.1892469999999946
20
-131.0998380000000054
11
178.1892469999999946
21
-131.4807899999999847
0
LINE
8
BLACK
6
CONTINUOUS
10
181.1416289999999947
20
-133.8617419999999925
11
181.0463900000000024
21
-133.7665039999999976
0
LINE
8
BLACK
6
CONTINUOUS
10
181.0463900000000024
20
-133.7665039999999976
11
180.8559139999999843
21
-133.4807899999999847
0
LINE
8
BLACK
6
CONTINUOUS
10
180.8559139999999843
20
-133.4807899999999847
11
180.7606759999999895
21
-133.2903139999999951
0
LINE
8
BLACK
6
CONTINUOUS
10
180.7606759999999895
20
-133.2903139999999951
11
180.6654379999999946
21
-133.0045999999999822
0
LINE
8
BLACK
6
CONTINUOUS
10
180.6654379999999946
20
-133.0045999999999822
11
180.5701999999999998
21
-132.5284089999999821
0
LINE
8
BLACK
6
CONTINUOUS
10
180.5701999999999998
20
-132.5284089999999821
11
180.5701999999999998
21
-132.1474570000000028
0
LINE
8
BLACK
6
CONTINUOUS
10
180.5701999999999998
20
-132.1474570000000028
11
180.6654379999999946
21
-131.6712660000000028
0
LINE
8
BLACK
6
CONTINUOUS
10
180.6654379999999946
20
-131.6712660000000028
11
180.7606759999999895
21
-131.3855519999999899
0
LINE
8
BLACK
6
CONTINUOUS
10
180.7606759999999895
20
-131.3855519999999899
11
180.8559139999999843
21
-131.1950760000000002
0
LINE
8
BLACK
6
CONTINUOUS
10
180.8559139999999843
20
-131.1950760000000002
11
181.0463900000000024
21
-130.9093609999999899
0
LINE
8
BLACK
6
CONTINUOUS
10
181.0463900000000024
20
-130.9093609999999899
11
181.1416289999999947
21
-130.814122999999995
0
LINE
8
BLACK
6
CONTINUOUS
10
182.7606759999999895
20
-131.0998380000000054
11
182.3797229999999843
21
-131.0998380000000054
0
LINE
8
BLACK
6
CONTINUOUS
10
182.3797229999999843
20
-131.0998380000000054
11
182.1892469999999946
21
-131.1950760000000002
0
LINE
8
BLACK
6
CONTINUOUS
10
182.1892469999999946
20
-131.1950760000000002
11
182.0940089999999998
21
-131.2903139999999951
0
LINE
8
BLACK
6
CONTINUOUS
10
182.0940089999999998
20
-131.2903139999999951
11
181.9035329999999817
21
-131.576028000000008
0
LINE
8
BLACK
6
CONTINUOUS
10
181.9035329999999817
20
-131.576028000000008
11
181.8082949999999869
21
-131.9569799999999873
0
LINE
8
BLACK
6
CONTINUOUS
10
181.8082949999999869
20
-131.9569799999999873
11
181.8082949999999869
21
-132.7188850000000002
0
LINE
8
BLACK
6
CONTINUOUS
10
181.8082949999999869
20
-132.7188850000000002
11
181.9035329999999817
21
-132.9093609999999899
0
LINE
8
BLACK
6
CONTINUOUS
10
181.9035329999999817
20
-132.9093609999999899
11
181.998771000000005
21
-133.0045999999999822
0
LINE
8
BLACK
6
CONTINUOUS
10
181.998771000000005
20
-133.0045999999999822
11
182.1892469999999946
21
-133.0998380000000054
0
LINE
8
BLACK
6
CONTINUOUS
10
182.1892469999999946
20
-133.0998380000000054
11
182.5701999999999998
21
-133.0998380000000054
0
LINE
8
BLACK
6
CONTINUOUS
10
182.5701999999999998
20
-133.0998380000000054
11
182.7606759999999895
21
-133.0045999999999822
0
LINE
8
BLACK
6
CONTINUOUS
10
182.7606759999999895
20
-133.0045999999999822
11
182.8559139999999843
21
-132.9093609999999899
0
LINE
8
BLACK
6
CONTINUOUS
10
182.8559139999999843
20
-132.9093609999999899
11
182.9511519999999791
21
-132.7188850000000002
0
LINE
8
BLACK
6
CONTINUOUS
10
182.9511519999999791
20
-132.7188850000000002
11
182.9511519999999791
21
-132.2426949999999977
0
LINE
8
BLACK
6
CONTINUOUS
10
182.9511519999999791
20
-132.2426949999999977
11
182.8559139999999843
21
-132.052219000000008
0
LINE
8
BLACK
6
CONTINUOUS
10
182.8559139999999843
20
-132.052219000000008
11
182.7606759999999895
21
-131.9569799999999873
0
LINE
8
BLACK
6
CONTINUOUS
10
182.7606759999999895
20
-131.9569799999999873
11
182.5701999999999998
21
-131.8617419999999925
0
LINE
8
BLACK
6
CONTINUOUS
10
182.5701999999999998
20
-131.8617419999999925
11
182.1892469999999946
21
-131.8617419999999925
0
LINE
8
BLACK
6
CONTINUOUS
10
182.1892469999999946
20
-131.8617419999999925
11
181.998771000000005
21
-131.9569799999999873
0
LINE
8
BLACK
6
CONTINUOUS
10
181.998771000000005
20
-131.9569799999999873
11
181.9035329999999817
21
-132.052219000000008
0
LINE
8
BLACK
6
CONTINUOUS
10
181.9035329999999817
20
-132.052219000000008
11
181.8082949999999869
21
-132.2426949999999977
0
LINE
8
BLACK
6
CONTINUOUS
10
184.6654379999999946
20
-131.7665039999999976
11
184.6654379999999946
21
-133.0998380000000054
0
LINE
8
BLACK
6
CONTINUOUS
10
184.1892469999999946
20
-131.0045999999999822
11
183.7130569999999921
21
-132.4331709999999873
0
LINE
8
BLACK
6
CONTINUOUS
10
183.7130569999999921
20
-132.4331709999999873
11
184.9511519999999791
21
-132.4331709999999873
0
LINE
8
BLACK
6
CONTINUOUS
10
187.2368669999999895
20
-133.0998380000000054
11
187.2368669999999895
21
-131.0998380000000054
0
LINE
8
BLACK
6
CONTINUOUS
10
188.0940099999999973
20
-133.0998380000000054
11
188.0940099999999973
21
-132.052219000000008
0
LINE
8
BLACK
6
CONTINUOUS
10
188.0940099999999973
20
-132.052219000000008
11
187.9987720000000024
21
-131.8617419999999925
0
LINE
8
BLACK
6
CONTINUOUS
10
187.9987720000000024
20
-131.8617419999999925
11
187.8082959999999844
21
-131.7665039999999976
0
LINE
8
BLACK
6
CONTINUOUS
10
187.8082959999999844
20
-131.7665039999999976
11
187.5225810000000024
21
-131.7665039999999976
0
LINE
8
BLACK
6
CONTINUOUS
10
187.5225810000000024
20
-131.7665039999999976
11
187.3321049999999843
21
-131.8617419999999925
0
LINE
8
BLACK
6
CONTINUOUS
10
187.3321049999999843
20
-131.8617419999999925
11
187.2368669999999895
21
-131.9569799999999873
0
LINE
8
BLACK
6
CONTINUOUS
10
189.3321049999999843
20
-133.0998380000000054
11
189.1416289999999947
21
-133.0045999999999822
0
LINE
8
BLACK
6
CONTINUOUS
10
189.1416289999999947
20
-133.0045999999999822
11
189.0463909999999998
21
-132.9093609999999899
0
LINE
8
BLACK
6
CONTINUOUS
10
189.0463909999999998
20
-132.9093609999999899
11
188.951153000000005
21
-132.7188850000000002
0
LINE
8
BLACK
6
CONTINUOUS
10
188.951153000000005
20
-132.7188850000000002
11
188.951153000000005
21
-132.1474570000000028
0
LINE
8
BLACK
6
CONTINUOUS
10
188.951153000000005
20
-132.1474570000000028
11
189.0463909999999998
21
-131.9569799999999873
0
LINE
8
BLACK
6
CONTINUOUS
10
189.0463909999999998
20
-131.9569799999999873
11
189.1416289999999947
21
-131.8617419999999925
0
LINE
8
BLACK
6
CONTINUOUS
10
189.1416289999999947
20
-131.8617419999999925
11
189.3321049999999843
21
-131.7665039999999976
0
LINE
8
BLACK
6
CONTINUOUS
10
189.3321049999999843
20
-131.7665039999999976
11
189.6178199999999947
21
-131.7665039999999976
0
LINE
8
BLACK
6
CONTINUOUS
10
189.6178199999999947
20
-131.7665039999999976
11
189.8082959999999844
21
-131.8617419999999925
0
LINE
8
BLACK
6
CONTINUOUS
10
189.8082959999999844
20
-131.8617419999999925
11
189.9035339999999792
21
-131.9569799999999873
0
LINE
8
BLACK
6
CONTINUOUS
10
189.9035339999999792
20
-131.9569799999999873
11
189.9987720000000024
21
-132.1474570000000028
0
LINE
8
BLACK
6
CONTINUOUS
10
189.9987720000000024
20
-132.1474570000000028
11
189.9987720000000024
21
-132.7188850000000002
0
LINE
8
BLACK
6
CONTINUOUS
10
189.9987720000000024
20
-132.7188850000000002
11
189.9035339999999792
21
-132.9093609999999899
0
LINE
8
BLACK
6
CONTINUOUS
10
189.9035339999999792
20
-132.9093609999999899
11
189.8082959999999844
21
-133.0045999999999822
0
LINE
8
BLACK
6
CONTINUOUS
10
189.8082959999999844
20
-133.0045999999999822
11
189.6178199999999947
21
-133.0998380000000054
0
LINE
8
BLACK
6
CONTINUOUS
10
189.6178199999999947
20
-133.0998380000000054
11
189.3321049999999843
21
-133.0998380000000054
0
LINE
8
BLACK
6
CONTINUOUS
10
191.1416289999999947
20
-133.0998380000000054
11
190.951153000000005
21
-133.0045999999999822
0
LINE
8
BLACK
6
CONTINUOUS
10
190.951153000000005
20
-133.0045999999999822
11
190.8559149999999818
21
-132.814122999999995
0
LINE
8
BLACK
6
CONTINUOUS
10
190.8559149999999818
20
-132.814122999999995
11
190.8559149999999818
21
-131.0998380000000054
0
LINE
8
BLACK
6
CONTINUOUS
10
192.6654389999999921
20
-133.0045999999999822
11
192.4749630000000025
21
-133.0998380000000054
0
LINE
8
BLACK
6
CONTINUOUS
10
192.4749630000000025
20
-133.0998380000000054
11
192.0940099999999973
21
-133.0998380000000054
0
LINE
8
BLACK
6
CONTINUOUS
10
192.0940099999999973
20
-133.0998380000000054
11
191.9035339999999792
21
-133.0045999999999822
0
LINE
8
BLACK
6
CONTINUOUS
10
191.9035339999999792
20
-133.0045999999999822
11
191.8082959999999844
21
-132.814122999999995
0
LINE
8
BLACK
6
CONTINUOUS
10
191.8082959999999844
20
-132.814122999999995
11
191.8082959999999844
21
-132.052219000000008
0
LINE
8
BLACK
6
CONTINUOUS
10
191.8082959999999844
20
-132.052219000000008
11
191.9035339999999792
21
-131.8617419999999925
0
LINE
8
BLACK
6
CONTINUOUS
10
191.9035339999999792
20
-131.8617419999999925
11
192.0940099999999973
21
-131.7665039999999976
0
LINE
8
BLACK
6
CONTINUOUS
10
192.0940099999999973
20
-131.7665039999999976
11
192.4749630000000025
21
-131.7665039999999976
0
LINE
8
BLACK
6
CONTINUOUS
10
192.4749630000000025
20
-131.7665039999999976
11
192.6654389999999921
21
-131.8617419999999925
0
LINE
8
BLACK
6
CONTINUOUS
10
192.6654389999999921
20
-131.8617419999999925
11
192.7606769999999869
21
-132.052219000000008
0
LINE
8
BLACK
6
CONTINUOUS
10
192.7606769999999869
20
-132.052219000000008
11
192.7606769999999869
21
-132.2426949999999977
0
LINE
8
BLACK
6
CONTINUOUS
10
192.7606769999999869
20
-132.2426949999999977
11
191.8082959999999844
21
-132.4331709999999873
0
LINE
8
BLACK
6
CONTINUOUS
10
193.5225819999999999
20
-133.0045999999999822
11
193.7130579999999895
21
-133.0998380000000054
0
LINE
8
BLACK
6
CONTINUOUS
10
193.7130579999999895
20
-133.0998380000000054
11
194.0940099999999973
21
-133.0998380000000054
0
LINE
8
BLACK
6
CONTINUOUS
10
194.0940099999999973
20
-133.0998380000000054
11
194.2844869999999844
21
-133.0045999999999822
0
LINE
8
BLACK
6
CONTINUOUS
10
194.2844869999999844
20
-133.0045999999999822
11
194.3797249999999792
21
-132.814122999999995
0
LINE
8
BLACK
6
CONTINUOUS
10
194.3797249999999792
20
-132.814122999999995
11
194.3797249999999792
21
-132.7188850000000002
0
LINE
8
BLACK
6
CONTINUOUS
10
194.3797249999999792
20
-132.7188850000000002
11
194.2844869999999844
21
-132.5284089999999821
0
LINE
8
BLACK
6
CONTINUOUS
10
194.2844869999999844
20
-132.5284089999999821
11
194.0940099999999973
21
-132.4331709999999873
0
LINE
8
BLACK
6
CONTINUOUS
10
194.0940099999999973
20
-132.4331709999999873
11
193.8082959999999844
21
-132.4331709999999873
0
LINE
8
BLACK
6
CONTINUOUS
10
193.8082959999999844
20
-132.4331709999999873
11
193.6178199999999947
21
-132.3379329999999925
0
LINE
8
BLACK
6
CONTINUOUS
10
193.6178199999999947
20
-132.3379329999999925
11
193.5225819999999999
21
-132.1474570000000028
0
LINE
8
BLACK
6
CONTINUOUS
10
193.5225819999999999
20
-132.1474570000000028
11
193.5225819999999999
21
-132.052219000000008
0
LINE
8
BLACK
6
CONTINUOUS
10
193.5225819999999999
20
-132.052219000000008
11
193.6178199999999947
21
-131.8617419999999925
0
LINE
8
BLACK
6
CONTINUOUS
10
193.6178199999999947
20
-131.8617419999999925
11
193.8082959999999844
21
-131.7665039999999976
0
LINE
8
BLACK
6
CONTINUOUS
10
193.8082959999999844
20
-131.7665039999999976
11
194.0940099999999973
21
-131.7665039999999976
0
LINE
8
BLACK
6
CONTINUOUS
10
194.0940099999999973
20
-131.7665039999999976
11
194.2844869999999844
21
-131.8617419999999925
0
LINE
8
BLACK
6
CONTINUOUS
10
195.0463919999999973
20
-133.8617419999999925
11
195.1416299999999922
21
-133.7665039999999976
0
LINE
8
BLACK
6
CONTINUOUS
10
195.1416299999999922
20
-133.7665039999999976
11
195.3321059999999818
21
-133.4807899999999847
0
LINE
8
BLACK
6
CONTINUOUS
10
195.3321059999999818
20
-133.4807899999999847
11
195.4273440000000051
21
-133.2903139999999951
0
LINE
8
BLACK
6
CONTINUOUS
10
195.4273440000000051
20
-133.2903139999999951
11
195.5225819999999999
21
-133.0045999999999822
0
LINE
8
BLACK
6
CONTINUOUS
10
195.5225819999999999
20
-133.0045999999999822
11
195.6178199999999947
21
-132.5284089999999821
0
LINE
8
BLACK
6
CONTINUOUS
10
195.6178199999999947
20
-132.5284089999999821
11
195.6178199999999947
21
-132.1474570000000028
0
LINE
8
BLACK
6
CONTINUOUS
10
195.6178199999999947
20
-132.1474570000000028
11
195.5225819999999999
21
-131.6712660000000028
0
LINE
8
BLACK
6
CONTINUOUS
10
195.5225819999999999
20
-131.6712660000000028
11
195.4273440000000051
21
-131.3855519999999899
0
LINE
8
BLACK
6
CONTINUOUS
10
195.4273440000000051
20
-131.3855519999999899
11
195.3321059999999818
21
-131.1950760000000002
0
LINE
8
BLACK
6
CONTINUOUS
10
195.3321059999999818
20
-131.1950760000000002
11
195.1416299999999922
21
-130.9093609999999899
0
LINE
8
BLACK
6
CONTINUOUS
10
195.1416299999999922
20
-130.9093609999999899
11
195.0463919999999973
21
-130.814122999999995
0
CIRCLE
8
BLACK
10
145.0159999999999911
20
-134.8249999999999886
40
0.375
0
LINE
8
BLACK
6
CONTINUOUS
10
148.3797199999999918
20
-133.7398379999999918
11
148.5701970000000074
21
-133.7398379999999918
0
LINE
8
BLACK
6
CONTINUOUS
10
148.5701970000000074
20
-133.7398379999999918
11
148.760672999999997
21
-133.8350759999999866
0
LINE
8
BLACK
6
CONTINUOUS
10
148.760672999999997
20
-133.8350759999999866
11
148.8559109999999919
21
-133.9303139999999814
0
LINE
8
BLACK
6
CONTINUOUS
10
148.8559109999999919
20
-133.9303139999999814
11
148.9511489999999867
21
-134.1207899999999995
0
LINE
8
BLACK
6
CONTINUOUS
10
148.9511489999999867
20
-134.1207899999999995
11
149.0463869999999815
21
-134.5017420000000072
0
LINE
8
BLACK
6
CONTINUOUS
10
149.0463869999999815
20
-134.5017420000000072
11
149.0463869999999815
21
-134.9779330000000073
0
LINE
8
BLACK
6
CONTINUOUS
10
149.0463869999999815
20
-134.9779330000000073
11
148.9511489999999867
21
-135.3588849999999866
0
LINE
8
BLACK
6
CONTINUOUS
10
148.9511489999999867
20
-135.3588849999999866
11
148.8559109999999919
21
-135.5493610000000047
0
LINE
8
BLACK
6
CONTINUOUS
10
148.8559109999999919
20
-135.5493610000000047
11
148.760672999999997
21
-135.644599999999997
0
LINE
8
BLACK
6
CONTINUOUS
10
148.760672999999997
20
-135.644599999999997
11
148.5701970000000074
21
-135.7398379999999918
0
LINE
8
BLACK
6
CONTINUOUS
10
148.5701970000000074
20
-135.7398379999999918
11
148.3797199999999918
21
-135.7398379999999918
0
LINE
8
BLACK
6
CONTINUOUS
10
148.3797199999999918
20
-135.7398379999999918
11
148.1892440000000022
21
-135.644599999999997
0
LINE
8
BLACK
6
CONTINUOUS
10
148.1892440000000022
20
-135.644599999999997
11
148.0940060000000074
21
-135.5493610000000047
0
LINE
8
BLACK
6
CONTINUOUS
10
148.0940060000000074
20
-135.5493610000000047
11
147.9987679999999841
21
-135.3588849999999866
0
LINE
8
BLACK
6
CONTINUOUS
10
147.9987679999999841
20
-135.3588849999999866
11
147.9035299999999893
21
-134.9779330000000073
0
LINE
8
BLACK
6
CONTINUOUS
10
147.9035299999999893
20
-134.9779330000000073
11
147.9035299999999893
21
-134.5017420000000072
0
LINE
8
BLACK
6
CONTINUOUS
10
147.9035299999999893
20
-134.5017420000000072
11
147.9987679999999841
21
-134.1207899999999995
0
LINE
8
BLACK
6
CONTINUOUS
10
147.9987679999999841
20
-134.1207899999999995
11
148.0940060000000074
21
-133.9303139999999814
0
LINE
8
BLACK
6
CONTINUOUS
10
148.0940060000000074
20
-133.9303139999999814
11
148.1892440000000022
21
-133.8350759999999866
0
LINE
8
BLACK
6
CONTINUOUS
10
148.1892440000000022
20
-133.8350759999999866
11
148.3797199999999918
21
-133.7398379999999918
0
LINE
8
BLACK
6
CONTINUOUS
10
149.9035299999999893
20
-135.5493610000000047
11
149.9987679999999841
21
-135.644599999999997
0
LINE
8
BLACK
6
CONTINUOUS
10
149.9987679999999841
20
-135.644599999999997
11
149.9035299999999893
21
-135.7398379999999918
0
LINE
8
BLACK
6
CONTINUOUS
10
149.9035299999999893
20
-135.7398379999999918
11
149.8082919999999945
21
-135.644599999999997
0
LINE
8
BLACK
6
CONTINUOUS
10
149.8082919999999945
20
-135.644599999999997
11
149.9035299999999893
21
-135.5493610000000047
0
LINE
8
BLACK
6
CONTINUOUS
10
149.9035299999999893
20
-135.5493610000000047
11
149.9035299999999893
21
-135.7398379999999918
0
LINE
8
BLACK
6
CONTINUOUS
10
150.6654350000000022
20
-133.7398379999999918
11
151.9987679999999841
21
-133.7398379999999918
0
LINE
8
BLACK
6
CONTINUOUS
10
151.9987679999999841
20
-133.7398379999999918
11
151.1416250000000048
21
-135.7398379999999918
0
LINE
8
BLACK
6
CONTINUOUS
10
153.7130539999999996
20
-133.7398379999999918
11
152.760672999999997
21
-133.7398379999999918
0
LINE
8
BLACK
6
CONTINUOUS
10
152.760672999999997
20
-133.7398379999999918
11
152.6654350000000022
21
-134.6922189999999944
0
LINE
8
BLACK
6
CONTINUOUS
10
152.6654350000000022
20
-134.6922189999999944
11
152.760672999999997
21
-134.5969800000000021
0
LINE
8
BLACK
6
CONTINUOUS
10
152.760672999999997
20
-134.5969800000000021
11
152.9511489999999867
21
-134.5017420000000072
0
LINE
8
BLACK
6
CONTINUOUS
10
152.9511489999999867
20
-134.5017420000000072
11
153.4273399999999867
21
-134.5017420000000072
0
LINE
8
BLACK
6
CONTINUOUS
10
153.4273399999999867
20
-134.5017420000000072
11
153.6178160000000048
21
-134.5969800000000021
0
LINE
8
BLACK
6
CONTINUOUS
10
153.6178160000000048
20
-134.5969800000000021
11
153.7130539999999996
21
-134.6922189999999944
0
LINE
8
BLACK
6
CONTINUOUS
10
153.7130539999999996
20
-134.6922189999999944
11
153.8082919999999945
21
-134.882694999999984
0
LINE
8
BLACK
6
CONTINUOUS
10
153.8082919999999945
20
-134.882694999999984
11
153.8082919999999945
21
-135.3588849999999866
0
LINE
8
BLACK
6
CONTINUOUS
10
153.8082919999999945
20
-135.3588849999999866
11
153.7130539999999996
21
-135.5493610000000047
0
LINE
8
BLACK
6
CONTINUOUS
10
153.7130539999999996
20
-135.5493610000000047
11
153.6178160000000048
21
-135.644599999999997
0
LINE
8
BLACK
6
CONTINUOUS
10
153.6178160000000048
20
-135.644599999999997
11
153.4273399999999867
21
-135.7398379999999918
0
LINE
8
BLACK
6
CONTINUOUS
10
153.4273399999999867
20
-135.7398379999999918
11
152.9511489999999867
21
-135.7398379999999918
0
LINE
8
BLACK
6
CONTINUOUS
10
152.9511489999999867
20
-135.7398379999999918
11
152.760672999999997
21
-135.644599999999997
0
LINE
8
BLACK
6
CONTINUOUS
10
152.760672999999997
20
-135.644599999999997
11
152.6654350000000022
21
-135.5493610000000047
0
LINE
8
BLACK
6
CONTINUOUS
10
155.0463869999999815
20
-133.7398379999999918
11
155.2368639999999971
21
-133.7398379999999918
0
LINE
8
BLACK
6
CONTINUOUS
10
155.2368639999999971
20
-133.7398379999999918
11
155.4273399999999867
21
-133.8350759999999866
0
LINE
8
BLACK
6
CONTINUOUS
10
155.4273399999999867
20
-133.8350759999999866
11
155.5225779999999816
21
-133.9303139999999814
0
LINE
8
BLACK
6
CONTINUOUS
10
155.5225779999999816
20
-133.9303139999999814
11
155.6178160000000048
21
-134.1207899999999995
0
LINE
8
BLACK
6
CONTINUOUS
10
155.6178160000000048
20
-134.1207899999999995
11
155.7130539999999996
21
-134.5017420000000072
0
LINE
8
BLACK
6
CONTINUOUS
10
155.7130539999999996
20
-134.5017420000000072
11
155.7130539999999996
21
-134.9779330000000073
0
LINE
8
BLACK
6
CONTINUOUS
10
155.7130539999999996
20
-134.9779330000000073
11
155.6178160000000048
21
-135.3588849999999866
0
LINE
8
BLACK
6
CONTINUOUS
10
155.6178160000000048
20
-135.3588849999999866
11
155.5225779999999816
21
-135.5493610000000047
0
LINE
8
BLACK
6
CONTINUOUS
10
155.5225779999999816
20
-135.5493610000000047
11
155.4273399999999867
21
-135.644599999999997
0
LINE
8
BLACK
6
CONTINUOUS
10
155.4273399999999867
20
-135.644599999999997
11
155.2368639999999971
21
-135.7398379999999918
0
LINE
8
BLACK
6
CONTINUOUS
10
155.2368639999999971
20
-135.7398379999999918
11
155.0463869999999815
21
-135.7398379999999918
0
LINE
8
BLACK
6
CONTINUOUS
10
155.0463869999999815
20
-135.7398379999999918
11
154.8559109999999919
21
-135.644599999999997
0
LINE
8
BLACK
6
CONTINUOUS
10
154.8559109999999919
20
-135.644599999999997
11
154.760672999999997
21
-135.5493610000000047
0
LINE
8
BLACK
6
CONTINUOUS
10
154.760672999999997
20
-135.5493610000000047
11
154.6654350000000022
21
-135.3588849999999866
0
LINE
8
BLACK
6
CONTINUOUS
10
154.6654350000000022
20
-135.3588849999999866
11
154.570196999999979
21
-134.9779330000000073
0
LINE
8
BLACK
6
CONTINUOUS
10
154.570196999999979
20
-134.9779330000000073
11
154.570196999999979
21
-134.5017420000000072
0
LINE
8
BLACK
6
CONTINUOUS
10
154.570196999999979
20
-134.5017420000000072
11
154.6654350000000022
21
-134.1207899999999995
0
LINE
8
BLACK
6
CONTINUOUS
10
154.6654350000000022
20
-134.1207899999999995
11
154.760672999999997
21
-133.9303139999999814
0
LINE
8
BLACK
6
CONTINUOUS
10
154.760672999999997
20
-133.9303139999999814
11
154.8559109999999919
21
-133.8350759999999866
0
LINE
8
BLACK
6
CONTINUOUS
10
154.8559109999999919
20
-133.8350759999999866
11
155.0463869999999815
21
-133.7398379999999918
0
LINE
8
BLACK
6
CONTINUOUS
10
156.570196999999979
20
-135.7398379999999918
11
156.570196999999979
21
-134.406503999999984
0
LINE
8
BLACK
6
CONTINUOUS
10
156.570196999999979
20
-134.5969800000000021
11
156.6654350000000022
21
-134.5017420000000072
0
LINE
8
BLACK
6
CONTINUOUS
10
156.6654350000000022
20
-134.5017420000000072
11
156.8559109999999919
21
-134.406503999999984
0
LINE
8
BLACK
6
CONTINUOUS
10
156.8559109999999919
20
-134.406503999999984
11
157.1416260000000023
21
-134.406503999999984
0
LINE
8
BLACK
6
CONTINUOUS
10
157.1416260000000023
20
-134.406503999999984
11
157.3321019999999919
21
-134.5017420000000072
0
LINE
8
BLACK
6
CONTINUOUS
10
157.3321019999999919
20
-134.5017420000000072
11
157.4273399999999867
21
-134.6922189999999944
0
LINE
8
BLACK
6
CONTINUOUS
10
157.4273399999999867
20
-134.6922189999999944
11
157.4273399999999867
21
-135.7398379999999918
0
LINE
8
BLACK
6
CONTINUOUS
10
157.4273399999999867
20
-134.6922189999999944
11
157.5225779999999816
21
-134.5017420000000072
0
LINE
8
BLACK
6
CONTINUOUS
10
157.5225779999999816
20
-134.5017420000000072
11
157.7130539999999996
21
-134.406503999999984
0
LINE
8
BLACK
6
CONTINUOUS
10
157.7130539999999996
20
-134.406503999999984
11
157.9987679999999841
21
-134.406503999999984
0
LINE
8
BLACK
6
CONTINUOUS
10
157.9987679999999841
20
-134.406503999999984
11
158.1892449999999997
21
-134.5017420000000072
0
LINE
8
BLACK
6
CONTINUOUS
10
158.1892449999999997
20
-134.5017420000000072
11
158.2844829999999945
21
-134.6922189999999944
0
LINE
8
BLACK
6
CONTINUOUS
10
158.2844829999999945
20
-134.6922189999999944
11
158.2844829999999945
21
-135.7398379999999918
0
LINE
8
BLACK
6
CONTINUOUS
10
159.2368639999999971
20
-135.7398379999999918
11
159.2368639999999971
21
-134.406503999999984
0
LINE
8
BLACK
6
CONTINUOUS
10
159.2368639999999971
20
-134.5969800000000021
11
159.3321019999999919
21
-134.5017420000000072
0
LINE
8
BLACK
6
CONTINUOUS
10
159.3321019999999919
20
-134.5017420000000072
11
159.5225779999999816
21
-134.406503999999984
0
LINE
8
BLACK
6
CONTINUOUS
10
159.5225779999999816
20
-134.406503999999984
11
159.8082929999999919
21
-134.406503999999984
0
LINE
8
BLACK
6
CONTINUOUS
10
159.8082929999999919
20
-134.406503999999984
11
159.9987689999999816
21
-134.5017420000000072
0
LINE
8
BLACK
6
CONTINUOUS
10
159.9987689999999816
20
-134.5017420000000072
11
160.0940070000000048
21
-134.6922189999999944
0
LINE
8
BLACK
6
CONTINUOUS
10
160.0940070000000048
20
-134.6922189999999944
11
160.0940070000000048
21
-135.7398379999999918
0
LINE
8
BLACK
6
CONTINUOUS
10
160.0940070000000048
20
-134.6922189999999944
11
160.1892449999999997
21
-134.5017420000000072
0
LINE
8
BLACK
6
CONTINUOUS
10
160.1892449999999997
20
-134.5017420000000072
11
160.3797209999999893
21
-134.406503999999984
0
LINE
8
BLACK
6
CONTINUOUS
10
160.3797209999999893
20
-134.406503999999984
11
160.6654350000000022
21
-134.406503999999984
0
LINE
8
BLACK
6
CONTINUOUS
10
160.6654350000000022
20
-134.406503999999984
11
160.8559119999999893
21
-134.5017420000000072
0
LINE
8
BLACK
6
CONTINUOUS
10
160.8559119999999893
20
-134.5017420000000072
11
160.9511499999999842
21
-134.6922189999999944
0
LINE
8
BLACK
6
CONTINUOUS
10
160.9511499999999842
20
-134.6922189999999944
11
160.9511499999999842
21
-135.7398379999999918
0
LINE
8
BLACK
6
CONTINUOUS
10
164.8559119999999893
20
-133.644599999999997
11
163.1416269999999997
21
-136.2160279999999943
0
LINE
8
BLACK
6
CONTINUOUS
10
167.4273409999999842
20
-133.7398379999999918
11
167.6178179999999998
21
-133.7398379999999918
0
LINE
8
BLACK
6
CONTINUOUS
10
167.6178179999999998
20
-133.7398379999999918
11
167.8082939999999894
21
-133.8350759999999866
0
LINE
8
BLACK
6
CONTINUOUS
10
167.8082939999999894
20
-133.8350759999999866
11
167.9035319999999842
21
-133.9303139999999814
0
LINE
8
BLACK
6
CONTINUOUS
10
167.9035319999999842
20
-133.9303139999999814
11
167.9987699999999791
21
-134.1207899999999995
0
LINE
8
BLACK
6
CONTINUOUS
10
167.9987699999999791
20
-134.1207899999999995
11
168.0940080000000023
21
-134.5017420000000072
0
LINE
8
BLACK
6
CONTINUOUS
10
168.0940080000000023
20
-134.5017420000000072
11
168.0940080000000023
21
-134.9779330000000073
0
LINE
8
BLACK
6
CONTINUOUS
10
168.0940080000000023
20
-134.9779330000000073
11
167.9987699999999791
21
-135.3588849999999866
0
LINE
8
BLACK
6
CONTINUOUS
10
167.9987699999999791
20
-135.3588849999999866
11
167.9035319999999842
21
-135.5493610000000047
0
LINE
8
BLACK
6
CONTINUOUS
10
167.9035319999999842
20
-135.5493610000000047
11
167.8082939999999894
21
-135.644599999999997
0
LINE
8
BLACK
6
CONTINUOUS
10
167.8082939999999894
20
-135.644599999999997
11
167.6178179999999998
21
-135.7398379999999918
0
LINE
8
BLACK
6
CONTINUOUS
10
167.6178179999999998
20
-135.7398379999999918
11
167.4273409999999842
21
-135.7398379999999918
0
LINE
8
BLACK
6
CONTINUOUS
10
167.4273409999999842
20
-135.7398379999999918
11
167.2368649999999946
21
-135.644599999999997
0
LINE
8
BLACK
6
CONTINUOUS
10
167.2368649999999946
20
-135.644599999999997
11
167.1416269999999997
21
-135.5493610000000047
0
LINE
8
BLACK
6
CONTINUOUS
10
167.1416269999999997
20
-135.5493610000000047
11
167.0463890000000049
21
-135.3588849999999866
0
LINE
8
BLACK
6
CONTINUOUS
10
167.0463890000000049
20
-135.3588849999999866
11
166.9511509999999817
21
-134.9779330000000073
0
LINE
8
BLACK
6
CONTINUOUS
10
166.9511509999999817
20
-134.9779330000000073
11
166.9511509999999817
21
-134.5017420000000072
0
LINE
8
BLACK
6
CONTINUOUS
10
166.9511509999999817
20
-134.5017420000000072
11
167.0463890000000049
21
-134.1207899999999995
0
LINE
8
BLACK
6
CONTINUOUS
10
167.0463890000000049
20
-134.1207899999999995
11
167.1416269999999997
21
-133.9303139999999814
0
LINE
8
BLACK
6
CONTINUOUS
10
167.1416269999999997
20
-133.9303139999999814
11
167.2368649999999946
21
-133.8350759999999866
0
LINE
8
BLACK
6
CONTINUOUS
10
167.2368649999999946
20
-133.8350759999999866
11
167.4273409999999842
21
-133.7398379999999918
0
LINE
8
BLACK
6
CONTINUOUS
10
168.9511509999999817
20
-135.5493610000000047
11
169.0463890000000049
21
-135.644599999999997
0
LINE
8
BLACK
6
CONTINUOUS
10
169.0463890000000049
20
-135.644599999999997
11
168.9511509999999817
21
-135.7398379999999918
0
LINE
8
BLACK
6
CONTINUOUS
10
168.9511509999999817
20
-135.7398379999999918
11
168.8559129999999868
21
-135.644599999999997
0
LINE
8
BLACK
6
CONTINUOUS
10
168.8559129999999868
20
-135.644599999999997
11
168.9511509999999817
21
-135.5493610000000047
0
LINE
8
BLACK
6
CONTINUOUS
10
168.9511509999999817
20
-135.5493610000000047
11
168.9511509999999817
21
-135.7398379999999918
0
LINE
8
BLACK
6
CONTINUOUS
10
170.284483999999992
20
-133.7398379999999918
11
170.4749609999999791
21
-133.7398379999999918
0
LINE
8
BLACK
6
CONTINUOUS
10
170.4749609999999791
20
-133.7398379999999918
11
170.6654369999999972
21
-133.8350759999999866
0
LINE
8
BLACK
6
CONTINUOUS
10
170.6654369999999972
20
-133.8350759999999866
11
170.760674999999992
21
-133.9303139999999814
0
LINE
8
BLACK
6
CONTINUOUS
10
170.760674999999992
20
-133.9303139999999814
11
170.8559129999999868
21
-134.1207899999999995
0
LINE
8
BLACK
6
CONTINUOUS
10
170.8559129999999868
20
-134.1207899999999995
11
170.9511509999999817
21
-134.5017420000000072
0
LINE
8
BLACK
6
CONTINUOUS
10
170.9511509999999817
20
-134.5017420000000072
11
170.9511509999999817
21
-134.9779330000000073
0
LINE
8
BLACK
6
CONTINUOUS
10
170.9511509999999817
20
-134.9779330000000073
11
170.8559129999999868
21
-135.3588849999999866
0
LINE
8
BLACK
6
CONTINUOUS
10
170.8559129999999868
20
-135.3588849999999866
11
170.760674999999992
21
-135.5493610000000047
0
LINE
8
BLACK
6
CONTINUOUS
10
170.760674999999992
20
-135.5493610000000047
11
170.6654369999999972
21
-135.644599999999997
0
LINE
8
BLACK
6
CONTINUOUS
10
170.6654369999999972
20
-135.644599999999997
11
170.4749609999999791
21
-135.7398379999999918
0
LINE
8
BLACK
6
CONTINUOUS
10
170.4749609999999791
20
-135.7398379999999918
11
170.284483999999992
21
-135.7398379999999918
0
LINE
8
BLACK
6
CONTINUOUS
10
170.284483999999992
20
-135.7398379999999918
11
170.0940080000000023
21
-135.644599999999997
0
LINE
8
BLACK
6
CONTINUOUS
10
170.0940080000000023
20
-135.644599999999997
11
169.9987699999999791
21
-135.5493610000000047
0
LINE
8
BLACK
6
CONTINUOUS
10
169.9987699999999791
20
-135.5493610000000047
11
169.9035319999999842
21
-135.3588849999999866
0
LINE
8
BLACK
6
CONTINUOUS
10
169.9035319999999842
20
-135.3588849999999866
11
169.8082939999999894
21
-134.9779330000000073
0
LINE
8
BLACK
6
CONTINUOUS
10
169.8082939999999894
20
-134.9779330000000073
11
169.8082939999999894
21
-134.5017420000000072
0
LINE
8
BLACK
6
CONTINUOUS
10
169.8082939999999894
20
-134.5017420000000072
11
169.9035319999999842
21
-134.1207899999999995
0
LINE
8
BLACK
6
CONTINUOUS
10
169.9035319999999842
20
-134.1207899999999995
11
169.9987699999999791
21
-133.9303139999999814
0
LINE
8
BLACK
6
CONTINUOUS
10
169.9987699999999791
20
-133.9303139999999814
11
170.0940080000000023
21
-133.8350759999999866
0
LINE
8
BLACK
6
CONTINUOUS
10
170.0940080000000023
20
-133.8350759999999866
11
170.284483999999992
21
-133.7398379999999918
0
LINE
8
BLACK
6
CONTINUOUS
10
171.7130559999999946
20
-133.9303139999999814
11
171.8082939999999894
21
-133.8350759999999866
0
LINE
8
BLACK
6
CONTINUOUS
10
171.8082939999999894
20
-133.8350759999999866
11
171.9987699999999791
21
-133.7398379999999918
0
LINE
8
BLACK
6
CONTINUOUS
10
171.9987699999999791
20
-133.7398379999999918
11
172.4749609999999791
21
-133.7398379999999918
0
LINE
8
BLACK
6
CONTINUOUS
10
172.4749609999999791
20
-133.7398379999999918
11
172.6654369999999972
21
-133.8350759999999866
0
LINE
8
BLACK
6
CONTINUOUS
10
172.6654369999999972
20
-133.8350759999999866
11
172.760674999999992
21
-133.9303139999999814
0
LINE
8
BLACK
6
CONTINUOUS
10
172.760674999999992
20
-133.9303139999999814
11
172.8559129999999868
21
-134.1207899999999995
0
LINE
8
BLACK
6
CONTINUOUS
10
172.8559129999999868
20
-134.1207899999999995
11
172.8559129999999868
21
-134.3112659999999892
0
LINE
8
BLACK
6
CONTINUOUS
10
172.8559129999999868
20
-134.3112659999999892
11
172.760674999999992
21
-134.5969800000000021
0
LINE
8
BLACK
6
CONTINUOUS
10
172.760674999999992
20
-134.5969800000000021
11
171.6178179999999998
21
-135.7398379999999918
0
LINE
8
BLACK
6
CONTINUOUS
10
171.6178179999999998
20
-135.7398379999999918
11
172.8559129999999868
21
-135.7398379999999918
0
LINE
8
BLACK
6
CONTINUOUS
10
173.8082939999999894
20
-135.7398379999999918
11
174.1892459999999971
21
-135.7398379999999918
0
LINE
8
BLACK
6
CONTINUOUS
10
174.1892459999999971
20
-135.7398379999999918
11
174.3797229999999843
21
-135.644599999999997
0
LINE
8
BLACK
6
CONTINUOUS
10
174.3797229999999843
20
-135.644599999999997
11
174.4749609999999791
21
-135.5493610000000047
0
LINE
8
BLACK
6
CONTINUOUS
10
174.4749609999999791
20
-135.5493610000000047
11
174.6654369999999972
21
-135.2636469999999917
0
LINE
8
BLACK
6
CONTINUOUS
10
174.6654369999999972
20
-135.2636469999999917
11
174.760674999999992
21
-134.882694999999984
0
LINE
8
BLACK
6
CONTINUOUS
10
174.760674999999992
20
-134.882694999999984
11
174.760674999999992
21
-134.1207899999999995
0
LINE
8
BLACK
6
CONTINUOUS
10
174.760674999999992
20
-134.1207899999999995
11
174.6654369999999972
21
-133.9303139999999814
0
LINE
8
BLACK
6
CONTINUOUS
10
174.6654369999999972
20
-133.9303139999999814
11
174.5701990000000023
21
-133.8350759999999866
0
LINE
8
BLACK
6
CONTINUOUS
10
174.5701990000000023
20
-133.8350759999999866
11
174.3797229999999843
21
-133.7398379999999918
0
LINE
8
BLACK
6
CONTINUOUS
10
174.3797229999999843
20
-133.7398379999999918
11
173.9987699999999791
21
-133.7398379999999918
0
LINE
8
BLACK
6
CONTINUOUS
10
173.9987699999999791
20
-133.7398379999999918
11
173.8082939999999894
21
-133.8350759999999866
0
LINE
8
BLACK
6
CONTINUOUS
10
173.8082939999999894
20
-133.8350759999999866
11
173.7130559999999946
21
-133.9303139999999814
0
LINE
8
BLACK
6
CONTINUOUS
10
173.7130559999999946
20
-133.9303139999999814
11
173.6178179999999998
21
-134.1207899999999995
0
LINE
8
BLACK
6
CONTINUOUS
10
173.6178179999999998
20
-134.1207899999999995
11
173.6178179999999998
21
-134.5969800000000021
0
LINE
8
BLACK
6
CONTINUOUS
10
173.6178179999999998
20
-134.5969800000000021
11
173.7130559999999946
21
-134.7874569999999892
0
LINE
8
BLACK
6
CONTINUOUS
10
173.7130559999999946
20
-134.7874569999999892
11
173.8082939999999894
21
-134.882694999999984
0
LINE
8
BLACK
6
CONTINUOUS
10
173.8082939999999894
20
-134.882694999999984
11
173.9987699999999791
21
-134.9779330000000073
0
LINE
8
BLACK
6
CONTINUOUS
10
173.9987699999999791
20
-134.9779330000000073
11
174.3797229999999843
21
-134.9779330000000073
0
LINE
8
BLACK
6
CONTINUOUS
10
174.3797229999999843
20
-134.9779330000000073
11
174.5701990000000023
21
-134.882694999999984
0
LINE
8
BLACK
6
CONTINUOUS
10
174.5701990000000023
20
-134.882694999999984
11
174.6654369999999972
21
-134.7874569999999892
0
LINE
8
BLACK
6
CONTINUOUS
10
174.6654369999999972
20
-134.7874569999999892
11
174.760674999999992
21
-134.5969800000000021
0
LINE
8
BLACK
6
CONTINUOUS
10
176.5701990000000023
20
-133.7398379999999918
11
175.6178179999999998
21
-133.7398379999999918
0
LINE
8
BLACK
6
CONTINUOUS
10
175.6178179999999998
20
-133.7398379999999918
11
175.5225800000000049
21
-134.6922189999999944
0
LINE
8
BLACK
6
CONTINUOUS
10
175.5225800000000049
20
-134.6922189999999944
11
175.6178179999999998
21
-134.5969800000000021
0
LINE
8
BLACK
6
CONTINUOUS
10
175.6178179999999998
20
-134.5969800000000021
11
175.8082939999999894
21
-134.5017420000000072
0
LINE
8
BLACK
6
CONTINUOUS
10
175.8082939999999894
20
-134.5017420000000072
11
176.2844849999999894
21
-134.5017420000000072
0
LINE
8
BLACK
6
CONTINUOUS
10
176.2844849999999894
20
-134.5017420000000072
11
176.4749609999999791
21
-134.5969800000000021
0
LINE
8
BLACK
6
CONTINUOUS
10
176.4749609999999791
20
-134.5969800000000021
11
176.5701990000000023
21
-134.6922189999999944
0
LINE
8
BLACK
6
CONTINUOUS
10
176.5701990000000023
20
-134.6922189999999944
11
176.6654369999999972
21
-134.882694999999984
0
LINE
8
BLACK
6
CONTINUOUS
10
176.6654369999999972
20
-134.882694999999984
11
176.6654369999999972
21
-135.3588849999999866
0
LINE
8
BLACK
6
CONTINUOUS
10
176.6654369999999972
20
-135.3588849999999866
11
176.5701990000000023
21
-135.5493610000000047
0
LINE
8
BLACK
6
CONTINUOUS
10
176.5701990000000023
20
-135.5493610000000047
11
176.4749609999999791
21
-135.644599999999997
0
LINE
8
BLACK
6
CONTINUOUS
10
176.4749609999999791
20
-135.644599999999997
11
176.2844849999999894
21
-135.7398379999999918
0
LINE
8
BLACK
6
CONTINUOUS
10
176.2844849999999894
20
-135.7398379999999918
11
175.8082939999999894
21
-135.7398379999999918
0
LINE
8
BLACK
6
CONTINUOUS
10
175.8082939999999894
20
-135.7398379999999918
11
175.6178179999999998
21
-135.644599999999997
0
LINE
8
BLACK
6
CONTINUOUS
10
175.6178179999999998
20
-135.644599999999997
11
175.5225800000000049
21
-135.5493610000000047
0
LINE
8
BLACK
6
CONTINUOUS
10
177.4273419999999817
20
-133.7398379999999918
11
177.4273419999999817
21
-134.1207899999999995
0
LINE
8
BLACK
6
CONTINUOUS
10
178.1892469999999946
20
-133.7398379999999918
11
178.1892469999999946
21
-134.1207899999999995
0
LINE
8
BLACK
6
CONTINUOUS
10
181.1416289999999947
20
-136.5017420000000072
11
181.0463900000000024
21
-136.406503999999984
0
LINE
8
BLACK
6
CONTINUOUS
10
181.0463900000000024
20
-136.406503999999984
11
180.8559139999999843
21
-136.1207899999999995
0
LINE
8
BLACK
6
CONTINUOUS
10
180.8559139999999843
20
-136.1207899999999995
11
180.7606759999999895
21
-135.9303139999999814
0
LINE
8
BLACK
6
CONTINUOUS
10
180.7606759999999895
20
-135.9303139999999814
11
180.6654379999999946
21
-135.644599999999997
0
LINE
8
BLACK
6
CONTINUOUS
10
180.6654379999999946
20
-135.644599999999997
11
180.5701999999999998
21
-135.1684089999999969
0
LINE
8
BLACK
6
CONTINUOUS
10
180.5701999999999998
20
-135.1684089999999969
11
180.5701999999999998
21
-134.7874569999999892
0
LINE
8
BLACK
6
CONTINUOUS
10
180.5701999999999998
20
-134.7874569999999892
11
180.6654379999999946
21
-134.3112659999999892
0
LINE
8
BLACK
6
CONTINUOUS
10
180.6654379999999946
20
-134.3112659999999892
11
180.7606759999999895
21
-134.0255520000000047
0
LINE
8
BLACK
6
CONTINUOUS
10
180.7606759999999895
20
-134.0255520000000047
11
180.8559139999999843
21
-133.8350759999999866
0
LINE
8
BLACK
6
CONTINUOUS
10
180.8559139999999843
20
-133.8350759999999866
11
181.0463900000000024
21
-133.5493610000000047
0
LINE
8
BLACK
6
CONTINUOUS
10
181.0463900000000024
20
-133.5493610000000047
11
181.1416289999999947
21
-133.4541229999999814
0
LINE
8
BLACK
6
CONTINUOUS
10
182.9511519999999791
20
-135.7398379999999918
11
181.8082949999999869
21
-135.7398379999999918
0
LINE
8
BLACK
6
CONTINUOUS
10
182.3797229999999843
20
-135.7398379999999918
11
182.3797229999999843
21
-133.7398379999999918
0
LINE
8
BLACK
6
CONTINUOUS
10
182.3797229999999843
20
-133.7398379999999918
11
182.1892469999999946
21
-134.0255520000000047
0
LINE
8
BLACK
6
CONTINUOUS
10
182.1892469999999946
20
-134.0255520000000047
11
181.998771000000005
21
-134.2160279999999943
0
LINE
8
BLACK
6
CONTINUOUS
10
181.998771000000005
20
-134.2160279999999943
11
181.8082949999999869
21
-134.3112659999999892
0
LINE
8
BLACK
6
CONTINUOUS
10
183.7130569999999921
20
-133.9303139999999814
11
183.8082949999999869
21
-133.8350759999999866
0
LINE
8
BLACK
6
CONTINUOUS
10
183.8082949999999869
20
-133.8350759999999866
11
183.998771000000005
21
-133.7398379999999918
0
LINE
8
BLACK
6
CONTINUOUS
10
183.998771000000005
20
-133.7398379999999918
11
184.474962000000005
21
-133.7398379999999918
0
LINE
8
BLACK
6
CONTINUOUS
10
184.474962000000005
20
-133.7398379999999918
11
184.6654379999999946
21
-133.8350759999999866
0
LINE
8
BLACK
6
CONTINUOUS
10
184.6654379999999946
20
-133.8350759999999866
11
184.7606759999999895
21
-133.9303139999999814
0
LINE
8
BLACK
6
CONTINUOUS
10
184.7606759999999895
20
-133.9303139999999814
11
184.8559139999999843
21
-134.1207899999999995
0
LINE
8
BLACK
6
CONTINUOUS
10
184.8559139999999843
20
-134.1207899999999995
11
184.8559139999999843
21
-134.3112659999999892
0
LINE
8
BLACK
6
CONTINUOUS
10
184.8559139999999843
20
-134.3112659999999892
11
184.7606759999999895
21
-134.5969800000000021
0
LINE
8
BLACK
6
CONTINUOUS
10
184.7606759999999895
20
-134.5969800000000021
11
183.6178189999999972
21
-135.7398379999999918
0
LINE
8
BLACK
6
CONTINUOUS
10
183.6178189999999972
20
-135.7398379999999918
11
184.8559139999999843
21
-135.7398379999999918
0
LINE
8
BLACK
6
CONTINUOUS
10
187.2368669999999895
20
-135.7398379999999918
11
187.2368669999999895
21
-133.7398379999999918
0
LINE
8
BLACK
6
CONTINUOUS
10
188.0940099999999973
20
-135.7398379999999918
11
188.0940099999999973
21
-134.6922189999999944
0
LINE
8
BLACK
6
CONTINUOUS
10
188.0940099999999973
20
-134.6922189999999944
11
187.9987720000000024
21
-134.5017420000000072
0
LINE
8
BLACK
6
CONTINUOUS
10
187.9987720000000024
20
-134.5017420000000072
11
187.8082959999999844
21
-134.406503999999984
0
LINE
8
BLACK
6
CONTINUOUS
10
187.8082959999999844
20
-134.406503999999984
11
187.5225810000000024
21
-134.406503999999984
0
LINE
8
BLACK
6
CONTINUOUS
10
187.5225810000000024
20
-134.406503999999984
11
187.3321049999999843
21
-134.5017420000000072
0
LINE
8
BLACK
6
CONTINUOUS
10
187.3321049999999843
20
-134.5017420000000072
11
187.2368669999999895
21
-134.5969800000000021
0
LINE
8
BLACK
6
CONTINUOUS
10
189.3321049999999843
20
-135.7398379999999918
11
189.1416289999999947
21
-135.644599999999997
0
LINE
8
BLACK
6
CONTINUOUS
10
189.1416289999999947
20
-135.644599999999997
11
189.0463909999999998
21
-135.5493610000000047
0
LINE
8
BLACK
6
CONTINUOUS
10
189.0463909999999998
20
-135.5493610000000047
11
188.951153000000005
21
-135.3588849999999866
0
LINE
8
BLACK
6
CONTINUOUS
10
188.951153000000005
20
-135.3588849999999866
11
188.951153000000005
21
-134.7874569999999892
0
LINE
8
BLACK
6
CONTINUOUS
10
188.951153000000005
20
-134.7874569999999892
11
189.0463909999999998
21
-134.5969800000000021
0
LINE
8
BLACK
6
CONTINUOUS
10
189.0463909999999998
20
-134.5969800000000021
11
189.1416289999999947
21
-134.5017420000000072
0
LINE
8
BLACK
6
CONTINUOUS
10
189.1416289999999947
20
-134.5017420000000072
11
189.3321049999999843
21
-134.406503999999984
0
LINE
8
BLACK
6
CONTINUOUS
10
189.3321049999999843
20
-134.406503999999984
11
189.6178199999999947
21
-134.406503999999984
0
LINE
8
BLACK
6
CONTINUOUS
10
189.6178199999999947
20
-134.406503999999984
11
189.8082959999999844
21
-134.5017420000000072
0
LINE
8
BLACK
6
CONTINUOUS
10
189.8082959999999844
20
-134.5017420000000072
11
189.9035339999999792
21
-134.5969800000000021
0
LINE
8
BLACK
6
CONTINUOUS
10
189.9035339999999792
20
-134.5969800000000021
11
189.9987720000000024
21
-134.7874569999999892
0
LINE
8
BLACK
6
CONTINUOUS
10
189.9987720000000024
20
-134.7874569999999892
11
189.9987720000000024
21
-135.3588849999999866
0
LINE
8
BLACK
6
CONTINUOUS
10
189.9987720000000024
20
-135.3588849999999866
11
189.9035339999999792
21
-135.5493610000000047
0
LINE
8
BLACK
6
CONTINUOUS
10
189.9035339999999792
20
-135.5493610000000047
11
189.8082959999999844
21
-135.644599999999997
0
LINE
8
BLACK
6
CONTINUOUS
10
189.8082959999999844
20
-135.644599999999997
11
189.6178199999999947
21
-135.7398379999999918
0
LINE
8
BLACK
6
CONTINUOUS
10
189.6178199999999947
20
-135.7398379999999918
11
189.3321049999999843
21
-135.7398379999999918
0
LINE
8
BLACK
6
CONTINUOUS
10
191.1416289999999947
20
-135.7398379999999918
11
190.951153000000005
21
-135.644599999999997
0
LINE
8
BLACK
6
CONTINUOUS
10
190.951153000000005
20
-135.644599999999997
11
190.8559149999999818
21
-135.4541229999999814
0
LINE
8
BLACK
6
CONTINUOUS
10
190.8559149999999818
20
-135.4541229999999814
11
190.8559149999999818
21
-133.7398379999999918
0
LINE
8
BLACK
6
CONTINUOUS
10
192.6654389999999921
20
-135.644599999999997
11
192.4749630000000025
21
-135.7398379999999918
0
LINE
8
BLACK
6
CONTINUOUS
10
192.4749630000000025
20
-135.7398379999999918
11
192.0940099999999973
21
-135.7398379999999918
0
LINE
8
BLACK
6
CONTINUOUS
10
192.0940099999999973
20
-135.7398379999999918
11
191.9035339999999792
21
-135.644599999999997
0
LINE
8
BLACK
6
CONTINUOUS
10
191.9035339999999792
20
-135.644599999999997
11
191.8082959999999844
21
-135.4541229999999814
0
LINE
8
BLACK
6
CONTINUOUS
10
191.8082959999999844
20
-135.4541229999999814
11
191.8082959999999844
21
-134.6922189999999944
0
LINE
8
BLACK
6
CONTINUOUS
10
191.8082959999999844
20
-134.6922189999999944
11
191.9035339999999792
21
-134.5017420000000072
0
LINE
8
BLACK
6
CONTINUOUS
10
191.9035339999999792
20
-134.5017420000000072
11
192.0940099999999973
21
-134.406503999999984
0
LINE
8
BLACK
6
CONTINUOUS
10
192.0940099999999973
20
-134.406503999999984
11
192.4749630000000025
21
-134.406503999999984
0
LINE
8
BLACK
6
CONTINUOUS
10
192.4749630000000025
20
-134.406503999999984
11
192.6654389999999921
21
-134.5017420000000072
0
LINE
8
BLACK
6
CONTINUOUS
10
192.6654389999999921
20
-134.5017420000000072
11
192.7606769999999869
21
-134.6922189999999944
0
LINE
8
BLACK
6
CONTINUOUS
10
192.7606769999999869
20
-134.6922189999999944
11
192.7606769999999869
21
-134.882694999999984
0
LINE
8
BLACK
6
CONTINUOUS
10
192.7606769999999869
20
-134.882694999999984
11
191.8082959999999844
21
-135.0731710000000021
0
LINE
8
BLACK
6
CONTINUOUS
10
193.5225819999999999
20
-135.644599999999997
11
193.7130579999999895
21
-135.7398379999999918
0
LINE
8
BLACK
6
CONTINUOUS
10
193.7130579999999895
20
-135.7398379999999918
11
194.0940099999999973
21
-135.7398379999999918
0
LINE
8
BLACK
6
CONTINUOUS
10
194.0940099999999973
20
-135.7398379999999918
11
194.2844869999999844
21
-135.644599999999997
0
LINE
8
BLACK
6
CONTINUOUS
10
194.2844869999999844
20
-135.644599999999997
11
194.3797249999999792
21
-135.4541229999999814
0
LINE
8
BLACK
6
CONTINUOUS
10
194.3797249999999792
20
-135.4541229999999814
11
194.3797249999999792
21
-135.3588849999999866
0
LINE
8
BLACK
6
CONTINUOUS
10
194.3797249999999792
20
-135.3588849999999866
11
194.2844869999999844
21
-135.1684089999999969
0
LINE
8
BLACK
6
CONTINUOUS
10
194.2844869999999844
20
-135.1684089999999969
11
194.0940099999999973
21
-135.0731710000000021
0
LINE
8
BLACK
6
CONTINUOUS
10
194.0940099999999973
20
-135.0731710000000021
11
193.8082959999999844
21
-135.0731710000000021
0
LINE
8
BLACK
6
CONTINUOUS
10
193.8082959999999844
20
-135.0731710000000021
11
193.6178199999999947
21
-134.9779330000000073
0
LINE
8
BLACK
6
CONTINUOUS
10
193.6178199999999947
20
-134.9779330000000073
11
193.5225819999999999
21
-134.7874569999999892
0
LINE
8
BLACK
6
CONTINUOUS
10
193.5225819999999999
20
-134.7874569999999892
11
193.5225819999999999
21
-134.6922189999999944
0
LINE
8
BLACK
6
CONTINUOUS
10
193.5225819999999999
20
-134.6922189999999944
11
193.6178199999999947
21
-134.5017420000000072
0
LINE
8
BLACK
6
CONTINUOUS
10
193.6178199999999947
20
-134.5017420000000072
11
193.8082959999999844
21
-134.406503999999984
0
LINE
8
BLACK
6
CONTINUOUS
10
193.8082959999999844
20
-134.406503999999984
11
194.0940099999999973
21
-134.406503999999984
0
LINE
8
BLACK
6
CONTINUOUS
10
194.0940099999999973
20
-134.406503999999984
11
194.2844869999999844
21
-134.5017420000000072
0
LINE
8
BLACK
6
CONTINUOUS
10
195.0463919999999973
20
-136.5017420000000072
11
195.1416299999999922
21
-136.406503999999984
0
LINE
8
BLACK
6
CONTINUOUS
10
195.1416299999999922
20
-136.406503999999984
11
195.3321059999999818
21
-136.1207899999999995
0
LINE
8
BLACK
6
CONTINUOUS
10
195.3321059999999818
20
-136.1207899999999995
11
195.4273440000000051
21
-135.9303139999999814
0
LINE
8
BLACK
6
CONTINUOUS
10
195.4273440000000051
20
-135.9303139999999814
11
195.5225819999999999
21
-135.644599999999997
0
LINE
8
BLACK
6
CONTINUOUS
10
195.5225819999999999
20
-135.644599999999997
11
195.6178199999999947
21
-135.1684089999999969
0
LINE
8
BLACK
6
CONTINUOUS
10
195.6178199999999947
20
-135.1684089999999969
11
195.6178199999999947
21
-134.7874569999999892
0
LINE
8
BLACK
6
CONTINUOUS
10
195.6178199999999947
20
-134.7874569999999892
11
195.5225819999999999
21
-134.3112659999999892
0
LINE
8
BLACK
6
CONTINUOUS
10
195.5225819999999999
20
-134.3112659999999892
11
195.4273440000000051
21
-134.0255520000000047
0
LINE
8
BLACK
6
CONTINUOUS
10
195.4273440000000051
20
-134.0255520000000047
11
195.3321059999999818
21
-133.8350759999999866
0
LINE
8
BLACK
6
CONTINUOUS
10
195.3321059999999818
20
-133.8350759999999866
11
195.1416299999999922
21
-133.5493610000000047
0
LINE
8
BLACK
6
CONTINUOUS
10
195.1416299999999922
20
-133.5493610000000047
11
195.0463919999999973
21
-133.4541229999999814
0
LINE
8
BLACK
6
CONTINUOUS
10
144.8909999999999911
20
-136.9650000000000034
11
144.8909999999999911
21
-137.9650000000000034
0
LINE
8
BLACK
6
CONTINUOUS
10
144.3909999999999911
20
-137.4650000000000034
11
145.3909999999999911
21
-137.4650000000000034
0
LINE
8
BLACK
6
CONTINUOUS
10
149.0463869999999815
20
-138.3798380000000066
11
147.9035299999999893
21
-138.3798380000000066
0
LINE
8
BLACK
6
CONTINUOUS
10
148.4749579999999867
20
-138.3798380000000066
11
148.4749579999999867
21
-136.3798380000000066
0
LINE
8
BLACK
6
CONTINUOUS
10
148.4749579999999867
20
-136.3798380000000066
11
148.284481999999997
21
-136.665551999999991
0
LINE
8
BLACK
6
CONTINUOUS
10
148.284481999999997
20
-136.665551999999991
11
148.0940060000000074
21
-136.8560279999999807
0
LINE
8
BLACK
6
CONTINUOUS
10
148.0940060000000074
20
-136.8560279999999807
11
147.9035299999999893
21
-136.9512660000000039
0
LINE
8
BLACK
6
CONTINUOUS
10
149.9035299999999893
20
-138.189360999999991
11
149.9987679999999841
21
-138.2845999999999833
0
LINE
8
BLACK
6
CONTINUOUS
10
149.9987679999999841
20
-138.2845999999999833
11
149.9035299999999893
21
-138.3798380000000066
0
LINE
8
BLACK
6
CONTINUOUS
10
149.9035299999999893
20
-138.3798380000000066
11
149.8082919999999945
21
-138.2845999999999833
0
LINE
8
BLACK
6
CONTINUOUS
10
149.8082919999999945
20
-138.2845999999999833
11
149.9035299999999893
21
-138.189360999999991
0
LINE
8
BLACK
6
CONTINUOUS
10
149.9035299999999893
20
-138.189360999999991
11
149.9035299999999893
21
-138.3798380000000066
0
LINE
8
BLACK
6
CONTINUOUS
10
151.2368629999999996
20
-136.3798380000000066
11
151.4273399999999867
21
-136.3798380000000066
0
LINE
8
BLACK
6
CONTINUOUS
10
151.4273399999999867
20
-136.3798380000000066
11
151.6178160000000048
21
-136.4750760000000014
0
LINE
8
BLACK
6
CONTINUOUS
10
151.6178160000000048
20
-136.4750760000000014
11
151.7130539999999996
21
-136.5703139999999962
0
LINE
8
BLACK
6
CONTINUOUS
10
151.7130539999999996
20
-136.5703139999999962
11
151.8082919999999945
21
-136.7607899999999859
0
LINE
8
BLACK
6
CONTINUOUS
10
151.8082919999999945
20
-136.7607899999999859
11
151.9035299999999893
21
-137.1417419999999936
0
LINE
8
BLACK
6
CONTINUOUS
10
151.9035299999999893
20
-137.1417419999999936
11
151.9035299999999893
21
-137.6179329999999936
0
LINE
8
BLACK
6
CONTINUOUS
10
151.9035299999999893
20
-137.6179329999999936
11
151.8082919999999945
21
-137.9988850000000014
0
LINE
8
BLACK
6
CONTINUOUS
10
151.8082919999999945
20
-137.9988850000000014
11
151.7130539999999996
21
-138.189360999999991
0
LINE
8
BLACK
6
CONTINUOUS
10
151.7130539999999996
20
-138.189360999999991
11
151.6178160000000048
21
-138.2845999999999833
0
LINE
8
BLACK
6
CONTINUOUS
10
151.6178160000000048
20
-138.2845999999999833
11
151.4273399999999867
21
-138.3798380000000066
0
LINE
8
BLACK
6
CONTINUOUS
10
151.4273399999999867
20
-138.3798380000000066
11
151.2368629999999996
21
-138.3798380000000066
0
LINE
8
BLACK
6
CONTINUOUS
10
151.2368629999999996
20
-138.3798380000000066
11
151.0463869999999815
21
-138.2845999999999833
0
LINE
8
BLACK
6
CONTINUOUS
10
151.0463869999999815
20
-138.2845999999999833
11
150.9511489999999867
21
-138.189360999999991
0
LINE
8
BLACK
6
CONTINUOUS
10
150.9511489999999867
20
-138.189360999999991
11
150.8559109999999919
21
-137.9988850000000014
0
LINE
8
BLACK
6
CONTINUOUS
10
150.8559109999999919
20
-137.9988850000000014
11
150.760672999999997
21
-137.6179329999999936
0
LINE
8
BLACK
6
CONTINUOUS
10
150.760672999999997
20
-137.6179329999999936
11
150.760672999999997
21
-137.1417419999999936
0
LINE
8
BLACK
6
CONTINUOUS
10
150.760672999999997
20
-137.1417419999999936
11
150.8559109999999919
21
-136.7607899999999859
0
LINE
8
BLACK
6
CONTINUOUS
10
150.8559109999999919
20
-136.7607899999999859
11
150.9511489999999867
21
-136.5703139999999962
0
LINE
8
BLACK
6
CONTINUOUS
10
150.9511489999999867
20
-136.5703139999999962
11
151.0463869999999815
21
-136.4750760000000014
0
LINE
8
BLACK
6
CONTINUOUS
10
151.0463869999999815
20
-136.4750760000000014
11
151.2368629999999996
21
-136.3798380000000066
0
LINE
8
BLACK
6
CONTINUOUS
10
153.1416250000000048
20
-136.3798380000000066
11
153.3321019999999919
21
-136.3798380000000066
0
LINE
8
BLACK
6
CONTINUOUS
10
153.3321019999999919
20
-136.3798380000000066
11
153.5225779999999816
21
-136.4750760000000014
0
LINE
8
BLACK
6
CONTINUOUS
10
153.5225779999999816
20
-136.4750760000000014
11
153.6178160000000048
21
-136.5703139999999962
0
LINE
8
BLACK
6
CONTINUOUS
10
153.6178160000000048
20
-136.5703139999999962
11
153.7130539999999996
21
-136.7607899999999859
0
LINE
8
BLACK
6
CONTINUOUS
10
153.7130539999999996
20
-136.7607899999999859
11
153.8082919999999945
21
-137.1417419999999936
0
LINE
8
BLACK
6
CONTINUOUS
10
153.8082919999999945
20
-137.1417419999999936
11
153.8082919999999945
21
-137.6179329999999936
0
LINE
8
BLACK
6
CONTINUOUS
10
153.8082919999999945
20
-137.6179329999999936
11
153.7130539999999996
21
-137.9988850000000014
0
LINE
8
BLACK
6
CONTINUOUS
10
153.7130539999999996
20
-137.9988850000000014
11
153.6178160000000048
21
-138.189360999999991
0
LINE
8
BLACK
6
CONTINUOUS
10
153.6178160000000048
20
-138.189360999999991
11
153.5225779999999816
21
-138.2845999999999833
0
LINE
8
BLACK
6
CONTINUOUS
10
153.5225779999999816
20
-138.2845999999999833
11
153.3321019999999919
21
-138.3798380000000066
0
LINE
8
BLACK
6
CONTINUOUS
10
153.3321019999999919
20
-138.3798380000000066
11
153.1416250000000048
21
-138.3798380000000066
0
LINE
8
BLACK
6
CONTINUOUS
10
153.1416250000000048
20
-138.3798380000000066
11
152.9511489999999867
21
-138.2845999999999833
0
LINE
8
BLACK
6
CONTINUOUS
10
152.9511489999999867
20
-138.2845999999999833
11
152.8559109999999919
21
-138.189360999999991
0
LINE
8
BLACK
6
CONTINUOUS
10
152.8559109999999919
20
-138.189360999999991
11
152.760672999999997
21
-137.9988850000000014
0
LINE
8
BLACK
6
CONTINUOUS
10
152.760672999999997
20
-137.9988850000000014
11
152.6654350000000022
21
-137.6179329999999936
0
LINE
8
BLACK
6
CONTINUOUS
10
152.6654350000000022
20
-137.6179329999999936
11
152.6654350000000022
21
-137.1417419999999936
0
LINE
8
BLACK
6
CONTINUOUS
10
152.6654350000000022
20
-137.1417419999999936
11
152.760672999999997
21
-136.7607899999999859
0
LINE
8
BLACK
6
CONTINUOUS
10
152.760672999999997
20
-136.7607899999999859
11
152.8559109999999919
21
-136.5703139999999962
0
LINE
8
BLACK
6
CONTINUOUS
10
152.8559109999999919
20
-136.5703139999999962
11
152.9511489999999867
21
-136.4750760000000014
0
LINE
8
BLACK
6
CONTINUOUS
10
152.9511489999999867
20
-136.4750760000000014
11
153.1416250000000048
21
-136.3798380000000066
0
LINE
8
BLACK
6
CONTINUOUS
10
155.0463869999999815
20
-136.3798380000000066
11
155.2368639999999971
21
-136.3798380000000066
0
LINE
8
BLACK
6
CONTINUOUS
10
155.2368639999999971
20
-136.3798380000000066
11
155.4273399999999867
21
-136.4750760000000014
0
LINE
8
BLACK
6
CONTINUOUS
10
155.4273399999999867
20
-136.4750760000000014
11
155.5225779999999816
21
-136.5703139999999962
0
LINE
8
BLACK
6
CONTINUOUS
10
155.5225779999999816
20
-136.5703139999999962
11
155.6178160000000048
21
-136.7607899999999859
0
LINE
8
BLACK
6
CONTINUOUS
10
155.6178160000000048
20
-136.7607899999999859
11
155.7130539999999996
21
-137.1417419999999936
0
LINE
8
BLACK
6
CONTINUOUS
10
155.7130539999999996
20
-137.1417419999999936
11
155.7130539999999996
21
-137.6179329999999936
0
LINE
8
BLACK
6
CONTINUOUS
10
155.7130539999999996
20
-137.6179329999999936
11
155.6178160000000048
21
-137.9988850000000014
0
LINE
8
BLACK
6
CONTINUOUS
10
155.6178160000000048
20
-137.9988850000000014
11
155.5225779999999816
21
-138.189360999999991
0
LINE
8
BLACK
6
CONTINUOUS
10
155.5225779999999816
20
-138.189360999999991
11
155.4273399999999867
21
-138.2845999999999833
0
LINE
8
BLACK
6
CONTINUOUS
10
155.4273399999999867
20
-138.2845999999999833
11
155.2368639999999971
21
-138.3798380000000066
0
LINE
8
BLACK
6
CONTINUOUS
10
155.2368639999999971
20
-138.3798380000000066
11
155.0463869999999815
21
-138.3798380000000066
0
LINE
8
BLACK
6
CONTINUOUS
10
155.0463869999999815
20
-138.3798380000000066
11
154.8559109999999919
21
-138.2845999999999833
0
LINE
8
BLACK
6
CONTINUOUS
10
154.8559109999999919
20
-138.2845999999999833
11
154.760672999999997
21
-138.189360999999991
0
LINE
8
BLACK
6
CONTINUOUS
10
154.760672999999997
20
-138.189360999999991
11
154.6654350000000022
21
-137.9988850000000014
0
LINE
8
BLACK
6
CONTINUOUS
10
154.6654350000000022
20
-137.9988850000000014
11
154.570196999999979
21
-137.6179329999999936
0
LINE
8
BLACK
6
CONTINUOUS
10
154.570196999999979
20
-137.6179329999999936
11
154.570196999999979
21
-137.1417419999999936
0
LINE
8
BLACK
6
CONTINUOUS
10
154.570196999999979
20
-137.1417419999999936
11
154.6654350000000022
21
-136.7607899999999859
0
LINE
8
BLACK
6
CONTINUOUS
10
154.6654350000000022
20
-136.7607899999999859
11
154.760672999999997
21
-136.5703139999999962
0
LINE
8
BLACK
6
CONTINUOUS
10
154.760672999999997
20
-136.5703139999999962
11
154.8559109999999919
21
-136.4750760000000014
0
LINE
8
BLACK
6
CONTINUOUS
10
154.8559109999999919
20
-136.4750760000000014
11
155.0463869999999815
21
-136.3798380000000066
0
LINE
8
BLACK
6
CONTINUOUS
10
156.570196999999979
20
-138.3798380000000066
11
156.570196999999979
21
-137.0465039999999988
0
LINE
8
BLACK
6
CONTINUOUS
10
156.570196999999979
20
-137.2369799999999884
11
156.6654350000000022
21
-137.1417419999999936
0
LINE
8
BLACK
6
CONTINUOUS
10
156.6654350000000022
20
-137.1417419999999936
11
156.8559109999999919
21
-137.0465039999999988
0
LINE
8
BLACK
6
CONTINUOUS
10
156.8559109999999919
20
-137.0465039999999988
11
157.1416260000000023
21
-137.0465039999999988
0
LINE
8
BLACK
6
CONTINUOUS
10
157.1416260000000023
20
-137.0465039999999988
11
157.3321019999999919
21
-137.1417419999999936
0
LINE
8
BLACK
6
CONTINUOUS
10
157.3321019999999919
20
-137.1417419999999936
11
157.4273399999999867
21
-137.3322189999999807
0
LINE
8
BLACK
6
CONTINUOUS
10
157.4273399999999867
20
-137.3322189999999807
11
157.4273399999999867
21
-138.3798380000000066
0
LINE
8
BLACK
6
CONTINUOUS
10
157.4273399999999867
20
-137.3322189999999807
11
157.5225779999999816
21
-137.1417419999999936
0
LINE
8
BLACK
6
CONTINUOUS
10
157.5225779999999816
20
-137.1417419999999936
11
157.7130539999999996
21
-137.0465039999999988
0
LINE
8
BLACK
6
CONTINUOUS
10
157.7130539999999996
20
-137.0465039999999988
11
157.9987679999999841
21
-137.0465039999999988
0
LINE
8
BLACK
6
CONTINUOUS
10
157.9987679999999841
20
-137.0465039999999988
11
158.1892449999999997
21
-137.1417419999999936
0
LINE
8
BLACK
6
CONTINUOUS
10
158.1892449999999997
20
-137.1417419999999936
11
158.2844829999999945
21
-137.3322189999999807
0
LINE
8
BLACK
6
CONTINUOUS
10
158.2844829999999945
20
-137.3322189999999807
11
158.2844829999999945
21
-138.3798380000000066
0
LINE
8
BLACK
6
CONTINUOUS
10
159.2368639999999971
20
-138.3798380000000066
11
159.2368639999999971
21
-137.0465039999999988
0
LINE
8
BLACK
6
CONTINUOUS
10
159.2368639999999971
20
-137.2369799999999884
11
159.3321019999999919
21
-137.1417419999999936
0
LINE
8
BLACK
6
CONTINUOUS
10
159.3321019999999919
20
-137.1417419999999936
11
159.5225779999999816
21
-137.0465039999999988
0
LINE
8
BLACK
6
CONTINUOUS
10
159.5225779999999816
20
-137.0465039999999988
11
159.8082929999999919
21
-137.0465039999999988
0
LINE
8
BLACK
6
CONTINUOUS
10
159.8082929999999919
20
-137.0465039999999988
11
159.9987689999999816
21
-137.1417419999999936
0
LINE
8
BLACK
6
CONTINUOUS
10
159.9987689999999816
20
-137.1417419999999936
11
160.0940070000000048
21
-137.3322189999999807
0
LINE
8
BLACK
6
CONTINUOUS
10
160.0940070000000048
20
-137.3322189999999807
11
160.0940070000000048
21
-138.3798380000000066
0
LINE
8
BLACK
6
CONTINUOUS
10
160.0940070000000048
20
-137.3322189999999807
11
160.1892449999999997
21
-137.1417419999999936
0
LINE
8
BLACK
6
CONTINUOUS
10
160.1892449999999997
20
-137.1417419999999936
11
160.3797209999999893
21
-137.0465039999999988
0
LINE
8
BLACK
6
CONTINUOUS
10
160.3797209999999893
20
-137.0465039999999988
11
160.6654350000000022
21
-137.0465039999999988
0
LINE
8
BLACK
6
CONTINUOUS
10
160.6654350000000022
20
-137.0465039999999988
11
160.8559119999999893
21
-137.1417419999999936
0
LINE
8
BLACK
6
CONTINUOUS
10
160.8559119999999893
20
-137.1417419999999936
11
160.9511499999999842
21
-137.3322189999999807
0
LINE
8
BLACK
6
CONTINUOUS
10
160.9511499999999842
20
-137.3322189999999807
11
160.9511499999999842
21
-138.3798380000000066
0
LINE
8
BLACK
6
CONTINUOUS
10
164.8559119999999893
20
-136.2845999999999833
11
163.1416269999999997
21
-138.8560279999999807
0
LINE
8
BLACK
6
CONTINUOUS
10
167.4273409999999842
20
-136.3798380000000066
11
167.6178179999999998
21
-136.3798380000000066
0
LINE
8
BLACK
6
CONTINUOUS
10
167.6178179999999998
20
-136.3798380000000066
11
167.8082939999999894
21
-136.4750760000000014
0
LINE
8
BLACK
6
CONTINUOUS
10
167.8082939999999894
20
-136.4750760000000014
11
167.9035319999999842
21
-136.5703139999999962
0
LINE
8
BLACK
6
CONTINUOUS
10
167.9035319999999842
20
-136.5703139999999962
11
167.9987699999999791
21
-136.7607899999999859
0
LINE
8
BLACK
6
CONTINUOUS
10
167.9987699999999791
20
-136.7607899999999859
11
168.0940080000000023
21
-137.1417419999999936
0
LINE
8
BLACK
6
CONTINUOUS
10
168.0940080000000023
20
-137.1417419999999936
11
168.0940080000000023
21
-137.6179329999999936
0
LINE
8
BLACK
6
CONTINUOUS
10
168.0940080000000023
20
-137.6179329999999936
11
167.9987699999999791
21
-137.9988850000000014
0
LINE
8
BLACK
6
CONTINUOUS
10
167.9987699999999791
20
-137.9988850000000014
11
167.9035319999999842
21
-138.189360999999991
0
LINE
8
BLACK
6
CONTINUOUS
10
167.9035319999999842
20
-138.189360999999991
11
167.8082939999999894
21
-138.2845999999999833
0
LINE
8
BLACK
6
CONTINUOUS
10
167.8082939999999894
20
-138.2845999999999833
11
167.6178179999999998
21
-138.3798380000000066
0
LINE
8
BLACK
6
CONTINUOUS
10
167.6178179999999998
20
-138.3798380000000066
11
167.4273409999999842
21
-138.3798380000000066
0
LINE
8
BLACK
6
CONTINUOUS
10
167.4273409999999842
20
-138.3798380000000066
11
167.2368649999999946
21
-138.2845999999999833
0
LINE
8
BLACK
6
CONTINUOUS
10
167.2368649999999946
20
-138.2845999999999833
11
167.1416269999999997
21
-138.189360999999991
0
LINE
8
BLACK
6
CONTINUOUS
10
167.1416269999999997
20
-138.189360999999991
11
167.0463890000000049
21
-137.9988850000000014
0
LINE
8
BLACK
6
CONTINUOUS
10
167.0463890000000049
20
-137.9988850000000014
11
166.9511509999999817
21
-137.6179329999999936
0
LINE
8
BLACK
6
CONTINUOUS
10
166.9511509999999817
20
-137.6179329999999936
11
166.9511509999999817
21
-137.1417419999999936
0
LINE
8
BLACK
6
CONTINUOUS
10
166.9511509999999817
20
-137.1417419999999936
11
167.0463890000000049
21
-136.7607899999999859
0
LINE
8
BLACK
6
CONTINUOUS
10
167.0463890000000049
20
-136.7607899999999859
11
167.1416269999999997
21
-136.5703139999999962
0
LINE
8
BLACK
6
CONTINUOUS
10
167.1416269999999997
20
-136.5703139999999962
11
167.2368649999999946
21
-136.4750760000000014
0
LINE
8
BLACK
6
CONTINUOUS
10
167.2368649999999946
20
-136.4750760000000014
11
167.4273409999999842
21
-136.3798380000000066
0
LINE
8
BLACK
6
CONTINUOUS
10
168.9511509999999817
20
-138.189360999999991
11
169.0463890000000049
21
-138.2845999999999833
0
LINE
8
BLACK
6
CONTINUOUS
10
169.0463890000000049
20
-138.2845999999999833
11
168.9511509999999817
21
-138.3798380000000066
0
LINE
8
BLACK
6
CONTINUOUS
10
168.9511509999999817
20
-138.3798380000000066
11
168.8559129999999868
21
-138.2845999999999833
0
LINE
8
BLACK
6
CONTINUOUS
10
168.8559129999999868
20
-138.2845999999999833
11
168.9511509999999817
21
-138.189360999999991
0
LINE
8
BLACK
6
CONTINUOUS
10
168.9511509999999817
20
-138.189360999999991
11
168.9511509999999817
21
-138.3798380000000066
0
LINE
8
BLACK
6
CONTINUOUS
10
170.284483999999992
20
-136.3798380000000066
11
170.4749609999999791
21
-136.3798380000000066
0
LINE
8
BLACK
6
CONTINUOUS
10
170.4749609999999791
20
-136.3798380000000066
11
170.6654369999999972
21
-136.4750760000000014
0
LINE
8
BLACK
6
CONTINUOUS
10
170.6654369999999972
20
-136.4750760000000014
11
170.760674999999992
21
-136.5703139999999962
0
LINE
8
BLACK
6
CONTINUOUS
10
170.760674999999992
20
-136.5703139999999962
11
170.8559129999999868
21
-136.7607899999999859
0
LINE
8
BLACK
6
CONTINUOUS
10
170.8559129999999868
20
-136.7607899999999859
11
170.9511509999999817
21
-137.1417419999999936
0
LINE
8
BLACK
6
CONTINUOUS
10
170.9511509999999817
20
-137.1417419999999936
11
170.9511509999999817
21
-137.6179329999999936
0
LINE
8
BLACK
6
CONTINUOUS
10
170.9511509999999817
20
-137.6179329999999936
11
170.8559129999999868
21
-137.9988850000000014
0
LINE
8
BLACK
6
CONTINUOUS
10
170.8559129999999868
20
-137.9988850000000014
11
170.760674999999992
21
-138.189360999999991
0
LINE
8
BLACK
6
CONTINUOUS
10
170.760674999999992
20
-138.189360999999991
11
170.6654369999999972
21
-138.2845999999999833
0
LINE
8
BLACK
6
CONTINUOUS
10
170.6654369999999972
20
-138.2845999999999833
11
170.4749609999999791
21
-138.3798380000000066
0
LINE
8
BLACK
6
CONTINUOUS
10
170.4749609999999791
20
-138.3798380000000066
11
170.284483999999992
21
-138.3798380000000066
0
LINE
8
BLACK
6
CONTINUOUS
10
170.284483999999992
20
-138.3798380000000066
11
170.0940080000000023
21
-138.2845999999999833
0
LINE
8
BLACK
6
CONTINUOUS
10
170.0940080000000023
20
-138.2845999999999833
11
169.9987699999999791
21
-138.189360999999991
0
LINE
8
BLACK
6
CONTINUOUS
10
169.9987699999999791
20
-138.189360999999991
11
169.9035319999999842
21
-137.9988850000000014
0
LINE
8
BLACK
6
CONTINUOUS
10
169.9035319999999842
20
-137.9988850000000014
11
169.8082939999999894
21
-137.6179329999999936
0
LINE
8
BLACK
6
CONTINUOUS
10
169.8082939999999894
20
-137.6179329999999936
11
169.8082939999999894
21
-137.1417419999999936
0
LINE
8
BLACK
6
CONTINUOUS
10
169.8082939999999894
20
-137.1417419999999936
11
169.9035319999999842
21
-136.7607899999999859
0
LINE
8
BLACK
6
CONTINUOUS
10
169.9035319999999842
20
-136.7607899999999859
11
169.9987699999999791
21
-136.5703139999999962
0
LINE
8
BLACK
6
CONTINUOUS
10
169.9987699999999791
20
-136.5703139999999962
11
170.0940080000000023
21
-136.4750760000000014
0
LINE
8
BLACK
6
CONTINUOUS
10
170.0940080000000023
20
-136.4750760000000014
11
170.284483999999992
21
-136.3798380000000066
0
LINE
8
BLACK
6
CONTINUOUS
10
171.6178179999999998
20
-136.3798380000000066
11
172.8559129999999868
21
-136.3798380000000066
0
LINE
8
BLACK
6
CONTINUOUS
10
172.8559129999999868
20
-136.3798380000000066
11
172.1892459999999971
21
-137.1417419999999936
0
LINE
8
BLACK
6
CONTINUOUS
10
172.1892459999999971
20
-137.1417419999999936
11
172.4749609999999791
21
-137.1417419999999936
0
LINE
8
BLACK
6
CONTINUOUS
10
172.4749609999999791
20
-137.1417419999999936
11
172.6654369999999972
21
-137.2369799999999884
0
LINE
8
BLACK
6
CONTINUOUS
10
172.6654369999999972
20
-137.2369799999999884
11
172.760674999999992
21
-137.3322189999999807
0
LINE
8
BLACK
6
CONTINUOUS
10
172.760674999999992
20
-137.3322189999999807
11
172.8559129999999868
21
-137.5226949999999988
0
LINE
8
BLACK
6
CONTINUOUS
10
172.8559129999999868
20
-137.5226949999999988
11
172.8559129999999868
21
-137.9988850000000014
0
LINE
8
BLACK
6
CONTINUOUS
10
172.8559129999999868
20
-137.9988850000000014
11
172.760674999999992
21
-138.189360999999991
0
LINE
8
BLACK
6
CONTINUOUS
10
172.760674999999992
20
-138.189360999999991
11
172.6654369999999972
21
-138.2845999999999833
0
LINE
8
BLACK
6
CONTINUOUS
10
172.6654369999999972
20
-138.2845999999999833
11
172.4749609999999791
21
-138.3798380000000066
0
LINE
8
BLACK
6
CONTINUOUS
10
172.4749609999999791
20
-138.3798380000000066
11
171.9035319999999842
21
-138.3798380000000066
0
LINE
8
BLACK
6
CONTINUOUS
10
171.9035319999999842
20
-138.3798380000000066
11
171.7130559999999946
21
-138.2845999999999833
0
LINE
8
BLACK
6
CONTINUOUS
10
171.7130559999999946
20
-138.2845999999999833
11
171.6178179999999998
21
-138.189360999999991
0
LINE
8
BLACK
6
CONTINUOUS
10
173.8082939999999894
20
-138.3798380000000066
11
174.1892459999999971
21
-138.3798380000000066
0
LINE
8
BLACK
6
CONTINUOUS
10
174.1892459999999971
20
-138.3798380000000066
11
174.3797229999999843
21
-138.2845999999999833
0
LINE
8
BLACK
6
CONTINUOUS
10
174.3797229999999843
20
-138.2845999999999833
11
174.4749609999999791
21
-138.189360999999991
0
LINE
8
BLACK
6
CONTINUOUS
10
174.4749609999999791
20
-138.189360999999991
11
174.6654369999999972
21
-137.9036470000000065
0
LINE
8
BLACK
6
CONTINUOUS
10
174.6654369999999972
20
-137.9036470000000065
11
174.760674999999992
21
-137.5226949999999988
0
LINE
8
BLACK
6
CONTINUOUS
10
174.760674999999992
20
-137.5226949999999988
11
174.760674999999992
21
-136.7607899999999859
0
LINE
8
BLACK
6
CONTINUOUS
10
174.760674999999992
20
-136.7607899999999859
11
174.6654369999999972
21
-136.5703139999999962
0
LINE
8
BLACK
6
CONTINUOUS
10
174.6654369999999972
20
-136.5703139999999962
11
174.5701990000000023
21
-136.4750760000000014
0
LINE
8
BLACK
6
CONTINUOUS
10
174.5701990000000023
20
-136.4750760000000014
11
174.3797229999999843
21
-136.3798380000000066
0
LINE
8
BLACK
6
CONTINUOUS
10
174.3797229999999843
20
-136.3798380000000066
11
173.9987699999999791
21
-136.3798380000000066
0
LINE
8
BLACK
6
CONTINUOUS
10
173.9987699999999791
20
-136.3798380000000066
11
173.8082939999999894
21
-136.4750760000000014
0
LINE
8
BLACK
6
CONTINUOUS
10
173.8082939999999894
20
-136.4750760000000014
11
173.7130559999999946
21
-136.5703139999999962
0
LINE
8
BLACK
6
CONTINUOUS
10
173.7130559999999946
20
-136.5703139999999962
11
173.6178179999999998
21
-136.7607899999999859
0
LINE
8
BLACK
6
CONTINUOUS
10
173.6178179999999998
20
-136.7607899999999859
11
173.6178179999999998
21
-137.2369799999999884
0
LINE
8
BLACK
6
CONTINUOUS
10
173.6178179999999998
20
-137.2369799999999884
11
173.7130559999999946
21
-137.427457000000004
0
LINE
8
BLACK
6
CONTINUOUS
10
173.7130559999999946
20
-137.427457000000004
11
173.8082939999999894
21
-137.5226949999999988
0
LINE
8
BLACK
6
CONTINUOUS
10
173.8082939999999894
20
-137.5226949999999988
11
173.9987699999999791
21
-137.6179329999999936
0
LINE
8
BLACK
6
CONTINUOUS
10
173.9987699999999791
20
-137.6179329999999936
11
174.3797229999999843
21
-137.6179329999999936
0
LINE
8
BLACK
6
CONTINUOUS
10
174.3797229999999843
20
-137.6179329999999936
11
174.5701990000000023
21
-137.5226949999999988
0
LINE
8
BLACK
6
CONTINUOUS
10
174.5701990000000023
20
-137.5226949999999988
11
174.6654369999999972
21
-137.427457000000004
0
LINE
8
BLACK
6
CONTINUOUS
10
174.6654369999999972
20
-137.427457000000004
11
174.760674999999992
21
-137.2369799999999884
0
LINE
8
BLACK
6
CONTINUOUS
10
176.4749609999999791
20
-137.0465039999999988
11
176.4749609999999791
21
-138.3798380000000066
0
LINE
8
BLACK
6
CONTINUOUS
10
175.9987699999999791
20
-136.2845999999999833
11
175.5225800000000049
21
-137.7131709999999885
0
LINE
8
BLACK
6
CONTINUOUS
10
175.5225800000000049
20
-137.7131709999999885
11
176.760674999999992
21
-137.7131709999999885
0
LINE
8
BLACK
6
CONTINUOUS
10
177.4273419999999817
20
-136.3798380000000066
11
177.4273419999999817
21
-136.7607899999999859
0
LINE
8
BLACK
6
CONTINUOUS
10
178.1892469999999946
20
-136.3798380000000066
11
178.1892469999999946
21
-136.7607899999999859
0
LINE
8
BLACK
6
CONTINUOUS
10
181.1416289999999947
20
-139.1417419999999936
11
181.0463900000000024
21
-139.0465039999999988
0
LINE
8
BLACK
6
CONTINUOUS
10
181.0463900000000024
20
-139.0465039999999988
11
180.8559139999999843
21
-138.7607899999999859
0
LINE
8
BLACK
6
CONTINUOUS
10
180.8559139999999843
20
-138.7607899999999859
11
180.7606759999999895
21
-138.5703139999999962
0
LINE
8
BLACK
6
CONTINUOUS
10
180.7606759999999895
20
-138.5703139999999962
11
180.6654379999999946
21
-138.2845999999999833
0
LINE
8
BLACK
6
CONTINUOUS
10
180.6654379999999946
20
-138.2845999999999833
11
180.5701999999999998
21
-137.8084089999999833
0
LINE
8
BLACK
6
CONTINUOUS
10
180.5701999999999998
20
-137.8084089999999833
11
180.5701999999999998
21
-137.427457000000004
0
LINE
8
BLACK
6
CONTINUOUS
10
180.5701999999999998
20
-137.427457000000004
11
180.6654379999999946
21
-136.9512660000000039
0
LINE
8
BLACK
6
CONTINUOUS
10
180.6654379999999946
20
-136.9512660000000039
11
180.7606759999999895
21
-136.665551999999991
0
LINE
8
BLACK
6
CONTINUOUS
10
180.7606759999999895
20
-136.665551999999991
11
180.8559139999999843
21
-136.4750760000000014
0
LINE
8
BLACK
6
CONTINUOUS
10
180.8559139999999843
20
-136.4750760000000014
11
181.0463900000000024
21
-136.189360999999991
0
LINE
8
BLACK
6
CONTINUOUS
10
181.0463900000000024
20
-136.189360999999991
11
181.1416289999999947
21
-136.0941229999999962
0
LINE
8
BLACK
6
CONTINUOUS
10
182.1892469999999946
20
-137.2369799999999884
11
181.998771000000005
21
-137.1417419999999936
0
LINE
8
BLACK
6
CONTINUOUS
10
181.998771000000005
20
-137.1417419999999936
11
181.9035329999999817
21
-137.0465039999999988
0
LINE
8
BLACK
6
CONTINUOUS
10
181.9035329999999817
20
-137.0465039999999988
11
181.8082949999999869
21
-136.8560279999999807
0
LINE
8
BLACK
6
CONTINUOUS
10
181.8082949999999869
20
-136.8560279999999807
11
181.8082949999999869
21
-136.7607899999999859
0
LINE
8
BLACK
6
CONTINUOUS
10
181.8082949999999869
20
-136.7607899999999859
11
181.9035329999999817
21
-136.5703139999999962
0
LINE
8
BLACK
6
CONTINUOUS
10
181.9035329999999817
20
-136.5703139999999962
11
181.998771000000005
21
-136.4750760000000014
0
LINE
8
BLACK
6
CONTINUOUS
10
181.998771000000005
20
-136.4750760000000014
11
182.1892469999999946
21
-136.3798380000000066
0
LINE
8
BLACK
6
CONTINUOUS
10
182.1892469999999946
20
-136.3798380000000066
11
182.5701999999999998
21
-136.3798380000000066
0
LINE
8
BLACK
6
CONTINUOUS
10
182.5701999999999998
20
-136.3798380000000066
11
182.7606759999999895
21
-136.4750760000000014
0
LINE
8
BLACK
6
CONTINUOUS
10
182.7606759999999895
20
-136.4750760000000014
11
182.8559139999999843
21
-136.5703139999999962
0
LINE
8
BLACK
6
CONTINUOUS
10
182.8559139999999843
20
-136.5703139999999962
11
182.9511519999999791
21
-136.7607899999999859
0
LINE
8
BLACK
6
CONTINUOUS
10
182.9511519999999791
20
-136.7607899999999859
11
182.9511519999999791
21
-136.8560279999999807
0
LINE
8
BLACK
6
CONTINUOUS
10
182.9511519999999791
20
-136.8560279999999807
11
182.8559139999999843
21
-137.0465039999999988
0
LINE
8
BLACK
6
CONTINUOUS
10
182.8559139999999843
20
-137.0465039999999988
11
182.7606759999999895
21
-137.1417419999999936
0
LINE
8
BLACK
6
CONTINUOUS
10
182.7606759999999895
20
-137.1417419999999936
11
182.5701999999999998
21
-137.2369799999999884
0
LINE
8
BLACK
6
CONTINUOUS
10
182.5701999999999998
20
-137.2369799999999884
11
182.1892469999999946
21
-137.2369799999999884
0
LINE
8
BLACK
6
CONTINUOUS
10
182.1892469999999946
20
-137.2369799999999884
11
181.998771000000005
21
-137.3322189999999807
0
LINE
8
BLACK
6
CONTINUOUS
10
181.998771000000005
20
-137.3322189999999807
11
181.9035329999999817
21
-137.427457000000004
0
LINE
8
BLACK
6
CONTINUOUS
10
181.9035329999999817
20
-137.427457000000004
11
181.8082949999999869
21
-137.6179329999999936
0
LINE
8
BLACK
6
CONTINUOUS
10
181.8082949999999869
20
-137.6179329999999936
11
181.8082949999999869
21
-137.9988850000000014
0
LINE
8
BLACK
6
CONTINUOUS
10
181.8082949999999869
20
-137.9988850000000014
11
181.9035329999999817
21
-138.189360999999991
0
LINE
8
BLACK
6
CONTINUOUS
10
181.9035329999999817
20
-138.189360999999991
11
181.998771000000005
21
-138.2845999999999833
0
LINE
8
BLACK
6
CONTINUOUS
10
181.998771000000005
20
-138.2845999999999833
11
182.1892469999999946
21
-138.3798380000000066
0
LINE
8
BLACK
6
CONTINUOUS
10
182.1892469999999946
20
-138.3798380000000066
11
182.5701999999999998
21
-138.3798380000000066
0
LINE
8
BLACK
6
CONTINUOUS
10
182.5701999999999998
20
-138.3798380000000066
11
182.7606759999999895
21
-138.2845999999999833
0
LINE
8
BLACK
6
CONTINUOUS
10
182.7606759999999895
20
-138.2845999999999833
11
182.8559139999999843
21
-138.189360999999991
0
LINE
8
BLACK
6
CONTINUOUS
10
182.8559139999999843
20
-138.189360999999991
11
182.9511519999999791
21
-137.9988850000000014
0
LINE
8
BLACK
6
CONTINUOUS
10
182.9511519999999791
20
-137.9988850000000014
11
182.9511519999999791
21
-137.6179329999999936
0
LINE
8
BLACK
6
CONTINUOUS
10
182.9511519999999791
20
-137.6179329999999936
11
182.8559139999999843
21
-137.427457000000004
0
LINE
8
BLACK
6
CONTINUOUS
10
182.8559139999999843
20
-137.427457000000004
11
182.7606759999999895
21
-137.3322189999999807
0
LINE
8
BLACK
6
CONTINUOUS
10
182.7606759999999895
20
-137.3322189999999807
11
182.5701999999999998
21
-137.2369799999999884
0
LINE
8
BLACK
6
CONTINUOUS
10
185.3321049999999843
20
-138.3798380000000066
11
185.3321049999999843
21
-136.3798380000000066
0
LINE
8
BLACK
6
CONTINUOUS
10
186.1892479999999921
20
-138.3798380000000066
11
186.1892479999999921
21
-137.3322189999999807
0
LINE
8
BLACK
6
CONTINUOUS
10
186.1892479999999921
20
-137.3322189999999807
11
186.0940099999999973
21
-137.1417419999999936
0
LINE
8
BLACK
6
CONTINUOUS
10
186.0940099999999973
20
-137.1417419999999936
11
185.9035339999999792
21
-137.0465039999999988
0
LINE
8
BLACK
6
CONTINUOUS
10
185.9035339999999792
20
-137.0465039999999988
11
185.6178189999999972
21
-137.0465039999999988
0
LINE
8
BLACK
6
CONTINUOUS
10
185.6178189999999972
20
-137.0465039999999988
11
185.4273429999999792
21
-137.1417419999999936
0
LINE
8
BLACK
6
CONTINUOUS
10
185.4273429999999792
20
-137.1417419999999936
11
185.3321049999999843
21
-137.2369799999999884
0
LINE
8
BLACK
6
CONTINUOUS
10
187.4273429999999792
20
-138.3798380000000066
11
187.2368669999999895
21
-138.2845999999999833
0
LINE
8
BLACK
6
CONTINUOUS
10
187.2368669999999895
20
-138.2845999999999833
11
187.1416289999999947
21
-138.189360999999991
0
LINE
8
BLACK
6
CONTINUOUS
10
187.1416289999999947
20
-138.189360999999991
11
187.0463909999999998
21
-137.9988850000000014
0
LINE
8
BLACK
6
CONTINUOUS
10
187.0463909999999998
20
-137.9988850000000014
11
187.0463909999999998
21
-137.427457000000004
0
LINE
8
BLACK
6
CONTINUOUS
10
187.0463909999999998
20
-137.427457000000004
11
187.1416289999999947
21
-137.2369799999999884
0
LINE
8
BLACK
6
CONTINUOUS
10
187.1416289999999947
20
-137.2369799999999884
11
187.2368669999999895
21
-137.1417419999999936
0
LINE
8
BLACK
6
CONTINUOUS
10
187.2368669999999895
20
-137.1417419999999936
11
187.4273429999999792
21
-137.0465039999999988
0
LINE
8
BLACK
6
CONTINUOUS
10
187.4273429999999792
20
-137.0465039999999988
11
187.7130579999999895
21
-137.0465039999999988
0
LINE
8
BLACK
6
CONTINUOUS
10
187.7130579999999895
20
-137.0465039999999988
11
187.9035339999999792
21
-137.1417419999999936
0
LINE
8
BLACK
6
CONTINUOUS
10
187.9035339999999792
20
-137.1417419999999936
11
187.9987720000000024
21
-137.2369799999999884
0
LINE
8
BLACK
6
CONTINUOUS
10
187.9987720000000024
20
-137.2369799999999884
11
188.0940099999999973
21
-137.427457000000004
0
LINE
8
BLACK
6
CONTINUOUS
10
188.0940099999999973
20
-137.427457000000004
11
188.0940099999999973
21
-137.9988850000000014
0
LINE
8
BLACK
6
CONTINUOUS
10
188.0940099999999973
20
-137.9988850000000014
11
187.9987720000000024
21
-138.189360999999991
0
LINE
8
BLACK
6
CONTINUOUS
10
187.9987720000000024
20
-138.189360999999991
11
187.9035339999999792
21
-138.2845999999999833
0
LINE
8
BLACK
6
CONTINUOUS
10
187.9035339999999792
20
-138.2845999999999833
11
187.7130579999999895
21
-138.3798380000000066
0
LINE
8
BLACK
6
CONTINUOUS
10
187.7130579999999895
20
-138.3798380000000066
11
187.4273429999999792
21
-138.3798380000000066
0
LINE
8
BLACK
6
CONTINUOUS
10
189.2368669999999895
20
-138.3798380000000066
11
189.0463909999999998
21
-138.2845999999999833
0
LINE
8
BLACK
6
CONTINUOUS
10
189.0463909999999998
20
-138.2845999999999833
11
188.951153000000005
21
-138.0941229999999962
0
LINE
8
BLACK
6
CONTINUOUS
10
188.951153000000005
20
-138.0941229999999962
11
188.951153000000005
21
-136.3798380000000066
0
LINE
8
BLACK
6
CONTINUOUS
10
190.7606769999999869
20
-138.2845999999999833
11
190.5702009999999973
21
-138.3798380000000066
0
LINE
8
BLACK
6
CONTINUOUS
10
190.5702009999999973
20
-138.3798380000000066
11
190.1892479999999921
21
-138.3798380000000066
0
LINE
8
BLACK
6
CONTINUOUS
10
190.1892479999999921
20
-138.3798380000000066
11
189.9987720000000024
21
-138.2845999999999833
0
LINE
8
BLACK
6
CONTINUOUS
10
189.9987720000000024
20
-138.2845999999999833
11
189.9035339999999792
21
-138.0941229999999962
0
LINE
8
BLACK
6
CONTINUOUS
10
189.9035339999999792
20
-138.0941229999999962
11
189.9035339999999792
21
-137.3322189999999807
0
LINE
8
BLACK
6
CONTINUOUS
10
189.9035339999999792
20
-137.3322189999999807
11
189.9987720000000024
21
-137.1417419999999936
0
LINE
8
BLACK
6
CONTINUOUS
10
189.9987720000000024
20
-137.1417419999999936
11
190.1892479999999921
21
-137.0465039999999988
0
LINE
8
BLACK
6
CONTINUOUS
10
190.1892479999999921
20
-137.0465039999999988
11
190.5702009999999973
21
-137.0465039999999988
0
LINE
8
BLACK
6
CONTINUOUS
10
190.5702009999999973
20
-137.0465039999999988
11
190.7606769999999869
21
-137.1417419999999936
0
LINE
8
BLACK
6
CONTINUOUS
10
190.7606769999999869
20
-137.1417419999999936
11
190.8559149999999818
21
-137.3322189999999807
0
LINE
8
BLACK
6
CONTINUOUS
10
190.8559149999999818
20
-137.3322189999999807
11
190.8559149999999818
21
-137.5226949999999988
0
LINE
8
BLACK
6
CONTINUOUS
10
190.8559149999999818
20
-137.5226949999999988
11
189.9035339999999792
21
-137.7131709999999885
0
LINE
8
BLACK
6
CONTINUOUS
10
191.6178199999999947
20
-138.2845999999999833
11
191.8082959999999844
21
-138.3798380000000066
0
LINE
8
BLACK
6
CONTINUOUS
10
191.8082959999999844
20
-138.3798380000000066
11
192.1892479999999921
21
-138.3798380000000066
0
LINE
8
BLACK
6
CONTINUOUS
10
192.1892479999999921
20
-138.3798380000000066
11
192.3797249999999792
21
-138.2845999999999833
0
LINE
8
BLACK
6
CONTINUOUS
10
192.3797249999999792
20
-138.2845999999999833
11
192.4749630000000025
21
-138.0941229999999962
0
LINE
8
BLACK
6
CONTINUOUS
10
192.4749630000000025
20
-138.0941229999999962
11
192.4749630000000025
21
-137.9988850000000014
0
LINE
8
BLACK
6
CONTINUOUS
10
192.4749630000000025
20
-137.9988850000000014
11
192.3797249999999792
21
-137.8084089999999833
0
LINE
8
BLACK
6
CONTINUOUS
10
192.3797249999999792
20
-137.8084089999999833
11
192.1892479999999921
21
-137.7131709999999885
0
LINE
8
BLACK
6
CONTINUOUS
10
192.1892479999999921
20
-137.7131709999999885
11
191.9035339999999792
21
-137.7131709999999885
0
LINE
8
BLACK
6
CONTINUOUS
10
191.9035339999999792
20
-137.7131709999999885
11
191.7130579999999895
21
-137.6179329999999936
0
LINE
8
BLACK
6
CONTINUOUS
10
191.7130579999999895
20
-137.6179329999999936
11
191.6178199999999947
21
-137.427457000000004
0
LINE
8
BLACK
6
CONTINUOUS
10
191.6178199999999947
20
-137.427457000000004
11
191.6178199999999947
21
-137.3322189999999807
0
LINE
8
BLACK
6
CONTINUOUS
10
191.6178199999999947
20
-137.3322189999999807
11
191.7130579999999895
21
-137.1417419999999936
0
LINE
8
BLACK
6
CONTINUOUS
10
191.7130579999999895
20
-137.1417419999999936
11
191.9035339999999792
21
-137.0465039999999988
0
LINE
8
BLACK
6
CONTINUOUS
10
191.9035339999999792
20
-137.0465039999999988
11
192.1892479999999921
21
-137.0465039999999988
0
LINE
8
BLACK
6
CONTINUOUS
10
192.1892479999999921
20
-137.0465039999999988
11
192.3797249999999792
21
-137.1417419999999936
0
LINE
8
BLACK
6
CONTINUOUS
10
193.1416299999999922
20
-139.1417419999999936
11
193.236867999999987
21
-139.0465039999999988
0
LINE
8
BLACK
6
CONTINUOUS
10
193.236867999999987
20
-139.0465039999999988
11
193.4273440000000051
21
-138.7607899999999859
0
LINE
8
BLACK
6
CONTINUOUS
10
193.4273440000000051
20
-138.7607899999999859
11
193.5225819999999999
21
-138.5703139999999962
0
LINE
8
BLACK
6
CONTINUOUS
10
193.5225819999999999
20
-138.5703139999999962
11
193.6178199999999947
21
-138.2845999999999833
0
LINE
8
BLACK
6
CONTINUOUS
10
193.6178199999999947
20
-138.2845999999999833
11
193.7130579999999895
21
-137.8084089999999833
0
LINE
8
BLACK
6
CONTINUOUS
10
193.7130579999999895
20
-137.8084089999999833
11
193.7130579999999895
21
-137.427457000000004
0
LINE
8
BLACK
6
CONTINUOUS
10
193.7130579999999895
20
-137.427457000000004
11
193.6178199999999947
21
-136.9512660000000039
0
LINE
8
BLACK
6
CONTINUOUS
10
193.6178199999999947
20
-136.9512660000000039
11
193.5225819999999999
21
-136.665551999999991
0
LINE
8
BLACK
6
CONTINUOUS
10
193.5225819999999999
20
-136.665551999999991
11
193.4273440000000051
21
-136.4750760000000014
0
LINE
8
BLACK
6
CONTINUOUS
10
193.4273440000000051
20
-136.4750760000000014
11
193.236867999999987
21
-136.189360999999991
0
LINE
8
BLACK
6
CONTINUOUS
10
193.236867999999987
20
-136.189360999999991
11
193.1416299999999922
21
-136.0941229999999962
  0
ENDSEC
  0
EOF
