%TF.GenerationSoftware,KiCad,Pcbnew,8.0.4*%
%TF.CreationDate,2024-08-14T23:56:47-07:00*%
%TF.ProjectId,SleepyWoof_panelized,536c6565-7079-4576-9f6f-665f70616e65,rev?*%
%TF.SameCoordinates,Original*%
%TF.FileFunction,Soldermask,Top*%
%TF.FilePolarity,Negative*%
%FSLAX46Y46*%
G04 Gerber Fmt 4.6, Leading zero omitted, Abs format (unit mm)*
G04 Created by KiCad (PCBNEW 8.0.4) date 2024-08-14 23:56:47*
%MOMM*%
%LPD*%
G01*
G04 APERTURE LIST*
G04 Aperture macros list*
%AMRoundRect*
0 Rectangle with rounded corners*
0 $1 Rounding radius*
0 $2 $3 $4 $5 $6 $7 $8 $9 X,Y pos of 4 corners*
0 Add a 4 corners polygon primitive as box body*
4,1,4,$2,$3,$4,$5,$6,$7,$8,$9,$2,$3,0*
0 Add four circle primitives for the rounded corners*
1,1,$1+$1,$2,$3*
1,1,$1+$1,$4,$5*
1,1,$1+$1,$6,$7*
1,1,$1+$1,$8,$9*
0 Add four rect primitives between the rounded corners*
20,1,$1+$1,$2,$3,$4,$5,0*
20,1,$1+$1,$4,$5,$6,$7,0*
20,1,$1+$1,$6,$7,$8,$9,0*
20,1,$1+$1,$8,$9,$2,$3,0*%
G04 Aperture macros list end*
%ADD10C,1.100000*%
%ADD11RoundRect,0.225000X0.250000X-0.225000X0.250000X0.225000X-0.250000X0.225000X-0.250000X-0.225000X0*%
%ADD12RoundRect,0.200000X-0.275000X0.200000X-0.275000X-0.200000X0.275000X-0.200000X0.275000X0.200000X0*%
%ADD13RoundRect,0.200000X0.200000X0.275000X-0.200000X0.275000X-0.200000X-0.275000X0.200000X-0.275000X0*%
%ADD14RoundRect,0.250000X-1.400000X0.750000X-1.400000X-0.750000X1.400000X-0.750000X1.400000X0.750000X0*%
%ADD15RoundRect,0.225000X0.225000X0.250000X-0.225000X0.250000X-0.225000X-0.250000X0.225000X-0.250000X0*%
%ADD16RoundRect,0.200000X0.275000X-0.200000X0.275000X0.200000X-0.275000X0.200000X-0.275000X-0.200000X0*%
%ADD17RoundRect,0.225000X-0.250000X0.225000X-0.250000X-0.225000X0.250000X-0.225000X0.250000X0.225000X0*%
%ADD18RoundRect,0.218750X-0.218750X-0.256250X0.218750X-0.256250X0.218750X0.256250X-0.218750X0.256250X0*%
%ADD19RoundRect,0.100000X0.100000X-0.637500X0.100000X0.637500X-0.100000X0.637500X-0.100000X-0.637500X0*%
%ADD20C,2.000000*%
%ADD21RoundRect,0.112500X-0.187500X-0.112500X0.187500X-0.112500X0.187500X0.112500X-0.187500X0.112500X0*%
%ADD22RoundRect,0.250000X0.312500X0.625000X-0.312500X0.625000X-0.312500X-0.625000X0.312500X-0.625000X0*%
%ADD23R,1.700000X1.700000*%
%ADD24O,1.700000X1.700000*%
G04 APERTURE END LIST*
D10*
%TO.C,TP1*%
X170780000Y-60780000D03*
%TD*%
D11*
%TO.C,C5*%
X178605000Y-56910000D03*
X178605000Y-55360000D03*
%TD*%
D12*
%TO.C,R18*%
X201050000Y-48305000D03*
X201050000Y-49955000D03*
%TD*%
D13*
%TO.C,R7*%
X170005000Y-63800000D03*
X168355000Y-63800000D03*
%TD*%
D12*
%TO.C,R3*%
X166817500Y-48535000D03*
X166817500Y-50185000D03*
%TD*%
D14*
%TO.C,C1*%
X174890000Y-59072500D03*
X174890000Y-65272500D03*
%TD*%
D13*
%TO.C,R15*%
X173530000Y-48860000D03*
X171880000Y-48860000D03*
%TD*%
D15*
%TO.C,C4*%
X169942500Y-62300000D03*
X168392500Y-62300000D03*
%TD*%
D12*
%TO.C,R4*%
X166817500Y-51535000D03*
X166817500Y-53185000D03*
%TD*%
D10*
%TO.C,TP4*%
X176605000Y-49860000D03*
%TD*%
D12*
%TO.C,R8*%
X166900000Y-62220000D03*
X166900000Y-63870000D03*
%TD*%
D16*
%TO.C,R12*%
X175530000Y-52960000D03*
X175530000Y-51310000D03*
%TD*%
D17*
%TO.C,C6*%
X181105000Y-52160000D03*
X181105000Y-53710000D03*
%TD*%
D16*
%TO.C,R11*%
X180080000Y-56960000D03*
X180080000Y-55310000D03*
%TD*%
D18*
%TO.C,D2*%
X166882500Y-65360000D03*
X168457500Y-65360000D03*
%TD*%
D17*
%TO.C,C7*%
X179605000Y-52160000D03*
X179605000Y-53710000D03*
%TD*%
D19*
%TO.C,U1*%
X170080000Y-56322500D03*
X170730000Y-56322500D03*
X171380000Y-56322500D03*
X172030000Y-56322500D03*
X172680000Y-56322500D03*
X173330000Y-56322500D03*
X173980000Y-56322500D03*
X173980000Y-50597500D03*
X173330000Y-50597500D03*
X172680000Y-50597500D03*
X172030000Y-50597500D03*
X171380000Y-50597500D03*
X170730000Y-50597500D03*
X170080000Y-50597500D03*
%TD*%
D14*
%TO.C,C3*%
X188160000Y-59072500D03*
X188160000Y-65272500D03*
%TD*%
D16*
%TO.C,R13*%
X175005000Y-48860000D03*
X175005000Y-47210000D03*
%TD*%
D13*
%TO.C,R2*%
X169930000Y-48560000D03*
X168280000Y-48560000D03*
%TD*%
D20*
%TO.C,FID2*%
X213310000Y-31780000D03*
%TD*%
D10*
%TO.C,TP2*%
X170080000Y-65397500D03*
%TD*%
D21*
%TO.C,D3*%
X180455000Y-50460000D03*
X182555000Y-50460000D03*
%TD*%
D12*
%TO.C,R6*%
X168405000Y-56235000D03*
X168405000Y-57885000D03*
%TD*%
%TO.C,R5*%
X166817500Y-54535000D03*
X166817500Y-56185000D03*
%TD*%
D16*
%TO.C,R9*%
X168417500Y-60885000D03*
X168417500Y-59235000D03*
%TD*%
D10*
%TO.C,TP3*%
X177005000Y-55960000D03*
%TD*%
D11*
%TO.C,C8*%
X177505000Y-53735000D03*
X177505000Y-52185000D03*
%TD*%
D14*
%TO.C,C2*%
X181525000Y-59072500D03*
X181525000Y-65272500D03*
%TD*%
D12*
%TO.C,R16*%
X184105000Y-52110000D03*
X184105000Y-53760000D03*
%TD*%
D20*
%TO.C,FID1*%
X150600000Y-31850000D03*
%TD*%
D21*
%TO.C,D1*%
X185967500Y-56435000D03*
X188067500Y-56435000D03*
%TD*%
D12*
%TO.C,R17*%
X168400000Y-52175000D03*
X168400000Y-53825000D03*
%TD*%
D22*
%TO.C,R1*%
X184580000Y-56435000D03*
X181655000Y-56435000D03*
%TD*%
D23*
%TO.C,J1*%
X212480000Y-49500000D03*
D24*
X212480000Y-52040000D03*
X212480000Y-54580000D03*
X212480000Y-57120000D03*
%TD*%
D12*
%TO.C,R14*%
X182605000Y-52110000D03*
X182605000Y-53760000D03*
%TD*%
D20*
%TO.C,FID3*%
X213370000Y-74620000D03*
%TD*%
D10*
%TO.C,TP6*%
X179017500Y-48335000D03*
%TD*%
D12*
%TO.C,R10*%
X175530000Y-54310000D03*
X175530000Y-55960000D03*
%TD*%
D10*
%TO.C,TP5*%
X168405000Y-50635000D03*
%TD*%
%TO.C,TP5*%
X168405000Y-99135000D03*
%TD*%
D12*
%TO.C,R10*%
X175530000Y-102810000D03*
X175530000Y-104460000D03*
%TD*%
D10*
%TO.C,TP6*%
X179017500Y-96835000D03*
%TD*%
D20*
%TO.C,FID3*%
X213370000Y-123120000D03*
%TD*%
D12*
%TO.C,R14*%
X182605000Y-100610000D03*
X182605000Y-102260000D03*
%TD*%
D23*
%TO.C,J1*%
X212480000Y-98000000D03*
D24*
X212480000Y-100540000D03*
X212480000Y-103080000D03*
X212480000Y-105620000D03*
%TD*%
D22*
%TO.C,R1*%
X184580000Y-104935000D03*
X181655000Y-104935000D03*
%TD*%
D12*
%TO.C,R17*%
X168400000Y-100675000D03*
X168400000Y-102325000D03*
%TD*%
D21*
%TO.C,D1*%
X185967500Y-104935000D03*
X188067500Y-104935000D03*
%TD*%
D20*
%TO.C,FID1*%
X150600000Y-80350000D03*
%TD*%
D12*
%TO.C,R16*%
X184105000Y-100610000D03*
X184105000Y-102260000D03*
%TD*%
D14*
%TO.C,C2*%
X181525000Y-107572500D03*
X181525000Y-113772500D03*
%TD*%
D11*
%TO.C,C8*%
X177505000Y-102235000D03*
X177505000Y-100685000D03*
%TD*%
D10*
%TO.C,TP3*%
X177005000Y-104460000D03*
%TD*%
D16*
%TO.C,R9*%
X168417500Y-109385000D03*
X168417500Y-107735000D03*
%TD*%
D12*
%TO.C,R5*%
X166817500Y-103035000D03*
X166817500Y-104685000D03*
%TD*%
%TO.C,R6*%
X168405000Y-104735000D03*
X168405000Y-106385000D03*
%TD*%
D21*
%TO.C,D3*%
X180455000Y-98960000D03*
X182555000Y-98960000D03*
%TD*%
D10*
%TO.C,TP2*%
X170080000Y-113897500D03*
%TD*%
D20*
%TO.C,FID2*%
X213310000Y-80280000D03*
%TD*%
D13*
%TO.C,R2*%
X169930000Y-97060000D03*
X168280000Y-97060000D03*
%TD*%
D16*
%TO.C,R13*%
X175005000Y-97360000D03*
X175005000Y-95710000D03*
%TD*%
D14*
%TO.C,C3*%
X188160000Y-107572500D03*
X188160000Y-113772500D03*
%TD*%
D19*
%TO.C,U1*%
X170080000Y-104822500D03*
X170730000Y-104822500D03*
X171380000Y-104822500D03*
X172030000Y-104822500D03*
X172680000Y-104822500D03*
X173330000Y-104822500D03*
X173980000Y-104822500D03*
X173980000Y-99097500D03*
X173330000Y-99097500D03*
X172680000Y-99097500D03*
X172030000Y-99097500D03*
X171380000Y-99097500D03*
X170730000Y-99097500D03*
X170080000Y-99097500D03*
%TD*%
D17*
%TO.C,C7*%
X179605000Y-100660000D03*
X179605000Y-102210000D03*
%TD*%
D18*
%TO.C,D2*%
X166882500Y-113860000D03*
X168457500Y-113860000D03*
%TD*%
D16*
%TO.C,R11*%
X180080000Y-105460000D03*
X180080000Y-103810000D03*
%TD*%
D17*
%TO.C,C6*%
X181105000Y-100660000D03*
X181105000Y-102210000D03*
%TD*%
D16*
%TO.C,R12*%
X175530000Y-101460000D03*
X175530000Y-99810000D03*
%TD*%
D12*
%TO.C,R8*%
X166900000Y-110720000D03*
X166900000Y-112370000D03*
%TD*%
D10*
%TO.C,TP4*%
X176605000Y-98360000D03*
%TD*%
D12*
%TO.C,R4*%
X166817500Y-100035000D03*
X166817500Y-101685000D03*
%TD*%
D15*
%TO.C,C4*%
X169942500Y-110800000D03*
X168392500Y-110800000D03*
%TD*%
D13*
%TO.C,R15*%
X173530000Y-97360000D03*
X171880000Y-97360000D03*
%TD*%
D14*
%TO.C,C1*%
X174890000Y-107572500D03*
X174890000Y-113772500D03*
%TD*%
D12*
%TO.C,R3*%
X166817500Y-97035000D03*
X166817500Y-98685000D03*
%TD*%
D13*
%TO.C,R7*%
X170005000Y-112300000D03*
X168355000Y-112300000D03*
%TD*%
D12*
%TO.C,R18*%
X201050000Y-96805000D03*
X201050000Y-98455000D03*
%TD*%
D11*
%TO.C,C5*%
X178605000Y-105410000D03*
X178605000Y-103860000D03*
%TD*%
D10*
%TO.C,TP1*%
X170780000Y-109280000D03*
%TD*%
M02*
