%TF.GenerationSoftware,KiCad,Pcbnew,8.0.4*%
%TF.CreationDate,2024-08-14T23:56:45-07:00*%
%TF.ProjectId,SleepyWoof_panelized,536c6565-7079-4576-9f6f-665f70616e65,rev?*%
%TF.SameCoordinates,Original*%
%TF.FileFunction,Copper,L2,Bot*%
%TF.FilePolarity,Positive*%
%FSLAX46Y46*%
G04 Gerber Fmt 4.6, Leading zero omitted, Abs format (unit mm)*
G04 Created by KiCad (PCBNEW 8.0.4) date 2024-08-14 23:56:45*
%MOMM*%
%LPD*%
G01*
G04 APERTURE LIST*
%TA.AperFunction,TestPad*%
%ADD10C,1.100000*%
%TD*%
%TA.AperFunction,ComponentPad*%
%ADD11R,1.700000X1.700000*%
%TD*%
%TA.AperFunction,ComponentPad*%
%ADD12O,1.700000X1.700000*%
%TD*%
%TA.AperFunction,ViaPad*%
%ADD13C,0.600000*%
%TD*%
%TA.AperFunction,Conductor*%
%ADD14C,0.228600*%
%TD*%
G04 APERTURE END LIST*
D10*
%TO.P,TP1,1,1*%
%TO.N,/WDT-VIN*%
X170780000Y-60780000D03*
%TD*%
%TO.P,TP4,1,1*%
%TO.N,Net-(U1C--)*%
X176605000Y-49860000D03*
%TD*%
%TO.P,TP2,1,1*%
%TO.N,PET_WDT*%
X170080000Y-65397500D03*
%TD*%
%TO.P,TP3,1,1*%
%TO.N,Net-(U1B-+)*%
X177005000Y-55960000D03*
%TD*%
D11*
%TO.P,J1,1,Pin_1*%
%TO.N,VBATT*%
X212480000Y-49500000D03*
D12*
%TO.P,J1,2,Pin_2*%
%TO.N,PET_WDT*%
X212480000Y-52040000D03*
%TO.P,J1,3,Pin_3*%
%TO.N,WDT_OUT*%
X212480000Y-54580000D03*
%TO.P,J1,4,Pin_4*%
%TO.N,GND*%
X212480000Y-57120000D03*
%TD*%
D10*
%TO.P,TP6,1,1*%
%TO.N,WDT_OUT*%
X179017500Y-48335000D03*
%TD*%
%TO.P,TP5,1,1*%
%TO.N,Net-(U1D-+)*%
X168405000Y-50635000D03*
%TD*%
%TO.P,TP5,1,1*%
%TO.N,Net-(U1D-+)*%
X168405000Y-99135000D03*
%TD*%
%TO.P,TP6,1,1*%
%TO.N,WDT_OUT*%
X179017500Y-96835000D03*
%TD*%
D11*
%TO.P,J1,1,Pin_1*%
%TO.N,VBATT*%
X212480000Y-98000000D03*
D12*
%TO.P,J1,2,Pin_2*%
%TO.N,PET_WDT*%
X212480000Y-100540000D03*
%TO.P,J1,3,Pin_3*%
%TO.N,WDT_OUT*%
X212480000Y-103080000D03*
%TO.P,J1,4,Pin_4*%
%TO.N,GND*%
X212480000Y-105620000D03*
%TD*%
D10*
%TO.P,TP3,1,1*%
%TO.N,Net-(U1B-+)*%
X177005000Y-104460000D03*
%TD*%
%TO.P,TP2,1,1*%
%TO.N,PET_WDT*%
X170080000Y-113897500D03*
%TD*%
%TO.P,TP4,1,1*%
%TO.N,Net-(U1C--)*%
X176605000Y-98360000D03*
%TD*%
%TO.P,TP1,1,1*%
%TO.N,/WDT-VIN*%
X170780000Y-109280000D03*
%TD*%
D13*
%TO.N,WDT_OUT*%
X202170000Y-48890000D03*
X170570000Y-51710000D03*
%TO.N,/WDT-VIN*%
X171678647Y-55138127D03*
X177540000Y-59210000D03*
X168410000Y-54750000D03*
X184240000Y-59630000D03*
X170670000Y-47785000D03*
X178860000Y-58600000D03*
X170498733Y-57734733D03*
X185450000Y-58500000D03*
%TO.N,GND*%
X169554000Y-61108000D03*
X178308000Y-54243000D03*
X165785800Y-65342800D03*
X181102000Y-51195000D03*
X175142000Y-57044000D03*
X173786800Y-54954200D03*
X169418000Y-57926000D03*
X172033727Y-51834998D03*
X163730000Y-50980000D03*
X165887400Y-63869600D03*
X171332000Y-52218000D03*
X179578000Y-51195000D03*
X163780000Y-52720000D03*
X173872000Y-52980000D03*
X163800000Y-54480000D03*
X184150000Y-66943000D03*
X163840000Y-56310000D03*
X179324000Y-66943000D03*
X172950000Y-53190000D03*
X174498000Y-66943000D03*
X176920000Y-57044000D03*
X171450000Y-46242000D03*
X171450000Y-94742000D03*
X176920000Y-105544000D03*
X174498000Y-115443000D03*
X172950000Y-101690000D03*
X179324000Y-115443000D03*
X163840000Y-104810000D03*
X184150000Y-115443000D03*
X163800000Y-102980000D03*
X173872000Y-101480000D03*
X163780000Y-101220000D03*
X179578000Y-99695000D03*
X171332000Y-100718000D03*
X165887400Y-112369600D03*
X163730000Y-99480000D03*
X172033727Y-100334998D03*
X169418000Y-106426000D03*
X173786800Y-103454200D03*
X175142000Y-105544000D03*
X181102000Y-99695000D03*
X165785800Y-113842800D03*
X178308000Y-102743000D03*
X169554000Y-109608000D03*
%TO.N,/WDT-VIN*%
X185450000Y-107000000D03*
X170498733Y-106234733D03*
X178860000Y-107100000D03*
X170670000Y-96285000D03*
X184240000Y-108130000D03*
X168410000Y-103250000D03*
X177540000Y-107710000D03*
X171678647Y-103638127D03*
%TO.N,WDT_OUT*%
X170570000Y-100210000D03*
X202170000Y-97390000D03*
%TD*%
D14*
%TO.N,WDT_OUT*%
X207860000Y-54580000D02*
X212480000Y-54580000D01*
X202170000Y-48890000D02*
X207860000Y-54580000D01*
X173945000Y-48335000D02*
X179017500Y-48335000D01*
X170570000Y-51710000D02*
X173945000Y-48335000D01*
X170570000Y-100210000D02*
X173945000Y-96835000D01*
X173945000Y-96835000D02*
X179017500Y-96835000D01*
X202170000Y-97390000D02*
X207860000Y-103080000D01*
X207860000Y-103080000D02*
X212480000Y-103080000D01*
%TD*%
%TA.AperFunction,Conductor*%
%TO.N,GND*%
G36*
X169470791Y-106134046D02*
G01*
X169531432Y-106151851D01*
X169550895Y-106160739D01*
X169604076Y-106194916D01*
X169620249Y-106208931D01*
X169661640Y-106256699D01*
X169673212Y-106274705D01*
X169699469Y-106332200D01*
X169705500Y-106352737D01*
X169714495Y-106415297D01*
X169714495Y-106436701D01*
X169705500Y-106499263D01*
X169699469Y-106519800D01*
X169673213Y-106577293D01*
X169661641Y-106595300D01*
X169620251Y-106643065D01*
X169604076Y-106657081D01*
X169550900Y-106691256D01*
X169531430Y-106700148D01*
X169501109Y-106709051D01*
X169470786Y-106717954D01*
X169449602Y-106721000D01*
X169386397Y-106721000D01*
X169365211Y-106717954D01*
X169304569Y-106700148D01*
X169285098Y-106691256D01*
X169231923Y-106657082D01*
X169215748Y-106643066D01*
X169174359Y-106595301D01*
X169162787Y-106577295D01*
X169150586Y-106550580D01*
X169136527Y-106519796D01*
X169130497Y-106499259D01*
X169124493Y-106457500D01*
X169121503Y-106436700D01*
X169121503Y-106415306D01*
X169130500Y-106352730D01*
X169136530Y-106332198D01*
X169162788Y-106274700D01*
X169174357Y-106256699D01*
X169215751Y-106208928D01*
X169231920Y-106194917D01*
X169285101Y-106160739D01*
X169304569Y-106151849D01*
X169327076Y-106145241D01*
X169365209Y-106134046D01*
X169386393Y-106131000D01*
X169449606Y-106131000D01*
X169470791Y-106134046D01*
G37*
%TD.AperFunction*%
%TA.AperFunction,Conductor*%
G36*
X215362638Y-78278093D02*
G01*
X215388358Y-78322642D01*
X215389500Y-78335700D01*
X215389500Y-125184300D01*
X215371907Y-125232638D01*
X215327358Y-125258358D01*
X215314300Y-125259500D01*
X145991700Y-125259500D01*
X145943362Y-125241907D01*
X145917642Y-125197358D01*
X145916500Y-125184300D01*
X145916500Y-113897499D01*
X169324751Y-113897499D01*
X169324751Y-113897500D01*
X169343686Y-114065556D01*
X169343688Y-114065564D01*
X169396067Y-114215253D01*
X169399544Y-114225190D01*
X169469293Y-114336195D01*
X169489524Y-114368392D01*
X169609107Y-114487975D01*
X169609109Y-114487976D01*
X169609110Y-114487977D01*
X169752310Y-114577956D01*
X169911941Y-114633813D01*
X170023980Y-114646437D01*
X170079999Y-114652749D01*
X170080000Y-114652749D01*
X170080001Y-114652749D01*
X170122014Y-114648015D01*
X170248059Y-114633813D01*
X170407690Y-114577956D01*
X170550890Y-114487977D01*
X170670477Y-114368390D01*
X170760456Y-114225190D01*
X170816313Y-114065559D01*
X170835249Y-113897500D01*
X170816313Y-113729441D01*
X170760456Y-113569810D01*
X170670477Y-113426610D01*
X170670476Y-113426609D01*
X170670475Y-113426607D01*
X170550892Y-113307024D01*
X170518695Y-113286793D01*
X170407690Y-113217044D01*
X170397753Y-113213567D01*
X170248064Y-113161188D01*
X170248056Y-113161186D01*
X170080001Y-113142251D01*
X170079999Y-113142251D01*
X169911943Y-113161186D01*
X169911935Y-113161188D01*
X169752312Y-113217043D01*
X169609107Y-113307024D01*
X169489524Y-113426607D01*
X169399543Y-113569812D01*
X169343688Y-113729435D01*
X169343686Y-113729443D01*
X169324751Y-113897499D01*
X145916500Y-113897499D01*
X145916500Y-109279999D01*
X170024751Y-109279999D01*
X170024751Y-109280000D01*
X170043686Y-109448056D01*
X170043688Y-109448064D01*
X170096067Y-109597753D01*
X170099544Y-109607690D01*
X170169293Y-109718695D01*
X170189524Y-109750892D01*
X170309107Y-109870475D01*
X170309109Y-109870476D01*
X170309110Y-109870477D01*
X170452310Y-109960456D01*
X170611941Y-110016313D01*
X170723980Y-110028937D01*
X170779999Y-110035249D01*
X170780000Y-110035249D01*
X170780001Y-110035249D01*
X170822014Y-110030515D01*
X170948059Y-110016313D01*
X171107690Y-109960456D01*
X171250890Y-109870477D01*
X171370477Y-109750890D01*
X171460456Y-109607690D01*
X171516313Y-109448059D01*
X171535249Y-109280000D01*
X171516313Y-109111941D01*
X171460456Y-108952310D01*
X171370477Y-108809110D01*
X171370476Y-108809109D01*
X171370475Y-108809107D01*
X171250892Y-108689524D01*
X171218695Y-108669293D01*
X171107690Y-108599544D01*
X171097753Y-108596067D01*
X170948064Y-108543688D01*
X170948056Y-108543686D01*
X170780001Y-108524751D01*
X170779999Y-108524751D01*
X170611943Y-108543686D01*
X170611935Y-108543688D01*
X170452312Y-108599543D01*
X170309107Y-108689524D01*
X170189524Y-108809107D01*
X170099543Y-108952312D01*
X170043688Y-109111935D01*
X170043686Y-109111943D01*
X170024751Y-109279999D01*
X145916500Y-109279999D01*
X145916500Y-107832792D01*
X167095325Y-107832792D01*
X167096959Y-107859498D01*
X167096959Y-107859502D01*
X167099000Y-107875581D01*
X167099003Y-107875600D01*
X167104073Y-107901783D01*
X167104077Y-107901801D01*
X167104079Y-107901809D01*
X167123882Y-107977374D01*
X167143984Y-108026778D01*
X167159873Y-108054750D01*
X167192015Y-108097319D01*
X167224144Y-108130000D01*
X167240848Y-108146991D01*
X167258278Y-108160623D01*
X167282863Y-108179852D01*
X167310562Y-108196216D01*
X167340160Y-108208851D01*
X167359619Y-108217158D01*
X167359620Y-108217158D01*
X167359622Y-108217159D01*
X167434840Y-108238244D01*
X167460981Y-108243768D01*
X167461003Y-108243771D01*
X167461013Y-108243773D01*
X167477014Y-108246080D01*
X167477025Y-108246081D01*
X167477037Y-108246083D01*
X167503688Y-108248169D01*
X183218436Y-108452763D01*
X183238773Y-108452020D01*
X183251084Y-108450958D01*
X183271224Y-108448211D01*
X183330147Y-108437184D01*
X183369148Y-108425799D01*
X183384831Y-108419479D01*
X183391944Y-108416614D01*
X183391948Y-108416611D01*
X183391958Y-108416608D01*
X183427957Y-108397773D01*
X183472768Y-108368346D01*
X183504350Y-108342804D01*
X183521848Y-108325527D01*
X183547798Y-108294260D01*
X183577790Y-108249823D01*
X183597081Y-108214058D01*
X183603151Y-108199523D01*
X183638012Y-108161700D01*
X183689031Y-108155134D01*
X183732335Y-108182899D01*
X183746977Y-108217802D01*
X183754835Y-108272459D01*
X183814622Y-108403372D01*
X183814624Y-108403375D01*
X183857418Y-108452762D01*
X183908872Y-108512143D01*
X184029947Y-108589953D01*
X184168039Y-108630500D01*
X184168042Y-108630500D01*
X184311958Y-108630500D01*
X184311961Y-108630500D01*
X184450053Y-108589953D01*
X184571128Y-108512143D01*
X184665377Y-108403373D01*
X184725165Y-108272457D01*
X184745647Y-108130000D01*
X184725165Y-107987543D01*
X184717768Y-107971347D01*
X184665377Y-107856627D01*
X184665375Y-107856624D01*
X184571127Y-107747856D01*
X184571125Y-107747855D01*
X184450051Y-107670046D01*
X184450052Y-107670046D01*
X184311963Y-107629500D01*
X184311961Y-107629500D01*
X184168039Y-107629500D01*
X184168036Y-107629500D01*
X184029948Y-107670046D01*
X183908874Y-107747855D01*
X183908872Y-107747856D01*
X183814624Y-107856624D01*
X183814622Y-107856627D01*
X183778973Y-107934687D01*
X183742889Y-107971347D01*
X183691682Y-107976237D01*
X183649312Y-107947067D01*
X183635369Y-107903476D01*
X183635032Y-107000000D01*
X184944353Y-107000000D01*
X184964835Y-107142459D01*
X185024622Y-107273372D01*
X185024624Y-107273375D01*
X185118872Y-107382143D01*
X185239947Y-107459953D01*
X185378039Y-107500500D01*
X185378042Y-107500500D01*
X185521958Y-107500500D01*
X185521961Y-107500500D01*
X185660053Y-107459953D01*
X185781128Y-107382143D01*
X185875377Y-107273373D01*
X185935165Y-107142457D01*
X185955647Y-107000000D01*
X185935165Y-106857543D01*
X185875377Y-106726627D01*
X185875375Y-106726624D01*
X185781127Y-106617856D01*
X185781125Y-106617855D01*
X185746030Y-106595301D01*
X185660053Y-106540047D01*
X185660052Y-106540046D01*
X185521963Y-106499500D01*
X185521961Y-106499500D01*
X185378039Y-106499500D01*
X185378036Y-106499500D01*
X185239948Y-106540046D01*
X185118874Y-106617855D01*
X185118872Y-106617856D01*
X185024624Y-106726624D01*
X185024622Y-106726627D01*
X184964835Y-106857540D01*
X184944353Y-107000000D01*
X183635032Y-107000000D01*
X183634652Y-105983958D01*
X183633655Y-105963820D01*
X183632450Y-105951630D01*
X183629486Y-105931690D01*
X183617873Y-105873404D01*
X183606500Y-105835954D01*
X183606172Y-105834873D01*
X183596834Y-105812347D01*
X183596828Y-105812333D01*
X183577849Y-105776845D01*
X183577844Y-105776838D01*
X183577842Y-105776834D01*
X183548299Y-105732640D01*
X183531576Y-105712271D01*
X183522749Y-105701519D01*
X183522745Y-105701515D01*
X183522741Y-105701510D01*
X183505502Y-105684277D01*
X183498368Y-105678424D01*
X183480403Y-105663684D01*
X183474375Y-105658738D01*
X183430172Y-105629207D01*
X183430169Y-105629205D01*
X183430161Y-105629200D01*
X183394665Y-105610229D01*
X183394647Y-105610220D01*
X183372140Y-105600897D01*
X183333590Y-105589203D01*
X183333581Y-105589200D01*
X183275300Y-105577607D01*
X183275273Y-105577602D01*
X183255362Y-105574648D01*
X183255354Y-105574647D01*
X183255346Y-105574646D01*
X183249154Y-105574035D01*
X183243162Y-105573445D01*
X183243142Y-105573444D01*
X183223062Y-105572456D01*
X183223022Y-105572455D01*
X177840924Y-105572057D01*
X177403762Y-105572024D01*
X177403761Y-105572024D01*
X177403757Y-105572024D01*
X177383470Y-105573839D01*
X177367237Y-105575292D01*
X177367229Y-105575293D01*
X177345396Y-105579234D01*
X177320951Y-105585210D01*
X177320949Y-105585211D01*
X177241839Y-105631081D01*
X177241826Y-105631090D01*
X177205822Y-105664620D01*
X177122251Y-105761065D01*
X177106076Y-105775081D01*
X177052900Y-105809256D01*
X177033430Y-105818148D01*
X177003109Y-105827051D01*
X176972786Y-105835954D01*
X176951602Y-105839000D01*
X176888398Y-105839000D01*
X176867211Y-105835954D01*
X176863502Y-105834865D01*
X176846024Y-105829732D01*
X176806565Y-105818146D01*
X176787096Y-105809254D01*
X176733926Y-105775084D01*
X176717749Y-105761067D01*
X176664770Y-105699926D01*
X176664766Y-105699922D01*
X176663847Y-105698862D01*
X176658894Y-105692487D01*
X176649243Y-105678586D01*
X176649234Y-105678574D01*
X176649227Y-105678564D01*
X176633662Y-105658839D01*
X176559078Y-105605910D01*
X176518752Y-105589203D01*
X176514888Y-105587602D01*
X176514884Y-105587600D01*
X176436247Y-105571952D01*
X176392909Y-105571949D01*
X176392901Y-105571949D01*
X176392898Y-105571949D01*
X176392897Y-105571949D01*
X175625820Y-105571892D01*
X175625819Y-105571892D01*
X175625818Y-105571892D01*
X175625815Y-105571892D01*
X175589306Y-105575158D01*
X175567461Y-105579100D01*
X175567453Y-105579101D01*
X175567447Y-105579103D01*
X175543035Y-105585070D01*
X175463915Y-105630937D01*
X175428158Y-105664232D01*
X175344251Y-105761065D01*
X175328076Y-105775081D01*
X175274900Y-105809256D01*
X175255430Y-105818148D01*
X175225109Y-105827051D01*
X175194786Y-105835954D01*
X175173602Y-105839000D01*
X175110398Y-105839000D01*
X175089211Y-105835954D01*
X175085502Y-105834865D01*
X175068024Y-105829732D01*
X175028565Y-105818146D01*
X175009097Y-105809255D01*
X174955922Y-105775081D01*
X174939751Y-105761069D01*
X174897468Y-105712272D01*
X174897467Y-105712271D01*
X174896588Y-105711256D01*
X174888142Y-105701510D01*
X174885983Y-105699018D01*
X174881045Y-105692661D01*
X174871169Y-105678436D01*
X174871160Y-105678424D01*
X174855603Y-105658709D01*
X174781020Y-105605780D01*
X174781013Y-105605776D01*
X174736829Y-105587471D01*
X174736825Y-105587469D01*
X174658183Y-105571820D01*
X174658184Y-105571820D01*
X172710694Y-105571676D01*
X172662358Y-105554079D01*
X172636641Y-105509529D01*
X172635500Y-105496476D01*
X172635500Y-105494999D01*
X211485061Y-105494999D01*
X211485061Y-105495000D01*
X211995856Y-105495000D01*
X211980000Y-105554174D01*
X211980000Y-105685826D01*
X211995856Y-105745000D01*
X211485061Y-105745000D01*
X211492103Y-105816501D01*
X211492103Y-105816503D01*
X211549419Y-106005451D01*
X211549424Y-106005463D01*
X211642499Y-106179593D01*
X211642503Y-106179599D01*
X211767766Y-106332233D01*
X211920400Y-106457496D01*
X211920406Y-106457500D01*
X212094536Y-106550575D01*
X212094548Y-106550580D01*
X212283497Y-106607896D01*
X212355000Y-106614938D01*
X212355000Y-106104144D01*
X212414174Y-106120000D01*
X212545826Y-106120000D01*
X212605000Y-106104144D01*
X212605000Y-106614937D01*
X212676502Y-106607896D01*
X212865451Y-106550580D01*
X212865463Y-106550575D01*
X213039593Y-106457500D01*
X213039599Y-106457496D01*
X213192233Y-106332233D01*
X213317496Y-106179599D01*
X213317500Y-106179593D01*
X213410575Y-106005463D01*
X213410580Y-106005451D01*
X213467896Y-105816503D01*
X213467896Y-105816501D01*
X213474938Y-105745000D01*
X212964144Y-105745000D01*
X212980000Y-105685826D01*
X212980000Y-105554174D01*
X212964144Y-105495000D01*
X213474939Y-105495000D01*
X213474938Y-105494999D01*
X213467896Y-105423498D01*
X213467896Y-105423496D01*
X213410580Y-105234548D01*
X213410575Y-105234536D01*
X213317500Y-105060406D01*
X213317496Y-105060400D01*
X213192233Y-104907766D01*
X213039599Y-104782503D01*
X213039593Y-104782499D01*
X212865463Y-104689424D01*
X212865451Y-104689419D01*
X212676502Y-104632103D01*
X212605000Y-104625061D01*
X212605000Y-105135855D01*
X212545826Y-105120000D01*
X212414174Y-105120000D01*
X212355000Y-105135855D01*
X212355000Y-104625061D01*
X212354999Y-104625061D01*
X212283498Y-104632103D01*
X212283496Y-104632103D01*
X212094548Y-104689419D01*
X212094536Y-104689424D01*
X211920406Y-104782499D01*
X211920400Y-104782503D01*
X211767766Y-104907766D01*
X211642503Y-105060400D01*
X211642499Y-105060406D01*
X211549424Y-105234536D01*
X211549419Y-105234548D01*
X211492103Y-105423496D01*
X211492103Y-105423498D01*
X211485061Y-105494999D01*
X172635500Y-105494999D01*
X172635500Y-104459999D01*
X176249751Y-104459999D01*
X176249751Y-104460000D01*
X176268686Y-104628056D01*
X176268688Y-104628064D01*
X176290159Y-104689424D01*
X176324544Y-104787690D01*
X176394293Y-104898695D01*
X176414524Y-104930892D01*
X176534107Y-105050475D01*
X176534109Y-105050476D01*
X176534110Y-105050477D01*
X176677310Y-105140456D01*
X176836941Y-105196313D01*
X176948980Y-105208937D01*
X177004999Y-105215249D01*
X177005000Y-105215249D01*
X177005001Y-105215249D01*
X177047014Y-105210515D01*
X177173059Y-105196313D01*
X177332690Y-105140456D01*
X177475890Y-105050477D01*
X177595477Y-104930890D01*
X177685456Y-104787690D01*
X177741313Y-104628059D01*
X177760249Y-104460000D01*
X177741313Y-104291941D01*
X177685456Y-104132310D01*
X177595477Y-103989110D01*
X177595476Y-103989109D01*
X177595475Y-103989107D01*
X177475892Y-103869524D01*
X177407276Y-103826410D01*
X177332690Y-103779544D01*
X177322753Y-103776067D01*
X177173064Y-103723688D01*
X177173056Y-103723686D01*
X177005001Y-103704751D01*
X177004999Y-103704751D01*
X176836943Y-103723686D01*
X176836935Y-103723688D01*
X176677312Y-103779543D01*
X176534107Y-103869524D01*
X176414524Y-103989107D01*
X176324543Y-104132312D01*
X176268688Y-104291935D01*
X176268686Y-104291943D01*
X176249751Y-104459999D01*
X172635500Y-104459999D01*
X172635500Y-103125139D01*
X172635289Y-103121901D01*
X172633776Y-103098575D01*
X172631687Y-103082551D01*
X172626542Y-103056431D01*
X172606589Y-102981206D01*
X172586440Y-102932038D01*
X172570556Y-102904204D01*
X172570555Y-102904202D01*
X172547730Y-102874066D01*
X172538480Y-102861852D01*
X172538476Y-102861848D01*
X172538472Y-102861843D01*
X172489785Y-102812413D01*
X172489775Y-102812404D01*
X172447917Y-102779694D01*
X172447915Y-102779692D01*
X172420332Y-102763394D01*
X172420324Y-102763390D01*
X172371485Y-102742506D01*
X172371468Y-102742500D01*
X172296564Y-102721413D01*
X172296530Y-102721405D01*
X172270548Y-102715878D01*
X172270515Y-102715872D01*
X172254564Y-102713545D01*
X172254543Y-102713543D01*
X172228021Y-102711416D01*
X172227986Y-102711415D01*
X171391069Y-102698735D01*
X171343003Y-102680412D01*
X171317961Y-102635479D01*
X171317009Y-102623135D01*
X171317678Y-102500189D01*
X171324690Y-101211775D01*
X171323575Y-101189248D01*
X171322149Y-101175631D01*
X171322148Y-101175620D01*
X171320702Y-101164664D01*
X171286564Y-101079818D01*
X171259282Y-101040527D01*
X171201586Y-100984855D01*
X171145919Y-100949079D01*
X171129751Y-100935069D01*
X171088356Y-100887298D01*
X171076787Y-100869295D01*
X171050528Y-100811797D01*
X171044497Y-100791258D01*
X171037981Y-100745934D01*
X171031522Y-100701005D01*
X171028915Y-100686554D01*
X171027019Y-100677841D01*
X171026330Y-100674789D01*
X170986230Y-100592592D01*
X170984468Y-100590405D01*
X170984035Y-100589137D01*
X170983964Y-100589026D01*
X170983990Y-100589008D01*
X170967837Y-100541728D01*
X170986190Y-100493975D01*
X170995377Y-100483373D01*
X171055165Y-100352457D01*
X171075647Y-100210000D01*
X171073404Y-100194406D01*
X171083936Y-100144060D01*
X171094660Y-100130533D01*
X172865195Y-98359999D01*
X175849751Y-98359999D01*
X175849751Y-98360000D01*
X175868686Y-98528056D01*
X175868688Y-98528064D01*
X175921067Y-98677753D01*
X175924544Y-98687690D01*
X175994293Y-98798695D01*
X176014524Y-98830892D01*
X176134107Y-98950475D01*
X176134109Y-98950476D01*
X176134110Y-98950477D01*
X176277310Y-99040456D01*
X176436941Y-99096313D01*
X176548980Y-99108937D01*
X176604999Y-99115249D01*
X176605000Y-99115249D01*
X176605001Y-99115249D01*
X176647014Y-99110515D01*
X176773059Y-99096313D01*
X176932690Y-99040456D01*
X177075890Y-98950477D01*
X177195477Y-98830890D01*
X177285456Y-98687690D01*
X177341313Y-98528059D01*
X177360249Y-98360000D01*
X177341313Y-98191941D01*
X177285456Y-98032310D01*
X177195477Y-97889110D01*
X177195476Y-97889109D01*
X177195475Y-97889107D01*
X177075892Y-97769524D01*
X177043695Y-97749293D01*
X176932690Y-97679544D01*
X176922753Y-97676067D01*
X176773064Y-97623688D01*
X176773056Y-97623686D01*
X176605001Y-97604751D01*
X176604999Y-97604751D01*
X176436943Y-97623686D01*
X176436935Y-97623688D01*
X176277312Y-97679543D01*
X176134107Y-97769524D01*
X176014524Y-97889107D01*
X175924543Y-98032312D01*
X175868688Y-98191935D01*
X175868686Y-98191943D01*
X175849751Y-98359999D01*
X172865195Y-98359999D01*
X174053369Y-97171826D01*
X174099989Y-97150086D01*
X174106543Y-97149800D01*
X178287383Y-97149800D01*
X178335721Y-97167393D01*
X178351057Y-97184991D01*
X178427024Y-97305892D01*
X178546607Y-97425475D01*
X178546609Y-97425476D01*
X178546610Y-97425477D01*
X178689810Y-97515456D01*
X178849441Y-97571313D01*
X178961480Y-97583937D01*
X179017499Y-97590249D01*
X179017500Y-97590249D01*
X179017501Y-97590249D01*
X179059514Y-97585515D01*
X179185559Y-97571313D01*
X179345190Y-97515456D01*
X179488390Y-97425477D01*
X179523867Y-97390000D01*
X201664353Y-97390000D01*
X201684835Y-97532459D01*
X201744622Y-97663372D01*
X201744624Y-97663375D01*
X201758634Y-97679543D01*
X201838872Y-97772143D01*
X201959947Y-97849953D01*
X202098039Y-97890500D01*
X202194157Y-97890500D01*
X202242495Y-97908093D01*
X202247331Y-97912526D01*
X207666707Y-103331902D01*
X207738481Y-103373342D01*
X207738485Y-103373344D01*
X207738491Y-103373347D01*
X207755407Y-103377879D01*
X207755409Y-103377880D01*
X207755410Y-103377880D01*
X207818556Y-103394800D01*
X211421951Y-103394800D01*
X211470289Y-103412393D01*
X211493913Y-103448171D01*
X211504767Y-103483954D01*
X211504768Y-103483955D01*
X211602312Y-103666445D01*
X211602315Y-103666450D01*
X211733590Y-103826410D01*
X211893550Y-103957685D01*
X212076046Y-104055232D01*
X212076050Y-104055233D01*
X212076052Y-104055234D01*
X212149778Y-104077598D01*
X212274066Y-104115300D01*
X212480000Y-104135583D01*
X212685934Y-104115300D01*
X212883954Y-104055232D01*
X213066450Y-103957685D01*
X213226410Y-103826410D01*
X213357685Y-103666450D01*
X213455232Y-103483954D01*
X213515300Y-103285934D01*
X213535583Y-103080000D01*
X213515300Y-102874066D01*
X213468994Y-102721413D01*
X213455234Y-102676052D01*
X213455229Y-102676040D01*
X213357687Y-102493554D01*
X213357684Y-102493549D01*
X213226410Y-102333590D01*
X213066450Y-102202315D01*
X213066445Y-102202312D01*
X212883959Y-102104770D01*
X212883947Y-102104765D01*
X212685932Y-102044699D01*
X212480000Y-102024417D01*
X212274067Y-102044699D01*
X212076052Y-102104765D01*
X212076040Y-102104770D01*
X211893554Y-102202312D01*
X211893549Y-102202315D01*
X211733590Y-102333590D01*
X211602315Y-102493549D01*
X211602312Y-102493554D01*
X211504768Y-102676044D01*
X211504767Y-102676045D01*
X211493913Y-102711829D01*
X211463045Y-102752979D01*
X211421951Y-102765200D01*
X208021542Y-102765200D01*
X207973204Y-102747607D01*
X207968368Y-102743174D01*
X205765194Y-100540000D01*
X211424417Y-100540000D01*
X211444699Y-100745932D01*
X211504765Y-100943947D01*
X211504770Y-100943959D01*
X211577389Y-101079818D01*
X211602315Y-101126450D01*
X211733590Y-101286410D01*
X211893550Y-101417685D01*
X212076046Y-101515232D01*
X212076050Y-101515233D01*
X212076052Y-101515234D01*
X212149778Y-101537598D01*
X212274066Y-101575300D01*
X212480000Y-101595583D01*
X212685934Y-101575300D01*
X212883954Y-101515232D01*
X213066450Y-101417685D01*
X213226410Y-101286410D01*
X213357685Y-101126450D01*
X213455232Y-100943954D01*
X213515300Y-100745934D01*
X213535583Y-100540000D01*
X213515300Y-100334066D01*
X213455232Y-100136046D01*
X213357685Y-99953550D01*
X213226410Y-99793590D01*
X213066450Y-99662315D01*
X213066445Y-99662312D01*
X212883959Y-99564770D01*
X212883947Y-99564765D01*
X212685932Y-99504699D01*
X212480000Y-99484417D01*
X212274067Y-99504699D01*
X212076052Y-99564765D01*
X212076040Y-99564770D01*
X211893554Y-99662312D01*
X211893549Y-99662315D01*
X211733590Y-99793590D01*
X211602315Y-99953549D01*
X211602312Y-99953554D01*
X211504770Y-100136040D01*
X211504765Y-100136052D01*
X211444699Y-100334067D01*
X211424417Y-100540000D01*
X205765194Y-100540000D01*
X202694664Y-97469470D01*
X202672924Y-97422850D01*
X202673403Y-97405601D01*
X202675647Y-97390000D01*
X202655165Y-97247543D01*
X202601599Y-97130251D01*
X211429500Y-97130251D01*
X211429500Y-98869748D01*
X211441132Y-98928229D01*
X211441133Y-98928231D01*
X211485448Y-98994552D01*
X211551769Y-99038867D01*
X211581010Y-99044683D01*
X211610251Y-99050500D01*
X211610252Y-99050500D01*
X213349749Y-99050500D01*
X213369242Y-99046622D01*
X213408231Y-99038867D01*
X213474552Y-98994552D01*
X213518867Y-98928231D01*
X213530500Y-98869748D01*
X213530500Y-97130252D01*
X213518867Y-97071769D01*
X213474552Y-97005448D01*
X213408231Y-96961133D01*
X213408229Y-96961132D01*
X213349749Y-96949500D01*
X213349748Y-96949500D01*
X211610252Y-96949500D01*
X211610251Y-96949500D01*
X211551770Y-96961132D01*
X211551768Y-96961133D01*
X211485448Y-97005448D01*
X211441133Y-97071768D01*
X211441132Y-97071770D01*
X211429500Y-97130251D01*
X202601599Y-97130251D01*
X202595377Y-97116627D01*
X202595375Y-97116624D01*
X202501127Y-97007856D01*
X202501125Y-97007855D01*
X202428422Y-96961132D01*
X202380053Y-96930047D01*
X202380052Y-96930046D01*
X202241963Y-96889500D01*
X202241961Y-96889500D01*
X202098039Y-96889500D01*
X202098036Y-96889500D01*
X201959948Y-96930046D01*
X201838874Y-97007855D01*
X201838872Y-97007856D01*
X201744624Y-97116624D01*
X201744622Y-97116627D01*
X201684835Y-97247540D01*
X201664353Y-97390000D01*
X179523867Y-97390000D01*
X179607977Y-97305890D01*
X179697956Y-97162690D01*
X179753813Y-97003059D01*
X179772749Y-96835000D01*
X179753813Y-96666941D01*
X179697956Y-96507310D01*
X179607977Y-96364110D01*
X179607976Y-96364109D01*
X179607975Y-96364107D01*
X179488392Y-96244524D01*
X179456195Y-96224293D01*
X179345190Y-96154544D01*
X179335253Y-96151067D01*
X179185564Y-96098688D01*
X179185556Y-96098686D01*
X179017501Y-96079751D01*
X179017499Y-96079751D01*
X178849443Y-96098686D01*
X178849435Y-96098688D01*
X178689812Y-96154543D01*
X178546607Y-96244524D01*
X178427024Y-96364107D01*
X178351057Y-96485009D01*
X178310443Y-96516577D01*
X178287383Y-96520200D01*
X173903556Y-96520200D01*
X173834461Y-96538714D01*
X173834460Y-96538713D01*
X173823497Y-96541651D01*
X173823485Y-96541656D01*
X173751709Y-96583096D01*
X173751703Y-96583100D01*
X171466104Y-98868699D01*
X171419484Y-98890439D01*
X171369797Y-98877125D01*
X171340292Y-98834988D01*
X171337731Y-98815121D01*
X171354366Y-95758840D01*
X171352759Y-95732051D01*
X171350724Y-95715888D01*
X171345639Y-95689533D01*
X171325782Y-95613654D01*
X171305584Y-95564044D01*
X171289608Y-95535969D01*
X171276532Y-95518698D01*
X171257278Y-95493267D01*
X171208163Y-95443492D01*
X171165890Y-95410590D01*
X171138035Y-95394245D01*
X171138030Y-95394242D01*
X171088696Y-95373384D01*
X171067838Y-95367627D01*
X171037150Y-95359157D01*
X171037150Y-95359156D01*
X171037142Y-95359154D01*
X171013118Y-95352524D01*
X171013088Y-95352516D01*
X171013082Y-95352515D01*
X171013076Y-95352513D01*
X171013073Y-95352513D01*
X170986785Y-95347077D01*
X170970693Y-95344833D01*
X170970664Y-95344830D01*
X170970662Y-95344830D01*
X170970656Y-95344829D01*
X170970650Y-95344829D01*
X170943904Y-95342866D01*
X169849505Y-95334226D01*
X167558561Y-95316139D01*
X167558560Y-95316139D01*
X167558557Y-95316139D01*
X167538366Y-95316973D01*
X167530227Y-95317712D01*
X167526144Y-95318083D01*
X167526138Y-95318083D01*
X167526125Y-95318085D01*
X167526102Y-95318087D01*
X167506150Y-95320895D01*
X167506126Y-95320899D01*
X167506123Y-95320900D01*
X167485264Y-95324888D01*
X167447565Y-95332098D01*
X167408864Y-95343536D01*
X167408839Y-95343545D01*
X167386229Y-95352727D01*
X167386207Y-95352737D01*
X167350473Y-95371532D01*
X167350468Y-95371534D01*
X167305951Y-95400866D01*
X167305943Y-95400872D01*
X167274580Y-95426289D01*
X167274570Y-95426297D01*
X167257195Y-95443469D01*
X167257194Y-95443470D01*
X167257176Y-95443492D01*
X167231396Y-95474542D01*
X167201541Y-95518698D01*
X167182312Y-95554228D01*
X167172847Y-95576762D01*
X167160949Y-95615329D01*
X167160945Y-95615346D01*
X167149060Y-95673731D01*
X167146007Y-95693705D01*
X167144749Y-95705936D01*
X167143674Y-95726113D01*
X167143674Y-95726134D01*
X167131848Y-98687687D01*
X167130065Y-99134179D01*
X167130062Y-99134999D01*
X167100988Y-106415300D01*
X167100948Y-106425192D01*
X167100948Y-106425251D01*
X167100944Y-106426088D01*
X167095325Y-107832792D01*
X145916500Y-107832792D01*
X145916500Y-78335700D01*
X145934093Y-78287362D01*
X145978642Y-78261642D01*
X145991700Y-78260500D01*
X215314300Y-78260500D01*
X215362638Y-78278093D01*
G37*
%TD.AperFunction*%
%TA.AperFunction,Conductor*%
G36*
X170046965Y-66149026D02*
G01*
X170074622Y-66152143D01*
X170079999Y-66152749D01*
X170080000Y-66152749D01*
X170080001Y-66152749D01*
X170085651Y-66152112D01*
X170101965Y-66150274D01*
X215389500Y-67176905D01*
X215389500Y-76684300D01*
X215371907Y-76732638D01*
X215327358Y-76758358D01*
X215314300Y-76759500D01*
X145991700Y-76759500D01*
X145943362Y-76741907D01*
X145917642Y-76697358D01*
X145916500Y-76684300D01*
X145916500Y-65602009D01*
X170046965Y-66149026D01*
G37*
%TD.AperFunction*%
%TD*%
%TA.AperFunction,Conductor*%
%TO.N,/WDT-VIN*%
G36*
X169847883Y-95539720D02*
G01*
X170942278Y-95548360D01*
X170958412Y-95550610D01*
X170981519Y-95556987D01*
X171034023Y-95571478D01*
X171061883Y-95587827D01*
X171111001Y-95637605D01*
X171126977Y-95665680D01*
X171146834Y-95741559D01*
X171148869Y-95757722D01*
X171130249Y-99179005D01*
X171111944Y-99222859D01*
X170643611Y-99691194D01*
X170599417Y-99709500D01*
X170498037Y-99709500D01*
X170359950Y-99750045D01*
X170238871Y-99827857D01*
X170144623Y-99936625D01*
X170144623Y-99936627D01*
X170084834Y-100067544D01*
X170064353Y-100210000D01*
X170084834Y-100352455D01*
X170084835Y-100352457D01*
X170141920Y-100477455D01*
X170144623Y-100483372D01*
X170144623Y-100483374D01*
X170238871Y-100592142D01*
X170238872Y-100592143D01*
X170359947Y-100669953D01*
X170359949Y-100669953D01*
X170359950Y-100669954D01*
X170498036Y-100710499D01*
X170498038Y-100710500D01*
X170498039Y-100710500D01*
X170641962Y-100710500D01*
X170641962Y-100710499D01*
X170748642Y-100679176D01*
X170796203Y-100684289D01*
X170826218Y-100721536D01*
X170828114Y-100730249D01*
X170846834Y-100860455D01*
X170906623Y-100991372D01*
X170906623Y-100991374D01*
X170998891Y-101097857D01*
X171000872Y-101100143D01*
X171090484Y-101157733D01*
X171117766Y-101197024D01*
X171119193Y-101210650D01*
X171112181Y-102499071D01*
X171110000Y-102900000D01*
X171308043Y-102903000D01*
X171308045Y-102903001D01*
X172224889Y-102916892D01*
X172240871Y-102919223D01*
X172315785Y-102940313D01*
X172343375Y-102956616D01*
X172392074Y-103006058D01*
X172407958Y-103033892D01*
X172427911Y-103109117D01*
X172430000Y-103125141D01*
X172430000Y-105777156D01*
X172629984Y-105777170D01*
X172629985Y-105777171D01*
X174658170Y-105777321D01*
X174702362Y-105795630D01*
X174715016Y-105813855D01*
X174716621Y-105817371D01*
X174716623Y-105817374D01*
X174742161Y-105846846D01*
X174810872Y-105926143D01*
X174931947Y-106003953D01*
X175067849Y-106043857D01*
X175070036Y-106044499D01*
X175070038Y-106044500D01*
X175070039Y-106044500D01*
X175213962Y-106044500D01*
X175213962Y-106044499D01*
X175352053Y-106003953D01*
X175473128Y-105926143D01*
X175567377Y-105817373D01*
X175568948Y-105813931D01*
X175603955Y-105781334D01*
X175625800Y-105777392D01*
X176392882Y-105777449D01*
X176436230Y-105777453D01*
X176480423Y-105795762D01*
X176493075Y-105813985D01*
X176494621Y-105817371D01*
X176494625Y-105817376D01*
X176520161Y-105846846D01*
X176588872Y-105926143D01*
X176709947Y-106003953D01*
X176845849Y-106043857D01*
X176848036Y-106044499D01*
X176848038Y-106044500D01*
X176848039Y-106044500D01*
X176991962Y-106044500D01*
X176991962Y-106044499D01*
X177130053Y-106003953D01*
X177251128Y-105926143D01*
X177345377Y-105817373D01*
X177346886Y-105814067D01*
X177381889Y-105781468D01*
X177403741Y-105777524D01*
X177840908Y-105777557D01*
X183223016Y-105777956D01*
X183235194Y-105779156D01*
X183293493Y-105790753D01*
X183316014Y-105800082D01*
X183360217Y-105829613D01*
X183377456Y-105846846D01*
X183406999Y-105891040D01*
X183416334Y-105913559D01*
X183427947Y-105971845D01*
X183429152Y-105984035D01*
X183429921Y-108041096D01*
X183428704Y-108053391D01*
X183416934Y-108112166D01*
X183407456Y-108134859D01*
X183377464Y-108179296D01*
X183359966Y-108196573D01*
X183315155Y-108226000D01*
X183292345Y-108235191D01*
X183233422Y-108246218D01*
X183221111Y-108247280D01*
X167506363Y-108042686D01*
X167490307Y-108040371D01*
X167415089Y-108019286D01*
X167387390Y-108002922D01*
X167338558Y-107953251D01*
X167322669Y-107925279D01*
X167302866Y-107849714D01*
X167300824Y-107833625D01*
X167306446Y-106426000D01*
X168912353Y-106426000D01*
X168932834Y-106568455D01*
X168992623Y-106699372D01*
X168992623Y-106699374D01*
X169086871Y-106808142D01*
X169086872Y-106808143D01*
X169207947Y-106885953D01*
X169207949Y-106885953D01*
X169207950Y-106885954D01*
X169346036Y-106926499D01*
X169346038Y-106926500D01*
X169346039Y-106926500D01*
X169489962Y-106926500D01*
X169489962Y-106926499D01*
X169628053Y-106885953D01*
X169749128Y-106808143D01*
X169843377Y-106699373D01*
X169903165Y-106568457D01*
X169923647Y-106426000D01*
X169903165Y-106283543D01*
X169843377Y-106152627D01*
X169843376Y-106152625D01*
X169749128Y-106043857D01*
X169628053Y-105966047D01*
X169628051Y-105966046D01*
X169628049Y-105966045D01*
X169489963Y-105925500D01*
X169489961Y-105925500D01*
X169346039Y-105925500D01*
X169346037Y-105925500D01*
X169207950Y-105966045D01*
X169086871Y-106043857D01*
X168992623Y-106152625D01*
X168992623Y-106152627D01*
X168932834Y-106283544D01*
X168912353Y-106426000D01*
X167306446Y-106426000D01*
X167335563Y-99135000D01*
X167649751Y-99135000D01*
X167668686Y-99303055D01*
X167668687Y-99303059D01*
X167724545Y-99462692D01*
X167724547Y-99462696D01*
X167814521Y-99605888D01*
X167934111Y-99725478D01*
X168077303Y-99815452D01*
X168077306Y-99815453D01*
X168077310Y-99815456D01*
X168236941Y-99871313D01*
X168405000Y-99890249D01*
X168573059Y-99871313D01*
X168732690Y-99815456D01*
X168875890Y-99725477D01*
X168995477Y-99605890D01*
X169085456Y-99462690D01*
X169141313Y-99303059D01*
X169160249Y-99135000D01*
X169141313Y-98966941D01*
X169085456Y-98807310D01*
X169010293Y-98687690D01*
X168995478Y-98664111D01*
X168875888Y-98544521D01*
X168732696Y-98454547D01*
X168732692Y-98454545D01*
X168732691Y-98454544D01*
X168732690Y-98454544D01*
X168573059Y-98398687D01*
X168573055Y-98398686D01*
X168405000Y-98379751D01*
X168236944Y-98398686D01*
X168236940Y-98398687D01*
X168077307Y-98454545D01*
X168077303Y-98454547D01*
X167934111Y-98544521D01*
X167814521Y-98664111D01*
X167724547Y-98807303D01*
X167724545Y-98807307D01*
X167668687Y-98966940D01*
X167668686Y-98966944D01*
X167649751Y-99135000D01*
X167335563Y-99135000D01*
X167349173Y-95726945D01*
X167350429Y-95714732D01*
X167362317Y-95656334D01*
X167371780Y-95633804D01*
X167401640Y-95589640D01*
X167419022Y-95572463D01*
X167463535Y-95543133D01*
X167486176Y-95533938D01*
X167544722Y-95522742D01*
X167556939Y-95521633D01*
X169847883Y-95539720D01*
G37*
%TD.AperFunction*%
%TD*%
%TA.AperFunction,Conductor*%
%TO.N,GND*%
G36*
X215362638Y-78278093D02*
G01*
X215388358Y-78322642D01*
X215389500Y-78335700D01*
X215389500Y-87402955D01*
X145916500Y-87414796D01*
X145916500Y-78335700D01*
X145934093Y-78287362D01*
X145978642Y-78261642D01*
X145991700Y-78260500D01*
X215314300Y-78260500D01*
X215362638Y-78278093D01*
G37*
%TD.AperFunction*%
%TA.AperFunction,Conductor*%
G36*
X169470791Y-57634046D02*
G01*
X169531432Y-57651851D01*
X169550895Y-57660739D01*
X169604076Y-57694916D01*
X169620249Y-57708931D01*
X169661640Y-57756699D01*
X169673212Y-57774705D01*
X169699469Y-57832200D01*
X169705500Y-57852737D01*
X169714495Y-57915297D01*
X169714495Y-57936701D01*
X169705500Y-57999263D01*
X169699469Y-58019800D01*
X169673213Y-58077293D01*
X169661641Y-58095300D01*
X169620251Y-58143065D01*
X169604076Y-58157081D01*
X169550900Y-58191256D01*
X169531430Y-58200148D01*
X169501109Y-58209051D01*
X169470786Y-58217954D01*
X169449602Y-58221000D01*
X169386397Y-58221000D01*
X169365211Y-58217954D01*
X169304569Y-58200148D01*
X169285098Y-58191256D01*
X169231923Y-58157082D01*
X169215748Y-58143066D01*
X169174359Y-58095301D01*
X169162787Y-58077295D01*
X169150586Y-58050580D01*
X169136527Y-58019796D01*
X169130497Y-57999259D01*
X169124493Y-57957500D01*
X169121503Y-57936700D01*
X169121503Y-57915306D01*
X169130500Y-57852730D01*
X169136530Y-57832198D01*
X169162788Y-57774700D01*
X169174357Y-57756699D01*
X169215751Y-57708928D01*
X169231920Y-57694917D01*
X169285101Y-57660739D01*
X169304569Y-57651849D01*
X169327076Y-57645241D01*
X169365209Y-57634046D01*
X169386393Y-57631000D01*
X169449606Y-57631000D01*
X169470791Y-57634046D01*
G37*
%TD.AperFunction*%
%TA.AperFunction,Conductor*%
G36*
X215362638Y-29778093D02*
G01*
X215388358Y-29822642D01*
X215389500Y-29835700D01*
X215389500Y-76684300D01*
X215371907Y-76732638D01*
X215327358Y-76758358D01*
X215314300Y-76759500D01*
X145991700Y-76759500D01*
X145943362Y-76741907D01*
X145917642Y-76697358D01*
X145916500Y-76684300D01*
X145916500Y-65397499D01*
X169324751Y-65397499D01*
X169324751Y-65397500D01*
X169343686Y-65565556D01*
X169343688Y-65565564D01*
X169396067Y-65715253D01*
X169399544Y-65725190D01*
X169469293Y-65836195D01*
X169489524Y-65868392D01*
X169609107Y-65987975D01*
X169609109Y-65987976D01*
X169609110Y-65987977D01*
X169752310Y-66077956D01*
X169911941Y-66133813D01*
X170023980Y-66146437D01*
X170079999Y-66152749D01*
X170080000Y-66152749D01*
X170080001Y-66152749D01*
X170122014Y-66148015D01*
X170248059Y-66133813D01*
X170407690Y-66077956D01*
X170550890Y-65987977D01*
X170670477Y-65868390D01*
X170760456Y-65725190D01*
X170816313Y-65565559D01*
X170835249Y-65397500D01*
X170816313Y-65229441D01*
X170760456Y-65069810D01*
X170670477Y-64926610D01*
X170670476Y-64926609D01*
X170670475Y-64926607D01*
X170550892Y-64807024D01*
X170518695Y-64786793D01*
X170407690Y-64717044D01*
X170397753Y-64713567D01*
X170248064Y-64661188D01*
X170248056Y-64661186D01*
X170080001Y-64642251D01*
X170079999Y-64642251D01*
X169911943Y-64661186D01*
X169911935Y-64661188D01*
X169752312Y-64717043D01*
X169609107Y-64807024D01*
X169489524Y-64926607D01*
X169399543Y-65069812D01*
X169343688Y-65229435D01*
X169343686Y-65229443D01*
X169324751Y-65397499D01*
X145916500Y-65397499D01*
X145916500Y-60779999D01*
X170024751Y-60779999D01*
X170024751Y-60780000D01*
X170043686Y-60948056D01*
X170043688Y-60948064D01*
X170096067Y-61097753D01*
X170099544Y-61107690D01*
X170169293Y-61218695D01*
X170189524Y-61250892D01*
X170309107Y-61370475D01*
X170309109Y-61370476D01*
X170309110Y-61370477D01*
X170452310Y-61460456D01*
X170611941Y-61516313D01*
X170723980Y-61528937D01*
X170779999Y-61535249D01*
X170780000Y-61535249D01*
X170780001Y-61535249D01*
X170822014Y-61530515D01*
X170948059Y-61516313D01*
X171107690Y-61460456D01*
X171250890Y-61370477D01*
X171370477Y-61250890D01*
X171460456Y-61107690D01*
X171516313Y-60948059D01*
X171535249Y-60780000D01*
X171516313Y-60611941D01*
X171460456Y-60452310D01*
X171370477Y-60309110D01*
X171370476Y-60309109D01*
X171370475Y-60309107D01*
X171250892Y-60189524D01*
X171218695Y-60169293D01*
X171107690Y-60099544D01*
X171097753Y-60096067D01*
X170948064Y-60043688D01*
X170948056Y-60043686D01*
X170780001Y-60024751D01*
X170779999Y-60024751D01*
X170611943Y-60043686D01*
X170611935Y-60043688D01*
X170452312Y-60099543D01*
X170309107Y-60189524D01*
X170189524Y-60309107D01*
X170099543Y-60452312D01*
X170043688Y-60611935D01*
X170043686Y-60611943D01*
X170024751Y-60779999D01*
X145916500Y-60779999D01*
X145916500Y-59332792D01*
X167095325Y-59332792D01*
X167096959Y-59359498D01*
X167096959Y-59359502D01*
X167099000Y-59375581D01*
X167099003Y-59375600D01*
X167104073Y-59401783D01*
X167104077Y-59401801D01*
X167104079Y-59401809D01*
X167123882Y-59477374D01*
X167143984Y-59526778D01*
X167159873Y-59554750D01*
X167192015Y-59597319D01*
X167224144Y-59630000D01*
X167240848Y-59646991D01*
X167258278Y-59660623D01*
X167282863Y-59679852D01*
X167310562Y-59696216D01*
X167340160Y-59708851D01*
X167359619Y-59717158D01*
X167359620Y-59717158D01*
X167359622Y-59717159D01*
X167434840Y-59738244D01*
X167460981Y-59743768D01*
X167461003Y-59743771D01*
X167461013Y-59743773D01*
X167477014Y-59746080D01*
X167477025Y-59746081D01*
X167477037Y-59746083D01*
X167503688Y-59748169D01*
X183218436Y-59952763D01*
X183238773Y-59952020D01*
X183251084Y-59950958D01*
X183271224Y-59948211D01*
X183330147Y-59937184D01*
X183369148Y-59925799D01*
X183384831Y-59919479D01*
X183391944Y-59916614D01*
X183391948Y-59916611D01*
X183391958Y-59916608D01*
X183427957Y-59897773D01*
X183472768Y-59868346D01*
X183504350Y-59842804D01*
X183521848Y-59825527D01*
X183547798Y-59794260D01*
X183577790Y-59749823D01*
X183597081Y-59714058D01*
X183603151Y-59699523D01*
X183638012Y-59661700D01*
X183689031Y-59655134D01*
X183732335Y-59682899D01*
X183746977Y-59717802D01*
X183754835Y-59772459D01*
X183814622Y-59903372D01*
X183814624Y-59903375D01*
X183857418Y-59952762D01*
X183908872Y-60012143D01*
X184029947Y-60089953D01*
X184168039Y-60130500D01*
X184168042Y-60130500D01*
X184311958Y-60130500D01*
X184311961Y-60130500D01*
X184450053Y-60089953D01*
X184571128Y-60012143D01*
X184665377Y-59903373D01*
X184725165Y-59772457D01*
X184745647Y-59630000D01*
X184725165Y-59487543D01*
X184717768Y-59471347D01*
X184665377Y-59356627D01*
X184665375Y-59356624D01*
X184571127Y-59247856D01*
X184571125Y-59247855D01*
X184450051Y-59170046D01*
X184450052Y-59170046D01*
X184311963Y-59129500D01*
X184311961Y-59129500D01*
X184168039Y-59129500D01*
X184168036Y-59129500D01*
X184029948Y-59170046D01*
X183908874Y-59247855D01*
X183908872Y-59247856D01*
X183814624Y-59356624D01*
X183814622Y-59356627D01*
X183778973Y-59434687D01*
X183742889Y-59471347D01*
X183691682Y-59476237D01*
X183649312Y-59447067D01*
X183635369Y-59403476D01*
X183635032Y-58500000D01*
X184944353Y-58500000D01*
X184964835Y-58642459D01*
X185024622Y-58773372D01*
X185024624Y-58773375D01*
X185118872Y-58882143D01*
X185239947Y-58959953D01*
X185378039Y-59000500D01*
X185378042Y-59000500D01*
X185521958Y-59000500D01*
X185521961Y-59000500D01*
X185660053Y-58959953D01*
X185781128Y-58882143D01*
X185875377Y-58773373D01*
X185935165Y-58642457D01*
X185955647Y-58500000D01*
X185935165Y-58357543D01*
X185875377Y-58226627D01*
X185875375Y-58226624D01*
X185781127Y-58117856D01*
X185781125Y-58117855D01*
X185746030Y-58095301D01*
X185660053Y-58040047D01*
X185660052Y-58040046D01*
X185521963Y-57999500D01*
X185521961Y-57999500D01*
X185378039Y-57999500D01*
X185378036Y-57999500D01*
X185239948Y-58040046D01*
X185118874Y-58117855D01*
X185118872Y-58117856D01*
X185024624Y-58226624D01*
X185024622Y-58226627D01*
X184964835Y-58357540D01*
X184944353Y-58500000D01*
X183635032Y-58500000D01*
X183634652Y-57483958D01*
X183633655Y-57463820D01*
X183632450Y-57451630D01*
X183629486Y-57431690D01*
X183617873Y-57373404D01*
X183606500Y-57335954D01*
X183606172Y-57334873D01*
X183596834Y-57312347D01*
X183596828Y-57312333D01*
X183577849Y-57276845D01*
X183577844Y-57276838D01*
X183577842Y-57276834D01*
X183548299Y-57232640D01*
X183531576Y-57212271D01*
X183522749Y-57201519D01*
X183522745Y-57201515D01*
X183522741Y-57201510D01*
X183505502Y-57184277D01*
X183498368Y-57178424D01*
X183480403Y-57163684D01*
X183474375Y-57158738D01*
X183430172Y-57129207D01*
X183430169Y-57129205D01*
X183430161Y-57129200D01*
X183394665Y-57110229D01*
X183394647Y-57110220D01*
X183372140Y-57100897D01*
X183333590Y-57089203D01*
X183333581Y-57089200D01*
X183275300Y-57077607D01*
X183275273Y-57077602D01*
X183255362Y-57074648D01*
X183255354Y-57074647D01*
X183255346Y-57074646D01*
X183249154Y-57074035D01*
X183243162Y-57073445D01*
X183243142Y-57073444D01*
X183223062Y-57072456D01*
X183223022Y-57072455D01*
X177840924Y-57072057D01*
X177403762Y-57072024D01*
X177403761Y-57072024D01*
X177403757Y-57072024D01*
X177383470Y-57073839D01*
X177367237Y-57075292D01*
X177367229Y-57075293D01*
X177345396Y-57079234D01*
X177320951Y-57085210D01*
X177320949Y-57085211D01*
X177241839Y-57131081D01*
X177241826Y-57131090D01*
X177205822Y-57164620D01*
X177122251Y-57261065D01*
X177106076Y-57275081D01*
X177052900Y-57309256D01*
X177033430Y-57318148D01*
X177003109Y-57327051D01*
X176972786Y-57335954D01*
X176951602Y-57339000D01*
X176888398Y-57339000D01*
X176867211Y-57335954D01*
X176863502Y-57334865D01*
X176846024Y-57329732D01*
X176806565Y-57318146D01*
X176787096Y-57309254D01*
X176733926Y-57275084D01*
X176717749Y-57261067D01*
X176664770Y-57199926D01*
X176664766Y-57199922D01*
X176663847Y-57198862D01*
X176658894Y-57192487D01*
X176649243Y-57178586D01*
X176649234Y-57178574D01*
X176649227Y-57178564D01*
X176633662Y-57158839D01*
X176559078Y-57105910D01*
X176518752Y-57089203D01*
X176514888Y-57087602D01*
X176514884Y-57087600D01*
X176436247Y-57071952D01*
X176392909Y-57071949D01*
X176392901Y-57071949D01*
X176392898Y-57071949D01*
X176392897Y-57071949D01*
X175625820Y-57071892D01*
X175625819Y-57071892D01*
X175625818Y-57071892D01*
X175625815Y-57071892D01*
X175589306Y-57075158D01*
X175567461Y-57079100D01*
X175567453Y-57079101D01*
X175567447Y-57079103D01*
X175543035Y-57085070D01*
X175463915Y-57130937D01*
X175428158Y-57164232D01*
X175344251Y-57261065D01*
X175328076Y-57275081D01*
X175274900Y-57309256D01*
X175255430Y-57318148D01*
X175225109Y-57327051D01*
X175194786Y-57335954D01*
X175173602Y-57339000D01*
X175110398Y-57339000D01*
X175089211Y-57335954D01*
X175085502Y-57334865D01*
X175068024Y-57329732D01*
X175028565Y-57318146D01*
X175009097Y-57309255D01*
X174955922Y-57275081D01*
X174939751Y-57261069D01*
X174897468Y-57212272D01*
X174897467Y-57212271D01*
X174896588Y-57211256D01*
X174888142Y-57201510D01*
X174885983Y-57199018D01*
X174881045Y-57192661D01*
X174871169Y-57178436D01*
X174871160Y-57178424D01*
X174855603Y-57158709D01*
X174781020Y-57105780D01*
X174781013Y-57105776D01*
X174736829Y-57087471D01*
X174736825Y-57087469D01*
X174658183Y-57071820D01*
X174658184Y-57071820D01*
X172710694Y-57071676D01*
X172662358Y-57054079D01*
X172636641Y-57009529D01*
X172635500Y-56996476D01*
X172635500Y-56994999D01*
X211485061Y-56994999D01*
X211485061Y-56995000D01*
X211995856Y-56995000D01*
X211980000Y-57054174D01*
X211980000Y-57185826D01*
X211995856Y-57245000D01*
X211485061Y-57245000D01*
X211492103Y-57316501D01*
X211492103Y-57316503D01*
X211549419Y-57505451D01*
X211549424Y-57505463D01*
X211642499Y-57679593D01*
X211642503Y-57679599D01*
X211767766Y-57832233D01*
X211920400Y-57957496D01*
X211920406Y-57957500D01*
X212094536Y-58050575D01*
X212094548Y-58050580D01*
X212283497Y-58107896D01*
X212355000Y-58114938D01*
X212355000Y-57604144D01*
X212414174Y-57620000D01*
X212545826Y-57620000D01*
X212605000Y-57604144D01*
X212605000Y-58114937D01*
X212676502Y-58107896D01*
X212865451Y-58050580D01*
X212865463Y-58050575D01*
X213039593Y-57957500D01*
X213039599Y-57957496D01*
X213192233Y-57832233D01*
X213317496Y-57679599D01*
X213317500Y-57679593D01*
X213410575Y-57505463D01*
X213410580Y-57505451D01*
X213467896Y-57316503D01*
X213467896Y-57316501D01*
X213474938Y-57245000D01*
X212964144Y-57245000D01*
X212980000Y-57185826D01*
X212980000Y-57054174D01*
X212964144Y-56995000D01*
X213474939Y-56995000D01*
X213474938Y-56994999D01*
X213467896Y-56923498D01*
X213467896Y-56923496D01*
X213410580Y-56734548D01*
X213410575Y-56734536D01*
X213317500Y-56560406D01*
X213317496Y-56560400D01*
X213192233Y-56407766D01*
X213039599Y-56282503D01*
X213039593Y-56282499D01*
X212865463Y-56189424D01*
X212865451Y-56189419D01*
X212676502Y-56132103D01*
X212605000Y-56125061D01*
X212605000Y-56635855D01*
X212545826Y-56620000D01*
X212414174Y-56620000D01*
X212355000Y-56635855D01*
X212355000Y-56125061D01*
X212354999Y-56125061D01*
X212283498Y-56132103D01*
X212283496Y-56132103D01*
X212094548Y-56189419D01*
X212094536Y-56189424D01*
X211920406Y-56282499D01*
X211920400Y-56282503D01*
X211767766Y-56407766D01*
X211642503Y-56560400D01*
X211642499Y-56560406D01*
X211549424Y-56734536D01*
X211549419Y-56734548D01*
X211492103Y-56923496D01*
X211492103Y-56923498D01*
X211485061Y-56994999D01*
X172635500Y-56994999D01*
X172635500Y-55959999D01*
X176249751Y-55959999D01*
X176249751Y-55960000D01*
X176268686Y-56128056D01*
X176268688Y-56128064D01*
X176290159Y-56189424D01*
X176324544Y-56287690D01*
X176394293Y-56398695D01*
X176414524Y-56430892D01*
X176534107Y-56550475D01*
X176534109Y-56550476D01*
X176534110Y-56550477D01*
X176677310Y-56640456D01*
X176836941Y-56696313D01*
X176948980Y-56708937D01*
X177004999Y-56715249D01*
X177005000Y-56715249D01*
X177005001Y-56715249D01*
X177047014Y-56710515D01*
X177173059Y-56696313D01*
X177332690Y-56640456D01*
X177475890Y-56550477D01*
X177595477Y-56430890D01*
X177685456Y-56287690D01*
X177741313Y-56128059D01*
X177760249Y-55960000D01*
X177741313Y-55791941D01*
X177685456Y-55632310D01*
X177595477Y-55489110D01*
X177595476Y-55489109D01*
X177595475Y-55489107D01*
X177475892Y-55369524D01*
X177407276Y-55326410D01*
X177332690Y-55279544D01*
X177322753Y-55276067D01*
X177173064Y-55223688D01*
X177173056Y-55223686D01*
X177005001Y-55204751D01*
X177004999Y-55204751D01*
X176836943Y-55223686D01*
X176836935Y-55223688D01*
X176677312Y-55279543D01*
X176534107Y-55369524D01*
X176414524Y-55489107D01*
X176324543Y-55632312D01*
X176268688Y-55791935D01*
X176268686Y-55791943D01*
X176249751Y-55959999D01*
X172635500Y-55959999D01*
X172635500Y-54625139D01*
X172635289Y-54621901D01*
X172633776Y-54598575D01*
X172631687Y-54582551D01*
X172626542Y-54556431D01*
X172606589Y-54481206D01*
X172586440Y-54432038D01*
X172570556Y-54404204D01*
X172570555Y-54404202D01*
X172547730Y-54374066D01*
X172538480Y-54361852D01*
X172538476Y-54361848D01*
X172538472Y-54361843D01*
X172489785Y-54312413D01*
X172489775Y-54312404D01*
X172447917Y-54279694D01*
X172447915Y-54279692D01*
X172420332Y-54263394D01*
X172420324Y-54263390D01*
X172371485Y-54242506D01*
X172371468Y-54242500D01*
X172296564Y-54221413D01*
X172296530Y-54221405D01*
X172270548Y-54215878D01*
X172270515Y-54215872D01*
X172254564Y-54213545D01*
X172254543Y-54213543D01*
X172228021Y-54211416D01*
X172227986Y-54211415D01*
X171391069Y-54198735D01*
X171343003Y-54180412D01*
X171317961Y-54135479D01*
X171317009Y-54123135D01*
X171317678Y-54000189D01*
X171324690Y-52711775D01*
X171323575Y-52689248D01*
X171322149Y-52675631D01*
X171322148Y-52675620D01*
X171320702Y-52664664D01*
X171286564Y-52579818D01*
X171259282Y-52540527D01*
X171201586Y-52484855D01*
X171145919Y-52449079D01*
X171129751Y-52435069D01*
X171088356Y-52387298D01*
X171076787Y-52369295D01*
X171050528Y-52311797D01*
X171044497Y-52291258D01*
X171037981Y-52245934D01*
X171031522Y-52201005D01*
X171028915Y-52186554D01*
X171027019Y-52177841D01*
X171026330Y-52174789D01*
X170986230Y-52092592D01*
X170984468Y-52090405D01*
X170984035Y-52089137D01*
X170983964Y-52089026D01*
X170983990Y-52089008D01*
X170967837Y-52041728D01*
X170986190Y-51993975D01*
X170995377Y-51983373D01*
X171055165Y-51852457D01*
X171075647Y-51710000D01*
X171073404Y-51694406D01*
X171083936Y-51644060D01*
X171094660Y-51630533D01*
X172865195Y-49859999D01*
X175849751Y-49859999D01*
X175849751Y-49860000D01*
X175868686Y-50028056D01*
X175868688Y-50028064D01*
X175921067Y-50177753D01*
X175924544Y-50187690D01*
X175994293Y-50298695D01*
X176014524Y-50330892D01*
X176134107Y-50450475D01*
X176134109Y-50450476D01*
X176134110Y-50450477D01*
X176277310Y-50540456D01*
X176436941Y-50596313D01*
X176548980Y-50608937D01*
X176604999Y-50615249D01*
X176605000Y-50615249D01*
X176605001Y-50615249D01*
X176647014Y-50610515D01*
X176773059Y-50596313D01*
X176932690Y-50540456D01*
X177075890Y-50450477D01*
X177195477Y-50330890D01*
X177285456Y-50187690D01*
X177341313Y-50028059D01*
X177360249Y-49860000D01*
X177341313Y-49691941D01*
X177285456Y-49532310D01*
X177195477Y-49389110D01*
X177195476Y-49389109D01*
X177195475Y-49389107D01*
X177075892Y-49269524D01*
X177043695Y-49249293D01*
X176932690Y-49179544D01*
X176922753Y-49176067D01*
X176773064Y-49123688D01*
X176773056Y-49123686D01*
X176605001Y-49104751D01*
X176604999Y-49104751D01*
X176436943Y-49123686D01*
X176436935Y-49123688D01*
X176277312Y-49179543D01*
X176134107Y-49269524D01*
X176014524Y-49389107D01*
X175924543Y-49532312D01*
X175868688Y-49691935D01*
X175868686Y-49691943D01*
X175849751Y-49859999D01*
X172865195Y-49859999D01*
X174053369Y-48671826D01*
X174099989Y-48650086D01*
X174106543Y-48649800D01*
X178287383Y-48649800D01*
X178335721Y-48667393D01*
X178351057Y-48684991D01*
X178427024Y-48805892D01*
X178546607Y-48925475D01*
X178546609Y-48925476D01*
X178546610Y-48925477D01*
X178689810Y-49015456D01*
X178849441Y-49071313D01*
X178961480Y-49083937D01*
X179017499Y-49090249D01*
X179017500Y-49090249D01*
X179017501Y-49090249D01*
X179059514Y-49085515D01*
X179185559Y-49071313D01*
X179345190Y-49015456D01*
X179488390Y-48925477D01*
X179523867Y-48890000D01*
X201664353Y-48890000D01*
X201684835Y-49032459D01*
X201744622Y-49163372D01*
X201744624Y-49163375D01*
X201758634Y-49179543D01*
X201838872Y-49272143D01*
X201959947Y-49349953D01*
X202098039Y-49390500D01*
X202194157Y-49390500D01*
X202242495Y-49408093D01*
X202247331Y-49412526D01*
X207666707Y-54831902D01*
X207738481Y-54873342D01*
X207738485Y-54873344D01*
X207738491Y-54873347D01*
X207755407Y-54877879D01*
X207755409Y-54877880D01*
X207755410Y-54877880D01*
X207818556Y-54894800D01*
X211421951Y-54894800D01*
X211470289Y-54912393D01*
X211493913Y-54948171D01*
X211504767Y-54983954D01*
X211504768Y-54983955D01*
X211602312Y-55166445D01*
X211602315Y-55166450D01*
X211733590Y-55326410D01*
X211893550Y-55457685D01*
X212076046Y-55555232D01*
X212076050Y-55555233D01*
X212076052Y-55555234D01*
X212149778Y-55577598D01*
X212274066Y-55615300D01*
X212480000Y-55635583D01*
X212685934Y-55615300D01*
X212883954Y-55555232D01*
X213066450Y-55457685D01*
X213226410Y-55326410D01*
X213357685Y-55166450D01*
X213455232Y-54983954D01*
X213515300Y-54785934D01*
X213535583Y-54580000D01*
X213515300Y-54374066D01*
X213468994Y-54221413D01*
X213455234Y-54176052D01*
X213455229Y-54176040D01*
X213357687Y-53993554D01*
X213357684Y-53993549D01*
X213226410Y-53833590D01*
X213066450Y-53702315D01*
X213066445Y-53702312D01*
X212883959Y-53604770D01*
X212883947Y-53604765D01*
X212685932Y-53544699D01*
X212480000Y-53524417D01*
X212274067Y-53544699D01*
X212076052Y-53604765D01*
X212076040Y-53604770D01*
X211893554Y-53702312D01*
X211893549Y-53702315D01*
X211733590Y-53833590D01*
X211602315Y-53993549D01*
X211602312Y-53993554D01*
X211504768Y-54176044D01*
X211504767Y-54176045D01*
X211493913Y-54211829D01*
X211463045Y-54252979D01*
X211421951Y-54265200D01*
X208021542Y-54265200D01*
X207973204Y-54247607D01*
X207968368Y-54243174D01*
X205765194Y-52040000D01*
X211424417Y-52040000D01*
X211444699Y-52245932D01*
X211504765Y-52443947D01*
X211504770Y-52443959D01*
X211577389Y-52579818D01*
X211602315Y-52626450D01*
X211733590Y-52786410D01*
X211893550Y-52917685D01*
X212076046Y-53015232D01*
X212076050Y-53015233D01*
X212076052Y-53015234D01*
X212149778Y-53037598D01*
X212274066Y-53075300D01*
X212480000Y-53095583D01*
X212685934Y-53075300D01*
X212883954Y-53015232D01*
X213066450Y-52917685D01*
X213226410Y-52786410D01*
X213357685Y-52626450D01*
X213455232Y-52443954D01*
X213515300Y-52245934D01*
X213535583Y-52040000D01*
X213515300Y-51834066D01*
X213455232Y-51636046D01*
X213357685Y-51453550D01*
X213226410Y-51293590D01*
X213066450Y-51162315D01*
X213066445Y-51162312D01*
X212883959Y-51064770D01*
X212883947Y-51064765D01*
X212685932Y-51004699D01*
X212480000Y-50984417D01*
X212274067Y-51004699D01*
X212076052Y-51064765D01*
X212076040Y-51064770D01*
X211893554Y-51162312D01*
X211893549Y-51162315D01*
X211733590Y-51293590D01*
X211602315Y-51453549D01*
X211602312Y-51453554D01*
X211504770Y-51636040D01*
X211504765Y-51636052D01*
X211444699Y-51834067D01*
X211424417Y-52040000D01*
X205765194Y-52040000D01*
X202694664Y-48969470D01*
X202672924Y-48922850D01*
X202673403Y-48905601D01*
X202675647Y-48890000D01*
X202655165Y-48747543D01*
X202601599Y-48630251D01*
X211429500Y-48630251D01*
X211429500Y-50369748D01*
X211441132Y-50428229D01*
X211441133Y-50428231D01*
X211485448Y-50494552D01*
X211551769Y-50538867D01*
X211581010Y-50544683D01*
X211610251Y-50550500D01*
X211610252Y-50550500D01*
X213349749Y-50550500D01*
X213369242Y-50546622D01*
X213408231Y-50538867D01*
X213474552Y-50494552D01*
X213518867Y-50428231D01*
X213530500Y-50369748D01*
X213530500Y-48630252D01*
X213518867Y-48571769D01*
X213474552Y-48505448D01*
X213408231Y-48461133D01*
X213408229Y-48461132D01*
X213349749Y-48449500D01*
X213349748Y-48449500D01*
X211610252Y-48449500D01*
X211610251Y-48449500D01*
X211551770Y-48461132D01*
X211551768Y-48461133D01*
X211485448Y-48505448D01*
X211441133Y-48571768D01*
X211441132Y-48571770D01*
X211429500Y-48630251D01*
X202601599Y-48630251D01*
X202595377Y-48616627D01*
X202595375Y-48616624D01*
X202501127Y-48507856D01*
X202501125Y-48507855D01*
X202428422Y-48461132D01*
X202380053Y-48430047D01*
X202380052Y-48430046D01*
X202241963Y-48389500D01*
X202241961Y-48389500D01*
X202098039Y-48389500D01*
X202098036Y-48389500D01*
X201959948Y-48430046D01*
X201838874Y-48507855D01*
X201838872Y-48507856D01*
X201744624Y-48616624D01*
X201744622Y-48616627D01*
X201684835Y-48747540D01*
X201664353Y-48890000D01*
X179523867Y-48890000D01*
X179607977Y-48805890D01*
X179697956Y-48662690D01*
X179753813Y-48503059D01*
X179772749Y-48335000D01*
X179753813Y-48166941D01*
X179697956Y-48007310D01*
X179607977Y-47864110D01*
X179607976Y-47864109D01*
X179607975Y-47864107D01*
X179488392Y-47744524D01*
X179456195Y-47724293D01*
X179345190Y-47654544D01*
X179335253Y-47651067D01*
X179185564Y-47598688D01*
X179185556Y-47598686D01*
X179017501Y-47579751D01*
X179017499Y-47579751D01*
X178849443Y-47598686D01*
X178849435Y-47598688D01*
X178689812Y-47654543D01*
X178546607Y-47744524D01*
X178427024Y-47864107D01*
X178351057Y-47985009D01*
X178310443Y-48016577D01*
X178287383Y-48020200D01*
X173903556Y-48020200D01*
X173834461Y-48038714D01*
X173834460Y-48038713D01*
X173823497Y-48041651D01*
X173823485Y-48041656D01*
X173751709Y-48083096D01*
X173751703Y-48083100D01*
X171466104Y-50368699D01*
X171419484Y-50390439D01*
X171369797Y-50377125D01*
X171340292Y-50334988D01*
X171337731Y-50315121D01*
X171354366Y-47258840D01*
X171352759Y-47232051D01*
X171350724Y-47215888D01*
X171345639Y-47189533D01*
X171325782Y-47113654D01*
X171305584Y-47064044D01*
X171289608Y-47035969D01*
X171276532Y-47018698D01*
X171257278Y-46993267D01*
X171208163Y-46943492D01*
X171165890Y-46910590D01*
X171138035Y-46894245D01*
X171138030Y-46894242D01*
X171088696Y-46873384D01*
X171067838Y-46867627D01*
X171037150Y-46859157D01*
X171037150Y-46859156D01*
X171037142Y-46859154D01*
X171013118Y-46852524D01*
X171013088Y-46852516D01*
X171013082Y-46852515D01*
X171013076Y-46852513D01*
X171013073Y-46852513D01*
X170986785Y-46847077D01*
X170970693Y-46844833D01*
X170970664Y-46844830D01*
X170970662Y-46844830D01*
X170970656Y-46844829D01*
X170970650Y-46844829D01*
X170943904Y-46842866D01*
X169849505Y-46834226D01*
X167558561Y-46816139D01*
X167558560Y-46816139D01*
X167558557Y-46816139D01*
X167538366Y-46816973D01*
X167530227Y-46817712D01*
X167526144Y-46818083D01*
X167526138Y-46818083D01*
X167526125Y-46818085D01*
X167526102Y-46818087D01*
X167506150Y-46820895D01*
X167506126Y-46820899D01*
X167506123Y-46820900D01*
X167485264Y-46824888D01*
X167447565Y-46832098D01*
X167408864Y-46843536D01*
X167408839Y-46843545D01*
X167386229Y-46852727D01*
X167386207Y-46852737D01*
X167350473Y-46871532D01*
X167350468Y-46871534D01*
X167305951Y-46900866D01*
X167305943Y-46900872D01*
X167274580Y-46926289D01*
X167274570Y-46926297D01*
X167257195Y-46943469D01*
X167257194Y-46943470D01*
X167257176Y-46943492D01*
X167231396Y-46974542D01*
X167201541Y-47018698D01*
X167182312Y-47054228D01*
X167172847Y-47076762D01*
X167160949Y-47115329D01*
X167160945Y-47115346D01*
X167149060Y-47173731D01*
X167146007Y-47193705D01*
X167144749Y-47205936D01*
X167143674Y-47226113D01*
X167143674Y-47226134D01*
X167131848Y-50187687D01*
X167130065Y-50634179D01*
X167130062Y-50634999D01*
X167100988Y-57915300D01*
X167100948Y-57925192D01*
X167100948Y-57925251D01*
X167100944Y-57926088D01*
X167095325Y-59332792D01*
X145916500Y-59332792D01*
X145916500Y-29835700D01*
X145934093Y-29787362D01*
X145978642Y-29761642D01*
X145991700Y-29760500D01*
X215314300Y-29760500D01*
X215362638Y-29778093D01*
G37*
%TD.AperFunction*%
%TD*%
%TA.AperFunction,Conductor*%
%TO.N,/WDT-VIN*%
G36*
X169847883Y-47039720D02*
G01*
X170942278Y-47048360D01*
X170958412Y-47050610D01*
X170981519Y-47056987D01*
X171034023Y-47071478D01*
X171061883Y-47087827D01*
X171111001Y-47137605D01*
X171126977Y-47165680D01*
X171146834Y-47241559D01*
X171148869Y-47257722D01*
X171130249Y-50679005D01*
X171111944Y-50722859D01*
X170643611Y-51191194D01*
X170599417Y-51209500D01*
X170498037Y-51209500D01*
X170359950Y-51250045D01*
X170238871Y-51327857D01*
X170144623Y-51436625D01*
X170144623Y-51436627D01*
X170084834Y-51567544D01*
X170064353Y-51710000D01*
X170084834Y-51852455D01*
X170084835Y-51852457D01*
X170141920Y-51977455D01*
X170144623Y-51983372D01*
X170144623Y-51983374D01*
X170238871Y-52092142D01*
X170238872Y-52092143D01*
X170359947Y-52169953D01*
X170359949Y-52169953D01*
X170359950Y-52169954D01*
X170498036Y-52210499D01*
X170498038Y-52210500D01*
X170498039Y-52210500D01*
X170641962Y-52210500D01*
X170641962Y-52210499D01*
X170748642Y-52179176D01*
X170796203Y-52184289D01*
X170826218Y-52221536D01*
X170828114Y-52230249D01*
X170846834Y-52360455D01*
X170906623Y-52491372D01*
X170906623Y-52491374D01*
X170998891Y-52597857D01*
X171000872Y-52600143D01*
X171090484Y-52657733D01*
X171117766Y-52697024D01*
X171119193Y-52710650D01*
X171112181Y-53999071D01*
X171110000Y-54400000D01*
X171308043Y-54403000D01*
X171308045Y-54403001D01*
X172224889Y-54416892D01*
X172240871Y-54419223D01*
X172315785Y-54440313D01*
X172343375Y-54456616D01*
X172392074Y-54506058D01*
X172407958Y-54533892D01*
X172427911Y-54609117D01*
X172430000Y-54625141D01*
X172430000Y-57277156D01*
X172629984Y-57277170D01*
X172629985Y-57277171D01*
X174658170Y-57277321D01*
X174702362Y-57295630D01*
X174715016Y-57313855D01*
X174716621Y-57317371D01*
X174716623Y-57317374D01*
X174742161Y-57346846D01*
X174810872Y-57426143D01*
X174931947Y-57503953D01*
X175067849Y-57543857D01*
X175070036Y-57544499D01*
X175070038Y-57544500D01*
X175070039Y-57544500D01*
X175213962Y-57544500D01*
X175213962Y-57544499D01*
X175352053Y-57503953D01*
X175473128Y-57426143D01*
X175567377Y-57317373D01*
X175568948Y-57313931D01*
X175603955Y-57281334D01*
X175625800Y-57277392D01*
X176392882Y-57277449D01*
X176436230Y-57277453D01*
X176480423Y-57295762D01*
X176493075Y-57313985D01*
X176494621Y-57317371D01*
X176494625Y-57317376D01*
X176520161Y-57346846D01*
X176588872Y-57426143D01*
X176709947Y-57503953D01*
X176845849Y-57543857D01*
X176848036Y-57544499D01*
X176848038Y-57544500D01*
X176848039Y-57544500D01*
X176991962Y-57544500D01*
X176991962Y-57544499D01*
X177130053Y-57503953D01*
X177251128Y-57426143D01*
X177345377Y-57317373D01*
X177346886Y-57314067D01*
X177381889Y-57281468D01*
X177403741Y-57277524D01*
X177840908Y-57277557D01*
X183223016Y-57277956D01*
X183235194Y-57279156D01*
X183293493Y-57290753D01*
X183316014Y-57300082D01*
X183360217Y-57329613D01*
X183377456Y-57346846D01*
X183406999Y-57391040D01*
X183416334Y-57413559D01*
X183427947Y-57471845D01*
X183429152Y-57484035D01*
X183429921Y-59541096D01*
X183428704Y-59553391D01*
X183416934Y-59612166D01*
X183407456Y-59634859D01*
X183377464Y-59679296D01*
X183359966Y-59696573D01*
X183315155Y-59726000D01*
X183292345Y-59735191D01*
X183233422Y-59746218D01*
X183221111Y-59747280D01*
X167506363Y-59542686D01*
X167490307Y-59540371D01*
X167415089Y-59519286D01*
X167387390Y-59502922D01*
X167338558Y-59453251D01*
X167322669Y-59425279D01*
X167302866Y-59349714D01*
X167300824Y-59333625D01*
X167306446Y-57926000D01*
X168912353Y-57926000D01*
X168932834Y-58068455D01*
X168992623Y-58199372D01*
X168992623Y-58199374D01*
X169086871Y-58308142D01*
X169086872Y-58308143D01*
X169207947Y-58385953D01*
X169207949Y-58385953D01*
X169207950Y-58385954D01*
X169346036Y-58426499D01*
X169346038Y-58426500D01*
X169346039Y-58426500D01*
X169489962Y-58426500D01*
X169489962Y-58426499D01*
X169628053Y-58385953D01*
X169749128Y-58308143D01*
X169843377Y-58199373D01*
X169903165Y-58068457D01*
X169923647Y-57926000D01*
X169903165Y-57783543D01*
X169843377Y-57652627D01*
X169843376Y-57652625D01*
X169749128Y-57543857D01*
X169628053Y-57466047D01*
X169628051Y-57466046D01*
X169628049Y-57466045D01*
X169489963Y-57425500D01*
X169489961Y-57425500D01*
X169346039Y-57425500D01*
X169346037Y-57425500D01*
X169207950Y-57466045D01*
X169086871Y-57543857D01*
X168992623Y-57652625D01*
X168992623Y-57652627D01*
X168932834Y-57783544D01*
X168912353Y-57926000D01*
X167306446Y-57926000D01*
X167335563Y-50635000D01*
X167649751Y-50635000D01*
X167668686Y-50803055D01*
X167668687Y-50803059D01*
X167724545Y-50962692D01*
X167724547Y-50962696D01*
X167814521Y-51105888D01*
X167934111Y-51225478D01*
X168077303Y-51315452D01*
X168077306Y-51315453D01*
X168077310Y-51315456D01*
X168236941Y-51371313D01*
X168405000Y-51390249D01*
X168573059Y-51371313D01*
X168732690Y-51315456D01*
X168875890Y-51225477D01*
X168995477Y-51105890D01*
X169085456Y-50962690D01*
X169141313Y-50803059D01*
X169160249Y-50635000D01*
X169141313Y-50466941D01*
X169085456Y-50307310D01*
X169010293Y-50187690D01*
X168995478Y-50164111D01*
X168875888Y-50044521D01*
X168732696Y-49954547D01*
X168732692Y-49954545D01*
X168732691Y-49954544D01*
X168732690Y-49954544D01*
X168573059Y-49898687D01*
X168573055Y-49898686D01*
X168405000Y-49879751D01*
X168236944Y-49898686D01*
X168236940Y-49898687D01*
X168077307Y-49954545D01*
X168077303Y-49954547D01*
X167934111Y-50044521D01*
X167814521Y-50164111D01*
X167724547Y-50307303D01*
X167724545Y-50307307D01*
X167668687Y-50466940D01*
X167668686Y-50466944D01*
X167649751Y-50635000D01*
X167335563Y-50635000D01*
X167349173Y-47226945D01*
X167350429Y-47214732D01*
X167362317Y-47156334D01*
X167371780Y-47133804D01*
X167401640Y-47089640D01*
X167419022Y-47072463D01*
X167463535Y-47043133D01*
X167486176Y-47033938D01*
X167544722Y-47022742D01*
X167556939Y-47021633D01*
X169847883Y-47039720D01*
G37*
%TD.AperFunction*%
%TD*%
M02*
