  0
SECTION
  2
HEADER
  9
$ANGBASE
  50
0.0
  9
$ANGDIR
  70
1
  9
$MEASUREMENT
  70
1
  0
ENDSEC
  0
SECTION
  2
TABLES
  0
TABLE
  2
LTYPE
  70
4
  0
LTYPE
  5
40F
  2
CONTINUOUS
  70
0
  3
Solid line
  72
65
  73
0
  40
0.0
  0
LTYPE
  5
410
  2
DASHDOT
 70
0
  3
Dash Dot ____ _ ____ _
 72
65
 73
4
 40
2.0
 49
1.25
 49
-0.25
 49
0.25
 49
-0.25
  0
LTYPE
  5
411
  2
DASHED
 70
0
  3
Dashed __ __ __ __ __
 72
65
 73
2
 40
0.75
 49
0.5
 49
-0.25
  0
LTYPE
  5
43B
  2
DOTTED
 70
0
  3
Dotted .  .  .  .
 72
65
 73
2
 40
0.2
 49
0.0
 49
-0.2
  0
ENDTAB
  0
TABLE
  2
STYLE
  70
4
  0
STYLE
  2
KICAD
  70
0
  40
0
  41
1
  42
1
  50
0
  71
0
  3
isocp.shx
  0
STYLE
  2
KICADB
  70
0
  40
0
  41
1
  42
1
  50
0
  71
0
  3
isocp.shx
  0
STYLE
  2
KICADI
  70
0
  40
0
  41
1
  42
1
  50
15
  71
0
  3
isocp.shx
  0
STYLE
  2
KICADBI
  70
0
  40
0
  41
1
  42
1
  50
15
  71
0
  3
isocp.shx
  0
ENDTAB
  0
TABLE
  2
LAYER
  70
1
  0
LAYER
  2
BLACK
  70
0
  62
7
  6
CONTINUOUS
  0
ENDTAB
  0
ENDSEC
  0
SECTION
  2
ENTITIES
0
LINE
8
BLACK
6
CONTINUOUS
10
145.4159999999999968
20
-29.259999999999998
11
215.8899999999999864
21
-29.259999999999998
0
LINE
8
BLACK
6
CONTINUOUS
10
215.8899999999999864
20
-29.259999999999998
11
215.8899999999999864
21
-77.2599999999999909
0
LINE
8
BLACK
6
CONTINUOUS
10
215.8899999999999864
20
-77.2599999999999909
11
145.4159999999999968
21
-77.2599999999999909
0
LINE
8
BLACK
6
CONTINUOUS
10
145.4159999999999968
20
-77.2599999999999909
11
145.4159999999999968
21
-29.259999999999998
0
LINE
8
BLACK
6
CONTINUOUS
10
145.4159999999999968
20
-77.7599999999999909
11
215.8899999999999864
21
-77.7599999999999909
0
LINE
8
BLACK
6
CONTINUOUS
10
215.8899999999999864
20
-77.7599999999999909
11
215.8899999999999864
21
-125.7599999999999909
0
LINE
8
BLACK
6
CONTINUOUS
10
215.8899999999999864
20
-125.7599999999999909
11
145.4159999999999968
21
-125.7599999999999909
0
LINE
8
BLACK
6
CONTINUOUS
10
145.4159999999999968
20
-125.7599999999999909
11
145.4159999999999968
21
-77.7599999999999909
0
LINE
8
BLACK
6
CONTINUOUS
10
147.9987679999999841
20
-128.8998379999999884
11
147.9987679999999841
21
-126.8998379999999884
0
LINE
8
BLACK
6
CONTINUOUS
10
147.9987679999999841
20
-126.8998379999999884
11
148.4749579999999867
21
-126.8998379999999884
0
LINE
8
BLACK
6
CONTINUOUS
10
148.4749579999999867
20
-126.8998379999999884
11
148.760672999999997
21
-126.9950759999999974
0
LINE
8
BLACK
6
CONTINUOUS
10
148.760672999999997
20
-126.9950759999999974
11
148.9511489999999867
21
-127.1855520000000013
0
LINE
8
BLACK
6
CONTINUOUS
10
148.9511489999999867
20
-127.1855520000000013
11
149.0463869999999815
21
-127.3760279999999909
0
LINE
8
BLACK
6
CONTINUOUS
10
149.0463869999999815
20
-127.3760279999999909
11
149.1416250000000048
21
-127.7569799999999987
0
LINE
8
BLACK
6
CONTINUOUS
10
149.1416250000000048
20
-127.7569799999999987
11
149.1416250000000048
21
-128.0426949999999806
0
LINE
8
BLACK
6
CONTINUOUS
10
149.1416250000000048
20
-128.0426949999999806
11
149.0463869999999815
21
-128.4236469999999883
0
LINE
8
BLACK
6
CONTINUOUS
10
149.0463869999999815
20
-128.4236469999999883
11
148.9511489999999867
21
-128.6141230000000064
0
LINE
8
BLACK
6
CONTINUOUS
10
148.9511489999999867
20
-128.6141230000000064
11
148.760672999999997
21
-128.8045999999999935
0
LINE
8
BLACK
6
CONTINUOUS
10
148.760672999999997
20
-128.8045999999999935
11
148.4749579999999867
21
-128.8998379999999884
0
LINE
8
BLACK
6
CONTINUOUS
10
148.4749579999999867
20
-128.8998379999999884
11
147.9987679999999841
21
-128.8998379999999884
0
LINE
8
BLACK
6
CONTINUOUS
10
149.9987679999999841
20
-128.8998379999999884
11
149.9987679999999841
21
-127.5665039999999948
0
LINE
8
BLACK
6
CONTINUOUS
10
149.9987679999999841
20
-127.947457
11
150.0940060000000074
21
-127.7569799999999987
0
LINE
8
BLACK
6
CONTINUOUS
10
150.0940060000000074
20
-127.7569799999999987
11
150.1892440000000022
21
-127.6617419999999896
0
LINE
8
BLACK
6
CONTINUOUS
10
150.1892440000000022
20
-127.6617419999999896
11
150.3797199999999918
21
-127.5665039999999948
0
LINE
8
BLACK
6
CONTINUOUS
10
150.3797199999999918
20
-127.5665039999999948
11
150.5701970000000074
21
-127.5665039999999948
0
LINE
8
BLACK
6
CONTINUOUS
10
151.2368629999999996
20
-128.8998379999999884
11
151.2368629999999996
21
-127.5665039999999948
0
LINE
8
BLACK
6
CONTINUOUS
10
151.2368629999999996
20
-126.8998379999999884
11
151.1416250000000048
21
-126.9950759999999974
0
LINE
8
BLACK
6
CONTINUOUS
10
151.1416250000000048
20
-126.9950759999999974
11
151.2368629999999996
21
-127.0903139999999922
0
LINE
8
BLACK
6
CONTINUOUS
10
151.2368629999999996
20
-127.0903139999999922
11
151.3321009999999944
21
-126.9950759999999974
0
LINE
8
BLACK
6
CONTINUOUS
10
151.3321009999999944
20
-126.9950759999999974
11
151.2368629999999996
21
-126.8998379999999884
0
LINE
8
BLACK
6
CONTINUOUS
10
151.2368629999999996
20
-126.8998379999999884
11
151.2368629999999996
21
-127.0903139999999922
0
LINE
8
BLACK
6
CONTINUOUS
10
152.4749579999999867
20
-128.8998379999999884
11
152.284481999999997
21
-128.8045999999999935
0
LINE
8
BLACK
6
CONTINUOUS
10
152.284481999999997
20
-128.8045999999999935
11
152.1892440000000022
21
-128.6141230000000064
0
LINE
8
BLACK
6
CONTINUOUS
10
152.1892440000000022
20
-128.6141230000000064
11
152.1892440000000022
21
-126.8998379999999884
0
LINE
8
BLACK
6
CONTINUOUS
10
153.5225769999999841
20
-128.8998379999999884
11
153.3321009999999944
21
-128.8045999999999935
0
LINE
8
BLACK
6
CONTINUOUS
10
153.3321009999999944
20
-128.8045999999999935
11
153.2368629999999996
21
-128.6141230000000064
0
LINE
8
BLACK
6
CONTINUOUS
10
153.2368629999999996
20
-128.6141230000000064
11
153.2368629999999996
21
-126.8998379999999884
0
LINE
8
BLACK
6
CONTINUOUS
10
155.8082919999999945
20
-128.8998379999999884
11
155.8082919999999945
21
-126.8998379999999884
0
LINE
8
BLACK
6
CONTINUOUS
10
155.8082919999999945
20
-126.8998379999999884
11
156.4749589999999841
21
-128.3284089999999935
0
LINE
8
BLACK
6
CONTINUOUS
10
156.4749589999999841
20
-128.3284089999999935
11
157.1416250000000048
21
-126.8998379999999884
0
LINE
8
BLACK
6
CONTINUOUS
10
157.1416250000000048
20
-126.8998379999999884
11
157.1416250000000048
21
-128.8998379999999884
0
LINE
8
BLACK
6
CONTINUOUS
10
158.9511489999999867
20
-128.8998379999999884
11
158.9511489999999867
21
-127.852218999999991
0
LINE
8
BLACK
6
CONTINUOUS
10
158.9511489999999867
20
-127.852218999999991
11
158.8559109999999919
21
-127.6617419999999896
0
LINE
8
BLACK
6
CONTINUOUS
10
158.8559109999999919
20
-127.6617419999999896
11
158.6654350000000022
21
-127.5665039999999948
0
LINE
8
BLACK
6
CONTINUOUS
10
158.6654350000000022
20
-127.5665039999999948
11
158.284481999999997
21
-127.5665039999999948
0
LINE
8
BLACK
6
CONTINUOUS
10
158.284481999999997
20
-127.5665039999999948
11
158.0940059999999789
21
-127.6617419999999896
0
LINE
8
BLACK
6
CONTINUOUS
10
158.9511489999999867
20
-128.8045999999999935
11
158.760672999999997
21
-128.8998379999999884
0
LINE
8
BLACK
6
CONTINUOUS
10
158.760672999999997
20
-128.8998379999999884
11
158.284481999999997
21
-128.8998379999999884
0
LINE
8
BLACK
6
CONTINUOUS
10
158.284481999999997
20
-128.8998379999999884
11
158.0940059999999789
21
-128.8045999999999935
0
LINE
8
BLACK
6
CONTINUOUS
10
158.0940059999999789
20
-128.8045999999999935
11
157.9987679999999841
21
-128.6141230000000064
0
LINE
8
BLACK
6
CONTINUOUS
10
157.9987679999999841
20
-128.6141230000000064
11
157.9987679999999841
21
-128.4236469999999883
0
LINE
8
BLACK
6
CONTINUOUS
10
157.9987679999999841
20
-128.4236469999999883
11
158.0940059999999789
21
-128.2331709999999987
0
LINE
8
BLACK
6
CONTINUOUS
10
158.0940059999999789
20
-128.2331709999999987
11
158.284481999999997
21
-128.1379330000000039
0
LINE
8
BLACK
6
CONTINUOUS
10
158.284481999999997
20
-128.1379330000000039
11
158.760672999999997
21
-128.1379330000000039
0
LINE
8
BLACK
6
CONTINUOUS
10
158.760672999999997
20
-128.1379330000000039
11
158.9511489999999867
21
-128.0426949999999806
0
LINE
8
BLACK
6
CONTINUOUS
10
159.9035299999999893
20
-127.5665039999999948
11
159.9035299999999893
21
-129.5665039999999806
0
LINE
8
BLACK
6
CONTINUOUS
10
159.9035299999999893
20
-127.6617419999999896
11
160.0940059999999789
21
-127.5665039999999948
0
LINE
8
BLACK
6
CONTINUOUS
10
160.0940059999999789
20
-127.5665039999999948
11
160.4749589999999841
21
-127.5665039999999948
0
LINE
8
BLACK
6
CONTINUOUS
10
160.4749589999999841
20
-127.5665039999999948
11
160.6654350000000022
21
-127.6617419999999896
0
LINE
8
BLACK
6
CONTINUOUS
10
160.6654350000000022
20
-127.6617419999999896
11
160.760672999999997
21
-127.7569799999999987
0
LINE
8
BLACK
6
CONTINUOUS
10
160.760672999999997
20
-127.7569799999999987
11
160.8559109999999919
21
-127.947457
0
LINE
8
BLACK
6
CONTINUOUS
10
160.8559109999999919
20
-127.947457
11
160.8559109999999919
21
-128.5188849999999832
0
LINE
8
BLACK
6
CONTINUOUS
10
160.8559109999999919
20
-128.5188849999999832
11
160.760672999999997
21
-128.7093610000000012
0
LINE
8
BLACK
6
CONTINUOUS
10
160.760672999999997
20
-128.7093610000000012
11
160.6654350000000022
21
-128.8045999999999935
0
LINE
8
BLACK
6
CONTINUOUS
10
160.6654350000000022
20
-128.8045999999999935
11
160.4749589999999841
21
-128.8998379999999884
0
LINE
8
BLACK
6
CONTINUOUS
10
160.4749589999999841
20
-128.8998379999999884
11
160.0940059999999789
21
-128.8998379999999884
0
LINE
8
BLACK
6
CONTINUOUS
10
160.0940059999999789
20
-128.8998379999999884
11
159.9035299999999893
21
-128.8045999999999935
0
LINE
8
BLACK
6
CONTINUOUS
10
161.7130539999999996
20
-128.7093610000000012
11
161.8082919999999945
21
-128.8045999999999935
0
LINE
8
BLACK
6
CONTINUOUS
10
161.8082919999999945
20
-128.8045999999999935
11
161.7130539999999996
21
-128.8998379999999884
0
LINE
8
BLACK
6
CONTINUOUS
10
161.7130539999999996
20
-128.8998379999999884
11
161.6178160000000048
21
-128.8045999999999935
0
LINE
8
BLACK
6
CONTINUOUS
10
161.6178160000000048
20
-128.8045999999999935
11
161.7130539999999996
21
-128.7093610000000012
0
LINE
8
BLACK
6
CONTINUOUS
10
161.7130539999999996
20
-128.7093610000000012
11
161.7130539999999996
21
-128.8998379999999884
0
LINE
8
BLACK
6
CONTINUOUS
10
161.7130539999999996
20
-127.6617419999999896
11
161.8082919999999945
21
-127.7569799999999987
0
LINE
8
BLACK
6
CONTINUOUS
10
161.8082919999999945
20
-127.7569799999999987
11
161.7130539999999996
21
-127.852218999999991
0
LINE
8
BLACK
6
CONTINUOUS
10
161.7130539999999996
20
-127.852218999999991
11
161.6178160000000048
21
-127.7569799999999987
0
LINE
8
BLACK
6
CONTINUOUS
10
161.6178160000000048
20
-127.7569799999999987
11
161.7130539999999996
21
-127.6617419999999896
0
LINE
8
BLACK
6
CONTINUOUS
10
161.7130539999999996
20
-127.6617419999999896
11
161.7130539999999996
21
-127.852218999999991
  0
ENDSEC
  0
EOF
